 <svg version="1.0" xmlns="http://www.w3.org/2000/svg" width="700.000000pt" height="567.000000pt" viewBox="0 0 700.000000 567.000000" preserveAspectRatio="xMidYMid meet">
<metadata>
Created by potrace 1.12, written by Peter Selinger 2001-2015
</metadata>
<g transform="translate(0.000000,567.000000) scale(0.100000,-0.100000)" fill="#000000" stroke="none">
<path d="M3583 5638 c-5 -7 -139 -292 -297 -633 -354 -763 -349 -754 -390
-840 -125 -260 -163 -342 -246 -520 -52 -110 -96 -203 -99 -207 -14 -16 -277
46 -413 98 -94 36 -98 31 -98 -100 0 -124 5 -131 125 -169 165 -53 261 -70
495 -88 370 -28 700 32 1050 193 204 94 426 145 670 155 133 5 174 3 285 -16
135 -23 247 -52 302 -77 17 -8 38 -14 47 -14 9 0 44 -11 78 -25 86 -35 89 -30
86 109 l-3 111 -36 17 c-129 60 -378 121 -552 134 -69 6 -90 11 -93 23 -5 16
-27 63 -131 281 -33 69 -84 177 -114 240 -29 63 -82 176 -117 250 -35 74 -163
349 -285 610 -141 302 -228 476 -238 478 -9 1 -20 -3 -26 -10z m140 -285 c59
-126 248 -531 421 -901 173 -371 322 -682 331 -692 11 -12 38 -20 88 -24 228
-22 538 -104 575 -153 17 -23 16 -152 -1 -159 -7 -2 -67 13 -133 35 -244 82
-394 105 -624 98 -258 -8 -463 -54 -670 -149 -258 -119 -540 -191 -790 -204
-137 -7 -432 17 -565 46 -100 22 -243 67 -262 83 -16 12 -18 163 -3 172 6 3
43 -5 83 -19 98 -34 207 -61 300 -76 78 -13 79 -13 101 11 13 13 247 504 521
1092 274 587 503 1067 510 1067 6 0 59 -102 118 -227z"></path>
<path d="M3572 5118 c-6 -7 -84 -173 -175 -368 -91 -195 -213 -456 -272 -580
-204 -428 -326 -694 -332 -722 -3 -15 0 -34 6 -42 29 -35 186 -28 412 20 126
26 284 79 425 143 163 73 330 123 504 151 90 15 108 23 116 55 6 23 -81 218
-316 710 -32 66 -108 229 -170 362 -61 133 -119 251 -127 262 -16 23 -55 28
-71 9z m163 -278 c65 -140 128 -277 141 -305 66 -146 301 -648 326 -699 16
-32 27 -60 25 -62 -2 -3 -53 -13 -113 -23 -194 -34 -308 -68 -489 -149 -237
-105 -475 -167 -687 -179 -126 -6 -132 -4 -104 40 7 12 132 276 276 587 262
563 284 611 375 810 27 58 64 138 83 179 18 40 37 69 42 65 4 -5 60 -124 125
-264z"></path>
<path d="M4270 2353 c-240 -18 -530 -95 -835 -223 -293 -122 -625 -160 -915
-104 -125 24 -313 78 -402 116 -71 30 -78 21 -78 -112 0 -74 4 -111 13 -118
24 -20 283 -101 390 -121 59 -12 159 -24 222 -28 64 -3 119 -11 123 -17 5 -6
89 -184 186 -396 468 -1010 611 -1312 624 -1317 7 -3 19 1 26 8 10 11 395 832
549 1169 73 162 110 240 142 305 19 39 56 117 84 175 27 58 81 173 120 255
l71 150 53 -3 c112 -6 298 -50 436 -103 56 -21 78 -26 88 -18 9 8 13 43 13
124 0 132 1 131 -110 164 -78 24 -84 26 -268 60 -96 18 -405 44 -467 39 -11
-1 -40 -3 -65 -5z m279 -38 c68 -3 144 -10 170 -15 25 -5 87 -16 136 -25 101
-19 254 -62 273 -77 13 -11 18 -173 5 -181 -5 -3 -61 13 -126 34 -121 40 -310
79 -382 79 -30 0 -47 -6 -62 -22 -17 -20 -256 -526 -828 -1755 -65 -139 -123
-253 -129 -253 -7 0 -187 376 -401 836 -246 527 -397 839 -409 846 -11 6 -74
14 -140 19 -156 12 -290 39 -446 92 l-125 42 -3 79 c-2 44 1 83 5 87 5 5 71
-12 148 -37 312 -101 560 -124 816 -79 166 30 272 60 404 115 165 69 373 139
490 165 171 38 369 64 445 58 19 -1 91 -5 159 -8z"></path>
<path d="M4120 2120 c-205 -39 -415 -102 -555 -165 -116 -52 -312 -113 -435
-135 -79 -14 -110 -32 -110 -64 0 -30 12 -58 138 -321 55 -115 166 -354 247
-530 141 -305 174 -365 200 -365 30 0 29 -2 571 1158 96 205 174 383 174 396
0 12 -5 27 -12 34 -17 17 -105 13 -218 -8z m203 -17 c4 -3 1 -16 -6 -27 -8
-12 -60 -120 -117 -241 -56 -121 -110 -236 -120 -255 -30 -58 -80 -166 -279
-595 -104 -226 -193 -410 -196 -410 -7 0 -195 397 -285 600 -40 92 -135 296
-250 538 -12 26 -20 50 -18 52 3 3 31 10 64 15 144 26 328 82 468 145 180 80
501 164 681 179 22 1 43 3 46 4 3 1 9 -1 12 -5z"></path>
</g>
</svg>