<svg id="svg" version="1.1" xmlns="http://www.w3.org/2000/svg" xmlns:xlink="http://www.w3.org/1999/xlink" width="400" height="324.13793103448273" viewBox="0, 0, 400,324.13793103448273"><g id="svgg"><path id="path0" d="M205.863 63.089 C 206.774 65.580,208.482 68.175,208.183 66.613 C 208.098 66.167,207.899 65.802,207.742 65.802 C 207.584 65.802,207.455 65.583,207.455 65.316 C 207.455 65.049,207.310 64.830,207.131 64.830 C 206.953 64.830,206.807 64.556,206.807 64.221 C 206.807 63.886,206.565 63.412,206.268 63.168 C 205.959 62.912,205.786 62.879,205.863 63.089 M205.186 64.506 C 205.186 65.041,205.058 65.478,204.900 65.478 C 204.743 65.478,204.526 65.733,204.419 66.045 C 204.312 66.357,204.081 66.941,203.906 67.342 C 203.702 67.808,203.700 68.071,203.900 68.071 C 204.073 68.071,204.214 67.780,204.214 67.423 C 204.214 67.066,204.360 66.775,204.538 66.775 C 204.716 66.775,204.862 66.568,204.862 66.316 C 204.862 66.063,204.985 65.808,205.135 65.748 C 205.537 65.589,205.878 63.533,205.502 63.533 C 205.329 63.533,205.186 63.971,205.186 64.506 M202.229 70.640 C 202.033 71.203,201.733 71.544,201.539 71.424 C 201.327 71.293,201.293 71.369,201.450 71.623 C 201.598 71.862,201.517 72.152,201.257 72.317 C 200.888 72.550,200.895 72.600,201.299 72.604 C 201.567 72.607,201.993 72.135,202.245 71.556 C 202.497 70.976,202.840 70.411,203.007 70.300 C 203.186 70.180,203.160 70.004,202.944 69.870 C 202.719 69.731,202.442 70.030,202.229 70.640 M209.833 71.127 C 210.037 71.560,210.255 71.863,210.318 71.800 C 210.519 71.599,210.015 70.340,209.733 70.340 C 209.584 70.340,209.628 70.694,209.833 71.127 M210.697 72.285 C 210.697 72.464,210.879 72.612,211.102 72.614 C 211.372 72.618,211.345 72.724,211.021 72.934 C 210.606 73.202,210.617 73.248,211.102 73.253 C 211.732 73.258,211.755 73.209,211.473 72.474 C 211.256 71.908,210.697 71.772,210.697 72.285 M205.511 74.041 C 205.511 74.294,205.328 74.570,205.105 74.656 C 204.882 74.742,205.007 74.798,205.382 74.780 C 205.872 74.757,206.021 74.584,205.912 74.165 C 205.729 73.468,205.511 73.400,205.511 74.041 M199.757 74.889 C 198.968 75.206,198.777 75.510,199.433 75.404 C 199.970 75.318,201.226 74.571,200.810 74.585 C 200.632 74.591,200.158 74.727,199.757 74.889 M206.483 75.203 C 206.483 75.559,206.646 75.814,206.846 75.770 C 207.046 75.725,207.389 76.272,207.610 76.985 C 207.951 78.089,208.050 78.188,208.278 77.653 C 208.450 77.246,208.410 76.979,208.162 76.897 C 207.952 76.827,207.780 76.490,207.780 76.148 C 207.780 75.806,207.634 75.527,207.455 75.527 C 207.277 75.527,207.131 75.308,207.131 75.041 C 207.131 74.773,206.985 74.554,206.807 74.554 C 206.629 74.554,206.483 74.846,206.483 75.203 M204.628 75.932 C 203.991 76.756,203.930 77.039,204.390 77.039 C 204.650 77.039,204.862 76.763,204.862 76.426 C 204.862 76.045,205.004 75.900,205.236 76.044 C 205.468 76.187,205.523 76.133,205.379 75.901 C 205.088 75.430,205.014 75.433,204.628 75.932 M198.920 76.391 C 198.801 76.510,198.713 76.911,198.724 77.283 C 198.743 77.903,198.770 77.895,199.055 77.181 C 199.373 76.388,199.307 76.004,198.920 76.391 M212.992 76.712 C 212.977 76.918,213.249 77.647,213.595 78.332 C 213.941 79.018,214.482 80.162,214.798 80.875 C 215.114 81.588,215.562 82.366,215.793 82.603 C 216.024 82.840,216.138 83.156,216.046 83.305 C 215.954 83.453,215.990 83.624,216.124 83.684 C 216.259 83.744,216.615 84.303,216.916 84.927 C 217.373 85.875,217.466 85.942,217.483 85.332 C 217.495 84.931,217.382 84.603,217.232 84.603 C 217.082 84.603,216.767 84.019,216.532 83.306 C 216.296 82.593,215.991 82.010,215.853 82.010 C 215.716 82.010,215.511 81.682,215.398 81.280 C 215.151 80.402,213.865 77.699,213.586 77.472 C 213.477 77.382,213.304 77.091,213.202 76.823 C 213.100 76.556,213.006 76.506,212.992 76.712 M203.241 78.425 C 203.241 78.792,203.130 79.092,202.994 79.092 C 202.781 79.092,201.621 81.414,201.621 81.840 C 201.621 81.922,201.851 81.901,202.133 81.793 C 202.450 81.671,202.583 81.356,202.481 80.967 C 202.361 80.509,202.447 80.388,202.796 80.522 C 203.059 80.623,203.189 80.566,203.083 80.395 C 202.977 80.224,203.115 79.650,203.389 79.120 C 203.703 78.514,203.768 78.083,203.564 77.957 C 203.387 77.847,203.241 78.058,203.241 78.425 M208.465 78.648 C 208.445 79.027,208.647 79.519,208.914 79.741 C 209.312 80.071,209.400 80.049,209.400 79.618 C 209.400 79.329,209.265 79.092,209.100 79.092 C 208.935 79.092,208.733 78.837,208.651 78.525 C 208.534 78.075,208.495 78.100,208.465 78.648 M197.820 78.841 C 197.171 79.660,196.376 81.670,196.540 82.078 C 196.646 82.343,196.717 82.287,196.733 81.929 C 196.747 81.617,196.929 81.361,197.137 81.361 C 197.345 81.361,197.420 81.266,197.303 81.150 C 197.187 81.033,197.398 80.442,197.772 79.836 C 198.437 78.761,198.472 78.019,197.820 78.841 M209.762 81.137 C 209.740 81.663,209.860 81.964,210.045 81.850 C 210.222 81.740,210.286 81.858,210.188 82.113 C 210.091 82.367,210.216 82.653,210.466 82.749 C 210.799 82.877,210.880 82.715,210.771 82.142 C 210.689 81.713,210.503 81.361,210.359 81.361 C 210.214 81.361,210.029 81.106,209.948 80.794 C 209.859 80.453,209.785 80.589,209.762 81.137 M201.378 82.549 C 201.155 82.638,200.972 82.919,200.972 83.171 C 200.972 83.424,200.827 83.630,200.648 83.630 C 200.470 83.630,200.324 83.772,200.324 83.944 C 200.324 84.508,201.125 83.963,201.509 83.138 C 201.715 82.696,201.861 82.345,201.833 82.359 C 201.806 82.374,201.600 82.459,201.378 82.549 M195.138 83.452 C 195.138 83.699,195.049 84.134,194.940 84.418 C 194.798 84.786,194.882 84.880,195.232 84.746 C 195.899 84.490,196.148 83.390,195.588 83.175 C 195.337 83.079,195.138 83.202,195.138 83.452 M199.496 85.671 C 199.219 86.269,199.250 86.409,199.658 86.409 C 199.967 86.409,200.162 86.122,200.162 85.668 C 200.162 84.728,199.932 84.729,199.496 85.671 M194.426 85.471 C 194.107 85.555,193.952 85.811,194.056 86.082 C 194.154 86.338,194.073 86.548,193.876 86.548 C 193.678 86.548,193.517 86.694,193.517 86.872 C 193.517 87.492,194.007 87.186,194.555 86.222 C 194.859 85.688,195.078 85.268,195.042 85.289 C 195.005 85.309,194.729 85.392,194.426 85.471 M212.318 86.162 C 212.318 86.666,213.239 87.679,213.480 87.439 C 213.613 87.305,213.552 87.196,213.344 87.196 C 213.136 87.196,212.966 86.904,212.966 86.548 C 212.966 86.191,212.820 85.900,212.642 85.900 C 212.464 85.900,212.318 86.018,212.318 86.162 M217.859 87.115 C 218.098 87.427,218.334 87.743,218.385 87.817 C 218.435 87.892,218.476 87.636,218.476 87.250 C 218.476 86.818,218.274 86.548,217.951 86.548 C 217.500 86.548,217.487 86.630,217.859 87.115 M193.154 87.763 C 193.133 87.897,193.141 88.139,193.172 88.301 C 193.202 88.463,193.107 88.682,192.960 88.787 C 192.619 89.032,191.833 90.806,191.994 90.967 C 192.121 91.094,193.841 88.069,193.841 87.720 C 193.841 87.432,193.200 87.473,193.154 87.763 M198.149 88.817 C 198.056 89.173,197.851 89.465,197.693 89.465 C 197.272 89.465,197.344 90.685,197.781 90.955 C 198.023 91.104,198.067 91.043,197.905 90.781 C 197.652 90.371,198.267 88.855,198.865 88.417 C 199.062 88.272,199.019 88.177,198.754 88.174 C 198.515 88.171,198.242 88.460,198.149 88.817 M213.603 89.060 C 214.040 90.514,214.317 91.086,214.584 91.086 C 214.722 91.086,214.915 91.392,215.013 91.767 C 215.122 92.184,215.339 92.357,215.572 92.213 C 215.794 92.075,215.826 91.893,215.649 91.775 C 215.482 91.663,215.139 91.098,214.887 90.519 C 214.635 89.939,214.318 89.465,214.183 89.465 C 214.049 89.465,213.938 89.173,213.938 88.817 C 213.938 88.460,213.803 88.169,213.637 88.169 C 213.459 88.169,213.445 88.534,213.603 89.060 M218.803 89.060 C 218.804 89.194,219.095 89.741,219.449 90.276 C 220.212 91.428,220.304 91.129,219.603 89.773 C 219.124 88.848,218.798 88.558,218.803 89.060 M220.332 91.977 C 220.451 92.289,220.761 92.761,221.023 93.025 C 221.443 93.449,221.473 93.449,221.284 93.025 C 221.166 92.761,220.980 92.289,220.870 91.977 C 220.760 91.665,220.546 91.410,220.394 91.410 C 220.242 91.410,220.214 91.665,220.332 91.977 M190.695 93.027 C 190.602 93.382,190.397 93.592,190.239 93.494 C 190.081 93.397,189.951 93.471,189.951 93.660 C 189.951 93.849,190.170 94.003,190.438 94.003 C 190.705 94.003,190.924 93.724,190.924 93.382 C 190.924 93.040,191.106 92.687,191.329 92.597 C 191.634 92.474,191.626 92.427,191.299 92.408 C 191.059 92.394,190.787 92.673,190.695 93.027 M195.543 93.211 C 195.320 93.453,195.138 93.818,195.138 94.021 C 195.138 94.223,194.865 94.777,194.532 95.250 C 193.633 96.527,193.236 97.896,193.981 97.151 C 194.283 96.849,194.440 96.454,194.329 96.275 C 194.218 96.095,194.282 95.948,194.470 95.948 C 194.659 95.948,194.814 95.729,194.814 95.462 C 194.814 95.194,195.028 94.976,195.290 94.976 C 195.593 94.976,195.693 94.787,195.567 94.457 C 195.457 94.171,195.552 93.824,195.778 93.684 C 196.004 93.544,196.135 93.282,196.069 93.100 C 195.997 92.904,195.785 92.948,195.543 93.211 M216.126 94.218 C 216.349 94.308,216.535 94.552,216.539 94.760 C 216.543 94.968,216.831 95.502,217.180 95.948 C 217.529 96.394,217.817 96.998,217.821 97.290 C 217.829 97.901,219.098 99.548,219.114 98.970 C 219.120 98.760,218.906 98.369,218.639 98.101 C 218.371 97.834,218.152 97.313,218.152 96.944 C 218.152 96.574,218.006 96.272,217.828 96.272 C 217.650 96.272,217.504 96.053,217.504 95.786 C 217.504 95.519,217.358 95.300,217.180 95.300 C 217.002 95.300,216.856 95.008,216.856 94.652 C 216.856 94.240,216.648 94.013,216.288 94.029 C 215.950 94.044,215.884 94.120,216.126 94.218 M189.185 95.885 C 188.104 97.445,188.079 97.996,189.141 96.850 C 189.587 96.370,189.951 95.763,189.951 95.503 C 189.951 95.243,190.134 94.956,190.357 94.866 C 190.603 94.767,190.620 94.693,190.401 94.677 C 190.202 94.663,189.655 95.206,189.185 95.885 M221.978 94.929 C 222.210 95.077,222.370 95.330,222.333 95.492 C 222.296 95.654,222.424 96.151,222.619 96.596 C 222.859 97.144,222.980 97.230,222.994 96.861 C 223.028 95.970,222.414 94.651,221.969 94.657 C 221.641 94.660,221.643 94.717,221.978 94.929 M223.349 97.326 C 223.343 97.638,223.521 97.895,223.744 97.898 C 224.014 97.901,223.987 98.008,223.663 98.217 C 223.247 98.486,223.259 98.532,223.744 98.536 C 224.436 98.542,224.462 98.216,223.835 97.388 C 223.405 96.818,223.358 96.812,223.349 97.326 M192.971 98.460 C 192.860 98.772,192.716 99.127,192.651 99.248 C 192.587 99.370,192.705 99.575,192.914 99.704 C 193.151 99.850,193.206 99.798,193.062 99.564 C 192.935 99.358,192.968 99.190,193.136 99.190 C 193.304 99.190,193.518 98.898,193.611 98.541 C 193.819 97.745,193.251 97.673,192.971 98.460 M187.358 99.514 C 187.091 99.687,187.018 99.835,187.196 99.843 C 187.374 99.852,187.276 100.045,186.976 100.272 C 186.677 100.500,186.533 100.849,186.657 101.048 C 186.795 101.272,187.159 100.985,187.609 100.300 C 188.340 99.184,188.260 98.931,187.358 99.514 M192.042 100.276 C 191.511 100.857,191.234 101.783,191.590 101.783 C 191.767 101.783,192.059 101.398,192.238 100.927 C 192.607 99.956,192.539 99.732,192.042 100.276 M219.125 100.486 C 219.125 100.843,219.339 101.135,219.601 101.135 C 219.871 101.135,220.003 101.327,219.906 101.579 C 219.813 101.823,219.978 102.116,220.274 102.230 C 220.588 102.350,220.735 102.640,220.626 102.923 C 220.517 103.207,220.706 103.576,221.079 103.809 C 221.430 104.028,221.718 104.464,221.718 104.778 C 221.718 105.092,221.864 105.348,222.042 105.348 C 222.220 105.348,222.366 105.567,222.366 105.835 C 222.366 106.102,222.498 106.321,222.660 106.321 C 222.822 106.321,222.878 106.029,222.784 105.673 C 222.691 105.316,222.486 105.024,222.328 105.024 C 222.171 105.024,222.042 104.733,222.042 104.376 C 222.042 104.019,221.899 103.728,221.724 103.728 C 221.549 103.728,221.315 103.363,221.203 102.917 C 221.091 102.472,220.869 102.107,220.710 102.107 C 220.551 102.107,220.421 101.815,220.421 101.459 C 220.421 101.102,220.276 100.810,220.097 100.810 C 219.919 100.810,219.773 100.592,219.773 100.324 C 219.773 100.057,219.627 99.838,219.449 99.838 C 219.271 99.838,219.125 100.130,219.125 100.486 M224.880 100.349 C 224.777 100.452,225.227 101.585,225.880 102.866 C 226.532 104.147,227.314 105.776,227.617 106.487 C 228.033 107.464,228.172 107.602,228.184 107.050 C 228.193 106.649,228.071 106.321,227.912 106.321 C 227.753 106.321,227.526 105.920,227.408 105.429 C 227.095 104.134,226.460 102.755,226.177 102.755 C 226.042 102.755,225.932 102.474,225.932 102.130 C 225.932 101.786,225.720 101.293,225.461 101.034 C 225.202 100.775,225.081 100.473,225.191 100.363 C 225.301 100.252,225.319 100.162,225.230 100.162 C 225.140 100.162,224.983 100.246,224.880 100.349 M185.972 102.435 C 185.665 102.793,185.413 103.304,185.413 103.569 C 185.413 103.835,185.302 104.052,185.165 104.052 C 184.839 104.052,183.690 107.299,183.931 107.539 C 184.033 107.642,184.117 107.482,184.117 107.185 C 184.117 106.888,184.232 106.645,184.372 106.645 C 184.512 106.645,184.649 106.352,184.676 105.994 C 184.703 105.635,184.953 105.114,185.231 104.836 C 185.510 104.557,185.737 104.048,185.737 103.705 C 185.737 103.361,185.866 103.079,186.024 103.079 C 186.181 103.079,186.386 102.788,186.480 102.431 C 186.690 101.628,186.662 101.628,185.972 102.435 M189.864 104.678 C 188.835 106.583,188.822 106.645,189.465 106.645 C 189.733 106.645,189.927 106.536,189.898 106.402 C 189.800 105.951,190.373 104.216,190.689 104.008 C 190.862 103.895,190.946 103.631,190.876 103.421 C 190.806 103.211,190.350 103.777,189.864 104.678 M222.765 107.030 C 222.835 107.242,223.066 107.473,223.278 107.543 C 223.515 107.622,223.587 107.474,223.466 107.158 C 223.240 106.569,222.570 106.447,222.765 107.030 M182.428 109.228 C 182.337 109.853,182.419 110.096,182.687 109.993 C 183.256 109.774,183.470 108.660,182.980 108.472 C 182.716 108.371,182.513 108.648,182.428 109.228 M228.725 108.838 C 228.923 108.969,229.188 109.404,229.314 109.806 C 229.510 110.434,230.146 110.859,230.146 110.361 C 230.146 109.941,229.064 108.590,228.731 108.595 C 228.462 108.599,228.461 108.664,228.725 108.838 M186.902 110.373 C 186.610 110.818,186.467 111.183,186.584 111.183 C 186.702 111.183,187.136 110.818,187.549 110.373 C 188.029 109.855,188.143 109.562,187.866 109.562 C 187.628 109.562,187.194 109.927,186.902 110.373 M182.006 110.864 C 181.894 111.045,181.704 111.132,181.582 111.057 C 181.461 110.983,181.340 111.281,181.313 111.722 C 181.287 112.162,181.295 112.476,181.330 112.420 C 182.183 111.084,182.483 110.535,182.360 110.535 C 182.278 110.535,182.118 110.683,182.006 110.864 M230.399 111.548 C 230.297 111.815,230.486 112.389,230.821 112.824 C 231.155 113.259,231.431 113.836,231.435 114.106 C 231.439 114.377,231.807 115.135,232.253 115.791 C 232.699 116.447,233.063 117.210,233.063 117.487 C 233.063 117.764,233.209 117.990,233.387 117.990 C 233.566 117.990,233.712 118.291,233.712 118.658 C 233.712 119.027,233.859 119.234,234.041 119.122 C 234.369 118.919,234.292 118.707,232.912 116.045 C 231.787 113.876,231.189 112.637,230.888 111.853 C 230.661 111.261,230.539 111.185,230.399 111.548 M180.513 113.047 C 180.492 113.181,180.491 113.397,180.511 113.527 C 180.531 113.657,180.249 114.294,179.885 114.943 C 179.521 115.591,179.276 116.175,179.340 116.239 C 179.456 116.355,181.199 113.288,181.199 112.968 C 181.199 112.705,180.555 112.779,180.513 113.047 M185.405 113.636 C 185.231 114.094,184.930 114.787,184.736 115.176 C 184.502 115.645,184.659 115.556,185.200 114.911 C 186.092 113.849,186.500 112.804,186.023 112.804 C 185.857 112.804,185.579 113.178,185.405 113.636 M225.851 113.019 C 226.074 113.108,226.256 113.543,226.256 113.985 C 226.256 114.426,226.391 114.704,226.556 114.602 C 226.720 114.500,226.922 114.674,227.004 114.988 C 227.118 115.423,227.162 115.385,227.191 114.830 C 227.212 114.429,227.100 114.100,226.942 114.100 C 226.785 114.100,226.580 113.809,226.486 113.452 C 226.393 113.096,226.121 112.815,225.881 112.829 C 225.554 112.849,225.546 112.896,225.851 113.019 M227.560 115.964 C 227.556 116.365,227.673 116.694,227.820 116.694 C 227.966 116.694,228.222 117.230,228.387 117.885 C 228.552 118.540,228.863 119.133,229.079 119.204 C 229.373 119.300,229.364 119.104,229.046 118.418 C 228.813 117.915,228.385 116.994,228.095 116.370 C 227.664 115.443,227.566 115.369,227.560 115.964 M182.901 118.495 C 182.678 118.737,182.496 119.089,182.496 119.278 C 182.496 119.632,181.826 120.948,181.500 121.232 C 181.061 121.615,180.887 122.579,181.280 122.453 C 181.503 122.382,181.825 121.859,181.996 121.292 C 182.166 120.724,182.490 120.259,182.715 120.259 C 182.957 120.259,183.043 120.047,182.925 119.740 C 182.815 119.455,182.911 119.107,183.137 118.967 C 183.363 118.828,183.493 118.565,183.427 118.384 C 183.355 118.187,183.143 118.232,182.901 118.495 M177.170 120.032 C 177.056 120.740,177.042 121.396,177.137 121.491 C 177.232 121.586,177.310 121.348,177.310 120.962 C 177.310 120.575,177.464 120.259,177.653 120.259 C 177.842 120.259,177.902 120.107,177.787 119.921 C 177.672 119.735,177.734 119.395,177.925 119.165 C 178.180 118.858,178.153 118.747,177.823 118.747 C 177.552 118.747,177.294 119.253,177.170 120.032 M229.845 120.989 C 230.011 121.568,230.293 122.091,230.471 122.150 C 230.649 122.210,230.794 122.538,230.794 122.880 C 230.794 123.221,230.940 123.501,231.118 123.501 C 231.297 123.501,231.442 123.711,231.442 123.968 C 231.442 124.225,231.579 124.519,231.746 124.622 C 232.523 125.103,231.197 122.132,230.361 121.520 C 230.212 121.411,230.103 121.228,230.118 121.114 C 230.214 120.401,230.105 119.935,229.844 119.935 C 229.659 119.935,229.659 120.339,229.845 120.989 M234.924 120.665 C 234.760 121.148,235.276 122.156,236.062 122.887 C 236.374 123.177,236.629 123.653,236.629 123.944 C 236.629 124.235,236.768 124.473,236.938 124.473 C 237.109 124.473,237.344 124.984,237.461 125.608 C 237.578 126.232,237.803 126.742,237.962 126.742 C 238.120 126.742,238.250 126.899,238.250 127.090 C 238.250 127.782,239.201 128.363,240.333 128.363 C 240.970 128.363,241.491 128.242,241.491 128.095 C 241.491 127.948,241.059 127.890,240.531 127.968 C 239.462 128.125,238.794 127.631,238.412 126.403 C 238.276 125.966,237.892 125.221,237.559 124.747 C 237.226 124.274,236.953 123.650,236.953 123.360 C 236.953 123.069,236.734 122.748,236.467 122.646 C 236.199 122.543,235.981 122.251,235.981 121.997 C 235.981 121.743,235.771 121.455,235.515 121.357 C 235.259 121.259,235.128 120.971,235.225 120.719 C 235.322 120.466,235.325 120.259,235.232 120.259 C 235.139 120.259,235.000 120.442,234.924 120.665 M175.914 122.223 C 175.771 122.770,175.823 122.821,176.201 122.507 C 176.716 122.079,176.812 121.556,176.375 121.556 C 176.217 121.556,176.010 121.856,175.914 122.223 M180.227 123.922 C 180.227 124.225,180.236 124.557,180.248 124.660 C 180.260 124.763,179.978 125.099,179.622 125.408 C 179.265 125.717,178.871 126.399,178.745 126.924 C 178.620 127.448,178.406 128.023,178.271 128.201 C 177.942 128.636,176.337 131.534,176.337 131.694 C 176.337 131.764,176.548 131.821,176.805 131.821 C 177.063 131.821,177.254 131.736,177.230 131.632 C 177.133 131.215,177.701 129.335,177.923 129.335 C 178.054 129.335,178.371 128.799,178.627 128.144 C 179.141 126.827,179.443 126.276,180.356 124.986 C 180.820 124.331,180.880 124.024,180.599 123.743 C 180.319 123.463,180.227 123.507,180.227 123.922 M174.716 124.797 C 174.449 124.970,174.376 125.116,174.554 125.122 C 174.733 125.127,174.661 125.269,174.395 125.437 C 174.129 125.605,173.895 125.931,173.874 126.161 C 173.802 126.978,173.340 128.039,173.058 128.039 C 172.900 128.039,172.771 128.268,172.771 128.548 C 172.771 129.001,172.825 129.004,173.258 128.571 C 173.525 128.304,173.744 127.957,173.744 127.801 C 173.744 127.645,174.178 126.833,174.709 125.995 C 175.663 124.492,175.665 124.185,174.716 124.797 M232.741 125.909 C 232.737 126.489,233.520 128.363,233.766 128.363 C 234.035 128.363,233.831 127.703,233.164 126.418 C 232.932 125.972,232.742 125.743,232.741 125.909 M242.545 127.623 C 243.035 127.697,243.436 127.894,243.436 128.060 C 243.436 128.238,245.606 128.333,248.703 128.291 L 253.971 128.219 248.954 128.120 C 246.195 128.066,243.795 127.879,243.622 127.706 C 243.448 127.532,242.934 127.412,242.480 127.439 C 241.664 127.487,241.665 127.490,242.545 127.623 M231.001 128.849 C 231.077 129.048,230.496 129.130,229.503 129.061 C 228.271 128.976,227.835 129.069,227.690 129.446 C 227.585 129.719,227.292 129.863,227.039 129.766 C 226.438 129.536,224.959 129.911,224.959 130.294 C 224.959 130.645,227.252 130.350,227.699 129.942 C 227.868 129.787,228.677 129.660,229.498 129.660 C 230.318 129.660,231.127 129.524,231.297 129.357 C 231.466 129.191,232.188 129.005,232.901 128.944 C 234.170 128.835,234.163 128.830,232.537 128.679 C 231.502 128.583,230.923 128.647,231.001 128.849 M255.997 128.928 C 257.289 128.989,258.347 129.179,258.347 129.350 C 258.347 129.520,259.003 129.660,259.806 129.660 C 260.631 129.660,261.264 129.508,261.264 129.311 C 261.264 129.105,260.739 129.000,259.981 129.054 C 259.276 129.105,258.595 129.044,258.469 128.917 C 258.342 128.791,257.206 128.716,255.943 128.752 L 253.647 128.816 255.997 128.928 M172.330 129.822 C 172.433 130.089,172.385 130.308,172.223 130.308 C 172.061 130.308,171.745 130.818,171.519 131.442 C 171.293 132.066,170.972 132.577,170.806 132.577 C 170.639 132.577,170.502 132.806,170.502 133.086 C 170.502 133.539,170.556 133.542,170.989 133.110 C 171.256 132.842,171.475 132.467,171.475 132.276 C 171.475 132.085,171.645 131.929,171.853 131.929 C 172.061 131.929,172.136 131.833,172.019 131.717 C 171.903 131.600,172.109 131.017,172.478 130.420 C 173.039 129.513,173.066 129.335,172.646 129.335 C 172.333 129.335,172.214 129.518,172.330 129.822 M261.696 129.874 C 261.696 130.083,262.300 130.300,263.047 130.361 C 263.920 130.431,264.398 130.337,264.398 130.093 C 264.398 129.885,263.794 129.667,263.047 129.607 C 262.174 129.536,261.696 129.631,261.696 129.874 M266.456 130.713 C 266.452 131.098,266.702 131.280,267.234 131.280 C 267.665 131.280,268.082 131.463,268.162 131.686 C 268.242 131.908,268.403 132.002,268.521 131.894 C 268.975 131.477,268.347 130.705,267.693 130.876 C 267.315 130.975,266.910 130.856,266.747 130.598 C 266.518 130.237,266.459 130.260,266.456 130.713 M221.905 130.921 C 221.206 131.030,220.597 131.304,220.552 131.532 C 220.507 131.759,220.544 131.795,220.635 131.613 C 220.725 131.430,221.371 131.280,222.069 131.280 C 222.767 131.280,223.339 131.135,223.339 130.956 C 223.339 130.778,223.302 130.653,223.258 130.678 C 223.213 130.703,222.605 130.813,221.905 130.921 M218.445 131.538 C 218.368 131.769,217.989 131.981,217.603 132.010 C 217.217 132.039,216.966 132.168,217.045 132.297 C 217.125 132.425,216.932 132.596,216.617 132.675 C 216.303 132.754,216.543 132.770,217.152 132.710 C 218.402 132.586,218.942 132.190,218.729 131.552 C 218.613 131.204,218.557 131.202,218.445 131.538 M270.577 131.476 C 270.237 131.816,270.285 132.325,270.637 132.108 C 270.800 132.007,270.982 132.054,271.042 132.211 C 271.102 132.369,271.588 132.566,272.123 132.649 C 272.658 132.733,272.913 132.740,272.690 132.665 C 272.468 132.590,272.285 132.394,272.285 132.229 C 272.285 132.064,272.006 131.929,271.664 131.929 C 271.322 131.929,270.991 131.774,270.928 131.584 C 270.865 131.395,270.707 131.346,270.577 131.476 M238.400 132.161 C 239.464 132.231,240.497 132.425,240.697 132.590 C 240.933 132.786,241.059 132.740,241.059 132.457 C 241.059 132.136,240.466 132.025,238.763 132.028 C 236.511 132.032,236.504 132.034,238.400 132.161 M235.332 132.853 C 235.332 133.005,234.069 133.218,232.524 133.327 C 230.980 133.436,229.565 133.677,229.380 133.862 C 229.195 134.046,228.417 134.198,227.650 134.198 C 226.883 134.198,226.256 134.344,226.256 134.522 C 226.256 134.700,225.709 134.869,225.041 134.898 L 223.825 134.950 224.920 135.084 C 225.522 135.157,226.171 135.061,226.362 134.870 C 226.553 134.678,227.235 134.522,227.877 134.522 C 228.519 134.522,229.189 134.377,229.367 134.199 C 229.544 134.021,231.025 133.781,232.657 133.665 C 234.697 133.520,235.676 133.318,235.792 133.016 C 235.884 132.774,235.819 132.577,235.646 132.577 C 235.474 132.577,235.332 132.701,235.332 132.853 M214.587 133.160 C 214.141 133.232,213.695 133.421,213.596 133.581 C 213.497 133.740,213.039 133.902,212.579 133.940 C 211.985 133.989,211.795 134.149,211.927 134.492 C 212.053 134.819,212.154 134.850,212.242 134.587 C 212.313 134.373,212.724 134.198,213.155 134.198 C 213.586 134.198,213.938 134.061,213.938 133.894 C 213.938 133.727,214.412 133.545,214.992 133.489 C 215.571 133.433,215.900 133.307,215.721 133.209 C 215.543 133.110,215.032 133.089,214.587 133.160 M273.415 133.234 C 273.307 133.407,273.584 133.549,274.030 133.549 C 274.476 133.549,274.930 133.695,275.041 133.874 C 275.151 134.052,275.597 134.198,276.032 134.198 C 276.467 134.198,276.823 134.333,276.823 134.499 C 276.823 134.665,277.152 134.848,277.553 134.905 C 278.216 134.999,278.282 135.183,278.282 136.942 L 278.282 138.876 276.661 138.779 C 275.770 138.725,274.785 138.452,274.473 138.172 C 274.161 137.892,273.906 137.799,273.906 137.965 C 273.906 138.658,275.305 139.443,276.326 139.324 C 276.926 139.254,277.542 139.386,277.774 139.635 C 278.710 140.637,279.424 136.512,278.560 135.098 C 278.180 134.477,273.659 132.839,273.415 133.234 M255.754 133.571 C 257.982 133.738,260.059 134.021,260.368 134.199 C 260.678 134.376,261.342 134.522,261.843 134.522 C 262.345 134.522,262.894 134.649,263.063 134.804 C 263.464 135.171,265.802 135.525,265.802 135.219 C 265.802 135.090,265.328 134.948,264.749 134.905 C 264.169 134.861,263.647 134.684,263.587 134.512 C 263.528 134.339,262.847 134.198,262.075 134.198 C 261.302 134.198,260.621 134.058,260.562 133.888 C 260.502 133.718,258.485 133.508,256.078 133.422 L 251.702 133.266 255.754 133.571 M169.854 134.065 C 169.854 134.337,169.705 134.468,169.522 134.355 C 169.339 134.242,169.221 134.270,169.260 134.417 C 169.374 134.856,168.848 136.791,168.613 136.793 C 168.250 136.798,167.589 138.479,167.809 138.836 C 167.930 139.032,167.816 139.094,167.535 138.986 C 167.199 138.857,167.061 139.011,167.077 139.498 C 167.090 139.913,166.925 140.158,166.670 140.105 C 166.433 140.056,166.327 140.156,166.433 140.328 C 166.538 140.499,166.333 141.159,165.976 141.794 C 165.619 142.430,165.464 142.950,165.631 142.950 C 165.797 142.950,166.188 142.403,166.500 141.734 C 166.811 141.066,167.153 140.446,167.261 140.357 C 167.450 140.201,167.974 139.098,168.917 136.872 C 169.163 136.293,169.483 135.818,169.628 135.818 C 169.774 135.818,169.797 135.665,169.681 135.477 C 169.565 135.289,169.779 134.869,170.155 134.542 C 170.727 134.046,170.758 133.917,170.347 133.759 C 170.038 133.641,169.854 133.755,169.854 134.065 M175.041 134.067 C 175.041 134.351,174.739 135.008,174.370 135.525 C 173.847 136.261,173.803 136.467,174.173 136.467 C 174.433 136.467,174.739 136.096,174.853 135.643 C 174.967 135.190,175.180 134.894,175.327 134.985 C 175.475 135.076,175.526 134.790,175.442 134.350 C 175.269 133.447,175.041 133.285,175.041 134.067 M209.604 135.237 C 209.691 135.379,209.499 135.506,209.176 135.520 C 208.851 135.534,208.766 135.617,208.987 135.706 C 209.205 135.795,209.701 135.645,210.089 135.373 C 210.786 134.885,210.787 134.880,210.120 134.930 C 209.749 134.958,209.517 135.096,209.604 135.237 M206.409 136.394 C 206.197 136.649,205.689 136.986,205.281 137.141 C 204.872 137.296,204.540 137.609,204.543 137.836 C 204.547 138.146,204.619 138.138,204.831 137.803 C 204.987 137.557,205.276 137.456,205.474 137.579 C 205.673 137.701,205.835 137.664,205.835 137.496 C 205.835 137.196,206.496 136.900,208.104 136.481 C 208.879 136.278,208.868 136.262,207.854 136.099 C 207.156 135.987,206.664 136.087,206.409 136.394 M219.773 136.111 C 219.506 136.251,218.961 136.535,218.562 136.741 C 218.163 136.947,217.507 137.132,217.103 137.153 C 216.515 137.184,216.562 137.237,217.342 137.422 C 218.024 137.583,218.431 137.511,218.705 137.180 C 218.919 136.920,219.362 136.777,219.689 136.863 C 220.106 136.972,220.282 136.840,220.282 136.418 C 220.282 136.088,220.277 135.827,220.271 135.838 C 220.265 135.848,220.041 135.971,219.773 136.111 M269.393 136.224 C 269.375 136.644,269.621 136.791,270.340 136.791 C 270.875 136.791,271.313 136.920,271.313 137.077 C 271.313 137.235,271.605 137.440,271.961 137.533 C 272.318 137.626,272.608 137.607,272.607 137.490 C 272.603 137.191,270.972 136.467,270.303 136.467 C 269.997 136.467,269.673 136.284,269.583 136.062 C 269.485 135.820,269.409 135.885,269.393 136.224 M137.182 139.627 C 137.240 141.165,137.403 142.077,137.601 141.977 C 137.780 141.888,137.876 141.064,137.815 140.146 C 137.755 139.228,137.869 138.171,138.070 137.796 C 138.386 137.206,138.345 137.115,137.761 137.115 C 137.129 137.115,137.094 137.270,137.182 139.627 M139.583 137.997 C 139.162 138.418,139.417 138.736,140.175 138.736 C 140.611 138.736,141.057 138.882,141.167 139.060 C 141.277 139.238,141.805 139.384,142.340 139.384 C 142.898 139.384,143.228 139.521,143.114 139.705 C 143.001 139.888,143.131 139.943,143.419 139.832 C 143.696 139.726,143.922 139.800,143.922 139.998 C 143.922 140.195,144.068 140.357,144.246 140.357 C 144.425 140.357,144.571 140.244,144.571 140.106 C 144.571 139.599,139.939 137.640,139.583 137.997 M173.283 138.046 C 172.318 139.609,171.213 142.024,171.707 141.491 C 172.038 141.135,172.514 140.332,172.765 139.708 C 173.016 139.084,173.371 138.472,173.554 138.348 C 173.737 138.224,173.797 138.032,173.686 137.922 C 173.575 137.811,173.394 137.867,173.283 138.046 M201.945 138.286 C 201.321 138.566,200.557 138.927,200.248 139.089 C 199.938 139.251,199.482 139.384,199.234 139.384 C 198.986 139.384,198.583 139.639,198.338 139.951 C 197.935 140.465,197.947 140.477,198.456 140.077 C 198.766 139.834,199.235 139.719,199.499 139.820 C 199.763 139.921,200.065 139.865,200.171 139.694 C 200.276 139.524,200.718 139.384,201.154 139.384 C 201.589 139.384,201.945 139.238,201.945 139.060 C 201.945 138.882,202.212 138.736,202.539 138.736 C 202.866 138.736,203.133 138.517,203.133 138.250 C 203.133 137.982,203.121 137.767,203.106 137.771 C 203.092 137.775,202.569 138.007,201.945 138.286 M214.911 138.053 C 213.858 138.330,211.538 139.477,211.399 139.789 C 211.340 139.923,210.857 140.032,210.327 140.032 C 209.766 140.032,209.446 140.168,209.562 140.357 C 209.673 140.535,209.499 140.683,209.176 140.686 C 208.854 140.688,208.371 140.839,208.104 141.020 C 207.748 141.260,207.878 141.291,208.590 141.135 C 209.125 141.017,209.701 140.794,209.870 140.639 C 210.040 140.484,210.514 140.357,210.924 140.357 C 211.334 140.357,211.669 140.222,211.669 140.058 C 211.669 139.894,212.095 139.666,212.615 139.552 C 213.135 139.438,213.647 139.118,213.753 138.842 C 213.883 138.502,214.242 138.383,214.861 138.473 C 215.465 138.562,215.775 138.464,215.775 138.186 C 215.775 137.953,215.763 137.781,215.748 137.802 C 215.733 137.823,215.357 137.936,214.911 138.053 M145.893 140.438 C 145.873 140.875,146.127 141.005,147.002 141.005 C 147.626 141.005,148.136 141.151,148.136 141.329 C 148.136 141.507,148.501 141.653,148.947 141.653 C 149.392 141.653,149.757 141.799,149.757 141.977 C 149.757 142.156,150.238 142.301,150.827 142.301 C 151.415 142.301,152.035 142.434,152.204 142.596 C 152.643 143.015,155.942 143.190,155.809 142.788 C 155.749 142.609,154.546 142.349,153.134 142.208 C 151.722 142.068,150.519 141.812,150.459 141.641 C 150.400 141.469,149.934 141.329,149.425 141.329 C 148.915 141.329,148.408 141.183,148.298 141.005 C 148.188 140.827,147.681 140.681,147.172 140.681 C 146.662 140.681,146.172 140.498,146.082 140.276 C 145.984 140.033,145.908 140.099,145.893 140.438 M196.395 140.504 C 196.314 140.585,195.716 140.687,195.065 140.731 C 194.415 140.775,193.955 140.927,194.043 141.070 C 194.131 141.212,193.693 141.329,193.069 141.329 C 192.445 141.329,191.836 141.489,191.715 141.684 C 191.594 141.879,191.012 141.983,190.422 141.914 C 189.832 141.845,189.420 141.904,189.507 142.045 C 189.631 142.246,187.666 142.464,186.683 142.358 C 186.579 142.347,186.494 142.528,186.494 142.760 C 186.494 143.236,189.227 143.091,189.773 142.586 C 189.942 142.430,190.571 142.301,191.170 142.301 C 191.813 142.301,192.177 142.169,192.058 141.977 C 191.937 141.782,192.379 141.653,193.174 141.653 C 193.897 141.653,194.489 141.507,194.489 141.329 C 194.489 141.151,195.000 141.005,195.624 141.005 C 196.248 141.005,196.759 140.859,196.759 140.681 C 196.759 140.331,196.630 140.269,196.395 140.504 M206.159 141.996 C 206.159 142.185,206.049 142.275,205.916 142.197 C 205.561 141.988,204.214 142.552,204.214 142.909 C 204.214 143.259,205.291 143.025,206.451 142.423 C 206.889 142.196,207.389 142.098,207.563 142.206 C 207.739 142.314,207.777 142.235,207.648 142.027 C 207.358 141.558,206.159 141.533,206.159 141.996 M138.151 142.331 C 138.235 142.582,138.583 142.788,138.925 142.788 C 139.267 142.788,139.653 142.934,139.784 143.112 C 139.919 143.295,140.025 143.189,140.027 142.869 C 140.030 142.557,139.826 142.301,139.573 142.301 C 139.320 142.301,138.862 142.205,138.556 142.088 C 138.165 141.938,138.044 142.010,138.151 142.331 M140.681 143.481 C 140.681 143.733,141.021 143.922,141.472 143.922 C 141.907 143.922,142.349 144.062,142.455 144.232 C 142.560 144.403,142.884 144.451,143.175 144.339 C 143.475 144.224,143.621 144.271,143.513 144.447 C 143.407 144.617,143.711 144.772,144.189 144.790 C 144.666 144.808,144.801 144.755,144.489 144.673 C 144.177 144.590,143.922 144.371,143.922 144.185 C 143.922 143.999,143.640 143.920,143.295 144.011 C 142.950 144.101,142.597 143.991,142.511 143.767 C 142.284 143.175,140.681 142.925,140.681 143.481 M158.941 143.441 C 158.941 143.959,163.819 144.182,164.133 143.679 C 164.216 143.545,163.269 143.485,162.030 143.544 C 160.741 143.606,159.597 143.504,159.358 143.306 C 159.050 143.050,158.941 143.086,158.941 143.441 M183.089 143.279 C 183.023 143.476,180.483 143.691,176.741 143.816 C 169.633 144.054,168.421 144.408,174.716 144.408 C 177.034 144.408,178.930 144.299,178.930 144.165 C 178.930 144.032,179.951 143.922,181.199 143.922 C 183.000 143.922,183.468 143.822,183.468 143.436 C 183.468 142.880,183.251 142.790,183.089 143.279 M202.107 143.181 C 201.750 143.267,201.320 143.469,201.151 143.630 C 200.981 143.790,200.578 143.922,200.255 143.922 C 199.674 143.922,198.372 144.529,198.052 144.949 C 197.962 145.069,197.378 145.228,196.756 145.303 C 195.677 145.433,195.689 145.442,197.002 145.491 C 197.759 145.520,198.379 145.397,198.379 145.219 C 198.379 145.041,198.680 144.895,199.047 144.895 C 199.414 144.895,199.632 144.762,199.533 144.601 C 199.382 144.358,202.325 143.705,202.944 143.844 C 203.048 143.867,203.133 143.675,203.133 143.418 C 203.133 143.160,203.048 142.967,202.944 142.987 C 202.840 143.008,202.464 143.095,202.107 143.181 M164.743 143.922 C 164.520 144.279,164.456 144.571,164.600 144.571 C 164.938 144.571,165.640 143.870,165.640 143.533 C 165.640 143.056,165.152 143.267,164.743 143.922 M145.864 145.459 C 146.487 145.534,147.104 145.766,147.237 145.975 C 147.395 146.223,147.480 146.158,147.483 145.786 C 147.487 145.326,147.228 145.229,146.110 145.271 C 144.797 145.320,144.786 145.329,145.864 145.459 M150.950 146.402 C 150.434 146.919,150.818 147.164,152.148 147.164 C 152.971 147.164,153.726 147.355,153.945 147.619 C 154.205 147.932,155.480 148.146,158.046 148.307 C 160.954 148.488,161.856 148.657,162.165 149.078 C 162.566 149.624,168.233 149.691,168.233 149.150 C 168.233 149.031,167.139 148.989,165.802 149.057 C 164.042 149.146,163.371 149.071,163.371 148.785 C 163.371 148.568,163.153 148.475,162.885 148.578 C 162.618 148.680,162.399 148.623,162.399 148.450 C 162.399 148.277,161.407 148.136,160.194 148.136 C 158.982 148.136,157.852 148.004,157.682 147.842 C 157.513 147.680,156.645 147.469,155.754 147.373 C 153.065 147.083,151.550 146.772,151.355 146.469 C 151.254 146.311,151.072 146.281,150.950 146.402 M189.870 146.754 C 189.024 146.820,188.331 147.013,188.331 147.181 C 188.331 147.350,187.674 147.488,186.872 147.488 C 186.070 147.488,185.413 147.634,185.413 147.812 C 185.413 147.990,184.611 148.136,183.630 148.136 C 182.650 148.136,181.848 148.247,181.848 148.382 C 181.848 148.650,184.630 148.536,185.413 148.236 C 185.681 148.133,186.427 148.079,187.072 148.114 C 187.881 148.159,188.305 148.022,188.440 147.672 C 188.577 147.314,189.069 147.164,190.103 147.164 C 190.911 147.164,191.572 147.018,191.572 146.840 C 191.572 146.661,191.536 146.542,191.491 146.574 C 191.447 146.606,190.717 146.687,189.870 146.754 M172.802 148.622 C 172.763 149.229,173.256 149.595,174.125 149.606 C 174.602 149.612,174.921 149.502,174.835 149.363 C 174.749 149.223,174.334 149.109,173.914 149.109 C 173.494 149.109,173.076 148.926,172.986 148.703 C 172.896 148.481,172.813 148.444,172.802 148.622 M239.546 197.429 C 239.546 197.658,238.501 197.740,236.470 197.672 C 234.088 197.592,233.354 197.669,233.223 198.014 C 233.098 198.342,232.590 198.420,231.291 198.313 C 230.321 198.232,229.598 198.279,229.683 198.418 C 229.769 198.556,229.142 198.730,228.290 198.804 C 227.439 198.879,228.128 198.877,229.822 198.799 C 231.515 198.722,233.040 198.523,233.209 198.357 C 233.378 198.191,234.947 198.055,236.694 198.055 C 238.595 198.055,239.870 197.925,239.870 197.731 C 239.870 197.529,241.701 197.407,244.713 197.407 C 247.593 197.407,249.638 197.538,249.757 197.731 C 249.867 197.909,251.253 198.055,252.836 198.055 C 254.420 198.055,255.792 198.180,255.887 198.332 C 255.981 198.484,257.377 198.708,258.990 198.830 C 260.603 198.952,262.139 199.135,262.403 199.236 C 262.668 199.338,262.885 199.291,262.885 199.131 C 262.885 198.972,262.484 198.803,261.994 198.756 C 261.503 198.710,259.935 198.567,258.509 198.439 C 257.083 198.310,255.940 198.062,255.970 197.887 C 256.003 197.691,254.899 197.613,253.102 197.683 C 251.255 197.756,250.049 197.666,249.823 197.440 C 249.338 196.955,239.546 196.944,239.546 197.429 M265.257 199.821 C 265.319 200.009,265.813 200.117,266.354 200.061 C 267.003 199.994,267.402 200.127,267.526 200.448 C 267.649 200.770,268.382 201.012,269.675 201.158 C 270.754 201.280,271.637 201.507,271.637 201.663 C 271.637 201.818,271.948 201.945,272.328 201.945 C 272.708 201.945,273.292 202.259,273.625 202.643 C 273.958 203.027,274.230 203.240,274.230 203.118 C 274.230 202.995,274.519 203.049,274.871 203.238 C 275.393 203.517,275.477 203.490,275.323 203.089 C 275.220 202.818,275.004 202.678,274.844 202.776 C 274.685 202.875,274.554 202.801,274.554 202.612 C 274.554 202.424,274.335 202.269,274.068 202.269 C 273.801 202.269,273.582 202.123,273.582 201.945 C 273.582 201.767,273.299 201.621,272.953 201.621 C 272.607 201.621,272.246 201.496,272.152 201.343 C 272.057 201.190,271.160 200.980,270.157 200.877 C 269.144 200.772,268.168 200.478,267.960 200.214 C 267.520 199.656,265.083 199.302,265.257 199.821 M222.042 199.802 C 222.042 199.872,222.553 199.989,223.177 200.062 C 223.801 200.134,224.311 200.077,224.311 199.935 C 224.311 199.792,223.801 199.676,223.177 199.676 C 222.553 199.676,222.042 199.733,222.042 199.802 M219.238 200.729 C 219.155 200.863,218.803 200.972,218.457 200.972 C 218.111 200.972,217.828 201.118,217.828 201.297 C 217.828 201.475,217.493 201.621,217.083 201.621 C 216.673 201.621,216.199 201.741,216.029 201.889 C 215.527 202.325,213.060 203.014,212.730 202.810 C 212.563 202.706,212.426 202.802,212.426 203.022 C 212.426 203.285,212.797 203.380,213.506 203.297 C 214.100 203.227,214.587 203.041,214.587 202.882 C 214.587 202.723,214.951 202.593,215.397 202.593 C 215.843 202.593,216.207 202.447,216.207 202.269 C 216.207 202.091,216.564 201.945,216.999 201.945 C 217.434 201.945,217.874 201.809,217.976 201.643 C 218.079 201.478,218.964 201.242,219.945 201.119 C 222.068 200.854,222.535 200.450,220.694 200.471 C 219.977 200.479,219.322 200.596,219.238 200.729 M235.494 202.269 C 235.384 202.447,234.530 202.593,233.595 202.593 C 232.661 202.593,231.758 202.730,231.588 202.897 C 231.419 203.064,230.624 203.257,229.822 203.326 L 228.363 203.452 230.065 203.509 C 231.021 203.541,231.767 203.424,231.767 203.241 C 231.767 203.063,232.609 202.917,233.647 202.917 C 234.681 202.917,235.683 202.761,235.875 202.569 C 236.089 202.355,237.365 202.261,239.182 202.326 C 240.809 202.384,242.141 202.322,242.140 202.188 C 242.139 201.818,235.725 201.896,235.494 202.269 M250.162 202.186 C 251.633 202.246,252.836 202.424,252.836 202.582 C 252.836 202.739,253.967 202.947,255.348 203.043 C 259.504 203.332,261.598 203.612,261.445 203.860 C 261.365 203.989,261.981 204.130,262.814 204.173 C 263.647 204.216,264.426 204.410,264.546 204.603 C 264.666 204.797,265.082 204.872,265.471 204.770 C 266.002 204.631,266.132 204.704,265.994 205.063 C 265.848 205.445,266.099 205.525,267.265 205.465 C 268.065 205.423,268.720 205.274,268.720 205.134 C 268.720 204.993,268.276 204.967,267.733 205.076 C 267.027 205.217,266.636 205.123,266.356 204.744 C 266.103 204.404,265.241 204.141,263.928 204.006 C 262.809 203.890,261.815 203.671,261.721 203.518 C 261.627 203.366,260.829 203.241,259.948 203.241 C 259.068 203.241,258.347 203.117,258.347 202.965 C 258.347 202.812,257.216 202.658,255.835 202.622 C 254.453 202.586,253.184 202.419,253.015 202.251 C 252.845 202.083,251.532 201.975,250.097 202.011 L 247.488 202.077 250.162 202.186 M227.877 203.544 C 227.877 203.711,227.476 203.907,226.985 203.982 C 226.156 204.107,226.167 204.120,227.147 204.165 C 227.889 204.200,228.201 204.070,228.201 203.728 C 228.201 203.460,228.128 203.241,228.039 203.241 C 227.950 203.241,227.877 203.378,227.877 203.544 M246.694 204.022 C 246.446 204.484,246.123 204.862,245.974 204.862 C 245.826 204.862,245.705 205.086,245.705 205.360 C 245.705 205.634,245.469 206.217,245.182 206.656 C 244.700 207.392,244.700 207.455,245.182 207.455 C 245.469 207.455,245.705 207.295,245.705 207.099 C 245.705 206.595,246.746 204.417,247.105 204.170 C 247.270 204.057,247.346 203.788,247.274 203.573 C 247.202 203.355,246.944 203.554,246.694 204.022 M224.674 204.235 C 224.072 204.366,223.467 204.655,223.330 204.877 C 223.164 205.144,222.631 205.220,221.751 205.102 C 221.020 205.004,220.421 205.056,220.421 205.217 C 220.421 205.619,223.251 205.590,223.501 205.186 C 223.611 205.008,224.122 204.862,224.635 204.862 C 225.149 204.862,225.666 204.707,225.783 204.517 C 226.092 204.017,225.903 203.969,224.674 204.235 M277.796 204.326 C 277.796 204.642,277.942 204.810,278.120 204.700 C 278.830 204.261,278.477 207.513,277.746 208.147 L 277.048 208.752 278.040 208.752 L 279.031 208.752 278.861 206.726 C 278.704 204.861,277.796 202.813,277.796 204.326 M207.212 204.767 C 206.811 204.844,206.483 205.026,206.483 205.171 C 206.483 205.316,206.155 205.547,205.754 205.683 C 203.757 206.362,203.676 206.416,204.619 206.451 C 205.109 206.468,205.511 206.344,205.511 206.174 C 205.511 206.003,206.021 205.768,206.645 205.651 C 207.269 205.534,207.780 205.319,207.780 205.174 C 207.780 205.029,208.035 204.843,208.347 204.762 C 209.077 204.571,208.209 204.575,207.212 204.767 M240.022 205.817 C 240.124 205.982,239.915 206.637,239.558 207.272 C 239.027 208.218,238.996 208.428,239.390 208.428 C 239.654 208.428,239.870 208.136,239.870 207.780 C 239.870 207.423,239.999 207.131,240.157 207.131 C 240.668 207.131,240.796 205.886,240.304 205.697 C 240.047 205.599,239.920 205.653,240.022 205.817 M216.370 206.483 C 215.507 206.853,216.859 206.853,218.314 206.483 L 219.287 206.236 218.152 206.220 C 217.528 206.211,216.726 206.330,216.370 206.483 M270.367 206.276 C 270.442 206.340,271.159 206.488,271.961 206.605 C 272.980 206.753,273.273 206.719,272.934 206.493 C 272.496 206.201,270.042 205.994,270.367 206.276 M137.673 207.135 C 137.120 207.782,136.921 209.814,137.312 210.832 C 137.727 211.915,137.961 211.266,137.826 209.405 C 137.669 207.222,138.131 206.698,139.547 207.456 C 139.969 207.682,140.610 207.789,140.972 207.694 C 141.361 207.592,141.921 207.774,142.340 208.137 C 142.730 208.475,143.391 208.752,143.810 208.752 C 144.228 208.752,144.571 208.898,144.571 209.076 C 144.571 209.254,144.972 209.380,145.462 209.356 C 146.233 209.318,146.255 209.293,145.619 209.171 C 145.215 209.093,144.950 208.925,145.029 208.796 C 145.109 208.668,144.717 208.528,144.158 208.485 C 143.475 208.433,142.849 208.066,142.249 207.364 C 141.570 206.572,141.352 206.457,141.342 206.888 C 141.325 207.615,139.708 207.695,139.708 206.969 C 139.708 206.254,138.331 206.367,137.673 207.135 M202.431 206.808 C 202.667 207.189,201.275 207.780,200.141 207.780 C 199.707 207.780,199.352 207.925,199.352 208.104 C 199.352 208.282,199.016 208.428,198.606 208.428 C 198.196 208.428,197.722 208.561,197.553 208.725 C 197.383 208.888,196.880 209.087,196.434 209.167 C 195.844 209.273,195.954 209.324,196.840 209.356 C 197.508 209.380,198.055 209.268,198.055 209.107 C 198.055 208.945,198.784 208.713,199.676 208.590 C 200.567 208.467,201.297 208.235,201.297 208.073 C 201.297 207.912,201.588 207.780,201.945 207.780 C 202.301 207.780,202.593 207.634,202.593 207.455 C 202.593 207.277,202.812 207.131,203.079 207.131 C 203.347 207.131,203.566 206.985,203.566 206.807 C 203.566 206.629,203.265 206.483,202.898 206.483 C 202.531 206.483,202.321 206.629,202.431 206.808 M273.462 207.301 C 273.368 207.546,273.590 207.626,274.098 207.529 C 274.546 207.443,274.878 207.534,274.878 207.742 C 274.878 207.953,275.386 208.083,276.094 208.055 C 277.072 208.016,277.135 207.980,276.418 207.872 C 275.928 207.797,275.527 207.617,275.527 207.471 C 275.527 207.039,273.622 206.882,273.462 207.301 M212.318 208.151 C 212.318 208.280,211.917 208.446,211.426 208.520 C 210.582 208.648,210.589 208.657,211.569 208.703 C 212.138 208.730,212.702 208.592,212.823 208.397 C 212.943 208.202,213.385 208.108,213.805 208.188 C 214.224 208.269,214.489 208.208,214.394 208.053 C 214.189 207.722,212.318 207.810,212.318 208.151 M209.076 209.336 C 209.076 209.539,208.872 209.626,208.623 209.530 C 208.373 209.434,208.073 209.512,207.955 209.702 C 207.838 209.893,207.385 210.049,206.950 210.049 C 206.515 210.049,206.159 210.194,206.159 210.373 C 206.159 210.551,205.911 210.697,205.608 210.697 C 205.164 210.697,205.137 210.776,205.468 211.102 C 205.797 211.427,205.962 211.395,206.297 210.940 C 206.528 210.628,206.947 210.373,207.229 210.373 C 207.511 210.373,207.828 210.233,207.933 210.063 C 208.038 209.892,208.324 209.829,208.568 209.923 C 209.037 210.103,209.601 209.493,209.271 209.163 C 209.164 209.056,209.076 209.134,209.076 209.336 M238.344 209.669 C 238.480 210.232,238.410 210.379,238.068 210.248 C 237.815 210.151,237.639 210.176,237.677 210.303 C 237.810 210.760,236.507 213.901,236.250 213.743 C 236.106 213.654,236.083 213.828,236.199 214.130 C 236.360 214.549,236.565 214.343,237.069 213.255 C 237.431 212.472,237.809 211.759,237.908 211.669 C 238.597 211.050,238.990 209.689,238.588 209.313 C 238.241 208.989,238.196 209.055,238.344 209.669 M146.303 209.806 C 146.221 209.939,146.591 210.049,147.125 210.049 C 147.660 210.049,148.188 210.194,148.298 210.373 C 148.408 210.551,148.898 210.697,149.387 210.697 C 149.876 210.697,150.414 210.824,150.583 210.979 C 150.753 211.134,151.329 211.358,151.864 211.475 C 152.492 211.613,152.680 211.585,152.394 211.394 C 152.021 211.145,152.021 211.072,152.394 210.924 C 152.637 210.827,152.289 210.737,151.621 210.723 C 150.952 210.708,150.405 210.551,150.405 210.373 C 150.405 210.194,149.968 210.049,149.433 210.049 C 148.898 210.049,148.460 209.939,148.460 209.806 C 148.460 209.672,148.009 209.562,147.457 209.562 C 146.905 209.562,146.386 209.672,146.303 209.806 M193.193 209.963 C 192.747 210.046,192.306 210.237,192.212 210.388 C 192.118 210.539,191.450 210.697,190.726 210.740 C 189.947 210.786,189.411 210.979,189.411 211.214 C 189.411 211.657,191.506 211.469,192.042 210.979 C 192.212 210.824,192.831 210.697,193.420 210.697 C 194.008 210.697,194.489 210.561,194.489 210.394 C 194.489 210.228,194.891 210.031,195.381 209.957 C 196.100 209.848,196.054 209.821,195.138 209.817 C 194.514 209.815,193.639 209.881,193.193 209.963 M138.935 211.810 C 139.042 212.089,139.470 212.318,139.886 212.318 C 140.302 212.318,140.733 212.464,140.843 212.642 C 141.076 213.019,141.977 213.082,141.977 212.721 C 141.977 212.472,140.787 211.900,139.467 211.515 C 138.894 211.348,138.781 211.411,138.935 211.810 M187.358 211.648 C 187.358 211.935,186.927 212.024,185.930 211.945 C 185.145 211.883,184.570 211.941,184.653 212.075 C 184.884 212.448,187.292 212.363,187.534 211.972 C 187.651 211.782,187.660 211.539,187.553 211.432 C 187.446 211.325,187.358 211.422,187.358 211.648 M203.241 211.603 C 202.796 211.670,202.293 211.858,202.123 212.021 C 201.954 212.184,201.480 212.318,201.070 212.318 C 200.660 212.318,200.324 212.453,200.324 212.618 C 200.324 212.783,200.069 212.992,199.757 213.083 C 199.445 213.173,199.773 213.169,200.486 213.074 C 201.199 212.978,201.959 212.891,202.174 212.879 C 202.389 212.867,202.490 212.736,202.398 212.588 C 202.306 212.439,202.595 212.318,203.041 212.318 C 203.487 212.318,203.948 212.162,204.065 211.972 C 204.346 211.517,204.213 211.457,203.241 211.603 M155.201 212.045 C 155.510 212.333,158.834 212.535,158.833 212.265 C 158.833 212.148,157.965 212.002,156.903 211.941 C 155.842 211.881,155.076 211.927,155.201 212.045 M242.241 212.237 C 242.130 212.549,241.990 212.898,241.929 213.013 C 241.869 213.128,242.029 213.303,242.287 213.402 C 242.613 213.527,242.695 213.425,242.556 213.065 C 242.439 212.757,242.602 212.370,242.959 212.109 C 243.505 211.709,243.509 211.669,243.002 211.669 C 242.694 211.669,242.352 211.925,242.241 212.237 M171.880 212.885 C 166.366 212.942,163.047 213.096,163.047 213.295 C 163.047 213.877,180.444 213.712,180.668 213.128 C 180.771 212.861,180.823 212.676,180.784 212.717 C 180.745 212.759,176.738 212.834,171.880 212.885 M142.707 213.189 C 143.019 213.271,143.274 213.481,143.274 213.657 C 143.274 213.833,143.420 213.887,143.598 213.776 C 144.224 213.390,143.913 212.966,143.031 213.004 C 142.482 213.027,142.358 213.098,142.707 213.189 M197.407 213.922 C 197.407 214.092,196.495 214.334,195.381 214.461 C 194.267 214.588,193.547 214.756,193.783 214.836 C 194.621 215.118,197.675 214.552,197.856 214.081 C 197.954 213.824,197.893 213.614,197.721 213.614 C 197.548 213.614,197.407 213.753,197.407 213.922 M240.841 214.753 C 240.597 215.375,240.286 215.883,240.149 215.883 C 240.012 215.883,239.804 216.394,239.687 217.018 C 239.570 217.642,239.344 218.152,239.186 218.152 C 239.028 218.152,238.909 218.408,238.923 218.720 C 238.939 219.062,239.014 219.125,239.113 218.880 C 239.204 218.656,239.411 218.555,239.574 218.656 C 239.737 218.756,239.870 218.384,239.870 217.828 C 239.870 217.221,240.003 216.899,240.203 217.023 C 240.385 217.136,240.508 217.108,240.475 216.961 C 240.411 216.671,240.698 215.821,241.251 214.668 C 241.443 214.267,241.529 213.868,241.442 213.781 C 241.355 213.695,241.085 214.132,240.841 214.753 M146.353 214.570 C 146.888 214.715,147.815 214.851,148.414 214.873 C 149.182 214.900,149.453 215.039,149.335 215.346 C 149.217 215.654,149.386 215.740,149.911 215.640 C 150.319 215.562,150.752 215.658,150.873 215.853 C 150.993 216.048,151.748 216.207,152.550 216.207 C 153.440 216.207,153.931 216.334,153.809 216.532 C 153.699 216.710,153.763 216.856,153.952 216.856 C 154.140 216.856,154.295 216.637,154.295 216.370 C 154.295 216.009,153.917 215.883,152.836 215.883 C 152.034 215.883,151.378 215.737,151.378 215.559 C 151.378 215.381,151.042 215.235,150.632 215.235 C 150.222 215.235,149.748 215.106,149.579 214.948 C 149.409 214.790,148.395 214.581,147.326 214.483 C 146.038 214.366,145.709 214.395,146.353 214.570 M235.332 215.578 C 235.332 215.945,235.200 216.164,235.038 216.064 C 234.877 215.964,234.827 216.197,234.927 216.582 C 235.068 217.119,235.004 217.220,234.654 217.017 C 234.403 216.871,234.305 216.871,234.437 217.016 C 234.568 217.161,234.375 217.766,234.007 218.361 C 233.639 218.956,233.403 219.699,233.483 220.013 C 233.582 220.405,233.703 220.254,233.872 219.530 C 234.006 218.951,234.244 218.476,234.400 218.476 C 234.556 218.476,234.684 218.258,234.684 217.990 C 234.684 217.723,234.830 217.504,235.008 217.504 C 235.186 217.504,235.332 217.212,235.332 216.856 C 235.332 216.499,235.461 216.207,235.619 216.207 C 235.776 216.207,235.981 215.916,236.074 215.559 C 236.185 215.138,236.084 214.911,235.788 214.911 C 235.537 214.911,235.332 215.211,235.332 215.578 M191.248 215.559 C 191.248 215.737,190.753 215.883,190.148 215.883 C 189.399 215.883,188.979 216.064,188.832 216.451 C 188.659 216.905,188.697 216.938,189.025 216.613 C 189.249 216.390,189.914 216.207,190.502 216.207 C 191.091 216.207,191.572 216.070,191.572 215.903 C 191.572 215.735,192.119 215.541,192.788 215.471 L 194.003 215.344 192.626 215.289 C 191.868 215.260,191.248 215.381,191.248 215.559 M160.804 217.261 C 160.781 217.759,161.116 217.828,163.543 217.828 C 165.457 217.828,166.356 217.953,166.463 218.233 C 166.573 218.520,167.292 218.607,168.914 218.530 C 172.133 218.377,172.583 218.545,173.093 220.090 C 173.330 220.807,173.646 221.394,173.796 221.394 C 173.946 221.394,174.080 221.722,174.094 222.123 C 174.108 222.524,174.190 222.679,174.277 222.466 C 174.363 222.253,174.023 221.197,173.522 220.119 L 172.609 218.159 169.773 218.156 C 168.101 218.154,166.937 218.019,166.937 217.828 C 166.937 217.636,165.757 217.504,164.046 217.504 C 162.037 217.504,161.106 217.380,160.993 217.099 C 160.895 216.857,160.819 216.922,160.804 217.261 M180.063 217.483 C 178.622 217.585,177.489 217.810,177.514 217.990 C 177.622 218.773,178.054 219.773,178.284 219.773 C 178.421 219.773,178.630 220.284,178.747 220.908 C 178.864 221.532,179.099 222.042,179.269 222.042 C 179.439 222.042,179.579 222.334,179.579 222.690 C 179.579 223.047,179.724 223.339,179.903 223.339 C 180.081 223.339,180.227 223.558,180.227 223.825 C 180.227 224.092,180.373 224.311,180.551 224.311 C 180.729 224.311,180.875 224.019,180.875 223.663 C 180.875 223.306,180.661 223.015,180.399 223.015 C 180.129 223.015,179.997 222.822,180.094 222.570 C 180.187 222.326,180.030 222.036,179.744 221.926 C 179.458 221.816,179.254 221.542,179.291 221.317 C 179.381 220.772,178.734 219.242,178.302 218.975 C 177.225 218.309,178.024 217.828,180.208 217.828 C 181.445 217.828,182.548 217.682,182.658 217.504 C 182.768 217.326,182.813 217.207,182.758 217.240 C 182.703 217.274,181.490 217.383,180.063 217.483 M237.601 221.051 C 237.601 221.418,237.747 221.718,237.925 221.718 C 238.104 221.718,238.250 221.508,238.250 221.251 C 238.250 220.994,238.104 220.694,237.925 220.583 C 237.747 220.473,237.601 220.683,237.601 221.051 M231.855 222.447 C 231.934 222.670,231.718 223.253,231.376 223.742 C 231.033 224.231,230.859 224.803,230.989 225.012 C 231.149 225.272,231.047 225.326,230.668 225.180 C 230.363 225.063,230.194 225.099,230.294 225.261 C 230.394 225.423,230.292 225.750,230.068 225.987 C 229.618 226.463,229.452 227.943,229.879 227.680 C 230.026 227.589,230.146 227.304,230.146 227.047 C 230.146 226.790,230.257 226.580,230.394 226.580 C 230.654 226.580,231.767 224.214,231.767 223.661 C 231.767 223.484,231.912 223.339,232.091 223.339 C 232.269 223.339,232.415 223.047,232.415 222.690 C 232.415 222.334,232.257 222.042,232.064 222.042 C 231.871 222.042,231.777 222.224,231.855 222.447 M237.034 222.547 C 236.811 222.789,236.640 223.249,236.654 223.568 C 236.674 224.023,236.720 224.044,236.865 223.663 C 236.967 223.395,237.192 223.084,237.365 222.971 C 237.539 222.858,237.626 222.617,237.560 222.436 C 237.488 222.239,237.276 222.284,237.034 222.547 M235.981 224.408 C 235.981 224.712,235.835 224.959,235.656 224.959 C 235.478 224.959,235.332 225.251,235.332 225.608 C 235.332 225.964,235.178 226.256,234.989 226.256 C 234.800 226.256,234.723 226.381,234.818 226.535 C 235.022 226.866,234.305 228.519,233.955 228.523 C 233.821 228.524,233.712 228.817,233.712 229.173 C 233.712 229.530,233.566 229.822,233.387 229.822 C 233.209 229.822,233.063 230.041,233.063 230.308 C 233.063 230.575,232.917 230.794,232.739 230.794 C 232.561 230.794,232.415 231.077,232.415 231.423 C 232.415 231.769,232.280 232.136,232.116 232.237 C 231.951 232.339,231.721 232.858,231.604 233.391 C 231.487 233.924,231.257 234.360,231.093 234.360 C 230.928 234.360,230.794 234.579,230.794 234.846 C 230.794 235.113,230.638 235.332,230.448 235.332 C 230.250 235.332,230.190 235.609,230.308 235.981 C 230.452 236.435,230.366 236.629,230.020 236.629 C 229.713 236.629,229.447 237.057,229.314 237.763 C 229.197 238.387,228.999 238.898,228.874 238.898 C 228.749 238.898,228.446 239.408,228.201 240.032 C 227.956 240.656,227.644 241.167,227.507 241.167 C 227.370 241.167,227.162 241.677,227.045 242.301 C 226.928 242.925,226.703 243.436,226.544 243.436 C 226.386 243.436,226.268 243.691,226.282 244.003 C 226.297 244.345,226.372 244.409,226.471 244.163 C 226.562 243.939,226.769 243.839,226.932 243.939 C 227.095 244.040,227.229 243.668,227.229 243.112 C 227.229 242.504,227.361 242.183,227.561 242.306 C 227.743 242.419,227.866 242.391,227.833 242.245 C 227.754 241.886,228.141 240.862,228.731 239.870 C 228.996 239.425,229.294 238.805,229.393 238.493 C 229.492 238.181,229.685 237.925,229.822 237.925 C 230.080 237.925,230.526 236.827,230.613 235.981 C 230.640 235.713,230.833 235.529,231.041 235.571 C 231.254 235.615,231.339 235.439,231.234 235.166 C 231.132 234.901,231.210 234.684,231.408 234.684 C 231.605 234.684,231.767 234.384,231.767 234.017 C 231.767 233.649,231.912 233.439,232.091 233.549 C 232.269 233.660,232.415 233.508,232.415 233.213 C 232.415 232.918,232.618 232.290,232.867 231.817 C 233.115 231.343,233.662 230.227,234.082 229.335 C 234.502 228.444,234.919 227.642,235.008 227.553 C 235.670 226.890,236.608 224.484,236.317 224.193 C 236.085 223.961,235.981 224.028,235.981 224.408 M175.477 224.904 C 175.772 225.230,176.013 225.652,176.013 225.842 C 176.013 226.031,176.248 226.277,176.536 226.387 C 176.859 226.511,176.997 226.825,176.897 227.208 C 176.789 227.621,176.873 227.775,177.148 227.670 C 177.596 227.498,177.419 226.256,176.948 226.256 C 176.790 226.256,176.661 226.060,176.661 225.820 C 176.661 225.356,175.655 224.311,175.208 224.311 C 175.061 224.311,175.181 224.578,175.477 224.904 M180.886 225.179 C 180.880 225.390,181.094 225.780,181.361 226.048 C 181.629 226.315,181.848 226.836,181.848 227.205 C 181.848 227.575,181.994 227.877,182.172 227.877 C 182.350 227.877,182.496 228.096,182.496 228.363 C 182.496 228.630,182.642 228.849,182.820 228.849 C 182.998 228.849,183.144 229.141,183.144 229.498 C 183.144 229.909,183.352 230.137,183.712 230.120 C 184.050 230.105,184.116 230.029,183.874 229.931 C 183.651 229.841,183.465 229.598,183.461 229.390 C 183.457 229.182,183.169 228.647,182.820 228.201 C 182.471 227.755,182.183 227.151,182.179 226.859 C 182.171 226.248,180.902 224.601,180.886 225.179 M228.664 229.325 C 228.376 229.765,228.193 230.283,228.257 230.477 C 228.322 230.670,228.609 230.310,228.897 229.677 C 229.505 228.335,229.409 228.189,228.664 229.325 M178.606 231.137 C 178.606 231.326,178.740 231.398,178.903 231.297 C 179.066 231.197,179.273 231.298,179.363 231.521 C 179.462 231.767,179.538 231.704,179.553 231.361 C 179.567 231.049,179.360 230.794,179.092 230.794 C 178.825 230.794,178.606 230.949,178.606 231.137 M227.454 231.424 C 227.550 231.791,227.501 232.091,227.345 232.091 C 226.976 232.091,226.126 234.014,226.383 234.270 C 226.491 234.379,226.580 234.216,226.580 233.908 C 226.580 233.601,226.726 233.439,226.904 233.549 C 227.083 233.660,227.229 233.462,227.229 233.109 C 227.229 232.757,227.361 232.420,227.523 232.361 C 227.979 232.194,228.085 231.040,227.659 230.890 C 227.417 230.805,227.343 230.998,227.454 231.424 M184.282 232.085 C 184.170 232.267,184.206 232.415,184.361 232.415 C 184.517 232.415,184.844 232.925,185.089 233.549 C 185.334 234.173,185.723 234.684,185.953 234.684 C 186.282 234.684,186.293 234.510,186.003 233.874 C 185.800 233.428,185.511 233.063,185.361 233.063 C 185.212 233.063,185.089 232.853,185.089 232.596 C 185.089 231.998,184.548 231.655,184.282 232.085 M179.349 232.317 C 179.755 232.422,179.870 232.657,179.730 233.098 C 179.617 233.453,179.672 233.689,179.855 233.639 C 180.035 233.590,180.410 233.841,180.690 234.198 C 181.180 234.822,181.187 234.815,180.870 234.036 C 180.689 233.590,180.453 232.970,180.346 232.658 C 180.235 232.336,179.852 232.107,179.460 232.128 C 178.892 232.159,178.872 232.193,179.349 232.317 M225.208 236.050 C 225.299 236.397,225.182 236.629,224.916 236.629 C 224.673 236.629,224.452 236.993,224.427 237.437 C 224.401 237.882,224.510 238.165,224.670 238.066 C 224.829 237.968,224.959 237.677,224.959 237.420 C 224.959 237.163,225.069 236.952,225.203 236.950 C 225.336 236.949,225.600 236.616,225.788 236.210 C 226.069 235.601,226.035 235.471,225.593 235.471 C 225.238 235.471,225.108 235.667,225.208 236.050 M181.466 236.167 C 181.336 236.661,181.460 236.835,181.972 236.873 C 182.345 236.901,182.491 236.821,182.297 236.696 C 182.103 236.570,181.876 236.252,181.791 235.989 C 181.677 235.636,181.592 235.682,181.466 236.167 M186.629 236.844 C 186.852 236.933,187.034 237.287,187.034 237.628 C 187.034 237.970,187.180 238.250,187.358 238.250 C 187.769 238.250,187.766 238.040,187.347 237.256 C 187.162 236.911,186.834 236.640,186.617 236.654 C 186.321 236.674,186.323 236.720,186.629 236.844 M182.506 238.493 C 182.512 238.626,182.731 239.019,182.992 239.365 C 183.478 240.007,183.626 239.687,183.272 238.762 C 183.074 238.246,182.487 238.040,182.506 238.493 M183.710 240.058 C 183.576 240.194,183.697 240.656,183.978 241.086 C 184.260 241.516,184.408 242.082,184.307 242.344 C 184.206 242.607,184.232 242.755,184.364 242.673 C 184.496 242.592,184.968 243.277,185.414 244.196 C 185.859 245.115,186.354 245.962,186.514 246.077 C 186.674 246.193,186.715 246.520,186.607 246.803 C 186.488 247.113,186.565 247.287,186.803 247.241 C 187.019 247.198,187.188 247.461,187.178 247.824 C 187.167 248.222,187.367 248.483,187.682 248.483 C 188.109 248.483,188.142 248.349,187.862 247.745 C 187.674 247.339,187.411 247.006,187.277 247.004 C 187.143 247.003,187.034 246.710,187.034 246.353 C 187.034 245.997,186.924 245.705,186.789 245.705 C 186.654 245.705,186.343 245.231,186.097 244.652 C 185.111 242.325,184.626 241.321,184.414 241.167 C 184.292 241.078,184.138 240.737,184.073 240.409 C 184.008 240.081,183.845 239.923,183.710 240.058 M222.777 240.548 C 222.715 241.382,223.227 241.628,223.428 240.860 C 223.518 240.517,223.418 240.170,223.207 240.089 C 222.996 240.008,222.802 240.214,222.777 240.548 M189.229 242.007 C 189.311 242.436,189.497 242.788,189.641 242.788 C 189.786 242.788,189.971 243.043,190.052 243.355 C 190.141 243.696,190.215 243.560,190.238 243.012 C 190.260 242.486,190.140 242.185,189.955 242.299 C 189.778 242.409,189.714 242.291,189.812 242.036 C 189.909 241.782,189.784 241.496,189.534 241.400 C 189.201 241.272,189.120 241.434,189.229 242.007 M222.286 241.865 C 222.411 242.345,222.350 242.492,222.093 242.333 C 221.840 242.177,221.730 242.398,221.756 243.012 C 221.778 243.560,221.852 243.696,221.941 243.355 C 222.023 243.043,222.225 242.788,222.390 242.788 C 222.777 242.788,222.783 241.586,222.397 241.348 C 222.235 241.248,222.185 241.481,222.286 241.865 M220.802 244.814 C 220.644 245.393,220.378 245.841,220.211 245.808 C 220.044 245.776,219.885 246.055,219.857 246.428 C 219.829 246.800,219.674 247.191,219.514 247.297 C 219.148 247.537,219.139 248.622,219.503 248.622 C 219.652 248.622,219.773 248.331,219.773 247.974 C 219.773 247.618,219.919 247.326,220.097 247.326 C 220.276 247.326,220.421 247.063,220.421 246.742 C 220.421 246.421,220.573 246.008,220.757 245.823 C 221.113 245.467,221.518 243.760,221.247 243.760 C 221.160 243.760,220.959 244.234,220.802 244.814 M191.457 245.527 C 191.526 246.053,191.689 246.563,191.821 246.661 C 191.952 246.759,192.266 247.241,192.519 247.731 C 193.020 248.704,193.517 248.905,193.517 248.136 C 193.517 247.869,193.283 247.650,192.996 247.650 C 192.666 247.650,192.544 247.472,192.662 247.164 C 192.764 246.896,192.707 246.677,192.534 246.677 C 192.362 246.677,192.220 246.304,192.220 245.848 C 192.220 245.392,192.086 245.102,191.921 245.204 C 191.756 245.305,191.556 245.205,191.476 244.980 C 191.397 244.755,191.388 245.001,191.457 245.527 M225.608 245.219 C 225.608 245.486,225.462 245.705,225.284 245.705 C 225.105 245.705,224.959 245.985,224.959 246.326 C 224.959 246.668,224.777 247.030,224.554 247.131 C 224.331 247.232,224.418 247.280,224.748 247.239 C 225.352 247.163,226.463 244.733,225.894 244.733 C 225.736 244.733,225.608 244.951,225.608 245.219 M218.314 249.595 C 218.204 249.773,218.220 250.090,218.348 250.298 C 218.503 250.548,218.411 250.611,218.080 250.485 C 217.706 250.341,217.619 250.452,217.741 250.916 C 217.854 251.348,217.737 251.540,217.361 251.540 C 217.062 251.540,216.912 251.692,217.027 251.878 C 217.142 252.064,217.098 252.392,216.930 252.607 C 216.609 253.019,216.185 254.457,216.385 254.457 C 216.449 254.457,216.756 253.910,217.067 253.241 C 217.378 252.573,217.713 251.953,217.812 251.864 C 217.962 251.728,218.313 251.060,219.048 249.514 C 219.222 249.147,218.545 249.222,218.314 249.595 M223.339 249.738 C 223.339 250.016,223.193 250.243,223.015 250.243 C 222.836 250.243,222.690 250.535,222.690 250.891 C 222.690 251.248,222.536 251.540,222.347 251.540 C 222.158 251.540,222.098 251.692,222.213 251.878 C 222.328 252.064,222.227 252.465,221.989 252.769 C 221.603 253.263,221.615 253.276,222.102 252.895 C 222.403 252.660,222.743 252.040,222.857 251.517 C 222.972 250.995,223.273 250.567,223.527 250.567 C 224.052 250.567,224.152 249.735,223.663 249.433 C 223.485 249.323,223.339 249.460,223.339 249.738 M193.691 250.286 C 193.984 251.215,195.462 253.452,195.462 252.966 C 195.462 252.776,195.353 252.511,195.219 252.378 C 195.085 252.244,194.828 251.612,194.648 250.972 C 194.468 250.332,194.125 249.743,193.885 249.663 C 193.560 249.555,193.511 249.714,193.691 250.286 M188.900 251.053 C 188.985 251.499,189.200 251.864,189.379 251.864 C 189.557 251.864,189.626 252.156,189.533 252.513 C 189.440 252.869,189.496 253.080,189.657 252.980 C 190.057 252.733,190.032 251.540,189.627 251.540 C 189.449 251.540,189.303 251.248,189.303 250.891 C 189.303 250.535,189.177 250.243,189.024 250.243 C 188.870 250.243,188.814 250.608,188.900 251.053 M195.381 253.699 C 195.604 253.789,195.786 254.069,195.786 254.322 C 195.786 254.575,195.918 254.781,196.080 254.781 C 196.241 254.781,196.297 254.489,196.204 254.133 C 196.111 253.776,195.796 253.496,195.505 253.510 C 195.169 253.526,195.124 253.596,195.381 253.699 M220.746 254.943 C 220.501 255.567,220.182 256.078,220.037 256.078 C 219.892 256.078,219.773 256.361,219.773 256.707 C 219.773 257.053,219.645 257.415,219.488 257.512 C 218.979 257.827,218.861 258.887,219.336 258.887 C 219.621 258.887,219.714 258.673,219.594 258.293 C 219.490 257.966,219.561 257.699,219.751 257.699 C 219.942 257.699,220.097 257.480,220.097 257.212 C 220.097 256.945,220.212 256.726,220.352 256.726 C 220.493 256.726,220.631 256.415,220.660 256.036 C 220.688 255.656,221.036 255.000,221.433 254.577 C 221.971 254.004,222.032 253.809,221.673 253.809 C 221.408 253.809,220.990 254.319,220.746 254.943 M215.883 255.070 C 215.883 255.289,215.737 255.378,215.559 255.267 C 215.381 255.157,215.235 255.230,215.235 255.429 C 215.235 255.629,215.103 255.710,214.941 255.610 C 214.779 255.510,214.723 255.719,214.816 256.074 C 214.976 256.686,215.019 256.676,215.633 255.895 C 215.990 255.442,216.192 254.982,216.082 254.872 C 215.973 254.763,215.883 254.852,215.883 255.070 M191.248 256.402 C 191.248 256.580,191.409 256.726,191.607 256.726 C 191.804 256.726,191.882 256.945,191.779 257.212 C 191.663 257.514,191.781 257.699,192.090 257.699 C 192.440 257.699,192.527 257.891,192.383 258.345 C 192.226 258.841,192.296 258.946,192.685 258.796 C 193.047 258.658,193.193 258.798,193.193 259.285 C 193.193 259.660,193.334 259.968,193.507 259.968 C 193.707 259.968,193.705 259.705,193.501 259.238 C 193.326 258.837,193.095 258.254,192.988 257.942 C 192.881 257.630,192.664 257.374,192.507 257.374 C 192.349 257.374,192.220 257.083,192.220 256.726 C 192.220 256.366,192.004 256.078,191.734 256.078 C 191.467 256.078,191.248 256.224,191.248 256.402 M197.002 256.941 C 197.224 257.031,197.407 257.309,197.407 257.560 C 197.407 258.119,198.400 259.321,198.856 259.314 C 199.061 259.311,199.051 259.218,198.830 259.071 C 198.632 258.940,198.227 258.359,197.930 257.780 C 197.633 257.200,197.212 256.738,196.993 256.752 C 196.689 256.771,196.691 256.815,197.002 256.941 M214.027 257.455 C 214.106 257.678,213.889 258.262,213.546 258.752 C 213.171 259.287,213.072 259.643,213.298 259.643 C 213.506 259.643,213.751 259.352,213.844 258.995 C 213.938 258.639,214.143 258.347,214.300 258.347 C 214.458 258.347,214.587 258.055,214.587 257.699 C 214.587 257.342,214.429 257.050,214.236 257.050 C 214.042 257.050,213.949 257.233,214.027 257.455 M218.152 260.103 C 218.152 260.355,217.970 260.627,217.747 260.707 C 217.511 260.791,217.462 260.972,217.629 261.139 C 217.797 261.306,217.978 261.256,218.062 261.019 C 218.142 260.795,218.364 260.708,218.554 260.826 C 218.770 260.959,218.805 260.885,218.647 260.630 C 218.499 260.391,218.580 260.101,218.840 259.936 C 219.193 259.713,219.168 259.652,218.720 259.648 C 218.408 259.646,218.152 259.850,218.152 260.103 M193.829 261.088 C 194.045 261.348,194.127 261.712,194.012 261.898 C 193.890 262.096,194.113 262.235,194.551 262.232 C 194.971 262.229,195.147 262.122,194.952 261.989 C 194.761 261.858,194.510 261.495,194.395 261.183 C 194.280 260.871,194.017 260.616,193.812 260.616 C 193.537 260.616,193.542 260.742,193.829 261.088 M199.544 262.075 C 199.836 262.520,200.270 262.885,200.508 262.885 C 200.785 262.885,200.671 262.593,200.190 262.075 C 199.777 261.629,199.343 261.264,199.226 261.264 C 199.109 261.264,199.252 261.629,199.544 262.075 M216.672 263.047 C 216.555 263.671,216.365 264.182,216.251 264.182 C 216.136 264.182,215.835 264.656,215.583 265.235 C 215.331 265.814,214.999 266.373,214.844 266.477 C 214.690 266.580,214.514 267.164,214.454 267.773 C 214.394 268.383,214.413 268.590,214.497 268.233 C 214.580 267.877,214.854 267.468,215.104 267.326 C 215.354 267.183,215.559 266.782,215.559 266.434 C 215.559 266.087,215.714 265.802,215.902 265.802 C 216.091 265.802,216.163 265.668,216.062 265.504 C 215.960 265.340,216.097 264.986,216.367 264.717 C 216.636 264.448,216.856 263.999,216.856 263.718 C 216.856 263.438,217.002 263.209,217.180 263.209 C 217.358 263.209,217.504 262.917,217.504 262.561 C 217.504 261.481,216.900 261.835,216.672 263.047 M194.721 263.086 C 194.611 263.196,194.739 263.505,195.007 263.772 C 195.582 264.348,195.884 264.167,195.597 263.418 C 195.384 262.863,195.064 262.742,194.721 263.086 M200.879 264.506 C 200.972 264.862,201.248 265.154,201.493 265.154 C 201.834 265.154,201.809 265.002,201.383 264.506 C 201.078 264.149,200.802 263.857,200.769 263.857 C 200.736 263.857,200.785 264.149,200.879 264.506 M210.454 265.044 C 210.231 265.134,210.049 265.423,210.049 265.686 C 210.049 265.949,209.904 266.076,209.728 265.967 C 209.552 265.858,209.482 265.963,209.574 266.201 C 209.665 266.440,209.372 267.359,208.923 268.244 C 208.474 269.130,208.110 270.000,208.115 270.178 C 208.120 270.357,208.544 269.658,209.056 268.627 C 209.569 267.595,210.125 266.574,210.293 266.358 C 210.579 265.986,211.082 264.800,210.930 264.855 C 210.891 264.869,210.677 264.955,210.454 265.044 M196.352 265.342 C 196.218 265.478,196.338 265.940,196.620 266.370 C 196.902 266.800,197.050 267.366,196.949 267.628 C 196.846 267.896,196.906 268.018,197.086 267.907 C 197.263 267.798,197.407 267.918,197.407 268.175 C 197.407 268.431,197.626 268.822,197.893 269.044 C 198.160 269.266,198.379 269.342,198.379 269.213 C 198.379 268.865,197.313 266.638,197.056 266.451 C 196.934 266.361,196.780 266.020,196.715 265.692 C 196.650 265.364,196.487 265.207,196.352 265.342 M202.238 267.211 C 202.607 267.808,202.813 268.391,202.697 268.508 C 202.580 268.624,202.655 268.720,202.863 268.720 C 203.071 268.720,203.253 268.975,203.267 269.287 C 203.283 269.643,203.355 269.700,203.460 269.438 C 203.674 268.906,202.379 266.126,201.917 266.126 C 201.725 266.126,201.870 266.615,202.238 267.211 M213.640 269.287 C 213.626 269.688,213.468 270.016,213.290 270.016 C 213.112 270.016,212.966 270.235,212.966 270.502 C 212.966 270.770,212.820 270.989,212.642 270.989 C 212.464 270.989,212.318 271.228,212.318 271.520 C 212.318 271.813,212.063 272.238,211.751 272.466 C 211.439 272.694,211.286 272.983,211.411 273.108 C 211.720 273.417,212.642 272.454,212.642 271.822 C 212.642 271.542,212.752 271.313,212.887 271.313 C 213.258 271.313,214.015 269.425,213.829 268.963 C 213.739 268.740,213.654 268.886,213.640 269.287 M198.668 270.562 C 198.796 271.041,199.069 271.489,199.275 271.557 C 199.515 271.637,199.471 271.325,199.152 270.687 C 198.541 269.461,198.361 269.415,198.668 270.562 M204.105 270.934 C 204.165 271.172,204.214 271.484,204.214 271.629 C 204.214 271.773,204.405 271.965,204.639 272.055 C 204.949 272.174,205.026 271.954,204.922 271.246 C 204.833 270.643,204.687 270.424,204.536 270.668 C 204.402 270.885,204.226 270.936,204.144 270.782 C 204.063 270.628,204.045 270.697,204.105 270.934 M207.211 271.510 C 206.809 271.968,206.577 272.499,206.694 272.688 C 206.815 272.884,206.755 272.940,206.555 272.816 C 206.362 272.697,206.108 272.754,205.990 272.944 C 205.843 273.183,205.631 273.168,205.305 272.897 C 204.968 272.618,204.997 272.792,205.406 273.504 C 205.721 274.054,206.122 274.415,206.296 274.307 C 206.487 274.190,206.458 274.060,206.224 273.982 C 205.594 273.772,205.778 273.258,206.483 273.258 C 206.850 273.258,207.131 273.042,207.131 272.760 C 207.131 272.486,207.367 271.903,207.655 271.463 C 208.330 270.433,208.137 270.453,207.211 271.510 M199.838 273.026 C 199.838 273.480,200.033 273.767,200.342 273.767 C 200.750 273.767,200.781 273.627,200.504 273.029 C 200.068 272.087,199.838 272.086,199.838 273.026 M211.345 274.195 C 211.345 274.414,211.223 274.517,211.074 274.425 C 210.925 274.333,210.488 274.846,210.104 275.567 C 209.700 276.323,209.571 276.820,209.799 276.744 C 210.016 276.672,210.292 276.259,210.413 275.827 C 210.533 275.394,210.647 275.182,210.665 275.356 C 210.682 275.529,210.931 275.337,211.216 274.930 C 211.502 274.522,211.648 274.100,211.540 273.993 C 211.433 273.886,211.345 273.977,211.345 274.195 M201.519 276.094 C 201.630 276.406,201.861 276.842,202.031 277.062 C 202.202 277.283,202.266 277.660,202.174 277.900 C 202.082 278.140,202.187 278.336,202.407 278.336 C 202.651 278.336,202.750 278.042,202.662 277.580 C 202.583 277.164,202.389 276.823,202.231 276.823 C 202.074 276.823,201.945 276.532,201.945 276.175 C 201.945 275.818,201.804 275.527,201.631 275.527 C 201.458 275.527,201.408 275.782,201.519 276.094 M209.076 277.904 C 209.076 278.201,208.930 278.444,208.752 278.444 C 208.574 278.444,208.428 278.590,208.428 278.768 C 208.428 278.947,208.564 279.092,208.730 279.092 C 209.095 279.092,209.538 277.826,209.268 277.555 C 209.162 277.450,209.076 277.607,209.076 277.904 M207.301 281.112 C 206.951 281.873,206.584 282.774,206.485 283.114 C 206.321 283.681,206.264 283.689,205.785 283.210 C 205.131 282.556,204.776 282.853,205.269 283.643 C 205.691 284.318,206.807 283.956,206.807 283.143 C 206.807 282.887,207.106 282.146,207.470 281.497 C 207.835 280.848,208.089 280.184,208.036 280.022 C 207.982 279.861,207.651 280.351,207.301 281.112 M203.810 281.196 C 203.896 281.648,204.112 281.910,204.302 281.793 C 204.515 281.662,204.572 281.843,204.457 282.284 C 204.357 282.668,204.407 282.901,204.568 282.801 C 204.968 282.555,204.943 281.361,204.538 281.361 C 204.360 281.361,204.214 281.143,204.214 280.875 C 204.214 280.608,204.088 280.389,203.935 280.389 C 203.781 280.389,203.725 280.752,203.810 281.196 " stroke="none" fill="#fcfcfc" fill-rule="evenodd"></path><path id="path1" d="" stroke="none" fill="#100fcfc" fill-rule="evenodd"></path><path id="path2" d="" stroke="none" fill="#100fcfc" fill-rule="evenodd"></path><path id="path3" d="" stroke="none" fill="#100fcfc" fill-rule="evenodd"></path><path id="path4" d="" stroke="none" fill="#100fcfc" fill-rule="evenodd"></path></g></svg>