<svg id="svg" version="1.1" xmlns="http://www.w3.org/2000/svg" xmlns:xlink="http://www.w3.org/1999/xlink" width="400" height="400" viewBox="0, 0, 400,400"><g id="svgg"><path id="path0" d="M105.571 89.026 C 104.773 89.318,104.806 87.796,104.803 124.963 C 104.800 160.199,104.796 160.395,104.120 160.847 C 103.999 160.928,97.330 160.997,89.300 161.000 C 77.936 161.005,74.589 161.062,74.200 161.259 L 73.700 161.512 73.648 173.740 C 73.602 184.660,73.631 186.002,73.913 186.284 C 74.194 186.566,75.768 186.601,88.464 186.609 C 102.475 186.617,104.276 186.686,104.624 187.228 C 105.008 187.826,104.738 213.548,104.343 213.943 C 104.008 214.278,103.066 214.303,88.793 214.357 L 73.600 214.414 73.600 226.769 C 73.600 237.122,73.646 239.186,73.884 239.512 C 74.159 239.889,74.612 239.903,89.291 240.000 C 102.443 240.087,104.439 240.139,104.604 240.400 C 104.722 240.586,104.795 254.056,104.797 275.850 L 104.800 311.000 152.450 310.998 C 206.707 310.996,205.905 311.018,217.100 309.287 C 229.059 307.437,244.252 302.601,253.600 297.667 C 263.220 292.590,268.383 289.126,275.900 282.704 C 288.634 271.825,298.194 258.580,304.338 243.300 C 305.939 239.319,304.696 239.602,320.539 239.601 L 333.378 239.600 333.939 239.117 L 334.500 238.635 334.618 227.367 C 334.682 221.170,334.804 215.863,334.887 215.572 C 335.299 214.134,335.826 214.200,323.984 214.200 L 313.382 214.200 312.865 213.683 C 312.379 213.197,312.355 213.083,312.464 211.733 C 313.072 204.168,313.071 196.578,312.462 188.875 C 312.269 186.422,311.456 186.600,322.850 186.599 C 333.556 186.598,333.867 186.568,334.316 185.493 C 334.878 184.149,334.680 161.813,334.101 161.234 C 334.027 161.160,328.050 161.055,320.819 161.000 L 307.670 160.900 306.873 160.372 C 306.153 159.896,305.974 159.587,305.015 157.172 C 289.409 117.896,251.701 92.246,204.800 89.004 C 200.919 88.736,106.305 88.756,105.571 89.026 M209.200 112.866 C 224.632 114.693,237.131 119.190,249.300 127.291 C 257.398 132.682,262.800 137.614,268.716 145.019 C 272.789 150.116,277.721 158.448,277.553 159.950 C 277.504 160.387,277.565 160.600,277.740 160.600 C 278.199 160.600,278.018 160.980,277.410 161.295 C 276.546 161.742,130.899 161.763,130.288 161.316 C 129.908 161.038,129.899 160.534,129.852 137.466 C 129.800 112.208,129.762 113.189,130.804 112.652 C 131.664 112.208,205.346 112.409,209.200 112.866 M284.993 186.897 C 285.832 187.330,285.951 187.959,286.219 193.400 C 286.604 201.220,286.207 212.450,285.508 213.516 C 285.033 214.241,287.983 214.216,207.232 214.157 L 130.565 214.100 130.178 213.623 C 129.804 213.160,129.793 212.743,129.846 200.355 L 129.900 187.565 130.461 187.083 L 131.022 186.600 207.721 186.600 C 275.107 186.600,284.489 186.636,284.993 186.897 M277.583 240.315 C 278.109 240.809,277.854 241.964,276.776 243.963 C 269.458 257.539,258.639 268.605,245.183 276.279 C 243.909 277.005,242.673 277.600,242.437 277.600 C 242.201 277.600,240.903 278.180,239.554 278.889 C 232.036 282.840,219.759 286.390,209.800 287.494 C 208.205 287.670,205.624 287.992,204.065 288.207 C 200.755 288.666,132.547 288.833,130.940 288.387 C 129.756 288.058,129.800 288.977,129.800 264.417 C 129.800 241.150,129.816 240.635,130.564 240.266 C 130.888 240.106,271.837 239.823,275.500 239.975 C 276.626 240.021,277.406 240.149,277.583 240.315 " stroke="none" fill="#fcfbfb" fill-rule="evenodd"></path><path id="path1" d="M188.700 0.210 C 175.400 1.101,164.057 2.814,152.200 5.723 C 145.657 7.329,138.460 9.474,133.500 11.298 C 132.400 11.702,130.780 12.288,129.900 12.600 C 127.810 13.340,119.806 16.628,117.500 17.694 C 112.012 20.231,103.574 24.588,99.328 27.076 C 97.804 27.969,96.184 28.917,95.728 29.181 C 94.224 30.055,88.231 33.991,85.800 35.701 C 85.085 36.203,84.275 36.765,84.000 36.949 C 83.725 37.133,83.230 37.491,82.900 37.744 C 82.125 38.341,82.158 38.317,80.400 39.592 C 79.575 40.191,78.585 40.936,78.200 41.248 C 77.815 41.559,77.410 41.880,77.300 41.960 C 76.815 42.316,72.027 46.169,71.207 46.864 C 68.571 49.099,67.919 49.668,65.803 51.584 C 60.722 56.183,55.326 61.586,51.405 66.000 C 50.477 67.045,49.618 68.002,49.497 68.126 C 49.376 68.250,48.878 68.822,48.389 69.397 C 47.900 69.972,47.332 70.635,47.126 70.871 C 46.920 71.107,46.251 71.930,45.640 72.700 C 45.028 73.470,44.252 74.423,43.914 74.817 C 42.804 76.114,39.392 80.569,38.400 82.018 C 38.235 82.259,37.917 82.691,37.692 82.978 C 37.258 83.534,37.231 83.573,35.710 85.831 C 35.165 86.639,34.661 87.345,34.589 87.400 C 34.462 87.497,32.204 90.900,32.002 91.300 C 31.946 91.410,31.400 92.265,30.788 93.200 C 29.778 94.746,26.118 100.932,24.459 103.900 C 21.419 109.336,16.136 120.697,13.669 127.100 C 13.288 128.090,12.853 129.215,12.703 129.600 C 12.553 129.985,12.190 130.975,11.897 131.800 C 11.604 132.625,11.157 133.840,10.904 134.500 C 10.651 135.160,10.354 136.015,10.244 136.400 C 10.133 136.785,9.596 138.540,9.050 140.300 C 7.397 145.626,6.233 149.843,5.297 153.900 C 5.018 155.110,4.704 156.460,4.600 156.900 C 3.283 162.481,1.373 174.476,0.890 180.200 C 0.821 181.025,0.733 181.902,0.695 182.149 C 0.658 182.396,0.568 183.566,0.495 184.749 C 0.423 185.932,0.317 187.125,0.260 187.400 C 0.002 188.650,0.035 208.833,0.302 212.800 C 1.365 228.585,4.289 244.497,8.717 258.600 C 9.080 259.755,9.528 261.240,9.712 261.900 C 10.745 265.601,15.383 277.466,18.141 283.465 C 19.224 285.819,23.029 293.421,24.066 295.300 C 28.308 302.989,30.466 306.523,34.746 312.800 C 37.994 317.562,42.430 323.515,44.893 326.414 C 45.227 326.807,45.680 327.347,45.901 327.614 C 47.470 329.518,48.139 330.317,48.400 330.599 C 48.673 330.895,50.128 332.558,51.198 333.800 C 51.435 334.075,52.725 335.463,54.065 336.885 C 60.843 344.082,67.759 350.468,75.100 356.309 C 76.200 357.184,77.204 357.990,77.331 358.100 C 79.183 359.704,88.808 366.453,93.100 369.158 C 93.540 369.436,94.144 369.828,94.442 370.031 C 94.740 370.234,95.023 370.400,95.071 370.400 C 95.119 370.400,96.000 370.926,97.029 371.569 C 98.058 372.212,99.418 373.022,100.050 373.369 C 100.683 373.716,101.718 374.285,102.350 374.634 C 102.983 374.982,104.220 375.664,105.100 376.149 C 122.475 385.721,145.863 393.816,165.601 397.089 C 167.306 397.372,169.195 397.688,169.800 397.793 C 172.918 398.330,180.840 399.215,186.300 399.637 C 190.863 399.990,209.328 399.994,213.700 399.643 C 220.924 399.064,225.507 398.533,231.417 397.592 C 244.874 395.449,259.208 391.637,271.100 387.039 C 275.005 385.529,278.042 384.283,280.800 383.057 C 281.295 382.837,282.195 382.443,282.800 382.181 C 284.089 381.623,294.351 376.490,296.100 375.527 C 298.039 374.461,302.613 371.798,303.754 371.071 C 304.334 370.702,304.852 370.400,304.906 370.400 C 305.058 370.400,311.849 365.947,314.200 364.306 C 316.229 362.889,317.897 361.703,318.200 361.463 C 318.365 361.332,319.445 360.522,320.600 359.662 C 324.159 357.011,328.192 353.723,332.100 350.285 C 332.760 349.705,333.525 349.037,333.800 348.801 C 336.556 346.440,343.905 339.176,347.053 335.700 C 348.049 334.600,349.235 333.295,349.688 332.800 C 350.897 331.479,354.479 327.199,356.299 324.900 C 357.170 323.800,357.932 322.855,357.992 322.800 C 358.709 322.139,363.973 314.775,366.928 310.300 C 367.872 308.870,368.815 307.456,369.022 307.158 C 369.230 306.860,369.400 306.534,369.400 306.433 C 369.400 306.332,369.527 306.144,369.682 306.015 C 369.836 305.887,370.109 305.493,370.287 305.141 C 370.465 304.788,370.978 303.915,371.426 303.200 C 376.047 295.829,382.457 282.833,386.125 273.400 C 386.617 272.135,387.145 270.785,387.299 270.400 C 391.672 259.455,396.298 241.311,398.110 228.000 C 398.177 227.505,398.266 226.875,398.307 226.600 C 398.372 226.167,398.614 224.176,398.891 221.800 C 400.082 211.579,400.355 194.211,399.481 184.200 C 398.030 167.568,394.624 150.718,389.960 137.100 C 389.129 134.673,388.417 132.658,387.803 131.000 C 387.456 130.065,387.099 129.075,387.007 128.800 C 386.705 127.886,383.436 119.948,382.602 118.100 C 381.841 116.415,376.238 105.176,375.523 103.900 C 374.513 102.100,371.817 97.419,371.222 96.435 C 370.935 95.960,370.610 95.415,370.500 95.225 C 369.850 94.099,365.325 87.241,364.000 85.372 C 363.615 84.829,362.940 83.871,362.500 83.243 C 362.060 82.615,361.025 81.213,360.200 80.127 C 359.375 79.040,358.565 77.951,358.400 77.706 C 358.123 77.295,356.658 75.484,353.724 71.926 C 348.093 65.096,340.851 57.557,334.103 51.500 C 333.123 50.620,332.173 49.765,331.993 49.600 C 331.238 48.908,329.163 47.128,328.423 46.537 C 327.985 46.187,326.338 44.864,324.763 43.598 C 320.841 40.444,319.342 39.323,314.170 35.677 C 310.833 33.323,305.541 29.944,301.299 27.457 C 293.863 23.099,281.843 17.106,276.499 15.093 C 275.839 14.844,274.984 14.503,274.599 14.335 C 272.845 13.569,266.731 11.311,263.700 10.310 C 260.213 9.159,257.778 8.389,256.781 8.122 C 256.187 7.962,254.935 7.612,254.000 7.343 C 242.296 3.974,229.405 1.692,215.200 0.475 C 210.903 0.107,192.928 -0.073,188.700 0.210 M203.800 88.804 C 245.024 91.330,278.992 110.808,298.238 142.961 C 300.069 146.018,303.724 153.460,304.890 156.500 C 306.067 159.571,306.206 159.809,307.131 160.347 L 307.900 160.793 320.637 160.797 C 334.088 160.800,334.285 160.814,334.544 161.743 C 334.834 162.780,334.734 185.240,334.438 185.760 C 333.918 186.671,333.657 186.694,323.041 186.759 L 312.982 186.821 312.759 187.311 C 312.594 187.673,312.597 188.753,312.774 191.451 C 313.058 195.806,313.074 205.579,312.801 208.800 C 312.517 212.162,312.543 213.315,312.914 213.686 C 313.192 213.964,314.476 214.000,324.014 214.000 C 332.501 214.000,334.804 214.053,334.817 214.250 C 334.917 215.741,334.728 237.103,334.608 237.862 C 334.493 238.592,334.296 239.010,333.912 239.340 L 333.378 239.800 320.382 239.800 C 304.432 239.800,305.979 239.386,304.116 244.158 C 290.609 278.757,255.184 304.536,213.800 309.880 C 203.629 311.193,203.498 311.196,151.550 311.198 L 104.600 311.200 104.600 275.812 C 104.600 247.721,104.548 240.390,104.350 240.262 C 104.213 240.173,97.332 240.055,89.060 240.000 C 77.094 239.920,73.967 239.847,73.760 239.640 C 73.553 239.434,73.489 236.794,73.446 226.794 L 73.391 214.207 88.712 214.154 C 103.614 214.101,104.040 214.089,104.316 213.712 C 104.554 213.386,104.600 211.225,104.600 200.257 L 104.600 187.190 104.087 186.995 C 103.771 186.875,97.955 186.799,88.937 186.797 C 80.887 186.795,74.201 186.728,74.080 186.647 C 73.430 186.213,73.400 185.632,73.403 173.663 C 73.405 166.477,73.482 161.580,73.596 161.400 C 73.761 161.139,75.757 161.087,88.909 161.000 C 103.588 160.903,104.041 160.889,104.316 160.512 C 104.559 160.180,104.600 155.039,104.600 125.192 C 104.600 88.038,104.572 89.100,105.570 88.881 C 105.861 88.817,106.190 88.735,106.300 88.698 C 106.836 88.519,200.819 88.621,203.800 88.804 M130.491 113.091 L 130.000 113.582 130.003 137.141 C 130.005 150.098,130.079 160.814,130.167 160.954 C 130.256 161.093,130.636 161.296,131.013 161.404 C 132.343 161.785,276.272 161.661,277.156 161.278 C 277.565 161.100,277.788 160.913,277.650 160.861 C 277.509 160.808,277.400 160.427,277.400 159.989 C 277.400 157.325,270.903 147.400,264.648 140.508 C 251.467 125.983,232.178 116.020,212.192 113.414 C 206.222 112.635,204.379 112.602,167.241 112.601 L 130.982 112.600 130.491 113.091 M130.491 187.291 L 130.000 187.782 130.000 200.560 C 130.000 212.685,130.019 213.355,130.366 213.669 C 130.962 214.209,284.538 214.177,285.204 213.637 C 286.774 212.366,286.483 187.535,284.891 186.924 C 284.713 186.856,250.011 186.800,207.775 186.800 L 130.982 186.800 130.491 187.291 M201.467 240.187 C 162.508 240.249,130.593 240.345,130.544 240.400 C 130.027 240.977,130.000 242.169,130.000 264.370 C 130.000 288.546,129.981 287.927,130.734 288.213 C 131.619 288.549,201.587 288.454,203.700 288.113 C 204.690 287.954,206.850 287.680,208.500 287.504 C 219.194 286.368,230.781 283.148,238.824 279.079 C 240.433 278.266,241.910 277.600,242.108 277.600 C 243.993 277.600,254.441 270.397,260.300 265.058 C 268.542 257.548,279.397 241.974,277.492 240.393 C 277.075 240.047,281.454 240.059,201.467 240.187 " stroke="none" fill="#f4ac34" fill-rule="evenodd"></path><path id="path2" d="M130.666 88.750 C 143.627 88.778,164.777 88.778,177.666 88.750 C 190.555 88.722,179.950 88.698,154.100 88.698 C 128.250 88.698,117.705 88.722,130.666 88.750 M129.897 137.200 C 129.897 149.905,129.921 155.103,129.950 148.750 C 129.979 142.398,129.979 132.003,129.950 125.650 C 129.921 119.298,129.897 124.495,129.897 137.200 M264.200 140.100 C 264.573 140.485,264.923 140.800,264.978 140.800 C 265.033 140.800,264.773 140.485,264.400 140.100 C 264.027 139.715,263.677 139.400,263.622 139.400 C 263.567 139.400,263.827 139.715,264.200 140.100 M129.894 200.500 C 129.894 207.100,129.919 209.771,129.950 206.436 C 129.981 203.100,129.981 197.700,129.950 194.436 C 129.919 191.171,129.894 193.900,129.894 200.500 M286.281 200.400 C 286.281 202.215,286.312 202.958,286.349 202.050 C 286.386 201.143,286.386 199.658,286.349 198.750 C 286.312 197.843,286.281 198.585,286.281 200.400 M169.634 214.150 C 190.607 214.178,224.987 214.178,246.034 214.150 C 267.080 214.122,249.920 214.099,207.900 214.099 C 165.880 214.099,148.660 214.122,169.634 214.150 M319.164 214.150 C 322.059 214.181,326.739 214.181,329.564 214.150 C 332.389 214.119,330.020 214.093,324.300 214.093 C 318.580 214.093,316.269 214.119,319.164 214.150 M129.897 264.500 C 129.897 276.930,129.921 281.986,129.950 275.735 C 129.979 269.484,129.979 259.314,129.950 253.135 C 129.921 246.956,129.897 252.070,129.897 264.500 M281.994 277.150 L 280.700 278.500 282.050 277.206 C 283.304 276.004,283.491 275.800,283.344 275.800 C 283.314 275.800,282.706 276.407,281.994 277.150 M148.550 288.550 C 157.487 288.579,172.112 288.579,181.050 288.550 C 189.987 288.521,182.675 288.498,164.800 288.498 C 146.925 288.498,139.612 288.521,148.550 288.550 M197.450 311.143 C 197.753 311.189,198.248 311.189,198.550 311.143 C 198.853 311.097,198.605 311.060,198.000 311.060 C 197.395 311.060,197.148 311.097,197.450 311.143 " stroke="none" fill="#fbcb80" fill-rule="evenodd"></path><path id="path3" d="M203.250 88.938 C 203.442 88.988,203.758 88.988,203.950 88.938 C 204.143 88.888,203.985 88.846,203.600 88.846 C 203.215 88.846,203.058 88.888,203.250 88.938 M149.166 112.550 C 159.102 112.579,175.302 112.579,185.166 112.550 C 195.030 112.521,186.900 112.498,167.100 112.498 C 147.300 112.498,139.230 112.521,149.166 112.550 M280.900 121.200 C 281.442 121.750,281.930 122.200,281.985 122.200 C 282.040 122.200,281.642 121.750,281.100 121.200 C 280.558 120.650,280.070 120.200,280.015 120.200 C 279.960 120.200,280.358 120.650,280.900 121.200 M282.400 122.663 C 282.400 122.697,282.693 122.990,283.050 123.313 L 283.700 123.900 283.113 123.250 C 282.565 122.644,282.400 122.508,282.400 122.663 M261.100 136.600 C 261.530 137.040,261.926 137.400,261.981 137.400 C 262.036 137.400,261.730 137.040,261.300 136.600 C 260.870 136.160,260.474 135.800,260.419 135.800 C 260.364 135.800,260.670 136.160,261.100 136.600 M314.950 160.950 C 318.278 160.981,323.723 160.981,327.050 160.950 C 330.378 160.919,327.655 160.894,321.000 160.894 C 314.345 160.894,311.623 160.919,314.950 160.950 M73.494 173.600 C 73.494 179.815,73.519 182.358,73.550 179.250 C 73.581 176.143,73.581 171.058,73.550 167.950 C 73.519 164.843,73.494 167.385,73.494 173.600 M81.650 186.750 C 85.583 186.780,92.017 186.780,95.950 186.750 C 99.883 186.720,96.665 186.695,88.800 186.695 C 80.935 186.695,77.718 186.720,81.650 186.750 M312.857 195.700 C 312.859 196.250,312.898 196.451,312.944 196.147 C 312.989 195.843,312.988 195.393,312.941 195.147 C 312.893 194.901,312.856 195.150,312.857 195.700 M286.260 196.200 C 286.260 196.805,286.297 197.053,286.343 196.750 C 286.389 196.447,286.389 195.953,286.343 195.650 C 286.297 195.347,286.260 195.595,286.260 196.200 M286.260 204.600 C 286.260 205.205,286.297 205.453,286.343 205.150 C 286.389 204.847,286.389 204.353,286.343 204.050 C 286.297 203.748,286.260 203.995,286.260 204.600 M312.857 204.900 C 312.859 205.450,312.898 205.651,312.944 205.347 C 312.989 205.043,312.988 204.593,312.941 204.347 C 312.893 204.101,312.856 204.350,312.857 204.900 M312.462 212.100 C 312.463 212.760,312.500 213.006,312.545 212.646 C 312.589 212.287,312.589 211.747,312.543 211.446 C 312.497 211.146,312.461 211.440,312.462 212.100 M73.492 214.450 C 73.439 214.588,73.420 220.010,73.450 226.500 L 73.503 238.300 73.552 226.351 L 73.600 214.403 88.350 214.350 L 103.100 214.297 88.344 214.249 C 76.687 214.210,73.567 214.253,73.492 214.450 M334.662 219.700 C 334.663 220.360,334.700 220.606,334.745 220.246 C 334.789 219.887,334.789 219.347,334.743 219.046 C 334.697 218.746,334.661 219.040,334.662 219.700 M313.764 239.750 C 317.320 239.781,323.080 239.781,326.564 239.750 C 330.049 239.719,327.140 239.694,320.100 239.694 C 313.060 239.694,310.209 239.719,313.764 239.750 M273.850 239.938 C 274.043 239.988,274.358 239.988,274.550 239.938 C 274.743 239.888,274.585 239.846,274.200 239.846 C 273.815 239.846,273.657 239.888,273.850 239.938 M166.350 240.150 C 185.627 240.178,217.172 240.178,236.450 240.150 C 255.727 240.122,239.955 240.099,201.400 240.099 C 162.845 240.099,147.072 240.122,166.350 240.150 M262.396 263.150 L 260.700 264.900 262.450 263.204 C 263.413 262.272,264.200 261.484,264.200 261.454 C 264.200 261.309,263.970 261.525,262.396 263.150 M201.450 310.938 C 201.643 310.988,201.958 310.988,202.150 310.938 C 202.343 310.888,202.185 310.846,201.800 310.846 C 201.415 310.846,201.258 310.888,201.450 310.938 M127.866 311.150 C 140.607 311.178,161.397 311.178,174.066 311.150 C 186.735 311.122,176.310 311.098,150.900 311.098 C 125.490 311.098,115.125 311.122,127.866 311.150 " stroke="none" fill="#fcdbab" fill-rule="evenodd"></path><path id="path4" d="M104.698 124.300 C 104.698 143.220,104.721 150.930,104.750 141.434 C 104.779 131.938,104.779 116.458,104.750 107.034 C 104.721 97.610,104.698 105.380,104.698 124.300 M334.693 173.900 C 334.693 179.730,334.719 182.086,334.750 179.136 C 334.781 176.186,334.781 171.416,334.750 168.536 C 334.719 165.656,334.693 168.070,334.693 173.900 M169.734 186.750 C 190.652 186.778,224.942 186.778,245.934 186.750 C 266.925 186.722,249.810 186.699,207.900 186.699 C 165.990 186.699,148.815 186.722,169.734 186.750 M318.264 186.750 C 320.884 186.781,325.114 186.781,327.664 186.750 C 330.214 186.718,328.070 186.692,322.900 186.692 C 317.730 186.692,315.644 186.718,318.264 186.750 M104.694 200.300 C 104.694 206.900,104.719 209.571,104.750 206.236 C 104.781 202.900,104.781 197.500,104.750 194.236 C 104.719 190.971,104.694 193.700,104.694 200.300 M334.691 229.300 C 334.691 233.700,334.718 235.472,334.750 233.237 C 334.782 231.002,334.782 227.402,334.750 225.237 C 334.717 223.072,334.691 224.900,334.691 229.300 M104.698 276.400 C 104.698 295.595,104.721 303.448,104.750 293.850 C 104.779 284.253,104.779 268.548,104.750 258.950 C 104.721 249.353,104.698 257.205,104.698 276.400 M284.091 275.050 L 283.300 275.900 284.150 275.109 C 284.940 274.374,285.092 274.200,284.941 274.200 C 284.908 274.200,284.525 274.582,284.091 275.050 M197.450 288.538 C 197.643 288.588,197.958 288.588,198.150 288.538 C 198.343 288.488,198.185 288.446,197.800 288.446 C 197.415 288.446,197.258 288.488,197.450 288.538 M58.400 341.500 C 58.997 342.105,59.531 342.600,59.586 342.600 C 59.641 342.600,59.197 342.105,58.600 341.500 C 58.003 340.895,57.469 340.400,57.414 340.400 C 57.359 340.400,57.803 340.895,58.400 341.500 " stroke="none" fill="#f4b555" fill-rule="evenodd"></path></g></svg>