<svg id="svg" version="1.1" xmlns="http://www.w3.org/2000/svg" xmlns:xlink="http://www.w3.org/1999/xlink" width="400" height="402.48447204968943" viewBox="0, 0, 400,402.48447204968943"><g id="svgg"><path id="path3" d="M193.198 80.300 C 188.208 88.565,188.082 88.787,188.711 88.200 C 189.463 87.496,198.211 72.800,197.877 72.800 C 197.793 72.800,195.688 76.175,193.198 80.300 M180.825 100.824 C 178.831 104.137,177.371 106.741,177.582 106.611 C 177.792 106.481,179.168 104.356,180.640 101.888 C 182.111 99.419,183.664 96.815,184.090 96.100 C 184.517 95.385,184.772 94.800,184.658 94.800 C 184.544 94.800,182.819 97.511,180.825 100.824 M170.779 117.500 C 165.080 126.937,164.888 127.272,165.785 126.200 C 166.154 125.760,168.450 122.070,170.889 118.000 C 176.016 109.442,175.696 110.000,175.477 110.000 C 175.384 110.000,173.270 113.375,170.779 117.500 M157.395 139.700 C 151.860 148.878,151.668 149.212,152.286 148.600 C 153.072 147.821,162.995 131.200,162.674 131.200 C 162.590 131.200,160.214 135.025,157.395 139.700 M147.590 155.900 C 142.829 163.796,141.995 165.250,142.354 165.029 C 142.948 164.661,150.240 152.400,149.864 152.400 C 149.774 152.400,148.751 153.975,147.590 155.900 M134.969 176.900 C 129.888 185.331,129.706 185.651,130.585 184.600 C 130.953 184.160,132.980 180.920,135.089 177.400 C 139.562 169.932,139.296 170.400,139.067 170.400 C 138.967 170.400,137.123 173.325,134.969 176.900 M123.666 195.600 C 121.657 198.900,120.145 201.597,120.307 201.593 C 120.563 201.587,121.902 199.423,126.533 191.531 C 127.156 190.469,127.588 189.600,127.492 189.600 C 127.396 189.600,125.674 192.300,123.666 195.600 M120.243 218.500 C 120.883 219.603,127.298 228.400,127.463 228.400 C 127.655 228.400,122.640 221.042,121.668 219.898 C 120.698 218.755,121.297 218.773,123.209 219.945 C 126.503 221.962,128.800 223.235,128.800 223.045 C 128.800 222.763,120.829 218.000,120.358 218.000 C 120.135 218.000,120.083 218.225,120.243 218.500 M133.591 225.931 C 134.136 226.376,137.286 228.317,140.591 230.244 C 148.765 235.010,149.461 235.397,149.000 234.920 C 148.660 234.567,138.415 228.417,134.000 225.915 L 132.600 225.121 133.591 225.931 M127.881 229.300 C 128.089 229.575,130.917 233.535,134.165 238.100 C 137.414 242.665,140.157 246.400,140.263 246.400 C 140.486 246.400,140.323 246.163,133.290 236.300 C 130.349 232.175,127.844 228.800,127.722 228.800 C 127.601 228.800,127.673 229.025,127.881 229.300 M155.000 238.593 C 156.354 239.712,164.800 244.599,164.800 244.263 C 164.800 244.112,158.900 240.552,155.600 238.712 C 154.624 238.168,154.442 238.131,155.000 238.593 M169.200 246.979 C 169.200 247.089,169.740 247.459,170.400 247.800 C 171.060 248.141,171.600 248.331,171.600 248.221 C 171.600 248.111,171.060 247.741,170.400 247.400 C 169.740 247.059,169.200 246.869,169.200 246.979 M142.497 249.900 C 143.247 250.945,145.442 254.005,147.374 256.700 C 149.306 259.395,150.969 261.600,151.071 261.600 C 151.172 261.600,150.223 260.115,148.961 258.300 C 145.596 253.460,141.548 248.000,141.326 248.000 C 141.219 248.000,141.746 248.855,142.497 249.900 M172.000 248.539 C 172.000 248.666,174.835 250.459,178.300 252.523 C 185.295 256.689,186.400 257.308,186.400 257.055 C 186.400 256.960,183.565 255.211,180.100 253.169 C 176.635 251.126,173.395 249.197,172.900 248.882 C 172.405 248.566,172.000 248.412,172.000 248.539 M193.600 261.345 C 193.600 261.632,200.304 265.600,200.789 265.600 C 200.989 265.600,201.281 265.392,201.438 265.138 C 201.618 264.848,201.548 264.785,201.249 264.969 C 200.818 265.236,199.359 264.533,195.100 262.010 C 194.275 261.521,193.600 261.222,193.600 261.345 M153.294 265.100 C 154.043 266.145,156.868 270.105,159.572 273.900 C 162.276 277.695,164.571 280.800,164.672 280.800 C 164.881 280.800,164.864 280.775,157.703 270.700 C 154.772 266.575,152.274 263.200,152.152 263.200 C 152.031 263.200,152.545 264.055,153.294 265.100 M165.088 281.700 C 165.301 281.975,167.230 284.675,169.376 287.700 C 171.522 290.725,173.363 293.200,173.466 293.200 C 173.681 293.200,173.148 292.415,168.503 285.900 C 166.660 283.315,165.051 281.200,164.927 281.200 C 164.803 281.200,164.876 281.425,165.088 281.700 M174.400 294.800 C 174.870 295.460,175.344 296.000,175.454 296.000 C 175.564 296.000,175.270 295.460,174.800 294.800 C 174.330 294.140,173.856 293.600,173.746 293.600 C 173.636 293.600,173.930 294.140,174.400 294.800 M177.696 299.500 C 178.447 300.545,180.184 302.975,181.558 304.900 C 184.170 308.563,185.383 309.786,183.143 306.500 C 180.829 303.105,176.741 297.600,176.534 297.600 C 176.423 297.600,176.946 298.455,177.696 299.500 M185.200 310.000 C 185.670 310.660,186.144 311.200,186.254 311.200 C 186.364 311.200,186.070 310.660,185.600 310.000 C 185.130 309.340,184.656 308.800,184.546 308.800 C 184.436 308.800,184.730 309.340,185.200 310.000 M186.685 312.100 C 186.896 312.375,189.903 316.605,193.366 321.500 C 196.830 326.395,199.755 330.400,199.867 330.400 C 199.979 330.400,199.276 329.275,198.306 327.900 C 190.692 317.113,186.706 311.600,186.521 311.600 C 186.400 311.600,186.475 311.825,186.685 312.100 " stroke="none" fill="#a1a2a2" fill-rule="evenodd"></path><path id="path4" d="M197.600 166.600 C 197.050 166.914,196.780 167.172,197.000 167.172 C 197.220 167.172,197.850 166.914,198.400 166.600 C 198.950 166.286,199.220 166.028,199.000 166.028 C 198.780 166.028,198.150 166.286,197.600 166.600 M189.800 170.006 C 178.960 174.948,173.981 177.315,174.124 177.457 C 174.201 177.534,177.759 176.000,182.032 174.048 C 192.575 169.231,196.676 167.269,196.200 167.270 C 195.980 167.270,193.100 168.501,189.800 170.006 M172.000 178.200 C 171.450 178.514,171.180 178.772,171.400 178.772 C 171.620 178.772,172.250 178.514,172.800 178.200 C 173.350 177.886,173.620 177.628,173.400 177.628 C 173.180 177.628,172.550 177.886,172.000 178.200 M168.000 180.000 C 167.230 180.422,166.780 180.766,167.000 180.766 C 167.220 180.766,168.030 180.422,168.800 180.000 C 169.570 179.578,170.020 179.234,169.800 179.234 C 169.580 179.234,168.770 179.578,168.000 180.000 M160.600 183.242 C 153.806 186.300,148.389 188.922,148.543 189.077 C 148.681 189.214,163.495 182.561,165.019 181.677 C 166.778 180.657,164.735 181.380,160.600 183.242 M145.600 190.200 C 145.050 190.514,144.780 190.772,145.000 190.772 C 145.220 190.772,145.850 190.514,146.400 190.200 C 146.950 189.886,147.220 189.628,147.000 189.628 C 146.780 189.628,146.150 189.886,145.600 190.200 M142.000 191.800 C 141.010 192.330,140.380 192.764,140.600 192.764 C 140.820 192.764,141.810 192.330,142.800 191.800 C 143.790 191.270,144.420 190.836,144.200 190.836 C 143.980 190.836,142.990 191.270,142.000 191.800 M134.600 195.041 C 127.426 198.283,121.986 200.919,122.143 201.077 C 122.286 201.219,136.810 194.679,139.000 193.486 C 141.409 192.174,139.282 192.925,134.600 195.041 " stroke="none" fill="#848484" fill-rule="evenodd"></path><path id="path0" d="M200.800 116.861 L 200.800 165.482 195.500 167.899 C 192.585 169.228,186.150 172.147,181.200 174.387 C 176.250 176.627,168.330 180.235,163.600 182.407 C 158.870 184.578,151.220 188.056,146.600 190.135 C 141.980 192.215,134.849 195.453,130.753 197.330 C 126.658 199.208,122.653 201.018,121.853 201.352 C 119.951 202.147,120.015 202.383,122.506 203.748 C 123.658 204.379,129.010 207.510,134.400 210.706 C 139.790 213.902,148.070 218.803,152.800 221.598 C 164.720 228.642,179.189 237.206,190.883 244.140 C 196.318 247.363,200.868 250.000,200.993 250.000 C 201.118 250.000,204.951 247.781,209.511 245.068 C 214.070 242.355,222.930 237.110,229.200 233.411 C 235.470 229.712,244.920 224.127,250.200 220.999 C 255.480 217.872,264.480 212.557,270.200 209.190 C 282.713 201.823,281.940 202.433,280.909 200.729 C 271.209 184.705,264.370 173.372,261.401 168.400 C 259.365 164.990,254.323 156.620,250.197 149.800 C 236.406 127.008,231.121 118.246,227.394 112.000 C 225.359 108.590,220.317 100.220,216.190 93.400 C 212.062 86.580,207.069 78.300,205.093 75.000 C 203.118 71.700,201.344 68.829,201.151 68.620 C 200.950 68.402,200.800 88.974,200.800 116.861 M276.800 220.866 C 274.490 222.215,268.190 225.925,262.800 229.112 C 257.410 232.298,249.580 236.927,245.400 239.398 C 241.220 241.869,232.220 247.178,225.400 251.196 C 218.580 255.214,210.255 260.141,206.900 262.144 L 200.800 265.787 200.800 298.772 L 200.800 331.758 201.927 330.179 C 202.546 329.310,205.731 324.820,209.004 320.200 C 212.276 315.580,217.643 308.020,220.931 303.400 C 227.976 293.500,233.986 285.032,244.637 270.000 C 248.923 263.950,254.304 256.390,256.595 253.200 C 258.885 250.010,262.084 245.510,263.703 243.200 C 268.235 236.734,280.462 219.461,280.904 218.900 C 281.502 218.141,281.317 218.230,276.800 220.866 " stroke="none" fill="#2e2e2e" fill-rule="evenodd"></path><path id="path1" d="M188.400 0.232 C 187.410 0.313,184.170 0.579,181.200 0.824 C 165.532 2.115,135.845 8.602,131.800 11.618 C 131.580 11.782,129.510 12.639,127.200 13.522 C 118.091 17.005,108.200 21.554,104.045 24.171 C 103.250 24.672,100.620 26.212,98.200 27.592 C 92.886 30.623,87.746 33.982,84.884 36.292 C 83.721 37.231,82.616 38.000,82.429 38.000 C 82.036 38.000,74.905 43.498,71.672 46.294 C 66.048 51.158,64.697 52.395,60.254 56.749 C 51.979 64.859,38.000 81.024,38.000 82.484 C 38.000 82.924,35.488 86.400,35.170 86.400 C 34.854 86.400,32.301 90.265,30.283 93.800 C 29.530 95.120,27.147 99.260,24.989 103.000 C 20.023 111.607,14.791 123.072,12.394 130.600 C 12.113 131.480,11.757 132.290,11.601 132.400 C 10.149 133.428,4.551 154.951,2.614 166.952 C -0.858 188.467,-0.858 213.933,2.614 235.448 C 4.551 247.449,10.149 268.972,11.601 270.000 C 11.757 270.110,12.113 270.920,12.394 271.800 C 14.791 279.328,20.023 290.793,24.989 299.400 C 27.147 303.140,29.530 307.280,30.283 308.600 C 32.301 312.135,34.854 316.000,35.170 316.000 C 35.488 316.000,38.000 319.476,38.000 319.916 C 38.000 321.376,51.979 337.541,60.254 345.651 C 64.709 350.016,66.001 351.199,71.751 356.175 C 75.102 359.075,82.006 364.400,82.415 364.400 C 82.610 364.400,83.721 365.169,84.884 366.108 C 87.746 368.418,92.886 371.777,98.200 374.808 C 100.620 376.188,103.250 377.728,104.045 378.229 C 108.200 380.846,118.091 385.395,127.200 388.878 C 129.510 389.761,131.580 390.618,131.800 390.782 C 134.277 392.629,155.741 398.106,167.800 399.968 C 192.100 403.721,219.243 403.002,242.981 397.977 C 252.806 395.897,266.708 391.861,268.600 390.539 C 269.040 390.232,270.115 389.787,270.988 389.551 C 276.063 388.179,290.321 381.469,299.056 376.342 C 302.105 374.552,305.140 372.812,305.800 372.475 C 307.402 371.659,312.796 368.033,313.800 367.097 C 314.240 366.687,316.220 365.242,318.200 363.886 C 321.741 361.461,327.044 357.341,329.400 355.185 C 330.060 354.581,332.400 352.470,334.600 350.493 C 339.110 346.441,347.012 338.401,350.606 334.207 C 351.923 332.671,353.415 330.961,353.923 330.407 C 355.310 328.893,362.000 320.095,362.000 319.785 C 362.000 319.636,363.045 318.139,364.322 316.457 C 367.673 312.044,369.664 308.837,375.907 297.800 C 379.671 291.146,385.284 278.737,387.270 272.679 C 387.717 271.316,388.217 270.110,388.382 270.000 C 389.231 269.432,393.670 253.973,395.585 244.920 C 401.461 217.126,401.461 185.274,395.585 157.480 C 393.670 148.427,389.231 132.968,388.382 132.400 C 388.217 132.290,387.717 131.084,387.270 129.721 C 385.284 123.663,379.671 111.254,375.907 104.600 C 369.664 93.563,367.673 90.356,364.322 85.943 C 363.045 84.261,362.000 82.764,362.000 82.615 C 362.000 82.305,355.310 73.507,353.923 71.993 C 353.415 71.439,351.923 69.729,350.606 68.193 C 347.012 63.999,339.110 55.959,334.600 51.907 C 332.400 49.930,330.060 47.819,329.400 47.215 C 327.044 45.059,321.741 40.939,318.200 38.514 C 316.220 37.158,314.240 35.715,313.800 35.307 C 312.807 34.388,307.421 30.770,305.800 29.932 C 305.140 29.592,302.105 27.848,299.056 26.058 C 290.321 20.931,276.063 14.221,270.988 12.849 C 270.115 12.613,269.040 12.168,268.600 11.861 C 265.606 9.769,244.758 4.373,232.181 2.435 C 220.293 0.603,197.749 -0.531,188.400 0.232 M206.711 77.025 C 209.631 81.851,215.054 90.840,218.761 97.000 C 222.468 103.160,231.041 117.380,237.812 128.600 C 244.583 139.820,252.769 153.410,256.002 158.800 C 259.236 164.190,266.418 176.116,271.963 185.302 C 277.508 194.488,281.933 202.185,281.796 202.407 C 281.658 202.629,278.453 204.636,274.673 206.866 C 268.138 210.723,264.394 212.936,239.600 227.606 C 228.617 234.104,208.735 245.836,203.741 248.766 L 200.882 250.443 198.941 249.279 C 197.873 248.639,191.420 244.821,184.600 240.796 C 177.780 236.771,168.330 231.190,163.600 228.394 C 158.870 225.598,150.590 220.704,145.200 217.518 C 139.810 214.332,132.070 209.782,128.000 207.407 C 123.930 205.031,120.385 202.888,120.123 202.644 C 119.760 202.306,120.227 201.248,122.084 198.200 C 125.012 193.396,148.437 154.588,154.196 145.000 C 158.482 137.866,163.923 128.844,185.197 93.600 C 192.301 81.830,198.668 71.253,199.344 70.096 C 200.971 67.311,200.647 67.006,206.711 77.025 M126.678 221.547 C 129.935 223.498,138.180 228.388,145.000 232.414 C 158.450 240.353,172.295 248.541,185.200 256.188 C 189.710 258.861,195.063 262.003,197.096 263.171 L 200.793 265.295 203.696 263.595 C 205.293 262.659,210.470 259.603,215.200 256.802 C 219.930 254.001,228.930 248.689,235.200 244.997 C 241.470 241.305,250.470 235.994,255.200 233.194 C 282.495 217.039,281.600 217.547,281.600 218.222 C 281.600 218.555,278.921 222.438,272.100 231.989 C 268.718 236.725,264.346 242.850,262.385 245.600 C 256.215 254.254,236.867 281.516,232.010 288.400 C 229.449 292.030,224.409 299.140,220.809 304.200 C 217.210 309.260,211.661 317.090,208.478 321.600 C 202.740 329.732,201.305 331.600,200.797 331.600 C 200.652 331.600,197.944 327.955,194.778 323.500 C 191.612 319.045,186.211 311.440,182.775 306.600 C 179.340 301.760,171.609 290.870,165.596 282.400 C 159.584 273.930,151.603 262.680,147.862 257.400 C 144.121 252.120,138.876 244.740,136.207 241.000 C 126.891 227.947,120.543 218.996,120.249 218.500 C 119.652 217.493,120.878 218.074,126.678 221.547 " stroke="none" fill="#f3f3f3" fill-rule="evenodd"></path><path id="path2" d="M196.966 74.689 C 194.818 78.368,191.553 83.797,189.711 86.754 C 187.869 89.711,184.998 94.486,183.332 97.365 C 181.665 100.244,179.544 103.770,178.619 105.200 C 177.694 106.630,174.682 111.580,171.926 116.200 C 169.170 120.820,163.268 130.630,158.811 138.000 C 154.353 145.370,149.324 153.740,147.634 156.600 C 145.944 159.460,143.706 163.150,142.661 164.800 C 141.616 166.450,138.553 171.490,135.854 176.000 C 133.155 180.510,130.074 185.640,129.009 187.400 C 119.893 202.459,120.081 201.982,124.067 199.960 C 125.460 199.254,132.090 196.204,138.800 193.182 C 145.510 190.160,156.760 185.076,163.800 181.885 C 178.087 175.408,198.518 166.193,199.900 165.602 L 200.800 165.217 200.800 116.785 C 200.800 80.278,200.914 68.423,201.262 68.638 C 201.548 68.815,201.615 68.748,201.438 68.462 C 200.998 67.750,201.102 67.605,196.966 74.689 M121.200 218.949 C 121.200 219.081,123.327 222.206,125.926 225.895 C 137.442 242.234,140.702 246.824,143.188 250.200 C 144.646 252.180,147.591 256.320,149.733 259.400 C 151.875 262.480,156.581 269.140,160.190 274.200 C 163.799 279.260,169.295 287.000,172.403 291.400 C 175.510 295.800,180.516 302.858,183.527 307.085 C 186.537 311.311,191.504 318.331,194.565 322.685 C 197.626 327.038,200.281 330.771,200.465 330.980 C 200.649 331.189,200.797 316.609,200.794 298.580 L 200.788 265.800 193.294 261.352 C 189.172 258.906,180.850 253.983,174.800 250.413 C 168.750 246.842,161.820 242.744,159.400 241.306 C 156.980 239.868,150.860 236.273,145.800 233.317 C 140.740 230.361,135.520 227.255,134.200 226.416 C 132.880 225.577,129.820 223.761,127.400 222.382 C 124.980 221.002,122.595 219.611,122.100 219.291 C 121.605 218.970,121.200 218.816,121.200 218.949 " stroke="none" fill="#8c8c8c" fill-rule="evenodd"></path><path id="path3" d="M193.198 80.300 C 188.208 88.565,188.082 88.787,188.711 88.200 C 189.463 87.496,198.211 72.800,197.877 72.800 C 197.793 72.800,195.688 76.175,193.198 80.300 M180.825 100.824 C 178.831 104.137,177.371 106.741,177.582 106.611 C 177.792 106.481,179.168 104.356,180.640 101.888 C 182.111 99.419,183.664 96.815,184.090 96.100 C 184.517 95.385,184.772 94.800,184.658 94.800 C 184.544 94.800,182.819 97.511,180.825 100.824 M170.779 117.500 C 165.080 126.937,164.888 127.272,165.785 126.200 C 166.154 125.760,168.450 122.070,170.889 118.000 C 176.016 109.442,175.696 110.000,175.477 110.000 C 175.384 110.000,173.270 113.375,170.779 117.500 M157.395 139.700 C 151.860 148.878,151.668 149.212,152.286 148.600 C 153.072 147.821,162.995 131.200,162.674 131.200 C 162.590 131.200,160.214 135.025,157.395 139.700 M147.590 155.900 C 142.829 163.796,141.995 165.250,142.354 165.029 C 142.948 164.661,150.240 152.400,149.864 152.400 C 149.774 152.400,148.751 153.975,147.590 155.900 M134.969 176.900 C 129.888 185.331,129.706 185.651,130.585 184.600 C 130.953 184.160,132.980 180.920,135.089 177.400 C 139.562 169.932,139.296 170.400,139.067 170.400 C 138.967 170.400,137.123 173.325,134.969 176.900 M123.666 195.600 C 121.657 198.900,120.145 201.597,120.307 201.593 C 120.563 201.587,121.902 199.423,126.533 191.531 C 127.156 190.469,127.588 189.600,127.492 189.600 C 127.396 189.600,125.674 192.300,123.666 195.600 M120.243 218.500 C 120.883 219.603,127.298 228.400,127.463 228.400 C 127.655 228.400,122.640 221.042,121.668 219.898 C 120.698 218.755,121.297 218.773,123.209 219.945 C 126.503 221.962,128.800 223.235,128.800 223.045 C 128.800 222.763,120.829 218.000,120.358 218.000 C 120.135 218.000,120.083 218.225,120.243 218.500 M133.591 225.931 C 134.136 226.376,137.286 228.317,140.591 230.244 C 148.765 235.010,149.461 235.397,149.000 234.920 C 148.660 234.567,138.415 228.417,134.000 225.915 L 132.600 225.121 133.591 225.931 M127.881 229.300 C 128.089 229.575,130.917 233.535,134.165 238.100 C 137.414 242.665,140.157 246.400,140.263 246.400 C 140.486 246.400,140.323 246.163,133.290 236.300 C 130.349 232.175,127.844 228.800,127.722 228.800 C 127.601 228.800,127.673 229.025,127.881 229.300 M155.000 238.593 C 156.354 239.712,164.800 244.599,164.800 244.263 C 164.800 244.112,158.900 240.552,155.600 238.712 C 154.624 238.168,154.442 238.131,155.000 238.593 M169.200 246.979 C 169.200 247.089,169.740 247.459,170.400 247.800 C 171.060 248.141,171.600 248.331,171.600 248.221 C 171.600 248.111,171.060 247.741,170.400 247.400 C 169.740 247.059,169.200 246.869,169.200 246.979 M142.497 249.900 C 143.247 250.945,145.442 254.005,147.374 256.700 C 149.306 259.395,150.969 261.600,151.071 261.600 C 151.172 261.600,150.223 260.115,148.961 258.300 C 145.596 253.460,141.548 248.000,141.326 248.000 C 141.219 248.000,141.746 248.855,142.497 249.900 M172.000 248.539 C 172.000 248.666,174.835 250.459,178.300 252.523 C 185.295 256.689,186.400 257.308,186.400 257.055 C 186.400 256.960,183.565 255.211,180.100 253.169 C 176.635 251.126,173.395 249.197,172.900 248.882 C 172.405 248.566,172.000 248.412,172.000 248.539 M193.600 261.345 C 193.600 261.632,200.304 265.600,200.789 265.600 C 200.989 265.600,201.281 265.392,201.438 265.138 C 201.618 264.848,201.548 264.785,201.249 264.969 C 200.818 265.236,199.359 264.533,195.100 262.010 C 194.275 261.521,193.600 261.222,193.600 261.345 M153.294 265.100 C 154.043 266.145,156.868 270.105,159.572 273.900 C 162.276 277.695,164.571 280.800,164.672 280.800 C 164.881 280.800,164.864 280.775,157.703 270.700 C 154.772 266.575,152.274 263.200,152.152 263.200 C 152.031 263.200,152.545 264.055,153.294 265.100 M165.088 281.700 C 165.301 281.975,167.230 284.675,169.376 287.700 C 171.522 290.725,173.363 293.200,173.466 293.200 C 173.681 293.200,173.148 292.415,168.503 285.900 C 166.660 283.315,165.051 281.200,164.927 281.200 C 164.803 281.200,164.876 281.425,165.088 281.700 M174.400 294.800 C 174.870 295.460,175.344 296.000,175.454 296.000 C 175.564 296.000,175.270 295.460,174.800 294.800 C 174.330 294.140,173.856 293.600,173.746 293.600 C 173.636 293.600,173.930 294.140,174.400 294.800 M177.696 299.500 C 178.447 300.545,180.184 302.975,181.558 304.900 C 184.170 308.563,185.383 309.786,183.143 306.500 C 180.829 303.105,176.741 297.600,176.534 297.600 C 176.423 297.600,176.946 298.455,177.696 299.500 M185.200 310.000 C 185.670 310.660,186.144 311.200,186.254 311.200 C 186.364 311.200,186.070 310.660,185.600 310.000 C 185.130 309.340,184.656 308.800,184.546 308.800 C 184.436 308.800,184.730 309.340,185.200 310.000 M186.685 312.100 C 186.896 312.375,189.903 316.605,193.366 321.500 C 196.830 326.395,199.755 330.400,199.867 330.400 C 199.979 330.400,199.276 329.275,198.306 327.900 C 190.692 317.113,186.706 311.600,186.521 311.600 C 186.400 311.600,186.475 311.825,186.685 312.100 " stroke="none" fill="#a1a2a2" fill-rule="evenodd"></path><path id="path4" d="M197.600 166.600 C 197.050 166.914,196.780 167.172,197.000 167.172 C 197.220 167.172,197.850 166.914,198.400 166.600 C 198.950 166.286,199.220 166.028,199.000 166.028 C 198.780 166.028,198.150 166.286,197.600 166.600 M189.800 170.006 C 178.960 174.948,173.981 177.315,174.124 177.457 C 174.201 177.534,177.759 176.000,182.032 174.048 C 192.575 169.231,196.676 167.269,196.200 167.270 C 195.980 167.270,193.100 168.501,189.800 170.006 M172.000 178.200 C 171.450 178.514,171.180 178.772,171.400 178.772 C 171.620 178.772,172.250 178.514,172.800 178.200 C 173.350 177.886,173.620 177.628,173.400 177.628 C 173.180 177.628,172.550 177.886,172.000 178.200 M168.000 180.000 C 167.230 180.422,166.780 180.766,167.000 180.766 C 167.220 180.766,168.030 180.422,168.800 180.000 C 169.570 179.578,170.020 179.234,169.800 179.234 C 169.580 179.234,168.770 179.578,168.000 180.000 M160.600 183.242 C 153.806 186.300,148.389 188.922,148.543 189.077 C 148.681 189.214,163.495 182.561,165.019 181.677 C 166.778 180.657,164.735 181.380,160.600 183.242 M145.600 190.200 C 145.050 190.514,144.780 190.772,145.000 190.772 C 145.220 190.772,145.850 190.514,146.400 190.200 C 146.950 189.886,147.220 189.628,147.000 189.628 C 146.780 189.628,146.150 189.886,145.600 190.200 M142.000 191.800 C 141.010 192.330,140.380 192.764,140.600 192.764 C 140.820 192.764,141.810 192.330,142.800 191.800 C 143.790 191.270,144.420 190.836,144.200 190.836 C 143.980 190.836,142.990 191.270,142.000 191.800 M134.600 195.041 C 127.426 198.283,121.986 200.919,122.143 201.077 C 122.286 201.219,136.810 194.679,139.000 193.486 C 141.409 192.174,139.282 192.925,134.600 195.041 " stroke="none" fill="#848484" fill-rule="evenodd"></path></g></svg>