<svg id="svg" version="1.1" xmlns="http://www.w3.org/2000/svg" xmlns:xlink="http://www.w3.org/1999/xlink" width="400" height="400" viewBox="0, 0, 400,400"><g id="svgg"><path id="path0" d="M204.560 54.639 C 203.482 55.211,202.060 55.969,201.400 56.324 C 200.740 56.678,198.703 57.966,196.873 59.184 C 195.043 60.403,193.163 61.614,192.696 61.875 C 188.434 64.259,171.600 81.071,171.600 82.943 C 171.600 83.083,170.835 84.256,169.900 85.550 C 166.348 90.465,161.628 100.238,159.926 106.200 C 159.486 107.740,158.965 109.309,158.768 109.687 C 158.059 111.045,156.363 120.040,155.540 126.800 C 155.045 130.868,155.329 148.981,155.899 149.702 C 156.115 149.976,156.412 151.460,156.557 153.000 C 156.908 156.707,158.329 164.792,158.807 165.800 C 159.016 166.240,159.555 168.287,160.005 170.348 C 160.455 172.409,161.029 174.479,161.279 174.948 C 161.721 175.772,163.679 182.531,164.423 185.800 C 165.476 190.424,165.219 203.805,164.024 206.600 C 163.835 207.040,163.371 208.660,162.992 210.200 C 162.200 213.417,161.758 214.492,158.633 220.800 C 155.554 227.016,154.400 228.994,153.095 230.292 L 151.991 231.391 152.189 229.433 C 152.481 226.549,152.814 224.702,153.204 223.800 C 154.727 220.277,154.756 198.940,153.242 195.400 C 153.054 194.960,152.498 192.800,152.006 190.600 C 151.515 188.400,150.890 186.240,150.618 185.800 C 150.346 185.360,149.728 183.936,149.243 182.636 C 148.759 181.336,148.048 179.806,147.662 179.236 C 147.277 178.666,146.746 177.699,146.483 177.086 C 143.914 171.103,130.234 157.757,124.078 155.228 C 122.079 154.407,121.975 154.868,122.819 160.800 C 123.241 163.770,123.590 166.839,123.593 167.620 C 123.597 168.401,123.825 169.265,124.100 169.540 C 124.775 170.215,124.823 192.397,124.152 193.238 C 123.906 193.547,123.577 194.970,123.422 196.400 C 123.036 199.959,122.139 203.673,120.975 206.538 C 120.439 207.858,120.000 209.149,120.000 209.407 C 120.000 209.665,119.280 210.990,118.400 212.351 C 117.520 213.713,116.798 214.956,116.796 215.113 C 116.794 215.271,115.937 216.400,114.890 217.623 C 112.700 220.181,108.400 225.836,108.400 226.158 C 108.400 226.277,107.536 227.699,106.480 229.316 C 102.555 235.329,97.316 247.034,95.790 253.200 C 95.381 254.850,94.907 256.392,94.736 256.626 C 92.552 259.616,92.439 284.140,94.586 289.400 C 94.856 290.060,95.413 291.680,95.824 293.000 C 97.153 297.261,100.756 304.347,102.781 306.683 C 103.012 306.949,103.200 307.289,103.200 307.439 C 103.200 308.808,114.879 320.564,118.878 323.220 C 120.187 324.090,122.370 325.587,123.729 326.549 C 125.088 327.510,127.550 329.054,129.200 329.981 C 130.850 330.907,132.650 331.921,133.200 332.234 C 134.554 333.004,142.006 336.400,142.343 336.400 C 142.491 336.400,143.239 336.733,144.006 337.140 C 144.773 337.547,146.660 338.291,148.200 338.793 C 149.740 339.296,151.180 339.846,151.400 340.017 C 151.620 340.188,153.600 340.804,155.800 341.387 C 158.000 341.969,160.520 342.684,161.400 342.975 C 162.280 343.266,164.710 343.823,166.800 344.213 C 168.890 344.603,170.780 345.059,171.000 345.226 C 171.757 345.801,177.994 346.566,178.422 346.138 C 178.881 345.679,178.515 344.400,177.925 344.400 C 177.027 344.400,170.204 340.708,167.989 339.024 C 166.670 338.021,165.458 337.198,165.296 337.195 C 162.823 337.157,154.820 325.199,153.786 320.000 C 153.633 319.230,153.323 318.371,153.097 318.090 C 152.488 317.335,152.504 306.536,153.115 305.925 C 153.382 305.658,153.600 304.981,153.601 304.420 C 153.602 303.202,155.481 296.035,155.959 295.427 C 156.143 295.192,156.689 293.920,157.173 292.600 C 157.657 291.280,158.284 289.840,158.566 289.400 C 158.848 288.960,159.312 287.880,159.597 287.000 C 159.882 286.120,160.523 284.500,161.021 283.400 C 161.519 282.300,162.319 279.960,162.799 278.200 C 163.280 276.440,163.833 274.692,164.029 274.316 C 165.935 270.666,166.821 256.946,165.529 251.068 C 165.289 249.974,165.256 248.986,165.452 248.792 C 165.968 248.282,170.207 251.268,173.312 254.327 C 176.050 257.026,176.731 258.005,178.651 262.000 C 179.232 263.210,179.909 264.560,180.154 265.000 C 180.411 265.461,180.631 268.155,180.672 271.352 C 180.714 274.555,180.920 277.080,181.160 277.320 C 181.956 278.116,195.668 263.544,196.704 260.800 C 196.828 260.470,197.503 259.300,198.203 258.200 C 200.260 254.965,201.819 251.964,202.770 249.405 C 203.259 248.088,203.829 246.807,204.035 246.558 C 205.014 245.378,207.200 233.819,207.200 229.817 C 207.200 224.593,205.200 214.511,203.688 212.118 C 203.098 211.183,203.311 210.400,204.155 210.400 C 204.973 210.400,212.020 216.438,214.220 219.025 C 216.644 221.874,218.800 224.828,218.800 225.300 C 218.800 225.488,219.254 226.308,219.809 227.121 C 220.365 227.935,221.183 229.860,221.628 231.400 C 222.073 232.940,222.606 234.560,222.812 235.000 C 224.735 239.114,224.768 256.971,222.859 260.683 C 222.657 261.077,222.009 263.470,221.420 266.000 C 220.832 268.530,220.181 270.913,219.975 271.295 C 219.469 272.233,219.490 281.085,220.000 281.400 C 220.220 281.536,220.400 282.055,220.400 282.554 C 220.400 286.499,226.980 298.000,229.237 298.000 C 230.101 298.000,230.146 297.659,229.581 295.400 C 227.889 288.633,227.023 279.617,227.974 278.666 C 228.208 278.432,228.400 277.864,228.400 277.404 C 228.400 273.322,231.321 267.445,235.432 263.253 C 239.867 258.731,239.832 258.697,239.654 267.434 C 239.421 278.932,240.965 284.508,245.802 289.634 C 246.131 289.982,246.400 290.376,246.400 290.508 C 246.400 290.641,247.175 291.886,248.122 293.275 C 251.217 297.815,253.762 304.035,254.261 308.276 C 254.399 309.457,254.667 310.518,254.856 310.635 C 255.300 310.909,255.307 318.920,254.863 319.420 C 254.678 319.629,254.297 320.880,254.017 322.200 C 252.865 327.616,248.579 333.634,242.621 338.197 C 239.499 340.588,239.158 341.055,240.230 341.467 C 240.944 341.741,245.096 340.571,247.182 339.507 C 247.945 339.118,248.812 338.800,249.109 338.800 C 249.406 338.800,250.583 338.367,251.725 337.839 C 252.866 337.310,255.113 336.310,256.717 335.617 C 265.061 332.011,275.345 325.685,282.307 319.876 C 286.609 316.287,294.800 307.617,294.800 306.652 C 294.800 306.507,295.598 305.291,296.573 303.951 C 297.548 302.611,299.199 299.779,300.242 297.658 C 301.285 295.536,302.449 293.170,302.829 292.400 C 303.208 291.630,303.821 289.830,304.190 288.400 C 304.559 286.970,305.011 285.513,305.195 285.163 C 307.574 280.615,307.615 253.557,305.249 248.897 C 305.054 248.513,304.433 246.310,303.869 244.000 C 302.464 238.252,299.403 229.596,297.008 224.600 C 295.916 222.323,294.467 219.036,293.393 216.400 C 292.990 215.410,292.268 213.700,291.788 212.600 C 291.308 211.500,290.688 209.880,290.411 209.000 C 290.133 208.120,289.658 206.860,289.356 206.200 C 288.543 204.423,286.511 198.304,285.371 194.200 C 284.822 192.220,284.209 190.305,284.010 189.944 C 283.811 189.583,283.167 186.703,282.580 183.544 C 281.992 180.385,281.363 177.440,281.181 177.000 C 279.297 172.451,279.302 148.038,281.187 144.466 C 281.380 144.100,281.841 142.630,282.211 141.200 C 282.865 138.674,284.414 135.428,286.084 133.082 C 288.903 129.123,279.559 132.953,271.159 139.200 C 269.531 140.410,267.980 141.490,267.712 141.601 C 266.080 142.273,255.104 153.294,253.878 155.492 C 253.615 155.963,252.754 157.305,251.964 158.474 C 250.666 160.395,249.176 163.294,246.862 168.400 C 244.828 172.889,242.959 186.287,244.012 188.830 C 244.533 190.087,244.250 192.000,243.544 192.000 C 242.976 192.000,230.681 179.578,228.674 176.978 C 227.835 175.890,225.433 172.840,223.337 170.200 C 221.241 167.560,219.382 165.034,219.206 164.587 C 219.030 164.140,218.282 162.970,217.543 161.987 C 215.901 159.802,214.000 156.901,214.000 156.581 C 214.000 156.451,213.484 155.592,212.854 154.672 C 212.224 153.752,211.344 152.280,210.900 151.400 C 210.455 150.520,209.159 148.000,208.020 145.800 C 206.881 143.600,205.577 140.810,205.121 139.600 C 204.666 138.390,204.141 137.206,203.955 136.969 C 203.769 136.732,203.236 135.292,202.770 133.769 C 202.304 132.246,201.679 130.460,201.381 129.800 C 200.685 128.259,198.150 117.847,197.583 114.200 C 196.380 106.463,196.461 92.012,197.748 84.600 C 198.513 80.194,200.632 72.014,201.379 70.581 C 201.718 69.932,201.996 69.163,201.998 68.874 C 202.002 68.018,204.805 61.450,206.831 57.549 C 208.902 53.562,208.226 52.695,204.560 54.639 " stroke="none" fill="#fbfbfb" fill-rule="evenodd"></path><path id="path1" d="M203.200 54.843 C 201.550 55.741,199.269 57.088,198.132 57.838 C 196.995 58.587,195.870 59.200,195.632 59.200 C 195.394 59.200,195.200 59.386,195.200 59.613 C 195.200 59.839,194.885 60.141,194.500 60.283 C 190.281 61.838,170.000 82.082,170.000 84.738 C 170.000 84.970,169.775 85.304,169.500 85.480 C 169.225 85.656,168.568 86.610,168.041 87.600 C 167.513 88.590,166.873 89.670,166.618 90.000 C 166.176 90.573,163.402 96.176,161.668 100.000 C 161.219 100.990,160.474 102.970,160.012 104.400 C 159.550 105.830,159.000 107.360,158.789 107.800 C 158.278 108.865,156.931 114.847,156.582 117.600 C 156.429 118.810,156.164 119.890,155.995 120.000 C 154.502 120.967,154.547 151.786,156.043 153.380 C 156.239 153.589,156.400 154.235,156.400 154.815 C 156.400 156.309,158.357 166.722,158.789 167.529 C 158.987 167.898,159.540 169.910,160.018 172.000 C 160.496 174.090,161.046 175.997,161.241 176.238 C 161.715 176.825,163.600 184.313,163.600 185.611 C 163.600 186.177,163.825 186.865,164.100 187.140 C 164.466 187.506,164.600 189.725,164.600 195.400 C 164.600 201.075,164.466 203.294,164.100 203.660 C 163.825 203.935,163.600 204.587,163.600 205.109 C 163.600 206.710,161.965 212.875,160.923 215.200 C 158.729 220.100,156.603 224.311,155.338 226.268 C 154.602 227.405,154.000 228.524,154.000 228.754 C 154.000 228.984,153.637 229.366,153.192 229.604 C 152.337 230.062,152.387 227.267,153.254 226.160 C 155.198 223.677,155.148 197.620,153.190 193.000 C 153.004 192.560,152.555 190.940,152.192 189.400 C 151.830 187.860,151.315 186.240,151.048 185.800 C 150.782 185.360,150.061 183.696,149.447 182.102 C 148.833 180.509,148.164 179.101,147.960 178.975 C 147.755 178.849,147.314 178.091,146.980 177.291 C 146.646 176.491,145.659 174.891,144.786 173.735 C 143.914 172.580,143.200 171.543,143.200 171.431 C 143.200 170.726,133.800 161.188,131.800 159.864 C 130.920 159.282,128.959 157.917,127.442 156.831 C 121.963 152.911,121.360 153.387,122.416 160.800 C 122.839 163.770,123.306 168.141,123.454 170.514 C 123.601 172.887,123.875 174.922,124.061 175.038 C 124.549 175.340,124.491 188.297,124.000 188.600 C 123.780 188.736,123.600 189.634,123.600 190.595 C 123.600 194.081,121.999 203.581,121.241 204.589 C 121.072 204.815,120.522 206.260,120.019 207.800 C 119.085 210.663,114.439 218.257,113.371 218.666 C 113.057 218.787,112.800 219.057,112.800 219.266 C 112.800 219.475,111.622 221.173,110.181 223.039 C 108.741 224.905,107.446 226.739,107.304 227.116 C 107.162 227.492,106.293 228.970,105.373 230.400 C 103.503 233.306,98.761 242.933,97.983 245.400 C 97.706 246.280,97.259 247.360,96.990 247.800 C 96.721 248.240,96.196 249.857,95.823 251.392 C 95.450 252.928,94.979 254.384,94.776 254.628 C 93.019 256.746,91.813 278.831,93.119 285.000 C 94.064 289.468,94.486 290.995,95.244 292.696 C 95.660 293.628,96.000 294.570,96.000 294.788 C 96.000 295.359,99.179 302.087,99.785 302.800 C 100.066 303.130,100.790 304.298,101.394 305.396 C 104.052 310.231,118.885 325.200,121.017 325.200 C 121.132 325.200,122.662 326.206,124.418 327.437 C 126.173 328.667,128.642 330.207,129.905 330.859 C 131.167 331.511,132.830 332.395,133.600 332.824 C 134.370 333.253,136.620 334.333,138.600 335.224 C 140.580 336.115,142.693 337.113,143.296 337.442 C 143.899 337.772,145.339 338.320,146.496 338.661 C 147.653 339.002,149.410 339.649,150.400 340.098 C 151.390 340.548,153.640 341.265,155.400 341.693 C 157.160 342.121,158.780 342.606,159.000 342.771 C 159.220 342.937,161.380 343.475,163.800 343.969 C 166.220 344.462,168.516 345.033,168.901 345.237 C 170.620 346.147,177.980 346.991,178.620 346.351 C 179.684 345.288,178.835 344.471,174.460 342.353 C 162.281 336.454,153.687 325.559,153.614 315.924 C 153.606 314.892,153.420 313.936,153.200 313.800 C 152.713 313.499,152.663 310.132,153.141 309.837 C 153.328 309.721,153.585 308.395,153.711 306.891 C 153.955 303.977,155.448 297.267,156.001 296.600 C 156.183 296.380,156.724 295.067,157.203 293.683 C 157.682 292.299,158.595 290.139,159.232 288.883 C 159.869 287.627,160.392 286.390,160.395 286.133 C 160.398 285.876,160.824 284.796,161.343 283.733 C 161.862 282.670,162.601 280.630,162.986 279.200 C 163.371 277.770,163.829 276.420,164.003 276.200 C 164.525 275.540,166.006 268.025,166.273 264.686 C 166.409 262.974,166.674 261.478,166.860 261.363 C 167.338 261.068,167.286 257.300,166.800 257.000 C 166.580 256.864,166.399 255.818,166.398 254.676 C 166.397 253.534,166.203 251.908,165.969 251.062 C 165.390 248.980,165.645 248.889,167.941 250.362 C 172.857 253.517,178.702 261.028,179.442 265.144 C 179.586 265.945,179.874 266.815,180.082 267.077 C 180.290 267.340,180.416 269.625,180.362 272.154 C 180.252 277.272,180.603 278.347,182.121 277.535 C 182.941 277.096,190.614 269.459,191.400 268.299 C 191.620 267.975,193.014 266.199,194.497 264.354 C 195.980 262.510,197.494 260.370,197.861 259.600 C 198.228 258.830,198.893 257.660,199.338 257.000 C 199.784 256.340,200.456 255.338,200.832 254.773 C 201.208 254.208,202.004 252.498,202.599 250.973 C 203.195 249.448,204.009 247.480,204.408 246.600 C 204.808 245.720,205.432 243.560,205.795 241.800 C 206.159 240.040,206.668 238.167,206.928 237.638 C 207.576 236.318,207.583 221.944,206.936 221.161 C 206.680 220.853,206.347 219.880,206.195 219.000 C 205.746 216.406,204.760 213.066,204.163 212.121 C 203.147 210.510,204.362 210.674,206.709 212.465 C 210.879 215.648,218.000 223.320,218.000 224.631 C 218.000 224.776,218.604 225.909,219.342 227.148 C 220.080 228.386,221.104 230.930,221.618 232.800 C 222.132 234.670,222.688 236.386,222.853 236.613 C 224.276 238.570,224.218 257.152,222.782 259.000 C 222.611 259.220,222.346 260.120,222.191 261.000 C 221.683 263.903,220.356 268.571,219.874 269.152 C 219.059 270.134,219.256 282.705,220.110 284.200 C 220.487 284.860,220.796 285.656,220.798 285.970 C 220.803 287.216,224.107 293.174,226.199 295.711 C 229.528 299.746,230.966 299.362,229.837 294.738 C 226.555 281.295,228.563 270.694,235.792 263.300 C 239.587 259.418,239.400 259.127,239.400 268.900 C 239.400 274.612,239.575 278.122,239.933 279.600 C 240.554 282.164,243.153 287.607,243.892 287.891 C 244.172 287.998,244.400 288.314,244.400 288.594 C 244.400 288.873,244.659 289.317,244.976 289.580 C 245.990 290.422,249.364 295.719,250.466 298.200 C 252.691 303.207,252.920 303.801,253.464 305.972 C 256.717 318.939,251.951 331.923,241.500 338.563 C 236.573 341.694,240.256 343.121,246.200 340.384 C 247.080 339.979,248.957 339.252,250.372 338.768 C 251.786 338.284,253.946 337.395,255.172 336.793 C 256.397 336.191,257.850 335.564,258.400 335.400 C 258.950 335.236,259.580 334.963,259.800 334.793 C 260.150 334.522,265.113 331.857,268.600 330.067 C 269.260 329.729,270.997 328.584,272.460 327.523 C 273.923 326.462,275.595 325.348,276.176 325.046 C 280.302 322.906,296.400 307.024,296.400 305.094 C 296.400 305.002,297.390 303.414,298.600 301.564 C 299.810 299.714,300.800 298.084,300.800 297.940 C 300.800 297.797,301.501 296.176,302.358 294.338 C 303.215 292.501,304.132 290.188,304.397 289.199 C 304.662 288.209,305.025 287.220,305.205 287.000 C 307.070 284.718,308.196 263.182,306.878 255.000 C 306.100 250.165,305.555 247.487,305.171 246.600 C 304.981 246.160,304.444 244.270,303.978 242.400 C 303.513 240.530,302.987 238.820,302.809 238.600 C 302.631 238.380,302.171 237.030,301.786 235.600 C 301.401 234.170,300.662 232.130,300.143 231.067 C 299.624 230.004,299.200 228.951,299.200 228.727 C 299.200 228.503,298.506 226.853,297.657 225.060 C 296.808 223.267,295.872 221.125,295.576 220.300 C 295.281 219.475,294.916 218.800,294.766 218.800 C 294.616 218.800,294.399 218.395,294.284 217.900 C 293.969 216.540,292.341 212.260,291.951 211.764 C 291.763 211.524,291.145 209.909,290.579 208.175 C 290.013 206.441,289.398 204.837,289.212 204.611 C 289.026 204.385,288.462 202.760,287.959 201.000 C 287.455 199.240,286.921 197.710,286.773 197.600 C 286.625 197.490,286.013 195.435,285.414 193.034 C 284.815 190.633,284.174 188.383,283.990 188.034 C 283.601 187.294,282.153 179.996,281.762 176.800 C 281.615 175.590,281.352 174.419,281.179 174.198 C 279.720 172.333,279.733 148.058,281.193 146.200 C 281.366 145.980,281.634 145.170,281.789 144.400 C 282.375 141.476,283.596 137.990,284.579 136.433 C 285.141 135.543,285.600 134.705,285.600 134.570 C 285.600 134.434,285.979 133.791,286.443 133.140 C 287.237 132.025,287.246 131.914,286.608 131.209 C 285.779 130.293,284.451 130.677,280.400 133.005 C 278.970 133.826,276.990 134.956,276.000 135.515 C 275.010 136.073,273.263 137.221,272.117 138.065 C 270.971 138.909,269.911 139.600,269.760 139.600 C 268.975 139.600,261.317 146.578,257.254 150.996 C 250.466 158.378,244.400 170.409,244.400 176.491 C 244.400 177.013,244.176 177.664,243.903 177.937 C 243.548 178.292,243.405 180.313,243.403 185.039 L 243.400 191.644 242.585 190.622 C 242.137 190.060,241.585 189.600,241.360 189.600 C 240.763 189.600,231.226 179.662,229.600 177.345 C 229.270 176.875,227.230 174.355,225.067 171.745 C 222.904 169.135,220.975 166.640,220.780 166.200 C 220.584 165.760,219.616 164.320,218.627 163.000 C 217.638 161.680,216.438 159.880,215.960 159.000 C 215.482 158.120,214.595 156.677,213.990 155.793 C 211.901 152.742,206.762 142.762,205.137 138.600 C 204.622 137.280,204.065 136.140,203.900 136.067 C 203.735 135.993,203.601 135.723,203.602 135.467 C 203.604 134.877,201.660 128.600,200.980 127.000 C 200.699 126.340,200.158 124.180,199.776 122.200 C 199.394 120.220,198.945 118.420,198.778 118.200 C 196.749 115.527,196.758 83.980,198.789 81.400 C 198.962 81.180,199.410 79.470,199.783 77.600 C 200.156 75.730,200.706 73.660,201.005 73.000 C 201.304 72.340,201.928 70.542,202.391 69.005 C 202.854 67.467,203.459 65.847,203.735 65.405 C 204.011 64.962,204.753 63.250,205.384 61.600 C 206.015 59.950,206.642 58.510,206.777 58.400 C 206.912 58.290,207.350 57.457,207.750 56.549 C 209.325 52.974,207.732 52.377,203.200 54.843 M208.000 54.449 C 208.000 54.916,207.474 56.311,206.831 57.549 C 204.805 61.450,202.002 68.018,201.998 68.874 C 201.996 69.163,201.718 69.932,201.379 70.581 C 196.174 80.564,195.240 105.572,199.429 122.800 C 200.205 125.990,201.083 129.140,201.381 129.800 C 201.679 130.460,202.304 132.246,202.770 133.769 C 203.236 135.292,203.769 136.732,203.955 136.969 C 204.141 137.206,204.666 138.390,205.121 139.600 C 205.577 140.810,206.881 143.600,208.020 145.800 C 209.159 148.000,210.455 150.520,210.900 151.400 C 211.344 152.280,212.224 153.752,212.854 154.672 C 213.484 155.592,214.000 156.451,214.000 156.581 C 214.000 156.901,215.901 159.802,217.543 161.987 C 218.282 162.970,219.030 164.140,219.206 164.587 C 219.382 165.034,221.241 167.560,223.337 170.200 C 225.433 172.840,227.835 175.890,228.674 176.978 C 230.681 179.578,242.976 192.000,243.544 192.000 C 244.250 192.000,244.533 190.087,244.012 188.830 C 242.959 186.287,244.828 172.889,246.862 168.400 C 249.176 163.294,250.666 160.395,251.964 158.474 C 252.754 157.305,253.615 155.963,253.878 155.492 C 255.104 153.294,266.080 142.273,267.712 141.601 C 267.980 141.490,269.531 140.410,271.159 139.200 C 279.559 132.953,288.903 129.123,286.084 133.082 C 284.414 135.428,282.865 138.674,282.211 141.200 C 281.841 142.630,281.380 144.100,281.187 144.466 C 279.302 148.038,279.297 172.451,281.181 177.000 C 281.363 177.440,281.992 180.385,282.580 183.544 C 283.167 186.703,283.811 189.583,284.010 189.944 C 284.209 190.305,284.822 192.220,285.371 194.200 C 286.511 198.304,288.543 204.423,289.356 206.200 C 289.658 206.860,290.133 208.120,290.411 209.000 C 290.688 209.880,291.308 211.500,291.788 212.600 C 292.268 213.700,292.990 215.410,293.393 216.400 C 294.467 219.036,295.916 222.323,297.008 224.600 C 299.403 229.596,302.464 238.252,303.869 244.000 C 304.433 246.310,305.054 248.513,305.249 248.897 C 307.615 253.557,307.574 280.615,305.195 285.163 C 305.011 285.513,304.559 286.970,304.190 288.400 C 303.821 289.830,303.208 291.630,302.829 292.400 C 302.449 293.170,301.285 295.536,300.242 297.658 C 299.199 299.779,297.548 302.611,296.573 303.951 C 295.598 305.291,294.800 306.507,294.800 306.652 C 294.800 307.617,286.609 316.287,282.307 319.876 C 275.345 325.685,265.061 332.011,256.717 335.617 C 255.113 336.310,252.866 337.310,251.725 337.839 C 250.583 338.367,249.406 338.800,249.109 338.800 C 248.812 338.800,247.945 339.118,247.182 339.507 C 245.096 340.571,240.944 341.741,240.230 341.467 C 239.158 341.055,239.499 340.588,242.621 338.197 C 248.579 333.634,252.865 327.616,254.017 322.200 C 254.297 320.880,254.678 319.629,254.863 319.420 C 255.307 318.920,255.300 310.909,254.856 310.635 C 254.667 310.518,254.399 309.457,254.261 308.276 C 253.762 304.035,251.217 297.815,248.122 293.275 C 247.175 291.886,246.400 290.641,246.400 290.508 C 246.400 290.376,246.131 289.982,245.802 289.634 C 240.965 284.508,239.421 278.932,239.654 267.434 C 239.832 258.697,239.867 258.731,235.432 263.253 C 231.321 267.445,228.400 273.322,228.400 277.404 C 228.400 277.864,228.208 278.432,227.974 278.666 C 227.023 279.617,227.889 288.633,229.581 295.400 C 230.146 297.659,230.101 298.000,229.237 298.000 C 226.980 298.000,220.400 286.499,220.400 282.554 C 220.400 282.055,220.220 281.536,220.000 281.400 C 219.490 281.085,219.469 272.233,219.975 271.295 C 220.181 270.913,220.832 268.530,221.420 266.000 C 222.009 263.470,222.657 261.077,222.859 260.683 C 224.768 256.971,224.735 239.114,222.812 235.000 C 222.606 234.560,222.073 232.940,221.628 231.400 C 221.183 229.860,220.365 227.935,219.809 227.121 C 219.254 226.308,218.800 225.488,218.800 225.300 C 218.800 222.470,204.495 209.027,203.389 210.818 C 203.247 211.047,203.382 211.632,203.688 212.118 C 205.200 214.511,207.200 224.593,207.200 229.817 C 207.200 233.819,205.014 245.378,204.035 246.558 C 203.829 246.807,203.259 248.088,202.770 249.405 C 201.819 251.964,200.260 254.965,198.203 258.200 C 197.503 259.300,196.828 260.470,196.704 260.800 C 195.668 263.544,181.956 278.116,181.160 277.320 C 180.920 277.080,180.714 274.555,180.672 271.352 C 180.631 268.155,180.411 265.461,180.154 265.000 C 179.909 264.560,179.232 263.210,178.651 262.000 C 176.731 258.005,176.050 257.026,173.312 254.327 C 170.207 251.268,165.968 248.282,165.452 248.792 C 165.256 248.986,165.289 249.974,165.529 251.068 C 166.821 256.946,165.935 270.666,164.029 274.316 C 163.833 274.692,163.280 276.440,162.799 278.200 C 162.319 279.960,161.519 282.300,161.021 283.400 C 160.523 284.500,159.882 286.120,159.597 287.000 C 159.312 287.880,158.848 288.960,158.566 289.400 C 158.284 289.840,157.657 291.280,157.173 292.600 C 156.689 293.920,156.143 295.192,155.959 295.427 C 155.481 296.035,153.602 303.202,153.601 304.420 C 153.600 304.981,153.382 305.658,153.115 305.925 C 152.504 306.536,152.488 317.335,153.097 318.090 C 153.323 318.371,153.633 319.230,153.786 320.000 C 154.820 325.199,162.823 337.157,165.296 337.195 C 165.458 337.198,166.670 338.021,167.989 339.024 C 170.204 340.708,177.027 344.400,177.925 344.400 C 178.515 344.400,178.881 345.679,178.422 346.138 C 177.994 346.566,171.757 345.801,171.000 345.226 C 170.780 345.059,168.890 344.603,166.800 344.213 C 164.710 343.823,162.280 343.266,161.400 342.975 C 160.520 342.684,158.000 341.969,155.800 341.387 C 153.600 340.804,151.620 340.188,151.400 340.017 C 151.180 339.846,149.740 339.296,148.200 338.793 C 146.660 338.291,144.773 337.547,144.006 337.140 C 143.239 336.733,142.491 336.400,142.343 336.400 C 142.006 336.400,134.554 333.004,133.200 332.234 C 132.650 331.921,130.850 330.907,129.200 329.981 C 127.550 329.054,125.088 327.510,123.729 326.549 C 122.370 325.587,120.187 324.090,118.878 323.220 C 114.879 320.564,103.200 308.808,103.200 307.439 C 103.200 307.289,103.012 306.949,102.781 306.683 C 100.756 304.347,97.153 297.261,95.824 293.000 C 95.413 291.680,94.856 290.060,94.586 289.400 C 92.439 284.140,92.552 259.616,94.736 256.626 C 94.907 256.392,95.381 254.850,95.790 253.200 C 97.316 247.034,102.555 235.329,106.480 229.316 C 107.536 227.699,108.400 226.277,108.400 226.158 C 108.400 225.836,112.700 220.181,114.890 217.623 C 115.937 216.400,116.794 215.271,116.796 215.113 C 116.798 214.956,117.520 213.713,118.400 212.351 C 119.280 210.990,120.000 209.665,120.000 209.407 C 120.000 209.149,120.439 207.858,120.975 206.538 C 122.139 203.673,123.036 199.959,123.422 196.400 C 123.577 194.970,123.906 193.547,124.152 193.238 C 124.823 192.397,124.775 170.215,124.100 169.540 C 123.825 169.265,123.597 168.401,123.593 167.620 C 123.590 166.839,123.241 163.770,122.819 160.800 C 121.975 154.868,122.079 154.407,124.078 155.228 C 130.234 157.757,143.914 171.103,146.483 177.086 C 146.746 177.699,147.277 178.666,147.662 179.236 C 148.048 179.806,148.759 181.336,149.243 182.636 C 149.728 183.936,150.346 185.360,150.618 185.800 C 150.890 186.240,151.515 188.400,152.006 190.600 C 152.498 192.800,153.054 194.960,153.242 195.400 C 154.756 198.940,154.727 220.277,153.204 223.800 C 152.814 224.702,152.481 226.549,152.189 229.433 L 151.991 231.391 153.095 230.292 C 154.400 228.994,155.554 227.016,158.633 220.800 C 161.758 214.492,162.200 213.417,162.992 210.200 C 163.371 208.660,163.835 207.040,164.024 206.600 C 165.219 203.805,165.476 190.424,164.423 185.800 C 163.679 182.531,161.721 175.772,161.279 174.948 C 161.029 174.479,160.455 172.409,160.005 170.348 C 159.555 168.287,159.016 166.240,158.807 165.800 C 158.329 164.792,156.908 156.707,156.557 153.000 C 156.412 151.460,156.115 149.976,155.899 149.702 C 155.329 148.981,155.045 130.868,155.540 126.800 C 156.363 120.040,158.059 111.045,158.768 109.687 C 158.965 109.309,159.486 107.740,159.926 106.200 C 161.628 100.238,166.348 90.465,169.900 85.550 C 170.835 84.256,171.600 83.083,171.600 82.943 C 171.600 81.071,188.434 64.259,192.696 61.875 C 193.163 61.614,195.043 60.403,196.873 59.184 C 198.703 57.966,200.740 56.678,201.400 56.324 C 207.228 53.191,208.000 52.972,208.000 54.449 " stroke="none" fill="#aca4a4" fill-rule="evenodd"></path><path id="path2" d="M0.000 200.000 L 0.000 400.000 200.000 400.000 L 400.000 400.000 400.000 200.000 L 400.000 0.000 200.000 0.000 L 0.000 0.000 0.000 200.000 M208.335 54.149 C 208.467 54.845,207.329 57.949,206.777 58.400 C 206.642 58.510,206.015 59.950,205.384 61.600 C 204.753 63.250,204.011 64.962,203.735 65.405 C 203.459 65.847,202.854 67.467,202.391 69.005 C 201.928 70.542,201.304 72.340,201.005 73.000 C 200.706 73.660,200.156 75.730,199.783 77.600 C 199.410 79.470,198.962 81.180,198.789 81.400 C 196.758 83.980,196.749 115.527,198.778 118.200 C 198.945 118.420,199.394 120.220,199.776 122.200 C 200.158 124.180,200.699 126.340,200.980 127.000 C 201.660 128.600,203.604 134.877,203.602 135.467 C 203.601 135.723,203.735 135.993,203.900 136.067 C 204.065 136.140,204.622 137.280,205.137 138.600 C 206.762 142.762,211.901 152.742,213.990 155.793 C 214.595 156.677,215.482 158.120,215.960 159.000 C 216.438 159.880,217.638 161.680,218.627 163.000 C 219.616 164.320,220.584 165.760,220.780 166.200 C 220.975 166.640,222.904 169.135,225.067 171.745 C 227.230 174.355,229.270 176.875,229.600 177.345 C 231.226 179.662,240.763 189.600,241.360 189.600 C 241.585 189.600,242.137 190.060,242.585 190.622 L 243.400 191.644 243.403 185.039 C 243.405 180.313,243.548 178.292,243.903 177.937 C 244.176 177.664,244.400 177.013,244.400 176.491 C 244.400 170.409,250.466 158.378,257.254 150.996 C 261.317 146.578,268.975 139.600,269.760 139.600 C 269.911 139.600,270.971 138.909,272.117 138.065 C 273.263 137.221,275.010 136.073,276.000 135.515 C 276.990 134.956,278.970 133.826,280.400 133.005 C 284.451 130.677,285.779 130.293,286.608 131.209 C 287.246 131.914,287.237 132.025,286.443 133.140 C 285.979 133.791,285.600 134.434,285.600 134.570 C 285.600 134.705,285.141 135.543,284.579 136.433 C 283.596 137.990,282.375 141.476,281.789 144.400 C 281.634 145.170,281.366 145.980,281.193 146.200 C 279.733 148.058,279.720 172.333,281.179 174.198 C 281.352 174.419,281.615 175.590,281.762 176.800 C 282.153 179.996,283.601 187.294,283.990 188.034 C 284.174 188.383,284.815 190.633,285.414 193.034 C 286.013 195.435,286.625 197.490,286.773 197.600 C 286.921 197.710,287.455 199.240,287.959 201.000 C 288.462 202.760,289.026 204.385,289.212 204.611 C 289.398 204.837,290.013 206.441,290.579 208.175 C 291.145 209.909,291.763 211.524,291.951 211.764 C 292.341 212.260,293.969 216.540,294.284 217.900 C 294.399 218.395,294.616 218.800,294.766 218.800 C 294.916 218.800,295.281 219.475,295.576 220.300 C 295.872 221.125,296.808 223.267,297.657 225.060 C 298.506 226.853,299.200 228.503,299.200 228.727 C 299.200 228.951,299.624 230.004,300.143 231.067 C 300.662 232.130,301.401 234.170,301.786 235.600 C 302.171 237.030,302.631 238.380,302.809 238.600 C 302.987 238.820,303.513 240.530,303.978 242.400 C 304.444 244.270,304.981 246.160,305.171 246.600 C 305.555 247.487,306.100 250.165,306.878 255.000 C 308.196 263.182,307.070 284.718,305.205 287.000 C 305.025 287.220,304.662 288.209,304.397 289.199 C 304.132 290.188,303.215 292.501,302.358 294.338 C 301.501 296.176,300.800 297.797,300.800 297.940 C 300.800 298.084,299.810 299.714,298.600 301.564 C 297.390 303.414,296.400 305.002,296.400 305.094 C 296.400 307.024,280.302 322.906,276.176 325.046 C 275.595 325.348,273.923 326.462,272.460 327.523 C 270.997 328.584,269.260 329.729,268.600 330.067 C 265.113 331.857,260.150 334.522,259.800 334.793 C 259.580 334.963,258.950 335.236,258.400 335.400 C 257.850 335.564,256.397 336.191,255.172 336.793 C 253.946 337.395,251.786 338.284,250.372 338.768 C 248.957 339.252,247.080 339.979,246.200 340.384 C 240.256 343.121,236.573 341.694,241.500 338.563 C 251.951 331.923,256.717 318.939,253.464 305.972 C 252.920 303.801,252.691 303.207,250.466 298.200 C 249.364 295.719,245.990 290.422,244.976 289.580 C 244.659 289.317,244.400 288.873,244.400 288.594 C 244.400 288.314,244.172 287.998,243.892 287.891 C 243.153 287.607,240.554 282.164,239.933 279.600 C 239.575 278.122,239.400 274.612,239.400 268.900 C 239.400 259.127,239.587 259.418,235.792 263.300 C 228.563 270.694,226.555 281.295,229.837 294.738 C 230.966 299.362,229.528 299.746,226.199 295.711 C 224.107 293.174,220.803 287.216,220.798 285.970 C 220.796 285.656,220.487 284.860,220.110 284.200 C 219.256 282.705,219.059 270.134,219.874 269.152 C 220.356 268.571,221.683 263.903,222.191 261.000 C 222.346 260.120,222.611 259.220,222.782 259.000 C 224.218 257.152,224.276 238.570,222.853 236.613 C 222.688 236.386,222.132 234.670,221.618 232.800 C 221.104 230.930,220.080 228.386,219.342 227.148 C 218.604 225.909,218.000 224.776,218.000 224.631 C 218.000 223.320,210.879 215.648,206.709 212.465 C 204.362 210.674,203.147 210.510,204.163 212.121 C 204.760 213.066,205.746 216.406,206.195 219.000 C 206.347 219.880,206.680 220.853,206.936 221.161 C 207.583 221.944,207.576 236.318,206.928 237.638 C 206.668 238.167,206.159 240.040,205.795 241.800 C 205.432 243.560,204.808 245.720,204.408 246.600 C 204.009 247.480,203.195 249.448,202.599 250.973 C 202.004 252.498,201.208 254.208,200.832 254.773 C 200.456 255.338,199.784 256.340,199.338 257.000 C 198.893 257.660,198.228 258.830,197.861 259.600 C 197.494 260.370,195.980 262.510,194.497 264.354 C 193.014 266.199,191.620 267.975,191.400 268.299 C 190.614 269.459,182.941 277.096,182.121 277.535 C 180.603 278.347,180.252 277.272,180.362 272.154 C 180.416 269.625,180.290 267.340,180.082 267.077 C 179.874 266.815,179.586 265.945,179.442 265.144 C 178.702 261.028,172.857 253.517,167.941 250.362 C 165.645 248.889,165.390 248.980,165.969 251.062 C 166.203 251.908,166.397 253.534,166.398 254.676 C 166.399 255.818,166.580 256.864,166.800 257.000 C 167.286 257.300,167.338 261.068,166.860 261.363 C 166.674 261.478,166.409 262.974,166.273 264.686 C 166.006 268.025,164.525 275.540,164.003 276.200 C 163.829 276.420,163.371 277.770,162.986 279.200 C 162.601 280.630,161.862 282.670,161.343 283.733 C 160.824 284.796,160.398 285.876,160.395 286.133 C 160.392 286.390,159.869 287.627,159.232 288.883 C 158.595 290.139,157.682 292.299,157.203 293.683 C 156.724 295.067,156.183 296.380,156.001 296.600 C 155.448 297.267,153.955 303.977,153.711 306.891 C 153.585 308.395,153.328 309.721,153.141 309.837 C 152.663 310.132,152.713 313.499,153.200 313.800 C 153.420 313.936,153.606 314.892,153.614 315.924 C 153.687 325.559,162.281 336.454,174.460 342.353 C 178.835 344.471,179.684 345.288,178.620 346.351 C 177.980 346.991,170.620 346.147,168.901 345.237 C 168.516 345.033,166.220 344.462,163.800 343.969 C 161.380 343.475,159.220 342.937,159.000 342.771 C 158.780 342.606,157.160 342.121,155.400 341.693 C 153.640 341.265,151.390 340.548,150.400 340.098 C 149.410 339.649,147.653 339.002,146.496 338.661 C 145.339 338.320,143.899 337.772,143.296 337.442 C 142.693 337.113,140.580 336.115,138.600 335.224 C 136.620 334.333,134.370 333.253,133.600 332.824 C 132.830 332.395,131.167 331.511,129.905 330.859 C 128.642 330.207,126.173 328.667,124.418 327.437 C 122.662 326.206,121.132 325.200,121.017 325.200 C 118.885 325.200,104.052 310.231,101.394 305.396 C 100.790 304.298,100.066 303.130,99.785 302.800 C 99.179 302.087,96.000 295.359,96.000 294.788 C 96.000 294.570,95.660 293.628,95.244 292.696 C 94.486 290.995,94.064 289.468,93.119 285.000 C 91.813 278.831,93.019 256.746,94.776 254.628 C 94.979 254.384,95.450 252.928,95.823 251.392 C 96.196 249.857,96.721 248.240,96.990 247.800 C 97.259 247.360,97.706 246.280,97.983 245.400 C 98.761 242.933,103.503 233.306,105.373 230.400 C 106.293 228.970,107.162 227.492,107.304 227.116 C 107.446 226.739,108.741 224.905,110.181 223.039 C 111.622 221.173,112.800 219.475,112.800 219.266 C 112.800 219.057,113.057 218.787,113.371 218.666 C 114.439 218.257,119.085 210.663,120.019 207.800 C 120.522 206.260,121.072 204.815,121.241 204.589 C 121.999 203.581,123.600 194.081,123.600 190.595 C 123.600 189.634,123.780 188.736,124.000 188.600 C 124.491 188.297,124.549 175.340,124.061 175.038 C 123.875 174.922,123.601 172.887,123.454 170.514 C 123.306 168.141,122.839 163.770,122.416 160.800 C 121.360 153.387,121.963 152.911,127.442 156.831 C 128.959 157.917,130.920 159.282,131.800 159.864 C 133.800 161.188,143.200 170.726,143.200 171.431 C 143.200 171.543,143.914 172.580,144.786 173.735 C 145.659 174.891,146.646 176.491,146.980 177.291 C 147.314 178.091,147.755 178.849,147.960 178.975 C 148.164 179.101,148.833 180.509,149.447 182.102 C 150.061 183.696,150.782 185.360,151.048 185.800 C 151.315 186.240,151.830 187.860,152.192 189.400 C 152.555 190.940,153.004 192.560,153.190 193.000 C 155.148 197.620,155.198 223.677,153.254 226.160 C 152.387 227.267,152.337 230.062,153.192 229.604 C 153.637 229.366,154.000 228.984,154.000 228.754 C 154.000 228.524,154.602 227.405,155.338 226.268 C 156.603 224.311,158.729 220.100,160.923 215.200 C 161.965 212.875,163.600 206.710,163.600 205.109 C 163.600 204.587,163.825 203.935,164.100 203.660 C 164.466 203.294,164.600 201.075,164.600 195.400 C 164.600 189.725,164.466 187.506,164.100 187.140 C 163.825 186.865,163.600 186.177,163.600 185.611 C 163.600 184.313,161.715 176.825,161.241 176.238 C 161.046 175.997,160.496 174.090,160.018 172.000 C 159.540 169.910,158.987 167.898,158.789 167.529 C 158.357 166.722,156.400 156.309,156.400 154.815 C 156.400 154.235,156.239 153.589,156.043 153.380 C 154.547 151.786,154.502 120.967,155.995 120.000 C 156.164 119.890,156.429 118.810,156.582 117.600 C 156.931 114.847,158.278 108.865,158.789 107.800 C 159.000 107.360,159.550 105.830,160.012 104.400 C 160.474 102.970,161.219 100.990,161.668 100.000 C 163.402 96.176,166.176 90.573,166.618 90.000 C 166.873 89.670,167.513 88.590,168.041 87.600 C 168.568 86.610,169.225 85.656,169.500 85.480 C 169.775 85.304,170.000 84.970,170.000 84.738 C 170.000 82.082,190.281 61.838,194.500 60.283 C 194.885 60.141,195.200 59.839,195.200 59.613 C 195.200 59.386,195.394 59.200,195.632 59.200 C 195.870 59.200,196.995 58.587,198.132 57.838 C 204.328 53.755,208.008 52.425,208.335 54.149 " stroke="none" fill="#040404" fill-rule="evenodd"></path></g></svg>