<svg id="svg" version="1.1" xmlns="http://www.w3.org/2000/svg" xmlns:xlink="http://www.w3.org/1999/xlink" width="400" height="400" viewBox="0, 0, 400,400"><g id="svgg"><path id="path0" d="M0.000 200.000 L 0.000 400.000 200.000 400.000 L 400.000 400.000 400.000 200.000 L 400.000 0.000 200.000 0.000 L 0.000 0.000 0.000 200.000 M174.872 155.815 C 191.231 191.837,204.846 221.172,205.128 221.004 C 205.410 220.835,217.410 191.354,231.795 155.489 L 257.949 90.280 295.128 90.268 L 332.308 90.256 332.308 92.694 C 332.308 94.481,329.161 98.066,320.513 106.132 L 308.718 117.132 308.718 196.788 L 308.718 276.444 320.513 288.205 C 337.551 305.195,341.833 303.590,279.487 303.590 L 226.667 303.590 226.667 301.297 C 226.667 299.743,230.467 295.195,238.470 287.171 L 250.272 275.338 250.008 213.215 L 249.744 151.091 219.868 227.084 L 189.992 303.077 186.340 303.392 C 181.551 303.804,184.951 310.390,146.018 225.282 L 112.308 151.590 112.042 205.192 C 111.801 253.849,111.935 259.038,113.493 261.448 C 114.437 262.908,121.595 271.811,129.400 281.233 C 139.442 293.356,143.590 299.127,143.590 300.976 L 143.590 303.590 103.590 303.590 L 63.590 303.590 63.590 300.998 C 63.590 299.195,67.282 293.961,75.719 283.805 C 82.390 275.774,89.544 266.982,91.616 264.267 L 95.385 259.330 95.385 194.320 L 95.385 129.311 90.565 123.373 C 87.915 120.108,81.453 112.270,76.207 105.956 C 61.971 88.826,59.272 90.250,105.897 90.288 L 145.128 90.321 174.872 155.815 " stroke="none" fill="#000000" fill-rule="evenodd"></path></g></svg>