<svg id="svg" version="1.1" xmlns="http://www.w3.org/2000/svg" xmlns:xlink="http://www.w3.org/1999/xlink" width="400" height="419.5121951219512" viewBox="0, 0, 400,419.5121951219512"><g id="svgg"><path id="path0" d="M185.122 20.030 C 28.482 33.146,-49.996 214.586,48.044 336.952 C 141.015 452.993,325.678 425.213,381.228 286.829 C 434.636 153.780,327.559 8.104,185.122 20.030 M170.452 123.537 C 170.850 124.945,175.921 143.878,181.719 165.610 C 187.518 187.341,193.334 209.073,194.644 213.902 C 195.953 218.732,197.281 223.726,197.594 225.000 C 198.345 228.051,198.687 227.925,199.590 224.268 C 200.003 222.591,204.789 204.646,210.224 184.390 C 215.659 164.134,221.688 141.634,223.623 134.390 L 227.139 121.220 271.138 121.095 L 315.137 120.970 315.008 134.510 L 314.878 148.049 310.000 148.293 C 303.262 148.630,300.045 150.534,297.639 155.610 C 296.798 157.383,296.064 259.055,296.836 266.664 C 297.567 273.859,301.939 277.651,309.961 278.049 L 314.878 278.293 315.008 291.829 L 315.137 305.366 273.415 305.366 L 231.692 305.366 231.822 291.829 L 231.951 278.293 240.122 278.159 L 248.293 278.025 248.293 219.175 C 248.293 186.808,248.199 160.418,248.086 160.532 C 247.902 160.716,243.042 178.074,214.738 279.634 L 207.567 305.366 191.674 305.366 L 175.781 305.366 167.112 274.268 C 162.345 257.165,153.306 224.732,147.026 202.195 C 140.747 179.659,135.517 161.000,135.404 160.732 C 135.291 160.463,135.182 186.745,135.160 219.135 L 135.122 278.025 143.293 278.159 L 151.463 278.293 151.593 291.829 L 151.723 305.366 116.829 305.366 L 81.936 305.366 82.065 291.829 L 82.195 278.293 87.073 278.015 C 92.678 277.696,94.034 277.143,96.943 273.988 C 100.206 270.447,100.059 273.506,99.901 212.157 L 99.756 156.265 98.280 153.877 C 95.865 149.972,93.101 148.590,87.112 148.293 L 82.195 148.049 82.065 134.512 L 81.936 120.976 125.832 120.976 L 169.729 120.976 170.452 123.537 " stroke="none" fill="#000000" fill-rule="evenodd"></path></g></svg>