<?xml version="1.0" encoding="UTF-8" standalone="no"?>
<svg width="388px" height="76px" viewBox="0 0 388 76" version="1.1" xmlns="http://www.w3.org/2000/svg" xmlns:xlink="http://www.w3.org/1999/xlink">
    <!-- Generator: Sketch 46.2 (44496) - http://www.bohemiancoding.com/sketch -->
    <title>Wordmark_White</title>
    <desc>Created with Sketch.</desc>
    <defs></defs>
    <g id="Page-1" stroke="none" stroke-width="1" fill="none" fill-rule="evenodd">
        <g id="Wordmark_White" fill-rule="nonzero" fill="#FFFFFF">
            <path d="M195.969082,67.5171847 C195.969082,68.8547606 195.969082,69.1587551 196.877889,69.9795403 L201.967208,74.9650506 L201.967208,75.1778468 L179.398501,75.1778468 L179.398501,65.6020191 C177.127105,71.9132329 171.119731,76.0867213 164.433479,75.998632 C152.831043,75.998632 144.409432,66.8787962 144.409432,50.0982982 C144.409432,34.3817811 153.497502,23.8939699 166.251093,23.8939699 C171.904382,23.5368544 177.165101,26.8042928 179.368207,32.0410233 L179.368207,10.9134036 C179.535869,9.93501727 179.136847,8.94575438 178.338226,8.35984952 L173.491255,3.67833379 L173.491255,3.46553762 L195.969082,0.820785226 L195.969082,67.5171847 Z M179.398501,64.4772394 L179.398501,32.9530068 C177.762952,30.914342 175.28108,29.7475991 172.673329,29.7914637 C167.190194,29.7914637 161.888819,34.776974 161.888819,49.5815075 C161.888819,63.443658 166.463148,68.3379699 172.158339,68.3379699 C175.045957,68.2786686 177.733564,66.8455343 179.398501,64.4772394 Z M210.934104,75.1778468 L210.934104,32.6186129 C211.078516,31.6682099 210.737005,30.7086359 210.025297,30.0650588 L205.026858,24.8971518 L205.026858,24.6843557 L227.595565,24.6843557 L227.595565,67.8515787 C227.595565,69.1891546 227.595565,69.4931491 228.504372,70.3139343 L233.472517,74.9954501 L233.472517,75.2082462 L210.934104,75.1778468 Z M210.116177,9.11983584 C210.116177,4.08308958 214.185045,9.25235277e-16 219.204247,0 C224.22345,-9.25235277e-16 228.292317,4.08308958 228.292317,9.11983584 C228.292317,14.1565821 224.22345,18.2396717 219.204247,18.2396717 C214.185045,18.2396717 210.116177,14.1565821 210.116177,9.11983584 L210.116177,9.11983584 Z M288.485634,67.4259863 C288.485634,68.7635622 288.485634,69.1587551 289.394441,69.9795403 L294.48376,74.9650506 L294.48376,75.1778468 L271.793879,75.1778468 L271.793879,64.2644432 C269.727705,71.1649715 263.433025,75.9178746 256.253279,75.998632 C246.195815,75.998632 240.80356,68.6419644 240.80356,54.719015 C240.80356,48.000736 240.80356,40.6440684 241.015615,32.3754172 C241.181812,31.4498262 240.833727,30.5067127 240.106808,29.9130616 L235.10837,24.8971518 L235.10837,24.6843557 L257.495315,24.6843557 C257.495315,24.9883502 257.495315,51.1014802 257.495315,52.4390561 C257.495315,61.5588919 258.828232,67.6387825 264.523423,67.6387825 C267.582058,67.4469243 270.338349,65.7210785 271.854466,63.0484651 L271.854466,32.6490123 C271.998878,31.6986093 271.657367,30.7390353 270.945659,30.0954583 L265.916927,24.8971518 L265.916927,24.6843557 L288.485634,24.6843557 L288.485634,67.4259863 Z M365.310119,75.1778468 C365.310119,73.5362763 365.613054,52.6214528 365.613054,47.8183393 C365.613054,38.6985034 364.189257,32.4058167 357.797314,32.4058167 C354.581137,32.5053523 351.602563,34.1295556 349.769519,36.7833379 C350.410581,39.6254297 350.71562,42.5334347 350.678326,45.4471819 C350.678326,51.7702681 350.466271,59.8261231 350.37539,67.8819781 C350.209194,68.8075691 350.557278,69.7506827 351.284197,70.3443338 L356.373517,75.0258495 L356.373517,75.2386457 L333.592755,75.2386457 C333.592755,73.718673 333.89569,52.6822517 333.89569,47.8791382 C333.89569,38.6073051 332.471893,32.4666156 326.170831,32.4666156 C323.064645,32.5784424 320.230841,34.275495 318.658026,36.9657346 L318.658026,67.9731765 C318.658026,69.3107524 318.658026,69.6147469 319.566833,70.4355321 L324.534978,75.1170479 L324.534978,75.329844 L301.996565,75.329844 L301.996565,32.7706101 C302.140977,31.8202071 301.799466,30.8606331 301.087758,30.2170561 L296.089319,24.8971518 L296.089319,24.6843557 L318.658026,24.6843557 L318.658026,35.5065609 C320.750477,28.3613599 327.419499,23.561429 334.834791,23.8635704 C342.347595,23.8635704 347.436914,28.0586949 349.587758,36.0233516 C351.976536,28.6777655 358.853091,23.7487717 366.552155,23.8635704 C376.609619,23.8635704 382.304809,31.3114364 382.304809,45.386383 C382.304809,52.1046621 382.092755,59.7653242 382.001874,67.8211792 C381.825249,68.7746275 382.229995,69.7422442 383.031855,70.2835349 L388,74.9650506 L388,75.1778468 L365.310119,75.1778468 Z M81.7926296,68.5507661 L88.4875078,74.9650506 L88.4875078,75.1778468 L54.5284197,75.1778468 L54.5284197,74.9650506 L61.3444722,68.5507661 C62.0713914,67.957115 62.419476,67.0140014 62.2532792,66.0884104 L62.2532792,25.0795486 C62.2532792,23.3467798 62.2532792,21.0060219 62.5562149,18.999658 L39.6542786,75.998632 L39.3816365,75.998632 L15.6617739,23.5595759 C15.1467833,22.2523995 14.9953154,22.1612011 14.6620862,21.279617 L14.6620862,55.6613981 C14.3781099,57.9625249 14.7675634,60.2968507 15.7829482,62.3796771 L25.3254216,74.9650506 L25.3254216,75.1778468 L0,75.1778468 L0,74.9650506 L9.54247345,62.3492777 C10.5503599,60.2749011 10.9395854,57.952498 10.6633354,55.6613981 L10.6633354,17.6620821 C10.8184931,15.7910832 10.2549307,13.931352 9.08806996,12.4637756 L2.33260462,3.67833379 L2.33260462,3.46553762 L26.5674578,3.46553762 L46.8641474,47.8791382 L64.7373517,3.46553762 L88.4572142,3.46553762 L88.4572142,3.67833379 L81.7926296,11.1261997 C80.9940083,11.7121046 80.5949871,12.7013675 80.7626483,13.6797538 L80.7626483,66.0884104 C80.5860239,67.0418587 80.9907693,68.0094754 81.7926296,68.5507661 Z M108.360087,48.000736 L108.360087,48.2135321 C108.360087,61.2244979 115.054966,66.4532038 122.900999,66.4532038 C129.452575,66.6776532 135.51587,62.9911694 138.350718,57.0597729 L138.562773,57.0597729 C135.836352,69.9187414 127.899438,75.998632 116.02436,75.998632 C103.210181,75.998632 91.1230481,68.2467715 91.1230481,50.2806949 C91.1230481,31.4026347 103.240475,23.8635704 116.630231,23.8635704 C127.414741,23.8635704 138.896002,28.9706785 138.896002,45.386383 C138.896002,45.6903776 138.896002,46.7847579 138.896002,48.000736 L108.360087,48.000736 Z M108.360087,45.386383 L123.294816,45.386383 C123.294816,44.0488071 123.294816,43.1368235 123.294816,42.7416306 C123.294816,29.3658714 120.538101,25.8091354 116.387883,25.8091354 C111.359151,25.8091354 108.2995,31.1290397 108.2995,45.386383 L108.360087,45.386383 Z" id="Shape"></path>
        </g>
    </g>
</svg>