<svg id="svg" version="1.1" xmlns="http://www.w3.org/2000/svg" xmlns:xlink="http://www.w3.org/1999/xlink" width="400" height="271.8390804597701" viewBox="0, 0, 400,271.8390804597701"><g id="svgg"><path id="path0" d="M54.929 0.408 C 54.929 0.632,55.051 0.816,55.201 0.816 C 55.350 0.816,55.472 1.061,55.472 1.360 C 55.472 1.659,55.595 1.903,55.744 1.903 C 55.894 1.903,56.016 2.125,56.016 2.396 C 56.016 2.667,56.261 3.151,56.560 3.472 C 56.859 3.793,57.104 4.245,57.104 4.475 C 57.104 4.706,57.226 4.895,57.376 4.895 C 57.525 4.895,57.648 5.061,57.648 5.264 C 57.648 5.468,57.954 5.864,58.328 6.145 C 58.702 6.426,59.007 6.932,59.007 7.271 C 59.007 7.609,59.130 7.886,59.279 7.886 C 59.429 7.886,59.551 8.131,59.551 8.430 C 59.551 8.729,59.674 8.973,59.823 8.973 C 59.973 8.973,60.095 9.191,60.095 9.457 C 60.095 9.723,60.340 10.118,60.639 10.333 C 60.938 10.549,61.183 10.943,61.183 11.209 C 61.183 11.475,61.305 11.693,61.455 11.693 C 61.604 11.693,61.727 11.937,61.727 12.237 C 61.727 12.536,61.849 12.780,61.999 12.780 C 62.148 12.780,62.274 12.995,62.279 13.256 C 62.290 13.844,62.902 14.684,63.320 14.684 C 63.491 14.684,63.630 14.929,63.630 15.228 C 63.630 15.527,63.753 15.772,63.902 15.772 C 64.052 15.772,64.174 16.016,64.174 16.315 C 64.174 16.615,64.296 16.859,64.446 16.859 C 64.596 16.859,64.718 17.081,64.718 17.352 C 64.718 17.623,64.963 18.107,65.262 18.428 C 65.561 18.749,65.806 19.201,65.806 19.431 C 65.806 19.662,65.928 19.850,66.077 19.850 C 66.227 19.850,66.349 20.095,66.349 20.394 C 66.349 20.693,66.472 20.938,66.621 20.938 C 66.771 20.938,66.893 21.156,66.893 21.422 C 66.893 21.688,67.138 22.082,67.437 22.298 C 67.736 22.513,67.981 22.911,67.981 23.182 C 67.981 23.453,68.165 23.745,68.389 23.831 C 68.613 23.917,68.797 24.192,68.797 24.442 C 68.797 24.692,69.041 25.073,69.341 25.289 C 69.640 25.505,69.884 25.899,69.884 26.165 C 69.884 26.431,70.007 26.649,70.156 26.649 C 70.306 26.649,70.428 26.886,70.428 27.176 C 70.428 27.467,70.551 27.780,70.700 27.872 C 70.850 27.965,70.972 28.251,70.972 28.508 C 70.972 28.765,71.217 29.152,71.516 29.368 C 71.815 29.583,72.060 29.977,72.060 30.244 C 72.060 30.510,72.182 30.727,72.332 30.727 C 72.481 30.727,72.604 30.972,72.604 31.271 C 72.604 31.570,72.698 31.815,72.814 31.815 C 72.929 31.815,73.254 32.243,73.536 32.767 C 73.818 33.290,74.152 33.719,74.278 33.719 C 74.404 33.719,74.507 33.963,74.507 34.262 C 74.507 34.562,74.630 34.806,74.779 34.806 C 74.929 34.806,75.051 35.051,75.051 35.350 C 75.051 35.649,75.173 35.894,75.323 35.894 C 75.472 35.894,75.595 36.112,75.595 36.378 C 75.595 36.644,75.840 37.038,76.139 37.254 C 76.438 37.469,76.683 37.924,76.683 38.265 C 76.683 38.606,76.805 38.885,76.954 38.885 C 77.104 38.885,77.226 39.130,77.226 39.429 C 77.226 39.728,77.349 39.973,77.498 39.973 C 77.648 39.973,77.770 40.139,77.770 40.343 C 77.770 40.546,78.076 40.942,78.450 41.223 C 78.824 41.504,79.130 41.949,79.130 42.213 C 79.130 42.476,79.252 42.692,79.402 42.692 C 79.551 42.692,79.674 42.971,79.674 43.312 C 79.674 43.653,79.918 44.108,80.218 44.324 C 80.517 44.539,80.761 44.933,80.761 45.199 C 80.761 45.465,80.884 45.683,81.033 45.683 C 81.183 45.683,81.305 45.928,81.305 46.227 C 81.305 46.526,81.428 46.771,81.577 46.771 C 81.727 46.771,81.849 47.016,81.849 47.315 C 81.849 47.614,81.971 47.859,82.121 47.859 C 82.271 47.859,82.393 48.042,82.393 48.266 C 82.393 48.491,82.515 48.674,82.665 48.674 C 82.814 48.674,82.937 48.919,82.937 49.218 C 82.937 49.520,83.118 49.762,83.345 49.762 C 83.571 49.762,83.753 50.004,83.753 50.306 C 83.753 50.605,83.875 50.850,84.024 50.850 C 84.174 50.850,84.296 51.067,84.296 51.334 C 84.296 51.600,84.541 51.994,84.840 52.209 C 85.139 52.425,85.384 52.880,85.384 53.221 C 85.384 53.562,85.506 53.841,85.656 53.841 C 85.806 53.841,85.928 54.086,85.928 54.385 C 85.928 54.684,86.050 54.929,86.200 54.929 C 86.349 54.929,86.472 55.146,86.472 55.412 C 86.472 55.679,86.717 56.073,87.016 56.288 C 87.315 56.504,87.559 56.898,87.559 57.164 C 87.559 57.430,87.669 57.648,87.802 57.648 C 87.935 57.648,88.121 57.954,88.215 58.328 C 88.309 58.702,88.506 59.007,88.652 59.007 C 88.799 59.007,88.919 59.225,88.919 59.491 C 88.919 59.757,89.164 60.152,89.463 60.367 C 89.762 60.583,90.007 60.977,90.007 61.243 C 90.007 61.509,90.129 61.727,90.279 61.727 C 90.428 61.727,90.551 61.971,90.551 62.271 C 90.551 62.570,90.673 62.814,90.823 62.814 C 90.972 62.814,91.094 62.998,91.094 63.222 C 91.094 63.447,91.217 63.630,91.366 63.630 C 91.516 63.630,91.638 63.875,91.638 64.174 C 91.638 64.473,91.761 64.718,91.910 64.718 C 92.060 64.718,92.182 64.963,92.182 65.262 C 92.182 65.561,92.305 65.806,92.454 65.806 C 92.604 65.806,92.726 65.998,92.726 66.233 C 92.726 66.721,93.361 67.437,93.794 67.437 C 93.955 67.437,94.086 67.743,94.086 68.117 C 94.086 68.491,94.208 68.797,94.358 68.797 C 94.507 68.797,94.630 69.041,94.630 69.341 C 94.630 69.640,94.752 69.884,94.901 69.884 C 95.051 69.884,95.173 70.102,95.173 70.368 C 95.173 70.634,95.418 71.028,95.717 71.244 C 96.016 71.460,96.261 71.854,96.261 72.120 C 96.261 72.386,96.383 72.604,96.533 72.604 C 96.683 72.604,96.805 72.841,96.805 73.131 C 96.805 73.422,96.927 73.735,97.077 73.827 C 97.226 73.920,97.349 74.206,97.349 74.463 C 97.349 74.720,97.593 75.107,97.893 75.323 C 98.192 75.539,98.436 75.875,98.436 76.071 C 98.436 76.267,98.620 76.498,98.844 76.584 C 99.069 76.670,99.252 76.972,99.252 77.255 C 99.252 77.539,99.375 77.770,99.524 77.770 C 99.674 77.770,99.796 78.049,99.796 78.390 C 99.796 78.731,100.041 79.186,100.340 79.402 C 100.639 79.617,100.884 80.011,100.884 80.278 C 100.884 80.544,101.006 80.761,101.156 80.761 C 101.305 80.761,101.428 80.979,101.428 81.245 C 101.428 81.511,101.672 81.905,101.971 82.121 C 102.271 82.337,102.524 82.700,102.535 82.929 C 102.546 83.158,102.789 83.712,103.076 84.160 C 103.363 84.609,103.682 85.160,103.785 85.384 C 103.888 85.608,104.196 85.990,104.468 86.232 C 104.740 86.474,104.963 86.871,104.963 87.116 C 104.963 87.360,105.085 87.559,105.235 87.559 C 105.384 87.559,105.506 87.797,105.506 88.087 C 105.506 88.378,105.629 88.691,105.778 88.783 C 105.928 88.876,106.050 89.162,106.050 89.419 C 106.050 89.676,106.295 90.063,106.594 90.279 C 106.893 90.494,107.138 90.888,107.138 91.155 C 107.138 91.421,107.260 91.638,107.410 91.638 C 107.559 91.638,107.682 91.883,107.682 92.182 C 107.682 92.481,107.804 92.726,107.954 92.726 C 108.103 92.726,108.226 92.954,108.226 93.232 C 108.226 93.510,108.532 93.967,108.906 94.248 C 109.279 94.529,109.585 94.974,109.585 95.238 C 109.585 95.502,109.708 95.717,109.857 95.717 C 110.007 95.717,110.129 95.962,110.129 96.261 C 110.129 96.560,110.252 96.805,110.401 96.805 C 110.551 96.805,110.673 97.050,110.673 97.349 C 110.673 97.648,110.795 97.893,110.945 97.893 C 111.094 97.893,111.217 98.076,111.217 98.300 C 111.217 98.525,111.339 98.708,111.489 98.708 C 111.638 98.708,111.761 98.953,111.761 99.252 C 111.761 99.551,111.883 99.796,112.033 99.796 C 112.182 99.796,112.305 100.014,112.305 100.280 C 112.305 100.546,112.549 100.940,112.848 101.156 C 113.148 101.371,113.392 101.765,113.392 102.031 C 113.392 102.298,113.576 102.515,113.800 102.515 C 114.054 102.515,114.208 102.772,114.208 103.195 C 114.208 103.569,114.330 103.875,114.480 103.875 C 114.630 103.875,114.752 104.093,114.752 104.359 C 114.752 104.625,114.997 105.019,115.296 105.235 C 115.595 105.450,115.840 105.844,115.840 106.110 C 115.840 106.376,115.962 106.594,116.111 106.594 C 116.261 106.594,116.383 106.839,116.383 107.138 C 116.383 107.437,116.506 107.682,116.655 107.682 C 116.805 107.682,116.927 107.904,116.927 108.174 C 116.927 108.445,117.172 108.930,117.471 109.251 C 117.770 109.572,118.015 110.023,118.015 110.254 C 118.015 110.484,118.137 110.673,118.287 110.673 C 118.436 110.673,118.559 110.860,118.559 111.089 C 118.559 111.318,118.742 111.576,118.967 111.662 C 119.191 111.748,119.375 112.051,119.375 112.334 C 119.375 112.617,119.497 112.848,119.646 112.848 C 119.796 112.848,119.918 113.032,119.918 113.256 C 119.918 113.481,120.041 113.664,120.190 113.664 C 120.340 113.664,120.462 113.909,120.462 114.208 C 120.462 114.507,120.585 114.752,120.734 114.752 C 120.884 114.752,121.006 114.997,121.006 115.296 C 121.006 115.595,121.128 115.840,121.278 115.840 C 121.428 115.840,121.550 116.057,121.550 116.323 C 121.550 116.589,121.795 116.984,122.094 117.199 C 122.393 117.415,122.638 117.736,122.638 117.913 C 122.638 118.509,123.823 120.462,124.184 120.462 C 124.380 120.462,124.541 120.707,124.541 121.006 C 124.541 121.305,124.663 121.550,124.813 121.550 C 124.963 121.550,125.085 121.795,125.085 122.094 C 125.085 122.393,125.207 122.638,125.357 122.638 C 125.506 122.638,125.629 122.859,125.629 123.130 C 125.629 123.401,125.874 123.885,126.173 124.207 C 126.472 124.528,126.717 124.979,126.717 125.210 C 126.717 125.440,126.839 125.629,126.988 125.629 C 127.138 125.629,127.260 125.874,127.260 126.173 C 127.260 126.472,127.383 126.717,127.532 126.717 C 127.682 126.717,127.804 126.916,127.804 127.160 C 127.804 127.405,128.031 127.802,128.309 128.044 C 128.587 128.286,128.901 128.759,129.007 129.096 C 129.114 129.432,129.315 129.708,129.454 129.708 C 129.594 129.708,129.708 129.952,129.708 130.252 C 129.708 130.551,129.830 130.795,129.980 130.795 C 130.129 130.795,130.252 131.013,130.252 131.279 C 130.252 131.545,130.496 131.939,130.795 132.155 C 131.094 132.371,131.339 132.757,131.339 133.015 C 131.339 133.272,131.462 133.558,131.611 133.651 C 131.761 133.743,131.883 134.056,131.883 134.346 C 131.883 134.637,132.005 134.874,132.155 134.874 C 132.305 134.874,132.427 135.092,132.427 135.358 C 132.427 135.624,132.672 136.018,132.971 136.234 C 133.270 136.449,133.515 136.844,133.515 137.110 C 133.515 137.376,133.698 137.593,133.923 137.593 C 134.147 137.593,134.330 137.815,134.330 138.086 C 134.330 138.357,134.575 138.841,134.874 139.162 C 135.173 139.483,135.418 139.935,135.418 140.165 C 135.418 140.396,135.540 140.585,135.690 140.585 C 135.840 140.585,135.962 140.829,135.962 141.128 C 135.962 141.428,136.084 141.672,136.234 141.672 C 136.383 141.672,136.506 141.890,136.506 142.156 C 136.506 142.422,136.751 142.816,137.050 143.032 C 137.349 143.248,137.593 143.703,137.593 144.044 C 137.593 144.385,137.693 144.663,137.815 144.663 C 137.936 144.663,138.204 145.092,138.409 145.615 C 138.615 146.139,139.066 146.780,139.412 147.039 C 139.758 147.299,140.041 147.728,140.041 147.991 C 140.041 148.255,140.163 148.470,140.313 148.470 C 140.462 148.470,140.585 148.776,140.585 149.150 C 140.585 149.524,140.707 149.830,140.857 149.830 C 141.006 149.830,141.128 150.048,141.128 150.314 C 141.128 150.580,141.373 150.974,141.672 151.190 C 141.971 151.405,142.216 151.799,142.216 152.065 C 142.216 152.332,142.339 152.549,142.488 152.549 C 142.638 152.549,142.760 152.794,142.760 153.093 C 142.760 153.392,142.882 153.637,143.032 153.637 C 143.182 153.637,143.304 153.873,143.304 154.161 C 143.304 154.449,143.610 154.926,143.984 155.220 C 144.358 155.514,144.663 155.951,144.663 156.191 C 144.663 156.432,144.786 156.628,144.935 156.628 C 145.085 156.628,145.207 156.846,145.207 157.112 C 145.207 157.378,145.452 157.772,145.751 157.988 C 146.050 158.203,146.295 158.659,146.295 159.000 C 146.295 159.340,146.417 159.619,146.567 159.619 C 146.717 159.619,146.839 159.864,146.839 160.163 C 146.839 160.462,146.961 160.707,147.111 160.707 C 147.260 160.707,147.383 160.925,147.383 161.191 C 147.383 161.457,147.627 161.851,147.927 162.067 C 148.226 162.282,148.470 162.676,148.470 162.942 C 148.470 163.209,148.590 163.426,148.737 163.426 C 148.884 163.426,149.081 163.732,149.175 164.106 C 149.268 164.480,149.454 164.786,149.588 164.786 C 149.721 164.786,149.830 165.004,149.830 165.270 C 149.830 165.536,150.075 165.930,150.374 166.145 C 150.673 166.361,150.918 166.755,150.918 167.021 C 150.918 167.287,151.040 167.505,151.190 167.505 C 151.339 167.505,151.462 167.750,151.462 168.049 C 151.462 168.348,151.584 168.593,151.734 168.593 C 151.883 168.593,152.005 168.872,152.005 169.213 C 152.005 169.553,152.250 170.009,152.549 170.224 C 152.848 170.440,153.093 170.834,153.093 171.100 C 153.093 171.366,153.215 171.584,153.365 171.584 C 153.515 171.584,153.637 171.776,153.637 172.011 C 153.637 172.246,153.790 172.609,153.977 172.818 C 154.784 173.717,154.997 174.025,154.997 174.292 C 154.997 174.448,155.119 174.575,155.269 174.575 C 155.418 174.575,155.540 174.820,155.540 175.119 C 155.540 175.418,155.663 175.663,155.812 175.663 C 155.962 175.663,156.084 175.881,156.084 176.147 C 156.084 176.413,156.329 176.807,156.628 177.022 C 156.927 177.238,157.172 177.632,157.172 177.898 C 157.172 178.164,157.294 178.382,157.444 178.382 C 157.593 178.382,157.716 178.688,157.716 179.062 C 157.716 179.436,157.808 179.742,157.921 179.742 C 158.034 179.742,158.289 180.109,158.488 180.557 C 158.687 181.006,159.022 181.373,159.234 181.373 C 159.446 181.373,159.619 181.618,159.619 181.917 C 159.619 182.216,159.742 182.461,159.891 182.461 C 160.041 182.461,160.163 182.706,160.163 183.005 C 160.163 183.304,160.286 183.549,160.435 183.549 C 160.585 183.549,160.707 183.828,160.707 184.168 C 160.707 184.509,160.952 184.965,161.251 185.180 C 161.550 185.396,161.795 185.790,161.795 186.056 C 161.795 186.322,161.917 186.540,162.067 186.540 C 162.216 186.540,162.339 186.785,162.339 187.084 C 162.339 187.383,162.461 187.627,162.610 187.627 C 162.760 187.627,162.882 187.816,162.882 188.047 C 162.882 188.277,163.127 188.729,163.426 189.050 C 163.725 189.371,163.970 189.855,163.970 190.126 C 163.970 190.397,164.154 190.619,164.378 190.619 C 164.605 190.619,164.786 190.860,164.786 191.162 C 164.786 191.462,164.908 191.706,165.058 191.706 C 165.207 191.706,165.330 191.924,165.330 192.190 C 165.330 192.456,165.574 192.850,165.874 193.066 C 166.173 193.282,166.417 193.737,166.417 194.078 C 166.417 194.419,166.540 194.697,166.689 194.697 C 166.839 194.697,166.961 194.915,166.961 195.181 C 166.961 195.447,167.206 195.842,167.505 196.057 C 167.804 196.273,168.049 196.667,168.049 196.933 C 168.049 197.199,168.171 197.417,168.321 197.417 C 168.470 197.417,168.593 197.661,168.593 197.961 C 168.593 198.260,168.715 198.504,168.865 198.504 C 169.014 198.504,169.137 198.682,169.137 198.900 C 169.137 199.117,169.443 199.601,169.816 199.975 C 170.190 200.349,170.496 200.844,170.496 201.075 C 170.496 201.306,170.619 201.496,170.768 201.496 C 170.918 201.496,171.040 201.740,171.040 202.039 C 171.040 202.339,171.162 202.583,171.312 202.583 C 171.462 202.583,171.584 202.828,171.584 203.127 C 171.584 203.426,171.706 203.671,171.856 203.671 C 172.005 203.671,172.128 203.855,172.128 204.079 C 172.128 204.303,172.250 204.487,172.400 204.487 C 172.549 204.487,172.672 204.731,172.672 205.031 C 172.672 205.330,172.794 205.574,172.944 205.574 C 173.093 205.574,173.215 205.819,173.215 206.118 C 173.215 206.417,173.338 206.662,173.487 206.662 C 173.637 206.662,173.759 206.854,173.759 207.089 C 173.759 207.578,174.394 208.294,174.828 208.294 C 174.988 208.294,175.119 208.600,175.119 208.973 C 175.119 209.347,175.241 209.653,175.391 209.653 C 175.540 209.653,175.663 209.898,175.663 210.197 C 175.663 210.496,175.785 210.741,175.935 210.741 C 176.084 210.741,176.207 210.959,176.207 211.225 C 176.207 211.491,176.451 211.885,176.751 212.101 C 177.050 212.316,177.294 212.710,177.294 212.976 C 177.294 213.243,177.417 213.460,177.566 213.460 C 177.716 213.460,177.838 213.682,177.838 213.953 C 177.838 214.224,178.083 214.708,178.382 215.029 C 178.681 215.350,178.926 215.802,178.926 216.032 C 178.926 216.263,179.048 216.451,179.198 216.451 C 179.347 216.451,179.470 216.639,179.470 216.868 C 179.470 217.097,179.653 217.355,179.878 217.441 C 180.102 217.527,180.286 217.829,180.286 218.112 C 180.286 218.395,180.408 218.627,180.557 218.627 C 180.707 218.627,180.829 218.810,180.829 219.035 C 180.829 219.259,180.952 219.443,181.101 219.443 C 181.251 219.443,181.373 219.687,181.373 219.986 C 181.373 220.286,181.496 220.530,181.645 220.530 C 181.795 220.530,181.917 220.775,181.917 221.074 C 181.917 221.373,182.039 221.618,182.189 221.618 C 182.339 221.618,182.461 221.836,182.461 222.102 C 182.461 222.368,182.706 222.762,183.005 222.978 C 183.304 223.193,183.558 223.557,183.568 223.785 C 183.579 224.014,183.823 224.568,184.109 225.017 C 184.396 225.466,184.715 226.016,184.818 226.241 C 184.922 226.465,185.229 226.846,185.501 227.088 C 185.773 227.330,185.996 227.728,185.996 227.972 C 185.996 228.216,186.118 228.416,186.268 228.416 C 186.417 228.416,186.540 228.654,186.540 228.944 C 186.540 229.234,186.662 229.547,186.812 229.640 C 186.961 229.732,187.084 230.018,187.084 230.276 C 187.084 230.533,187.328 230.920,187.627 231.135 C 187.927 231.351,188.171 231.745,188.171 232.011 C 188.171 232.277,188.294 232.495,188.443 232.495 C 188.593 232.495,188.715 232.695,188.715 232.940 C 188.715 233.184,189.021 233.668,189.395 234.014 C 189.769 234.361,190.075 234.834,190.075 235.065 C 190.075 235.297,190.197 235.486,190.347 235.486 C 190.496 235.486,190.619 235.731,190.619 236.030 C 190.619 236.329,190.741 236.574,190.891 236.574 C 191.040 236.574,191.162 236.791,191.162 237.058 C 191.162 237.324,191.407 237.718,191.706 237.933 C 192.005 238.149,192.250 238.536,192.250 238.793 C 192.250 239.050,192.373 239.337,192.522 239.429 C 192.672 239.521,192.794 239.835,192.794 240.125 C 192.794 240.415,192.916 240.653,193.066 240.653 C 193.215 240.653,193.338 240.870,193.338 241.136 C 193.338 241.403,193.583 241.797,193.882 242.012 C 194.181 242.228,194.426 242.622,194.426 242.888 C 194.426 243.154,194.609 243.372,194.833 243.372 C 195.058 243.372,195.241 243.609,195.241 243.900 C 195.241 244.190,195.364 244.503,195.513 244.596 C 195.663 244.688,195.785 244.974,195.785 245.231 C 195.785 245.489,196.030 245.876,196.329 246.091 C 196.628 246.307,196.873 246.701,196.873 246.967 C 196.873 247.233,196.995 247.451,197.145 247.451 C 197.294 247.451,197.417 247.695,197.417 247.995 C 197.417 248.294,197.539 248.538,197.689 248.538 C 197.838 248.538,197.961 248.760,197.961 249.031 C 197.961 249.302,198.205 249.786,198.504 250.107 C 198.804 250.428,199.048 250.880,199.048 251.110 C 199.048 251.341,199.171 251.530,199.320 251.530 C 199.470 251.530,199.592 251.696,199.592 251.899 C 199.592 252.103,199.898 252.499,200.272 252.780 C 200.646 253.060,200.952 253.499,200.952 253.753 C 200.952 254.008,201.074 254.292,201.224 254.385 C 201.373 254.477,201.496 254.790,201.496 255.081 C 201.496 255.371,201.618 255.608,201.768 255.608 C 201.917 255.608,202.039 255.826,202.039 256.092 C 202.039 256.358,202.284 256.752,202.583 256.968 C 202.882 257.184,203.127 257.578,203.127 257.844 C 203.127 258.110,203.249 258.328,203.399 258.328 C 203.549 258.328,203.671 258.572,203.671 258.872 C 203.671 259.171,203.793 259.415,203.943 259.415 C 204.092 259.415,204.215 259.651,204.215 259.939 C 204.215 260.228,204.521 260.704,204.895 260.998 C 205.269 261.292,205.574 261.730,205.574 261.970 C 205.574 262.210,205.697 262.407,205.846 262.407 C 205.996 262.407,206.118 262.651,206.118 262.950 C 206.118 263.249,206.241 263.494,206.390 263.494 C 206.540 263.494,206.662 263.716,206.662 263.987 C 206.662 264.258,206.907 264.742,207.206 265.063 C 207.505 265.384,207.750 265.836,207.750 266.066 C 207.750 266.297,207.872 266.485,208.022 266.485 C 208.171 266.485,208.294 266.730,208.294 267.029 C 208.294 267.328,208.416 267.573,208.566 267.573 C 208.715 267.573,208.838 267.773,208.838 268.017 C 208.838 268.261,209.065 268.659,209.342 268.901 C 209.620 269.143,209.934 269.616,210.041 269.952 C 210.147 270.289,210.348 270.564,210.487 270.564 C 210.627 270.564,210.741 270.809,210.741 271.108 C 210.741 271.531,210.922 271.652,211.557 271.652 C 212.191 271.652,212.373 271.531,212.373 271.108 C 212.373 270.809,212.495 270.564,212.644 270.564 C 212.794 270.564,212.916 270.258,212.916 269.884 C 212.916 269.511,213.039 269.205,213.188 269.205 C 213.338 269.205,213.460 268.987,213.460 268.721 C 213.460 268.455,213.705 268.061,214.004 267.845 C 214.303 267.629,214.548 267.235,214.548 266.969 C 214.548 266.703,214.670 266.485,214.820 266.485 C 214.969 266.485,215.092 266.317,215.092 266.111 C 215.092 265.905,215.275 265.584,215.500 265.398 C 215.724 265.212,215.908 264.856,215.908 264.609 C 215.908 264.361,216.152 263.982,216.451 263.766 C 216.751 263.551,216.995 263.156,216.995 262.890 C 216.995 262.624,217.118 262.407,217.267 262.407 C 217.417 262.407,217.539 262.162,217.539 261.863 C 217.539 261.564,217.661 261.319,217.811 261.319 C 217.961 261.319,218.083 261.130,218.083 260.900 C 218.083 260.669,218.328 260.218,218.627 259.897 C 218.926 259.576,219.171 259.091,219.171 258.820 C 219.171 258.549,219.293 258.328,219.443 258.328 C 219.592 258.328,219.714 258.131,219.714 257.891 C 219.714 257.651,220.020 257.214,220.394 256.919 C 220.768 256.625,221.074 256.210,221.074 255.997 C 221.074 255.783,221.196 255.608,221.346 255.608 C 221.496 255.608,221.618 255.303,221.618 254.929 C 221.618 254.555,221.740 254.249,221.890 254.249 C 222.039 254.249,222.162 254.031,222.162 253.765 C 222.162 253.499,222.407 253.105,222.706 252.889 C 223.005 252.674,223.249 252.279,223.249 252.013 C 223.249 251.747,223.372 251.530,223.521 251.530 C 223.671 251.530,223.793 251.285,223.793 250.986 C 223.793 250.687,223.916 250.442,224.065 250.442 C 224.215 250.442,224.337 250.165,224.337 249.827 C 224.337 249.488,224.643 248.982,225.017 248.701 C 225.391 248.420,225.697 248.024,225.697 247.821 C 225.697 247.617,225.819 247.451,225.969 247.451 C 226.118 247.451,226.241 247.206,226.241 246.907 C 226.241 246.608,226.363 246.363,226.513 246.363 C 226.662 246.363,226.785 246.174,226.785 245.944 C 226.785 245.713,227.029 245.262,227.328 244.941 C 227.627 244.620,227.872 244.135,227.872 243.864 C 227.872 243.594,227.995 243.372,228.144 243.372 C 228.294 243.372,228.416 243.127,228.416 242.828 C 228.416 242.529,228.538 242.284,228.688 242.284 C 228.838 242.284,228.960 242.066,228.960 241.800 C 228.960 241.534,229.205 241.140,229.504 240.925 C 229.803 240.709,230.048 240.328,230.048 240.078 C 230.048 239.828,230.231 239.553,230.455 239.467 C 230.680 239.381,230.863 239.089,230.863 238.818 C 230.863 238.547,231.108 238.149,231.407 237.933 C 231.706 237.718,231.951 237.324,231.951 237.058 C 231.951 236.791,232.073 236.574,232.223 236.574 C 232.373 236.574,232.495 236.329,232.495 236.030 C 232.495 235.731,232.617 235.486,232.767 235.486 C 232.916 235.486,233.039 235.264,233.039 234.993 C 233.039 234.723,233.283 234.238,233.583 233.917 C 233.882 233.596,234.126 233.145,234.126 232.914 C 234.126 232.684,234.249 232.495,234.398 232.495 C 234.548 232.495,234.670 232.250,234.670 231.951 C 234.670 231.652,234.793 231.407,234.942 231.407 C 235.092 231.407,235.214 231.162,235.214 230.863 C 235.214 230.564,235.354 230.320,235.524 230.320 C 235.942 230.320,236.554 229.480,236.565 228.892 C 236.570 228.630,236.696 228.416,236.846 228.416 C 236.995 228.416,237.118 228.171,237.118 227.872 C 237.118 227.573,237.240 227.328,237.390 227.328 C 237.539 227.328,237.661 227.111,237.661 226.845 C 237.661 226.578,237.906 226.184,238.205 225.969 C 238.504 225.753,238.749 225.359,238.749 225.093 C 238.749 224.827,238.872 224.609,239.021 224.609 C 239.171 224.609,239.293 224.303,239.293 223.929 C 239.293 223.555,239.415 223.249,239.565 223.249 C 239.714 223.249,239.837 223.057,239.837 222.822 C 239.837 222.334,240.472 221.618,240.905 221.618 C 241.065 221.618,241.196 221.373,241.196 221.074 C 241.196 220.775,241.319 220.530,241.468 220.530 C 241.618 220.530,241.740 220.309,241.740 220.038 C 241.740 219.767,241.985 219.282,242.284 218.961 C 242.583 218.640,242.828 218.189,242.828 217.958 C 242.828 217.728,242.950 217.539,243.100 217.539 C 243.249 217.539,243.372 217.294,243.372 216.995 C 243.372 216.696,243.494 216.451,243.644 216.451 C 243.793 216.451,243.916 216.234,243.916 215.968 C 243.916 215.701,244.160 215.307,244.460 215.092 C 244.759 214.876,245.003 214.434,245.003 214.109 C 245.003 213.784,245.187 213.448,245.411 213.362 C 245.636 213.276,245.819 213.018,245.819 212.789 C 245.819 212.560,245.942 212.373,246.091 212.373 C 246.241 212.373,246.363 212.155,246.363 211.889 C 246.363 211.623,246.608 211.229,246.907 211.013 C 247.206 210.797,247.451 210.403,247.451 210.137 C 247.451 209.871,247.573 209.653,247.723 209.653 C 247.872 209.653,247.995 209.347,247.995 208.973 C 247.995 208.600,248.117 208.294,248.266 208.294 C 248.416 208.294,248.538 208.076,248.538 207.810 C 248.538 207.544,248.783 207.150,249.082 206.934 C 249.381 206.718,249.626 206.324,249.626 206.058 C 249.626 205.792,249.748 205.574,249.898 205.574 C 250.048 205.574,250.170 205.343,250.170 205.060 C 250.170 204.777,250.354 204.474,250.578 204.388 C 250.802 204.302,250.986 204.010,250.986 203.740 C 250.986 203.469,251.230 203.071,251.530 202.855 C 251.829 202.640,252.073 202.245,252.073 201.979 C 252.073 201.713,252.196 201.496,252.345 201.496 C 252.495 201.496,252.617 201.278,252.617 201.012 C 252.617 200.746,252.862 200.352,253.161 200.136 C 253.460 199.920,253.705 199.465,253.705 199.124 C 253.705 198.783,253.827 198.504,253.977 198.504 C 254.126 198.504,254.249 198.260,254.249 197.961 C 254.249 197.661,254.371 197.417,254.521 197.417 C 254.670 197.417,254.793 197.228,254.793 196.996 C 254.793 196.765,255.068 196.282,255.404 195.922 C 256.522 194.727,256.696 194.453,256.696 193.893 C 256.696 193.588,256.818 193.338,256.968 193.338 C 257.118 193.338,257.240 193.120,257.240 192.854 C 257.240 192.588,257.485 192.194,257.784 191.978 C 258.083 191.763,258.328 191.369,258.328 191.102 C 258.328 190.836,258.450 190.619,258.600 190.619 C 258.749 190.619,258.872 190.374,258.872 190.075 C 258.872 189.776,258.994 189.531,259.143 189.531 C 259.293 189.531,259.415 189.252,259.415 188.911 C 259.415 188.570,259.660 188.115,259.959 187.899 C 260.258 187.684,260.503 187.290,260.503 187.024 C 260.503 186.757,260.687 186.540,260.911 186.540 C 261.138 186.540,261.319 186.298,261.319 185.996 C 261.319 185.697,261.441 185.452,261.591 185.452 C 261.740 185.452,261.863 185.207,261.863 184.908 C 261.863 184.609,261.985 184.364,262.135 184.364 C 262.284 184.364,262.407 184.181,262.407 183.956 C 262.407 183.732,262.529 183.549,262.678 183.549 C 262.828 183.549,262.950 183.304,262.950 183.005 C 262.950 182.706,263.073 182.461,263.222 182.461 C 263.372 182.461,263.494 182.243,263.494 181.977 C 263.494 181.711,263.739 181.317,264.038 181.101 C 264.337 180.886,264.582 180.492,264.582 180.225 C 264.582 179.959,264.704 179.742,264.854 179.742 C 265.003 179.742,265.126 179.436,265.126 179.062 C 265.126 178.688,265.248 178.382,265.398 178.382 C 265.547 178.382,265.670 178.137,265.670 177.838 C 265.670 177.539,265.801 177.294,265.961 177.294 C 266.394 177.294,267.029 176.578,267.029 176.090 C 267.029 175.855,267.152 175.663,267.301 175.663 C 267.451 175.663,267.573 175.418,267.573 175.119 C 267.573 174.820,267.695 174.575,267.845 174.575 C 267.995 174.575,268.117 174.296,268.117 173.955 C 268.117 173.614,268.362 173.159,268.661 172.944 C 268.960 172.728,269.205 172.334,269.205 172.068 C 269.205 171.802,269.327 171.584,269.477 171.584 C 269.626 171.584,269.748 171.339,269.748 171.040 C 269.748 170.741,269.871 170.496,270.020 170.496 C 270.170 170.496,270.292 170.307,270.292 170.075 C 270.292 169.844,270.598 169.371,270.972 169.024 C 271.346 168.678,271.652 168.194,271.652 167.950 C 271.652 167.705,271.774 167.505,271.924 167.505 C 272.073 167.505,272.196 167.260,272.196 166.961 C 272.196 166.662,272.318 166.417,272.468 166.417 C 272.617 166.417,272.740 166.200,272.740 165.934 C 272.740 165.667,272.984 165.273,273.283 165.058 C 273.583 164.842,273.827 164.387,273.827 164.046 C 273.827 163.705,273.950 163.426,274.099 163.426 C 274.249 163.426,274.371 163.209,274.371 162.942 C 274.371 162.676,274.616 162.282,274.915 162.067 C 275.214 161.851,275.459 161.470,275.459 161.220 C 275.459 160.970,275.642 160.695,275.867 160.609 C 276.091 160.523,276.275 160.265,276.275 160.036 C 276.275 159.807,276.397 159.619,276.547 159.619 C 276.696 159.619,276.818 159.340,276.818 159.000 C 276.818 158.659,277.063 158.203,277.362 157.988 C 277.661 157.772,277.906 157.378,277.906 157.112 C 277.906 156.846,278.029 156.628,278.178 156.628 C 278.328 156.628,278.450 156.383,278.450 156.084 C 278.450 155.785,278.572 155.540,278.722 155.540 C 278.872 155.540,278.994 155.352,278.994 155.121 C 278.994 154.891,279.239 154.439,279.538 154.118 C 279.837 153.797,280.082 153.313,280.082 153.042 C 280.082 152.771,280.204 152.549,280.354 152.549 C 280.503 152.549,280.625 152.305,280.625 152.005 C 280.625 151.703,280.807 151.462,281.033 151.462 C 281.258 151.462,281.441 151.244,281.441 150.978 C 281.441 150.712,281.686 150.318,281.985 150.102 C 282.284 149.886,282.529 149.431,282.529 149.090 C 282.529 148.749,282.651 148.470,282.801 148.470 C 282.950 148.470,283.073 148.226,283.073 147.927 C 283.073 147.627,283.195 147.383,283.345 147.383 C 283.494 147.383,283.617 147.165,283.617 146.899 C 283.617 146.633,283.861 146.239,284.160 146.023 C 284.460 145.808,284.704 145.413,284.704 145.147 C 284.704 144.881,284.827 144.663,284.976 144.663 C 285.126 144.663,285.248 144.387,285.248 144.048 C 285.248 143.709,285.554 143.204,285.928 142.922 C 286.302 142.642,286.608 142.246,286.608 142.042 C 286.608 141.839,286.730 141.672,286.880 141.672 C 287.029 141.672,287.152 141.428,287.152 141.128 C 287.152 140.829,287.274 140.585,287.424 140.585 C 287.573 140.585,287.695 140.396,287.695 140.165 C 287.695 139.935,287.940 139.483,288.239 139.162 C 288.538 138.841,288.783 138.357,288.783 138.086 C 288.783 137.815,288.906 137.593,289.055 137.593 C 289.205 137.593,289.327 137.349,289.327 137.050 C 289.327 136.751,289.449 136.506,289.599 136.506 C 289.748 136.506,289.871 136.288,289.871 136.022 C 289.871 135.756,290.116 135.362,290.415 135.146 C 290.714 134.931,290.959 134.550,290.959 134.299 C 290.959 134.049,291.142 133.774,291.366 133.688 C 291.591 133.602,291.774 133.283,291.774 132.979 C 291.774 132.675,291.897 132.427,292.046 132.427 C 292.196 132.427,292.318 132.209,292.318 131.943 C 292.318 131.677,292.563 131.283,292.862 131.067 C 293.161 130.852,293.406 130.458,293.406 130.191 C 293.406 129.925,293.528 129.708,293.678 129.708 C 293.827 129.708,293.950 129.470,293.950 129.180 C 293.950 128.890,294.072 128.576,294.222 128.484 C 294.371 128.392,294.494 128.105,294.494 127.848 C 294.494 127.591,294.738 127.204,295.037 126.988 C 295.337 126.773,295.581 126.435,295.581 126.237 C 295.581 126.039,295.706 125.730,295.859 125.549 C 297.174 123.991,297.484 123.527,297.484 123.114 C 297.485 122.852,297.607 122.638,297.757 122.638 C 297.906 122.638,298.029 122.393,298.029 122.094 C 298.029 121.795,298.151 121.550,298.300 121.550 C 298.450 121.550,298.572 121.332,298.572 121.066 C 298.572 120.800,298.817 120.406,299.116 120.190 C 299.415 119.975,299.660 119.581,299.660 119.315 C 299.660 119.048,299.782 118.831,299.932 118.831 C 300.082 118.831,300.204 118.525,300.204 118.151 C 300.204 117.777,300.326 117.471,300.476 117.471 C 300.625 117.471,300.748 117.226,300.748 116.927 C 300.748 116.628,300.879 116.383,301.039 116.383 C 301.472 116.383,302.107 115.668,302.107 115.179 C 302.107 114.944,302.230 114.752,302.379 114.752 C 302.529 114.752,302.651 114.514,302.651 114.224 C 302.651 113.934,302.774 113.621,302.923 113.528 C 303.073 113.436,303.195 113.150,303.195 112.892 C 303.195 112.635,303.440 112.248,303.739 112.033 C 304.038 111.817,304.283 111.423,304.283 111.157 C 304.283 110.891,304.405 110.673,304.555 110.673 C 304.704 110.673,304.827 110.428,304.827 110.129 C 304.827 109.830,304.949 109.585,305.099 109.585 C 305.248 109.585,305.370 109.341,305.370 109.041 C 305.370 108.742,305.493 108.498,305.642 108.498 C 305.792 108.498,305.914 108.314,305.914 108.090 C 305.914 107.865,306.098 107.682,306.322 107.682 C 306.549 107.682,306.730 107.440,306.730 107.138 C 306.730 106.839,306.852 106.594,307.002 106.594 C 307.152 106.594,307.274 106.376,307.274 106.110 C 307.274 105.844,307.519 105.450,307.818 105.235 C 308.117 105.019,308.362 104.625,308.362 104.359 C 308.362 104.093,308.484 103.875,308.634 103.875 C 308.783 103.875,308.906 103.569,308.906 103.195 C 308.906 102.821,309.028 102.515,309.177 102.515 C 309.327 102.515,309.449 102.298,309.449 102.031 C 309.449 101.765,309.694 101.371,309.993 101.156 C 310.292 100.940,310.537 100.546,310.537 100.280 C 310.537 100.014,310.659 99.796,310.809 99.796 C 310.959 99.796,311.081 99.564,311.081 99.281 C 311.081 98.998,311.264 98.696,311.489 98.610 C 311.713 98.524,311.897 98.232,311.897 97.961 C 311.897 97.690,312.141 97.292,312.441 97.077 C 312.740 96.861,312.984 96.467,312.984 96.201 C 312.984 95.935,313.107 95.717,313.256 95.717 C 313.406 95.717,313.528 95.472,313.528 95.173 C 313.528 94.874,313.651 94.630,313.800 94.630 C 313.950 94.630,314.072 94.385,314.072 94.086 C 314.072 93.787,314.194 93.542,314.344 93.542 C 314.494 93.542,314.616 93.358,314.616 93.134 C 314.616 92.910,314.738 92.726,314.888 92.726 C 315.037 92.726,315.160 92.481,315.160 92.182 C 315.160 91.883,315.282 91.638,315.432 91.638 C 315.581 91.638,315.704 91.394,315.704 91.094 C 315.704 90.795,315.826 90.551,315.976 90.551 C 316.125 90.551,316.247 90.306,316.247 90.007 C 316.247 89.708,316.387 89.463,316.557 89.463 C 316.975 89.463,317.588 88.623,317.598 88.035 C 317.603 87.774,317.729 87.559,317.879 87.559 C 318.029 87.559,318.151 87.342,318.151 87.076 C 318.151 86.810,318.396 86.415,318.695 86.200 C 318.994 85.984,319.239 85.590,319.239 85.324 C 319.239 85.058,319.361 84.840,319.511 84.840 C 319.660 84.840,319.782 84.596,319.782 84.296 C 319.782 83.997,319.905 83.753,320.054 83.753 C 320.204 83.753,320.326 83.474,320.326 83.133 C 320.326 82.792,320.571 82.337,320.870 82.121 C 321.169 81.905,321.414 81.569,321.414 81.373 C 321.414 81.177,321.598 80.946,321.822 80.860 C 322.046 80.774,322.230 80.472,322.230 80.188 C 322.230 79.905,322.352 79.674,322.502 79.674 C 322.651 79.674,322.774 79.429,322.774 79.130 C 322.774 78.831,322.896 78.586,323.046 78.586 C 323.195 78.586,323.317 78.402,323.317 78.178 C 323.317 77.954,323.440 77.770,323.589 77.770 C 323.739 77.770,323.861 77.525,323.861 77.226 C 323.861 76.927,323.984 76.683,324.133 76.683 C 324.283 76.683,324.405 76.438,324.405 76.139 C 324.405 75.840,324.528 75.595,324.677 75.595 C 324.827 75.595,324.949 75.377,324.949 75.111 C 324.949 74.845,325.194 74.451,325.493 74.235 C 325.792 74.020,326.037 73.577,326.037 73.253 C 326.037 72.928,326.220 72.591,326.445 72.505 C 326.669 72.419,326.852 72.161,326.852 71.932 C 326.852 71.703,326.975 71.516,327.124 71.516 C 327.274 71.516,327.396 71.298,327.396 71.032 C 327.396 70.766,327.641 70.372,327.940 70.156 C 328.239 69.941,328.484 69.547,328.484 69.281 C 328.484 69.014,328.606 68.797,328.756 68.797 C 328.906 68.797,329.028 68.518,329.028 68.177 C 329.028 67.836,329.273 67.381,329.572 67.165 C 329.871 66.950,330.116 66.555,330.116 66.289 C 330.116 66.023,330.238 65.806,330.387 65.806 C 330.537 65.806,330.659 65.561,330.659 65.262 C 330.659 64.963,330.782 64.718,330.931 64.718 C 331.081 64.718,331.203 64.528,331.203 64.297 C 331.203 64.066,331.509 63.593,331.883 63.246 C 332.257 62.900,332.563 62.416,332.563 62.171 C 332.563 61.927,332.685 61.727,332.835 61.727 C 332.984 61.727,333.107 61.482,333.107 61.183 C 333.107 60.884,333.229 60.639,333.379 60.639 C 333.528 60.639,333.651 60.421,333.651 60.155 C 333.651 59.889,333.895 59.495,334.194 59.279 C 334.494 59.064,334.738 58.609,334.738 58.268 C 334.738 57.927,334.861 57.648,335.010 57.648 C 335.160 57.648,335.282 57.403,335.282 57.104 C 335.282 56.805,335.404 56.560,335.554 56.560 C 335.704 56.560,335.826 56.344,335.826 56.081 C 335.826 55.817,336.132 55.372,336.506 55.091 C 336.880 54.810,337.186 54.414,337.186 54.211 C 337.186 54.007,337.308 53.841,337.458 53.841 C 337.607 53.841,337.729 53.535,337.729 53.161 C 337.729 52.787,337.852 52.481,338.001 52.481 C 338.151 52.481,338.273 52.264,338.273 51.997 C 338.273 51.731,338.518 51.337,338.817 51.122 C 339.116 50.906,339.361 50.512,339.361 50.246 C 339.361 49.980,339.483 49.762,339.633 49.762 C 339.782 49.762,339.905 49.517,339.905 49.218 C 339.905 48.919,340.027 48.674,340.177 48.674 C 340.326 48.674,340.449 48.491,340.449 48.266 C 340.449 48.042,340.571 47.859,340.721 47.859 C 340.870 47.859,340.993 47.614,340.993 47.315 C 340.993 47.016,341.115 46.771,341.264 46.771 C 341.414 46.771,341.536 46.526,341.536 46.227 C 341.536 45.925,341.718 45.683,341.944 45.683 C 342.169 45.683,342.352 45.495,342.352 45.264 C 342.352 45.033,342.597 44.582,342.896 44.261 C 343.195 43.940,343.440 43.456,343.440 43.185 C 343.440 42.914,343.562 42.692,343.712 42.692 C 343.861 42.692,343.984 42.447,343.984 42.148 C 343.984 41.849,344.106 41.604,344.256 41.604 C 344.405 41.604,344.528 41.387,344.528 41.121 C 344.528 40.854,344.772 40.460,345.071 40.245 C 345.370 40.029,345.615 39.635,345.615 39.369 C 345.615 39.103,345.738 38.885,345.887 38.885 C 346.037 38.885,346.159 38.579,346.159 38.205 C 346.159 37.831,346.281 37.525,346.431 37.525 C 346.581 37.525,346.703 37.281,346.703 36.982 C 346.703 36.683,346.834 36.438,346.994 36.438 C 347.428 36.438,348.063 35.722,348.063 35.234 C 348.063 34.999,348.185 34.806,348.334 34.806 C 348.484 34.806,348.606 34.562,348.606 34.262 C 348.606 33.963,348.729 33.719,348.878 33.719 C 349.028 33.719,349.150 33.440,349.150 33.099 C 349.150 32.758,349.395 32.303,349.694 32.087 C 349.993 31.871,350.238 31.477,350.238 31.211 C 350.238 30.945,350.360 30.727,350.510 30.727 C 350.659 30.727,350.782 30.510,350.782 30.244 C 350.782 29.977,351.027 29.583,351.326 29.368 C 351.625 29.152,351.869 28.834,351.869 28.661 C 351.869 28.488,352.053 28.194,352.277 28.008 C 352.502 27.822,352.685 27.440,352.685 27.159 C 352.685 26.878,352.808 26.649,352.957 26.649 C 353.107 26.649,353.229 26.431,353.229 26.165 C 353.229 25.899,353.474 25.505,353.773 25.289 C 354.072 25.073,354.317 24.679,354.317 24.413 C 354.317 24.147,354.439 23.929,354.589 23.929 C 354.738 23.929,354.861 23.623,354.861 23.249 C 354.861 22.876,354.983 22.570,355.133 22.570 C 355.282 22.570,355.404 22.352,355.404 22.086 C 355.404 21.820,355.649 21.426,355.948 21.210 C 356.247 20.994,356.492 20.613,356.492 20.363 C 356.492 20.113,356.676 19.838,356.900 19.752 C 357.124 19.666,357.308 19.408,357.308 19.179 C 357.308 18.950,357.430 18.763,357.580 18.763 C 357.729 18.763,357.852 18.484,357.852 18.143 C 357.852 17.802,358.097 17.347,358.396 17.131 C 358.695 16.916,358.939 16.522,358.939 16.255 C 358.939 15.989,359.062 15.772,359.211 15.772 C 359.361 15.772,359.483 15.527,359.483 15.228 C 359.483 14.929,359.606 14.684,359.755 14.684 C 359.905 14.684,360.027 14.466,360.027 14.200 C 360.027 13.934,360.272 13.540,360.571 13.324 C 360.870 13.109,361.115 12.653,361.115 12.313 C 361.115 11.972,361.237 11.693,361.387 11.693 C 361.536 11.693,361.659 11.448,361.659 11.149 C 361.659 10.850,361.832 10.605,362.044 10.605 C 362.256 10.605,362.591 10.238,362.790 9.789 C 362.989 9.341,363.244 8.973,363.357 8.973 C 363.470 8.973,363.562 8.736,363.562 8.446 C 363.562 8.155,363.685 7.842,363.834 7.750 C 363.984 7.657,364.106 7.371,364.106 7.114 C 364.106 6.857,364.351 6.470,364.650 6.254 C 364.949 6.039,365.194 5.645,365.194 5.378 C 365.194 5.112,365.316 4.895,365.466 4.895 C 365.615 4.895,365.738 4.650,365.738 4.351 C 365.738 4.052,365.860 3.807,366.010 3.807 C 366.159 3.807,366.281 3.562,366.281 3.263 C 366.281 2.964,366.404 2.719,366.553 2.719 C 366.703 2.719,366.825 2.536,366.825 2.311 C 366.825 2.087,367.009 1.903,367.233 1.903 C 367.460 1.903,367.641 1.662,367.641 1.360 C 367.641 1.061,367.763 0.816,367.913 0.816 C 368.063 0.816,368.185 0.632,368.185 0.408 C 368.185 0.047,363.185 0.000,324.813 0.000 L 281.441 0.000 281.441 14.548 L 281.441 29.096 299.252 29.096 C 315.443 29.096,318.076 29.193,316.655 29.738 C 316.431 29.824,316.247 30.082,316.247 30.311 C 316.247 30.540,316.125 30.727,315.976 30.727 C 315.826 30.727,315.704 30.916,315.704 31.147 C 315.704 31.377,315.459 31.829,315.160 32.150 C 314.861 32.471,314.616 32.955,314.616 33.226 C 314.616 33.497,314.494 33.719,314.344 33.719 C 314.194 33.719,314.072 33.936,314.072 34.202 C 314.072 34.468,313.827 34.863,313.528 35.078 C 313.229 35.294,312.984 35.688,312.984 35.954 C 312.984 36.220,312.862 36.438,312.712 36.438 C 312.563 36.438,312.441 36.675,312.441 36.966 C 312.441 37.256,312.318 37.569,312.169 37.661 C 312.019 37.754,311.897 38.067,311.897 38.357 C 311.897 38.648,311.766 38.885,311.605 38.885 C 311.172 38.885,310.537 39.601,310.537 40.089 C 310.537 40.324,310.415 40.517,310.265 40.517 C 310.116 40.517,309.993 40.761,309.993 41.061 C 309.993 41.360,309.871 41.604,309.721 41.604 C 309.572 41.604,309.449 41.883,309.449 42.224 C 309.449 42.565,309.205 43.020,308.906 43.236 C 308.606 43.451,308.362 43.846,308.362 44.112 C 308.362 44.378,308.239 44.596,308.090 44.596 C 307.940 44.596,307.818 44.840,307.818 45.139 C 307.818 45.438,307.695 45.683,307.546 45.683 C 307.396 45.683,307.274 45.899,307.274 46.163 C 307.274 46.426,306.968 46.872,306.594 47.152 C 306.220 47.433,305.914 47.890,305.914 48.169 C 305.914 48.447,305.792 48.674,305.642 48.674 C 305.493 48.674,305.370 48.919,305.370 49.218 C 305.370 49.517,305.248 49.762,305.099 49.762 C 304.949 49.762,304.827 49.980,304.827 50.246 C 304.827 50.512,304.582 50.906,304.283 51.122 C 303.984 51.337,303.739 51.731,303.739 51.997 C 303.739 52.264,303.617 52.481,303.467 52.481 C 303.317 52.481,303.195 52.760,303.195 53.101 C 303.195 53.442,302.950 53.897,302.651 54.113 C 302.352 54.328,302.107 54.723,302.107 54.989 C 302.107 55.255,301.985 55.472,301.835 55.472 C 301.686 55.472,301.564 55.717,301.564 56.016 C 301.564 56.315,301.447 56.560,301.304 56.560 C 301.162 56.560,300.842 56.988,300.594 57.512 C 300.345 58.035,300.034 58.464,299.901 58.464 C 299.769 58.464,299.660 58.708,299.660 59.007 C 299.660 59.307,299.538 59.551,299.388 59.551 C 299.239 59.551,299.116 59.796,299.116 60.095 C 299.116 60.394,298.994 60.639,298.844 60.639 C 298.695 60.639,298.572 60.857,298.572 61.123 C 298.572 61.389,298.328 61.783,298.029 61.999 C 297.729 62.214,297.485 62.670,297.485 63.010 C 297.485 63.351,297.362 63.630,297.213 63.630 C 297.063 63.630,296.941 63.875,296.941 64.174 C 296.941 64.473,296.818 64.718,296.669 64.718 C 296.519 64.718,296.397 64.963,296.397 65.262 C 296.397 65.561,296.266 65.806,296.106 65.806 C 295.672 65.806,295.037 66.521,295.037 67.010 C 295.037 67.245,294.915 67.437,294.765 67.437 C 294.616 67.437,294.494 67.743,294.494 68.117 C 294.494 68.491,294.371 68.797,294.222 68.797 C 294.072 68.797,293.950 69.014,293.950 69.281 C 293.950 69.547,293.705 69.941,293.406 70.156 C 293.107 70.372,292.862 70.766,292.862 71.032 C 292.862 71.298,292.740 71.516,292.590 71.516 C 292.441 71.516,292.318 71.761,292.318 72.060 C 292.318 72.359,292.196 72.604,292.046 72.604 C 291.897 72.604,291.774 72.787,291.774 73.012 C 291.774 73.236,291.652 73.419,291.502 73.419 C 291.353 73.419,291.230 73.607,291.230 73.836 C 291.230 74.065,291.047 74.323,290.823 74.409 C 290.598 74.495,290.415 74.797,290.415 75.080 C 290.415 75.363,290.292 75.595,290.143 75.595 C 289.993 75.595,289.871 75.783,289.871 76.014 C 289.871 76.245,289.626 76.696,289.327 77.017 C 289.028 77.338,288.783 77.823,288.783 78.093 C 288.783 78.364,288.661 78.586,288.511 78.586 C 288.362 78.586,288.239 78.831,288.239 79.130 C 288.239 79.429,288.117 79.674,287.967 79.674 C 287.818 79.674,287.695 79.891,287.695 80.158 C 287.695 80.424,287.451 80.818,287.152 81.033 C 286.852 81.249,286.608 81.630,286.608 81.880 C 286.608 82.130,286.424 82.405,286.200 82.491 C 285.976 82.577,285.792 82.896,285.792 83.200 C 285.792 83.504,285.670 83.753,285.520 83.753 C 285.370 83.753,285.248 83.970,285.248 84.236 C 285.248 84.502,285.003 84.897,284.704 85.112 C 284.405 85.328,284.160 85.722,284.160 85.988 C 284.160 86.254,284.038 86.472,283.889 86.472 C 283.739 86.472,283.617 86.717,283.617 87.016 C 283.617 87.315,283.494 87.559,283.345 87.559 C 283.195 87.559,283.073 87.838,283.073 88.179 C 283.073 88.520,282.828 88.975,282.529 89.191 C 282.230 89.407,281.985 89.801,281.985 90.067 C 281.985 90.333,281.863 90.551,281.713 90.551 C 281.564 90.551,281.441 90.747,281.441 90.987 C 281.441 91.228,281.135 91.665,280.761 91.959 C 280.387 92.253,280.082 92.729,280.082 93.018 C 280.082 93.306,279.959 93.542,279.810 93.542 C 279.660 93.542,279.538 93.787,279.538 94.086 C 279.538 94.385,279.415 94.630,279.266 94.630 C 279.116 94.630,278.994 94.847,278.994 95.113 C 278.994 95.379,278.749 95.774,278.450 95.989 C 278.151 96.205,277.906 96.599,277.906 96.865 C 277.906 97.131,277.784 97.349,277.634 97.349 C 277.485 97.349,277.362 97.655,277.362 98.029 C 277.362 98.402,277.240 98.708,277.090 98.708 C 276.941 98.708,276.818 98.924,276.818 99.188 C 276.818 99.451,276.513 99.897,276.139 100.177 C 275.765 100.458,275.459 100.854,275.459 101.058 C 275.459 101.261,275.337 101.428,275.187 101.428 C 275.037 101.428,274.915 101.672,274.915 101.971 C 274.915 102.271,274.793 102.515,274.643 102.515 C 274.494 102.515,274.371 102.794,274.371 103.135 C 274.371 103.476,274.126 103.931,273.827 104.147 C 273.528 104.362,273.283 104.757,273.283 105.023 C 273.283 105.289,273.161 105.506,273.012 105.506 C 272.862 105.506,272.740 105.751,272.740 106.050 C 272.740 106.349,272.617 106.594,272.468 106.594 C 272.318 106.594,272.196 106.839,272.196 107.138 C 272.196 107.437,272.073 107.682,271.924 107.682 C 271.774 107.682,271.652 107.865,271.652 108.090 C 271.652 108.314,271.530 108.498,271.380 108.498 C 271.230 108.498,271.108 108.742,271.108 109.041 C 271.108 109.344,270.927 109.585,270.700 109.585 C 270.476 109.585,270.292 109.803,270.292 110.069 C 270.292 110.335,270.048 110.729,269.748 110.945 C 269.449 111.161,269.205 111.555,269.205 111.821 C 269.205 112.087,269.082 112.305,268.933 112.305 C 268.783 112.305,268.661 112.610,268.661 112.984 C 268.661 113.358,268.538 113.664,268.389 113.664 C 268.239 113.664,268.117 113.882,268.117 114.148 C 268.117 114.414,267.872 114.808,267.573 115.024 C 267.274 115.239,267.029 115.633,267.029 115.900 C 267.029 116.166,266.907 116.383,266.757 116.383 C 266.608 116.383,266.485 116.628,266.485 116.927 C 266.485 117.226,266.363 117.471,266.213 117.471 C 266.064 117.471,265.942 117.777,265.942 118.151 C 265.942 118.525,265.810 118.831,265.650 118.831 C 265.217 118.831,264.582 119.547,264.582 120.035 C 264.582 120.270,264.460 120.462,264.310 120.462 C 264.160 120.462,264.038 120.707,264.038 121.006 C 264.038 121.305,263.916 121.550,263.766 121.550 C 263.617 121.550,263.494 121.795,263.494 122.094 C 263.494 122.393,263.372 122.638,263.222 122.638 C 263.073 122.638,262.950 122.821,262.950 123.046 C 262.950 123.270,262.828 123.453,262.678 123.453 C 262.529 123.453,262.407 123.698,262.407 123.997 C 262.407 124.296,262.284 124.541,262.135 124.541 C 261.985 124.541,261.863 124.786,261.863 125.085 C 261.863 125.384,261.740 125.629,261.591 125.629 C 261.441 125.629,261.319 125.825,261.319 126.066 C 261.319 126.306,261.013 126.743,260.639 127.037 C 260.265 127.331,259.959 127.808,259.959 128.096 C 259.959 128.384,259.837 128.620,259.687 128.620 C 259.538 128.620,259.415 128.838,259.415 129.104 C 259.415 129.370,259.171 129.764,258.872 129.980 C 258.572 130.195,258.328 130.589,258.328 130.855 C 258.328 131.122,258.205 131.339,258.056 131.339 C 257.906 131.339,257.784 131.584,257.784 131.883 C 257.784 132.182,257.661 132.427,257.512 132.427 C 257.362 132.427,257.240 132.706,257.240 133.047 C 257.240 133.388,256.995 133.843,256.696 134.058 C 256.397 134.274,256.152 134.668,256.152 134.934 C 256.152 135.200,255.969 135.418,255.744 135.418 C 255.518 135.418,255.337 135.660,255.337 135.962 C 255.337 136.261,255.214 136.506,255.065 136.506 C 254.915 136.506,254.793 136.694,254.793 136.925 C 254.793 137.156,254.548 137.607,254.249 137.928 C 253.950 138.249,253.705 138.733,253.705 139.004 C 253.705 139.275,253.583 139.497,253.433 139.497 C 253.283 139.497,253.161 139.742,253.161 140.041 C 253.161 140.340,253.039 140.585,252.889 140.585 C 252.740 140.585,252.617 140.802,252.617 141.068 C 252.617 141.335,252.373 141.729,252.073 141.944 C 251.774 142.160,251.530 142.547,251.530 142.804 C 251.530 143.061,251.407 143.347,251.258 143.440 C 251.108 143.532,250.986 143.845,250.986 144.136 C 250.986 144.426,250.802 144.663,250.578 144.663 C 250.354 144.663,250.170 144.881,250.170 145.147 C 250.170 145.413,249.925 145.808,249.626 146.023 C 249.327 146.239,249.082 146.633,249.082 146.899 C 249.082 147.165,248.960 147.383,248.810 147.383 C 248.661 147.383,248.538 147.662,248.538 148.003 C 248.538 148.343,248.294 148.799,247.995 149.014 C 247.695 149.230,247.451 149.624,247.451 149.890 C 247.451 150.156,247.328 150.374,247.179 150.374 C 247.029 150.374,246.907 150.619,246.907 150.918 C 246.907 151.217,246.785 151.462,246.635 151.462 C 246.485 151.462,246.363 151.662,246.363 151.906 C 246.363 152.151,246.057 152.634,245.683 152.981 C 245.309 153.328,245.003 153.800,245.003 154.032 C 245.003 154.263,244.881 154.453,244.731 154.453 C 244.582 154.453,244.460 154.697,244.460 154.997 C 244.460 155.296,244.337 155.540,244.188 155.540 C 244.038 155.540,243.916 155.758,243.916 156.024 C 243.916 156.290,243.671 156.684,243.372 156.900 C 243.073 157.116,242.828 157.510,242.828 157.776 C 242.828 158.042,242.706 158.260,242.556 158.260 C 242.407 158.260,242.284 158.566,242.284 158.939 C 242.284 159.313,242.162 159.619,242.012 159.619 C 241.863 159.619,241.740 159.837,241.740 160.103 C 241.740 160.369,241.496 160.763,241.196 160.979 C 240.897 161.195,240.653 161.589,240.653 161.855 C 240.653 162.121,240.469 162.339,240.245 162.339 C 239.991 162.339,239.837 162.595,239.837 163.018 C 239.837 163.392,239.714 163.698,239.565 163.698 C 239.415 163.698,239.293 163.916,239.293 164.182 C 239.293 164.448,239.048 164.842,238.749 165.058 C 238.450 165.273,238.205 165.667,238.205 165.934 C 238.205 166.200,238.083 166.417,237.933 166.417 C 237.784 166.417,237.661 166.606,237.661 166.837 C 237.661 167.067,237.417 167.519,237.118 167.840 C 236.818 168.161,236.574 168.645,236.574 168.916 C 236.574 169.187,236.451 169.409,236.302 169.409 C 236.152 169.409,236.030 169.640,236.030 169.923 C 236.030 170.206,235.846 170.509,235.622 170.595 C 235.398 170.681,235.214 170.882,235.214 171.043 C 235.214 171.203,234.969 171.597,234.670 171.919 C 234.371 172.240,234.126 172.663,234.126 172.859 C 234.126 173.055,234.004 173.215,233.855 173.215 C 233.705 173.215,233.583 173.521,233.583 173.895 C 233.583 174.269,233.460 174.575,233.311 174.575 C 233.161 174.575,233.039 174.793,233.039 175.059 C 233.039 175.325,232.794 175.719,232.495 175.935 C 232.196 176.150,231.951 176.544,231.951 176.811 C 231.951 177.077,231.829 177.294,231.679 177.294 C 231.530 177.294,231.407 177.539,231.407 177.838 C 231.407 178.137,231.285 178.382,231.135 178.382 C 230.986 178.382,230.863 178.688,230.863 179.062 C 230.863 179.436,230.732 179.742,230.572 179.742 C 230.139 179.742,229.504 180.458,229.504 180.946 C 229.504 181.181,229.381 181.373,229.232 181.373 C 229.082 181.373,228.960 181.618,228.960 181.917 C 228.960 182.216,228.838 182.461,228.688 182.461 C 228.538 182.461,228.416 182.706,228.416 183.005 C 228.416 183.304,228.294 183.549,228.144 183.549 C 227.995 183.549,227.872 183.732,227.872 183.956 C 227.872 184.181,227.750 184.364,227.600 184.364 C 227.451 184.364,227.328 184.609,227.328 184.908 C 227.328 185.207,227.206 185.452,227.056 185.452 C 226.907 185.452,226.785 185.670,226.785 185.936 C 226.785 186.202,226.540 186.596,226.241 186.812 C 225.942 187.027,225.697 187.408,225.697 187.658 C 225.697 187.909,225.513 188.184,225.289 188.270 C 225.065 188.356,224.881 188.675,224.881 188.979 C 224.881 189.282,224.759 189.531,224.609 189.531 C 224.460 189.531,224.337 189.749,224.337 190.015 C 224.337 190.281,224.092 190.675,223.793 190.891 C 223.494 191.106,223.249 191.500,223.249 191.766 C 223.249 192.032,223.127 192.250,222.978 192.250 C 222.828 192.250,222.706 192.495,222.706 192.794 C 222.706 193.093,222.583 193.338,222.434 193.338 C 222.284 193.338,222.162 193.617,222.162 193.958 C 222.162 194.299,221.917 194.754,221.618 194.969 C 221.319 195.185,221.074 195.579,221.074 195.845 C 221.074 196.111,220.952 196.329,220.802 196.329 C 220.653 196.329,220.530 196.561,220.530 196.844 C 220.530 197.127,220.347 197.429,220.122 197.515 C 219.898 197.601,219.714 197.859,219.714 198.088 C 219.714 198.317,219.592 198.504,219.443 198.504 C 219.293 198.504,219.171 198.688,219.171 198.912 C 219.171 199.137,219.048 199.320,218.899 199.320 C 218.749 199.320,218.627 199.565,218.627 199.864 C 218.627 200.163,218.504 200.408,218.355 200.408 C 218.205 200.408,218.083 200.653,218.083 200.952 C 218.083 201.251,217.961 201.496,217.811 201.496 C 217.661 201.496,217.539 201.713,217.539 201.979 C 217.539 202.245,217.294 202.640,216.995 202.855 C 216.696 203.071,216.451 203.526,216.451 203.867 C 216.451 204.208,216.329 204.487,216.179 204.487 C 216.030 204.487,215.908 204.702,215.908 204.966 C 215.908 205.230,215.602 205.675,215.228 205.956 C 214.854 206.237,214.548 206.633,214.548 206.836 C 214.548 207.040,214.426 207.206,214.276 207.206 C 214.126 207.206,214.004 207.451,214.004 207.750 C 214.004 208.049,213.882 208.294,213.732 208.294 C 213.583 208.294,213.460 208.573,213.460 208.913 C 213.460 209.254,213.215 209.710,212.916 209.925 C 212.617 210.141,212.373 210.535,212.373 210.801 C 212.373 211.067,212.250 211.285,212.101 211.285 C 211.951 211.285,211.829 211.530,211.829 211.829 C 211.829 212.128,211.706 212.373,211.557 212.373 C 211.407 212.373,211.285 212.128,211.285 211.829 C 211.285 211.530,211.162 211.285,211.013 211.285 C 210.863 211.285,210.741 211.118,210.741 210.915 C 210.741 210.712,210.435 210.316,210.061 210.035 C 209.687 209.754,209.381 209.248,209.381 208.909 C 209.381 208.571,209.259 208.294,209.109 208.294 C 208.960 208.294,208.838 208.049,208.838 207.750 C 208.838 207.451,208.715 207.206,208.566 207.206 C 208.416 207.206,208.294 206.988,208.294 206.722 C 208.294 206.456,208.049 206.062,207.750 205.846 C 207.451 205.631,207.206 205.237,207.206 204.971 C 207.206 204.704,207.084 204.487,206.934 204.487 C 206.785 204.487,206.662 204.315,206.662 204.105 C 206.662 203.463,205.496 201.496,205.116 201.496 C 204.920 201.496,204.759 201.251,204.759 200.952 C 204.759 200.653,204.636 200.408,204.487 200.408 C 204.337 200.408,204.215 200.163,204.215 199.864 C 204.215 199.565,204.092 199.320,203.943 199.320 C 203.793 199.320,203.671 199.041,203.671 198.700 C 203.671 198.360,203.426 197.904,203.127 197.689 C 202.828 197.473,202.583 197.079,202.583 196.813 C 202.583 196.547,202.461 196.329,202.311 196.329 C 202.162 196.329,202.039 196.084,202.039 195.785 C 202.039 195.486,201.917 195.241,201.768 195.241 C 201.618 195.241,201.496 194.997,201.496 194.697 C 201.496 194.398,201.387 194.154,201.255 194.154 C 201.122 194.154,200.810 193.725,200.562 193.202 C 200.314 192.678,199.994 192.250,199.851 192.250 C 199.709 192.250,199.592 192.032,199.592 191.766 C 199.592 191.500,199.347 191.106,199.048 190.891 C 198.749 190.675,198.504 190.281,198.504 190.015 C 198.504 189.749,198.382 189.531,198.232 189.531 C 198.083 189.531,197.961 189.225,197.961 188.851 C 197.961 188.477,197.838 188.171,197.689 188.171 C 197.539 188.171,197.417 187.954,197.417 187.687 C 197.417 187.421,197.172 187.027,196.873 186.812 C 196.574 186.596,196.329 186.202,196.329 185.936 C 196.329 185.670,196.207 185.452,196.057 185.452 C 195.908 185.452,195.785 185.207,195.785 184.908 C 195.785 184.609,195.671 184.364,195.532 184.364 C 195.392 184.364,195.191 184.089,195.085 183.753 C 194.979 183.416,194.664 182.943,194.387 182.701 C 194.109 182.459,193.882 182.061,193.882 181.817 C 193.882 181.573,193.759 181.373,193.610 181.373 C 193.460 181.373,193.338 181.128,193.338 180.829 C 193.338 180.530,193.215 180.286,193.066 180.286 C 192.916 180.286,192.794 180.097,192.794 179.866 C 192.794 179.636,192.549 179.184,192.250 178.863 C 191.951 178.542,191.706 178.058,191.706 177.787 C 191.706 177.516,191.584 177.294,191.434 177.294 C 191.285 177.294,191.162 177.050,191.162 176.751 C 191.162 176.451,191.040 176.207,190.891 176.207 C 190.741 176.207,190.619 176.032,190.619 175.819 C 190.619 175.605,190.313 175.190,189.939 174.896 C 189.565 174.602,189.259 174.103,189.259 173.788 C 189.259 173.473,189.137 173.215,188.987 173.215 C 188.838 173.215,188.715 172.998,188.715 172.732 C 188.715 172.466,188.470 172.071,188.171 171.856 C 187.872 171.640,187.627 171.246,187.627 170.980 C 187.627 170.714,187.505 170.496,187.356 170.496 C 187.206 170.496,187.084 170.252,187.084 169.952 C 187.084 169.653,186.961 169.409,186.812 169.409 C 186.662 169.409,186.540 169.187,186.540 168.916 C 186.540 168.645,186.295 168.161,185.996 167.840 C 185.697 167.519,185.452 167.067,185.452 166.837 C 185.452 166.606,185.269 166.417,185.044 166.417 C 184.818 166.417,184.636 166.176,184.636 165.874 C 184.636 165.574,184.514 165.330,184.364 165.330 C 184.215 165.330,184.092 165.141,184.092 164.910 C 184.092 164.680,183.848 164.229,183.549 163.907 C 183.249 163.586,183.005 163.102,183.005 162.831 C 183.005 162.560,182.882 162.339,182.733 162.339 C 182.583 162.339,182.461 162.094,182.461 161.795 C 182.461 161.496,182.339 161.251,182.189 161.251 C 182.039 161.251,181.917 161.033,181.917 160.767 C 181.917 160.501,181.672 160.107,181.373 159.891 C 181.074 159.676,180.829 159.362,180.829 159.193 C 180.829 158.695,179.995 157.172,179.722 157.172 C 179.583 157.172,179.470 156.954,179.470 156.688 C 179.470 156.422,179.225 156.028,178.926 155.812 C 178.627 155.597,178.382 155.203,178.382 154.937 C 178.382 154.670,178.260 154.453,178.110 154.453 C 177.961 154.453,177.838 154.231,177.838 153.960 C 177.838 153.689,177.593 153.205,177.294 152.884 C 176.995 152.563,176.751 152.111,176.751 151.881 C 176.751 151.650,176.628 151.462,176.479 151.462 C 176.329 151.462,176.207 151.217,176.207 150.918 C 176.207 150.619,176.084 150.374,175.935 150.374 C 175.785 150.374,175.663 150.182,175.663 149.947 C 175.663 149.458,175.028 148.742,174.595 148.742 C 174.434 148.742,174.303 148.436,174.303 148.063 C 174.303 147.689,174.181 147.383,174.031 147.383 C 173.882 147.383,173.759 147.138,173.759 146.839 C 173.759 146.540,173.637 146.295,173.487 146.295 C 173.338 146.295,173.215 146.077,173.215 145.811 C 173.215 145.545,172.971 145.151,172.672 144.935 C 172.373 144.720,172.128 144.326,172.128 144.060 C 172.128 143.794,172.005 143.576,171.856 143.576 C 171.706 143.576,171.584 143.338,171.584 143.048 C 171.584 142.758,171.462 142.445,171.312 142.352 C 171.162 142.260,171.040 141.974,171.040 141.716 C 171.040 141.459,170.795 141.072,170.496 140.857 C 170.197 140.641,169.952 140.247,169.952 139.981 C 169.952 139.715,169.769 139.497,169.545 139.497 C 169.318 139.497,169.137 139.255,169.137 138.953 C 169.137 138.654,169.014 138.409,168.865 138.409 C 168.715 138.409,168.593 138.130,168.593 137.789 C 168.593 137.449,168.348 136.993,168.049 136.778 C 167.750 136.562,167.505 136.168,167.505 135.902 C 167.505 135.636,167.383 135.418,167.233 135.418 C 167.084 135.418,166.961 135.200,166.961 134.934 C 166.961 134.668,166.717 134.274,166.417 134.058 C 166.118 133.843,165.874 133.388,165.874 133.047 C 165.874 132.706,165.751 132.427,165.602 132.427 C 165.452 132.427,165.330 132.195,165.330 131.912 C 165.330 131.629,165.146 131.327,164.922 131.241 C 164.697 131.155,164.514 130.924,164.514 130.728 C 164.514 130.532,164.269 130.195,163.970 129.980 C 163.671 129.764,163.426 129.370,163.426 129.104 C 163.426 128.838,163.304 128.620,163.154 128.620 C 163.005 128.620,162.882 128.314,162.882 127.940 C 162.882 127.566,162.760 127.260,162.610 127.260 C 162.461 127.260,162.339 127.043,162.339 126.777 C 162.339 126.510,162.094 126.116,161.795 125.901 C 161.496 125.685,161.251 125.291,161.251 125.025 C 161.251 124.759,161.128 124.541,160.979 124.541 C 160.829 124.541,160.707 124.296,160.707 123.997 C 160.707 123.698,160.585 123.453,160.435 123.453 C 160.286 123.453,160.163 123.226,160.163 122.948 C 160.163 122.670,159.857 122.212,159.483 121.931 C 159.109 121.651,158.804 121.205,158.804 120.942 C 158.804 120.678,158.681 120.462,158.532 120.462 C 158.382 120.462,158.260 120.218,158.260 119.918 C 158.260 119.619,158.137 119.375,157.988 119.375 C 157.838 119.375,157.716 119.130,157.716 118.831 C 157.716 118.532,157.593 118.287,157.444 118.287 C 157.294 118.287,157.172 118.103,157.172 117.879 C 157.172 117.655,157.050 117.471,156.900 117.471 C 156.751 117.471,156.628 117.226,156.628 116.927 C 156.628 116.628,156.506 116.383,156.356 116.383 C 156.207 116.383,156.084 116.166,156.084 115.900 C 156.084 115.633,155.840 115.239,155.540 115.024 C 155.241 114.808,154.997 114.414,154.997 114.148 C 154.997 113.882,154.813 113.664,154.589 113.664 C 154.335 113.664,154.181 113.407,154.181 112.984 C 154.181 112.610,154.058 112.305,153.909 112.305 C 153.759 112.305,153.637 112.087,153.637 111.821 C 153.637 111.555,153.392 111.161,153.093 110.945 C 152.794 110.729,152.549 110.335,152.549 110.069 C 152.549 109.803,152.427 109.585,152.277 109.585 C 152.128 109.585,152.005 109.341,152.005 109.041 C 152.005 108.742,151.883 108.498,151.734 108.498 C 151.584 108.498,151.462 108.276,151.462 108.005 C 151.462 107.734,151.217 107.250,150.918 106.929 C 150.619 106.608,150.374 106.156,150.374 105.926 C 150.374 105.695,150.252 105.506,150.102 105.506 C 149.952 105.506,149.830 105.319,149.830 105.090 C 149.830 104.861,149.646 104.603,149.422 104.517 C 149.198 104.431,149.014 104.129,149.014 103.846 C 149.014 103.563,148.892 103.331,148.742 103.331 C 148.593 103.331,148.470 103.148,148.470 102.923 C 148.470 102.699,148.348 102.515,148.199 102.515 C 148.049 102.515,147.927 102.271,147.927 101.971 C 147.927 101.672,147.804 101.428,147.655 101.428 C 147.505 101.428,147.383 101.183,147.383 100.884 C 147.383 100.585,147.260 100.340,147.111 100.340 C 146.961 100.340,146.839 100.122,146.839 99.856 C 146.839 99.590,146.594 99.196,146.295 98.980 C 145.996 98.765,145.751 98.309,145.751 97.969 C 145.751 97.628,145.659 97.349,145.546 97.349 C 145.433 97.349,145.178 96.982,144.979 96.533 C 144.780 96.084,144.445 95.717,144.233 95.717 C 144.021 95.717,143.848 95.472,143.848 95.173 C 143.848 94.874,143.725 94.630,143.576 94.630 C 143.426 94.630,143.304 94.385,143.304 94.086 C 143.304 93.787,143.182 93.542,143.032 93.542 C 142.882 93.542,142.760 93.263,142.760 92.922 C 142.760 92.581,142.515 92.126,142.216 91.910 C 141.917 91.695,141.672 91.301,141.672 91.034 C 141.672 90.768,141.550 90.551,141.400 90.551 C 141.251 90.551,141.128 90.306,141.128 90.007 C 141.128 89.708,141.006 89.463,140.857 89.463 C 140.707 89.463,140.585 89.218,140.585 88.919 C 140.585 88.620,140.476 88.375,140.344 88.375 C 140.211 88.375,139.900 87.947,139.651 87.424 C 139.403 86.900,139.083 86.472,138.940 86.472 C 138.798 86.472,138.681 86.227,138.681 85.928 C 138.681 85.629,138.559 85.384,138.409 85.384 C 138.260 85.384,138.137 85.166,138.137 84.900 C 138.137 84.634,137.893 84.240,137.593 84.024 C 137.294 83.809,137.050 83.354,137.050 83.013 C 137.050 82.672,136.927 82.393,136.778 82.393 C 136.628 82.393,136.506 82.148,136.506 81.849 C 136.506 81.550,136.383 81.305,136.234 81.305 C 136.084 81.305,135.962 81.088,135.962 80.821 C 135.962 80.555,135.717 80.161,135.418 79.946 C 135.119 79.730,134.874 79.336,134.874 79.070 C 134.874 78.804,134.691 78.586,134.466 78.586 C 134.223 78.586,134.058 78.336,134.058 77.966 C 134.058 77.625,133.814 77.170,133.515 76.954 C 133.215 76.739,132.971 76.345,132.971 76.079 C 132.971 75.813,132.848 75.595,132.699 75.595 C 132.549 75.595,132.427 75.350,132.427 75.051 C 132.427 74.752,132.305 74.507,132.155 74.507 C 132.005 74.507,131.883 74.318,131.883 74.088 C 131.883 73.857,131.638 73.406,131.339 73.085 C 131.040 72.764,130.795 72.279,130.795 72.009 C 130.795 71.738,130.673 71.516,130.523 71.516 C 130.374 71.516,130.252 71.271,130.252 70.972 C 130.252 70.673,130.129 70.428,129.980 70.428 C 129.830 70.428,129.708 70.262,129.708 70.058 C 129.708 69.855,129.402 69.459,129.028 69.178 C 128.653 68.897,128.348 68.391,128.348 68.052 C 128.348 67.714,128.226 67.437,128.076 67.437 C 127.927 67.437,127.804 67.192,127.804 66.893 C 127.804 66.594,127.682 66.349,127.532 66.349 C 127.383 66.349,127.260 66.132,127.260 65.866 C 127.260 65.600,127.016 65.205,126.717 64.990 C 126.417 64.774,126.173 64.380,126.173 64.114 C 126.173 63.848,126.050 63.630,125.901 63.630 C 125.751 63.630,125.629 63.458,125.629 63.248 C 125.629 62.606,124.463 60.639,124.083 60.639 C 123.886 60.639,123.725 60.394,123.725 60.095 C 123.725 59.796,123.603 59.551,123.453 59.551 C 123.304 59.551,123.182 59.307,123.182 59.007 C 123.182 58.708,123.059 58.464,122.910 58.464 C 122.760 58.464,122.638 58.280,122.638 58.056 C 122.638 57.831,122.515 57.648,122.366 57.648 C 122.216 57.648,122.094 57.403,122.094 57.104 C 122.094 56.805,121.971 56.560,121.822 56.560 C 121.672 56.560,121.550 56.315,121.550 56.016 C 121.550 55.717,121.428 55.472,121.278 55.472 C 121.128 55.472,121.006 55.255,121.006 54.989 C 121.006 54.723,120.761 54.328,120.462 54.113 C 120.163 53.897,119.918 53.574,119.918 53.395 C 119.918 52.955,119.018 51.397,118.763 51.395 C 118.651 51.394,118.559 51.176,118.559 50.910 C 118.559 50.644,118.314 50.250,118.015 50.034 C 117.716 49.818,117.471 49.424,117.471 49.158 C 117.471 48.892,117.349 48.674,117.199 48.674 C 117.050 48.674,116.927 48.437,116.927 48.147 C 116.927 47.856,116.805 47.543,116.655 47.451 C 116.506 47.358,116.383 47.072,116.383 46.815 C 116.383 46.558,116.139 46.171,115.840 45.955 C 115.540 45.740,115.296 45.345,115.296 45.079 C 115.296 44.813,115.173 44.596,115.024 44.596 C 114.874 44.596,114.752 44.351,114.752 44.052 C 114.752 43.753,114.638 43.508,114.498 43.508 C 114.359 43.508,114.158 43.232,114.051 42.896 C 113.945 42.559,113.631 42.086,113.353 41.844 C 113.076 41.602,112.848 41.205,112.848 40.961 C 112.848 40.716,112.726 40.517,112.576 40.517 C 112.427 40.517,112.305 40.299,112.305 40.033 C 112.305 39.767,112.060 39.373,111.761 39.157 C 111.462 38.941,111.217 38.555,111.217 38.297 C 111.217 38.040,111.094 37.754,110.945 37.661 C 110.795 37.569,110.673 37.256,110.673 36.966 C 110.673 36.675,110.551 36.438,110.401 36.438 C 110.252 36.438,110.129 36.222,110.129 35.958 C 110.129 35.695,109.823 35.249,109.449 34.969 C 109.075 34.688,108.770 34.292,108.770 34.088 C 108.770 33.885,108.647 33.719,108.498 33.719 C 108.348 33.719,108.226 33.474,108.226 33.175 C 108.226 32.876,108.103 32.631,107.954 32.631 C 107.804 32.631,107.682 32.352,107.682 32.011 C 107.682 31.670,107.437 31.215,107.138 30.999 C 106.839 30.784,106.594 30.390,106.594 30.124 C 106.594 29.857,106.472 29.640,106.322 29.640 C 106.173 29.640,106.050 29.517,106.050 29.368 C 106.050 29.189,112.169 29.096,123.861 29.096 L 141.672 29.096 141.672 14.548 L 141.672 0.000 98.300 0.000 C 59.929 0.000,54.929 0.047,54.929 0.408 M175.663 14.548 L 175.663 29.096 211.557 29.096 L 247.451 29.096 247.451 14.548 L 247.451 0.000 211.557 0.000 L 175.663 0.000 175.663 14.548 " stroke="none" fill="#040404" fill-rule="evenodd"></path><path id="path1" d="" stroke="none" fill="#080404" fill-rule="evenodd"></path><path id="path2" d="" stroke="none" fill="#080404" fill-rule="evenodd"></path><path id="path3" d="" stroke="none" fill="#080404" fill-rule="evenodd"></path><path id="path4" d="" stroke="none" fill="#080404" fill-rule="evenodd"></path></g></svg>