<svg id="svg" version="1.1" xmlns="http://www.w3.org/2000/svg" xmlns:xlink="http://www.w3.org/1999/xlink" width="400" height="133.33333333333334" viewBox="0, 0, 400,133.33333333333334"><g id="svgg"><path id="path0" d="M137.167 59.380 C 137.167 59.497,137.268 59.740,137.392 59.921 C 137.516 60.102,137.804 60.587,138.032 61.000 C 138.260 61.413,139.031 62.758,139.744 63.989 C 140.457 65.221,141.190 66.496,141.373 66.823 C 141.556 67.149,142.213 68.279,142.833 69.333 C 143.454 70.387,144.129 71.550,144.334 71.917 C 144.539 72.283,145.574 74.083,146.633 75.917 C 147.693 77.750,148.641 79.418,148.739 79.624 C 148.836 79.829,148.963 79.998,149.021 79.999 C 149.123 80.000,150.833 77.223,150.833 77.055 C 150.833 77.007,150.974 76.769,151.145 76.526 C 151.317 76.282,151.681 75.671,151.955 75.167 C 152.229 74.662,152.958 73.387,153.575 72.333 C 154.192 71.279,154.927 70.004,155.208 69.500 C 155.489 68.996,155.882 68.321,156.080 68.000 C 156.279 67.679,156.495 67.304,156.560 67.167 C 156.626 67.029,156.771 66.767,156.882 66.583 C 156.994 66.400,157.489 65.537,157.983 64.667 C 158.476 63.796,159.132 62.688,159.440 62.205 C 159.748 61.722,160.000 61.280,160.000 61.224 C 160.000 61.167,160.225 60.755,160.500 60.308 C 160.775 59.861,161.000 59.421,161.000 59.331 C 161.000 59.229,159.773 59.167,157.750 59.167 L 154.500 59.167 154.500 60.333 L 154.500 61.500 155.657 61.500 C 157.151 61.500,157.175 61.576,156.204 63.209 C 155.432 64.510,154.969 65.313,154.206 66.677 C 154.023 67.004,153.290 68.279,152.577 69.511 C 151.864 70.742,151.093 72.087,150.864 72.500 C 150.635 72.912,150.271 73.530,150.057 73.872 C 149.842 74.214,149.667 74.558,149.667 74.638 C 149.667 74.813,149.022 75.414,148.937 75.318 C 148.835 75.204,145.333 69.146,145.333 69.084 C 145.333 69.052,144.958 68.422,144.500 67.683 C 144.042 66.944,143.667 66.302,143.667 66.256 C 143.667 66.210,143.367 65.682,143.000 65.083 C 142.633 64.484,142.333 63.959,142.333 63.917 C 142.333 63.874,142.039 63.358,141.678 62.769 C 140.898 61.494,140.894 61.500,142.444 61.500 L 143.667 61.500 143.667 60.333 L 143.667 59.167 140.417 59.167 C 137.890 59.167,137.167 59.214,137.167 59.380 M146.449 59.274 C 146.385 59.337,146.333 59.864,146.333 60.444 L 146.333 61.500 149.091 61.500 L 151.849 61.500 151.799 60.375 L 151.750 59.250 149.157 59.204 C 147.731 59.179,146.512 59.210,146.449 59.274 M170.000 69.404 L 170.000 74.186 170.708 74.135 L 171.417 74.083 171.500 72.250 L 171.583 70.417 173.583 70.333 C 176.447 70.214,177.291 69.495,177.133 67.309 C 176.984 65.252,176.209 64.802,172.643 64.699 L 170.000 64.623 170.000 69.404 M181.084 64.854 C 181.035 64.983,181.014 67.112,181.039 69.586 L 181.083 74.083 181.786 74.134 L 182.489 74.185 182.536 72.301 L 182.583 70.417 183.694 70.368 C 184.782 70.320,184.814 70.330,185.233 70.879 C 185.693 71.483,186.787 73.398,186.943 73.875 C 187.017 74.101,187.226 74.167,187.864 74.167 C 188.796 74.167,188.820 74.030,188.101 72.833 C 187.908 72.512,187.603 71.962,187.424 71.610 C 187.245 71.258,186.907 70.818,186.674 70.632 C 186.271 70.311,186.265 70.285,186.562 70.105 C 187.748 69.387,187.931 69.196,188.230 68.367 C 188.715 67.019,188.318 65.876,187.094 65.096 C 186.436 64.678,181.233 64.468,181.084 64.854 M192.579 64.868 C 192.532 64.989,192.514 67.112,192.539 69.586 L 192.583 74.083 193.333 74.083 L 194.083 74.083 194.083 69.417 L 194.083 64.750 193.373 64.699 C 192.900 64.664,192.636 64.721,192.579 64.868 M198.500 69.417 L 198.500 74.187 199.125 74.135 L 199.750 74.083 199.833 71.208 C 199.932 67.786,199.937 67.783,201.278 70.309 C 202.923 73.410,203.228 73.406,204.836 70.271 C 206.281 67.452,206.333 67.483,206.333 71.167 L 206.333 74.167 207.003 74.167 L 207.672 74.167 207.628 69.458 L 207.583 64.750 207.069 64.700 C 206.424 64.637,206.479 64.561,204.831 67.750 C 203.094 71.111,203.081 71.131,202.869 70.725 C 202.351 69.730,200.462 66.134,200.124 65.500 C 199.776 64.844,199.648 64.743,199.113 64.698 L 198.500 64.647 198.500 69.417 M212.119 64.770 C 212.054 64.835,212.000 66.976,212.000 69.528 L 212.000 74.167 212.753 74.167 L 213.505 74.167 213.461 69.458 L 213.417 64.750 212.827 64.700 C 212.503 64.673,212.185 64.704,212.119 64.770 M217.066 64.901 C 216.750 65.726,217.007 65.912,218.583 66.000 L 220.083 66.083 220.128 70.125 L 220.173 74.167 220.917 74.167 L 221.661 74.167 221.705 70.125 L 221.750 66.083 223.250 66.000 L 224.750 65.917 224.750 65.333 L 224.750 64.750 220.954 64.705 C 217.768 64.668,217.144 64.699,217.066 64.901 M228.333 69.407 L 228.333 74.167 229.086 74.167 L 229.839 74.167 229.794 69.458 L 229.750 64.750 229.042 64.699 L 228.333 64.648 228.333 69.407 M233.368 64.809 C 233.150 64.947,233.205 65.096,234.597 68.130 C 234.818 68.613,235.000 69.039,235.000 69.076 C 235.000 69.112,235.253 69.692,235.562 70.363 C 235.871 71.034,236.286 71.958,236.485 72.417 C 237.162 73.981,237.252 74.083,237.946 74.083 C 238.637 74.083,238.677 74.029,239.649 71.822 C 239.868 71.324,240.179 70.617,240.340 70.250 C 240.904 68.969,242.199 66.079,242.447 65.550 C 242.748 64.907,242.633 64.667,242.022 64.667 C 241.319 64.667,241.072 64.959,240.407 66.583 C 240.070 67.408,239.659 68.383,239.494 68.750 C 239.329 69.117,238.963 69.928,238.680 70.553 C 238.398 71.178,238.167 71.766,238.167 71.859 C 238.167 72.658,237.183 70.657,234.879 65.167 C 234.676 64.682,233.869 64.491,233.368 64.809 M246.208 64.777 C 246.049 64.841,246.000 65.948,246.000 69.514 L 246.000 74.167 249.083 74.167 L 252.167 74.167 252.167 73.583 L 252.167 73.000 250.097 73.000 C 247.357 73.000,247.500 73.088,247.500 71.404 L 247.500 70.010 249.708 69.963 L 251.917 69.917 251.969 69.380 L 252.020 68.843 249.802 68.797 L 247.583 68.750 247.535 67.375 L 247.487 66.000 249.827 66.000 L 252.167 66.000 252.167 65.333 L 252.167 64.667 249.292 64.680 C 247.710 64.687,246.323 64.731,246.208 64.777 M174.761 66.077 C 175.870 66.541,176.072 68.284,175.092 68.927 C 174.652 69.214,172.603 69.437,171.935 69.269 C 171.506 69.162,171.230 66.326,171.611 65.944 C 171.823 65.733,174.174 65.832,174.761 66.077 M185.900 66.066 C 188.335 67.083,186.933 69.253,183.917 69.135 L 182.583 69.083 182.534 67.835 C 182.453 65.816,182.440 65.833,184.009 65.833 C 184.774 65.833,185.582 65.933,185.900 66.066 " stroke="none" fill="#f5f5f5" fill-rule="evenodd"></path><path id="path1" d="M0.000 66.667 L 0.000 133.333 200.000 133.333 L 400.000 133.333 400.000 66.667 L 400.000 0.000 200.000 0.000 L 0.000 0.000 0.000 66.667 M143.799 60.375 L 143.847 61.667 142.575 61.667 L 141.302 61.667 141.715 62.375 C 141.943 62.765,142.338 63.458,142.593 63.917 C 142.847 64.375,143.343 65.220,143.695 65.795 C 144.046 66.369,144.333 66.874,144.333 66.917 C 144.333 66.959,144.633 67.484,145.000 68.083 C 145.367 68.682,145.667 69.206,145.667 69.247 C 145.667 69.288,146.079 70.002,146.583 70.833 C 147.087 71.665,147.500 72.379,147.500 72.420 C 147.500 72.461,147.800 72.984,148.167 73.583 C 148.533 74.182,148.833 74.752,148.833 74.850 C 148.833 75.329,149.304 74.717,150.453 72.746 C 151.931 70.208,152.008 70.074,153.496 67.417 C 153.804 66.867,154.343 65.947,154.694 65.372 C 155.046 64.798,155.333 64.284,155.333 64.231 C 155.333 64.178,155.473 63.936,155.643 63.692 C 155.813 63.449,156.149 62.894,156.390 62.458 L 156.827 61.667 155.580 61.667 L 154.333 61.667 154.333 60.333 L 154.333 59.000 157.740 59.000 C 161.575 59.000,161.567 58.997,160.876 60.129 C 160.612 60.562,160.341 61.029,160.274 61.167 C 160.208 61.304,160.063 61.567,159.952 61.750 C 159.841 61.933,159.494 62.533,159.182 63.083 C 158.104 64.979,156.774 67.253,156.138 68.288 C 155.787 68.858,155.500 69.375,155.500 69.436 C 155.500 69.497,155.213 70.005,154.863 70.565 C 154.512 71.125,154.172 71.696,154.106 71.833 C 154.041 71.971,153.896 72.233,153.784 72.417 C 153.673 72.600,153.196 73.425,152.724 74.250 C 152.253 75.075,151.391 76.576,150.809 77.586 C 150.226 78.596,149.644 79.627,149.514 79.878 C 149.072 80.729,149.060 80.712,145.609 74.591 C 145.349 74.128,144.805 73.204,144.401 72.536 C 143.997 71.868,143.667 71.285,143.667 71.241 C 143.667 71.196,143.491 70.880,143.276 70.538 C 143.062 70.196,142.656 69.504,142.375 69.000 C 142.094 68.496,141.369 67.230,140.765 66.187 C 140.161 65.144,139.667 64.262,139.667 64.227 C 139.667 64.192,139.254 63.496,138.750 62.681 C 138.246 61.866,137.833 61.157,137.833 61.105 C 137.833 61.054,137.608 60.657,137.333 60.223 C 136.519 58.939,136.397 58.988,140.292 59.038 L 143.750 59.083 143.799 60.375 M152.000 60.337 L 152.000 61.674 149.042 61.629 L 146.083 61.583 146.033 60.518 C 145.957 58.899,145.755 59.000,149.078 59.000 L 152.000 59.000 152.000 60.337 M175.781 64.824 C 177.858 65.767,177.976 69.205,175.967 70.254 C 175.587 70.452,174.861 70.568,173.625 70.625 L 171.833 70.709 171.833 72.405 C 171.833 73.501,171.763 74.171,171.633 74.300 C 171.296 74.638,170.040 74.552,169.839 74.178 C 169.654 73.832,169.589 65.230,169.768 64.764 C 169.931 64.338,174.818 64.387,175.781 64.824 M187.403 65.061 C 189.137 66.385,189.100 68.825,187.330 69.881 C 186.765 70.218,186.694 70.316,186.896 70.483 C 187.462 70.952,189.091 74.050,188.919 74.329 C 188.861 74.423,188.455 74.500,188.016 74.500 C 187.068 74.500,186.977 74.414,185.978 72.577 C 185.578 71.840,185.165 71.096,185.060 70.922 C 184.917 70.684,184.621 70.589,183.852 70.534 L 182.833 70.460 182.833 72.158 C 182.833 74.255,182.723 74.500,181.777 74.500 C 180.643 74.500,180.667 74.604,180.667 69.564 C 180.667 63.825,180.267 64.462,183.828 64.529 L 186.777 64.583 187.403 65.061 M194.297 69.167 C 194.354 74.750,194.398 74.500,193.348 74.500 C 192.283 74.500,192.333 74.757,192.333 69.347 C 192.333 64.178,192.269 64.467,193.410 64.534 L 194.250 64.583 194.297 69.167 M200.685 66.083 C 201.123 66.908,201.838 68.275,202.274 69.120 C 202.709 69.965,203.080 70.640,203.098 70.620 C 203.115 70.600,203.782 69.309,204.578 67.751 C 206.319 64.347,206.200 64.500,207.106 64.500 L 207.838 64.500 207.794 69.458 L 207.750 74.417 207.069 74.467 C 206.060 74.541,206.014 74.413,205.963 71.335 L 205.917 68.611 205.092 70.264 C 203.597 73.261,202.835 73.694,201.963 72.042 C 201.733 71.606,201.216 70.650,200.814 69.917 L 200.083 68.583 200.000 71.500 L 199.917 74.417 199.167 74.417 L 198.417 74.417 198.373 69.449 L 198.328 64.482 199.108 64.532 L 199.888 64.583 200.685 66.083 M213.627 69.458 L 213.583 74.417 212.863 74.469 C 211.633 74.557,211.667 74.699,211.667 69.424 C 211.667 64.141,211.585 64.500,212.780 64.500 L 213.672 64.500 213.627 69.458 M225.083 65.333 L 225.083 66.083 223.542 66.131 L 222.000 66.179 222.000 70.140 C 222.000 74.550,222.013 74.500,220.889 74.500 C 219.857 74.500,219.833 74.399,219.833 70.017 L 219.833 66.179 218.292 66.131 C 216.609 66.079,216.471 65.969,216.740 64.897 L 216.841 64.494 220.962 64.539 L 225.083 64.583 225.083 65.333 M230.128 69.313 C 230.177 74.569,230.191 74.500,229.096 74.500 C 227.976 74.500,228.000 74.611,228.000 69.411 C 228.000 64.138,227.921 64.469,229.160 64.534 L 230.083 64.583 230.128 69.313 M235.063 65.042 C 235.841 66.759,236.238 67.674,236.525 68.417 C 236.703 68.875,236.957 69.485,237.089 69.772 C 237.222 70.059,237.464 70.610,237.628 70.996 C 237.963 71.783,237.926 71.812,238.578 70.250 C 238.894 69.492,238.977 69.302,239.592 67.917 C 239.836 67.367,240.172 66.579,240.340 66.167 C 241.034 64.454,240.983 64.503,242.042 64.501 C 243.098 64.500,243.184 64.614,242.758 65.445 C 242.514 65.920,241.852 67.374,241.177 68.917 C 240.977 69.375,240.711 69.975,240.587 70.250 C 240.464 70.525,240.161 71.200,239.915 71.750 C 238.678 74.514,238.688 74.500,237.992 74.500 C 237.406 74.500,236.667 73.899,236.667 73.422 C 236.667 73.361,236.473 72.886,236.236 72.364 C 235.766 71.331,235.584 70.926,234.915 69.417 C 234.422 68.306,234.231 67.877,233.577 66.417 C 232.685 64.423,232.671 64.500,233.937 64.500 C 234.769 64.500,234.831 64.530,235.063 65.042 M252.427 64.900 C 252.714 66.043,252.647 66.079,250.125 66.130 L 247.833 66.176 247.833 67.333 L 247.833 68.490 249.958 68.537 L 252.083 68.583 252.134 69.375 L 252.185 70.167 250.009 70.167 L 247.833 70.167 247.833 71.417 L 247.833 72.667 249.903 72.667 C 252.428 72.667,252.500 72.690,252.500 73.497 C 252.500 74.482,252.388 74.513,248.978 74.462 L 245.917 74.417 245.873 69.458 L 245.828 64.500 249.078 64.500 L 252.327 64.500 252.427 64.900 M171.833 67.583 L 171.833 69.000 173.232 69.000 C 175.007 69.000,175.417 68.740,175.417 67.616 C 175.417 66.395,175.084 66.167,173.308 66.167 L 171.833 66.167 171.833 67.583 M182.833 67.583 L 182.833 69.000 184.005 69.000 C 185.900 69.000,186.659 68.568,186.664 67.487 C 186.669 66.447,186.180 66.167,184.364 66.167 L 182.833 66.167 182.833 67.583 " stroke="none" fill="#040404" fill-rule="evenodd"></path><path id="path2" d="M146.201 60.375 L 146.250 61.583 148.959 61.590 L 151.667 61.596 148.987 61.544 L 146.306 61.492 146.361 60.329 C 146.392 59.689,146.357 59.166,146.284 59.166 C 146.212 59.166,146.174 59.710,146.201 60.375 M151.831 60.383 L 151.913 61.583 151.965 60.517 C 151.994 59.930,151.957 59.390,151.884 59.316 C 151.810 59.242,151.787 59.722,151.831 60.383 M154.405 60.500 L 154.417 61.583 155.667 61.596 L 156.917 61.609 155.716 61.547 L 154.515 61.486 154.454 60.451 L 154.394 59.417 154.405 60.500 M141.090 61.655 C 141.038 61.740,141.082 61.865,141.190 61.931 C 141.309 62.005,141.340 61.979,141.270 61.866 C 141.191 61.738,141.555 61.663,142.453 61.624 L 143.750 61.567 142.468 61.534 C 141.763 61.515,141.143 61.570,141.090 61.655 M169.913 69.458 L 169.917 74.250 170.553 74.302 C 171.565 74.386,171.667 74.198,171.667 72.235 L 171.667 70.512 173.334 70.455 L 175.001 70.398 173.292 70.407 L 171.583 70.417 171.500 72.250 L 171.417 74.083 170.711 74.134 L 170.005 74.186 169.957 69.426 L 169.909 64.667 169.913 69.458 M180.944 64.778 C 180.883 64.839,180.833 66.975,180.833 69.525 L 180.833 74.160 181.230 74.260 C 181.448 74.315,181.842 74.335,182.105 74.305 L 182.583 74.250 182.667 72.307 C 182.713 71.238,182.694 70.399,182.625 70.442 C 182.556 70.485,182.500 71.345,182.500 72.353 L 182.500 74.186 181.792 74.135 L 181.083 74.083 181.083 69.375 C 181.083 66.785,181.077 64.667,181.069 64.667 C 181.062 64.667,181.006 64.717,180.944 64.778 M211.909 64.877 C 211.864 64.993,211.848 67.149,211.872 69.669 L 211.917 74.250 212.000 69.458 C 212.046 66.823,212.062 64.667,212.036 64.667 C 212.011 64.667,211.953 64.761,211.909 64.877 M213.463 69.415 L 213.510 74.147 212.837 74.215 L 212.164 74.283 212.874 74.266 L 213.583 74.250 213.628 69.594 C 213.652 67.034,213.615 64.881,213.544 64.811 C 213.474 64.740,213.438 66.812,213.463 69.415 M216.944 64.778 C 216.718 65.004,216.832 65.964,217.097 66.066 C 217.242 66.121,217.953 66.167,218.677 66.167 L 219.994 66.167 220.039 70.208 L 220.083 74.250 220.793 74.266 L 221.502 74.283 220.838 74.215 L 220.173 74.148 220.128 70.116 L 220.083 66.083 218.583 66.000 L 217.083 65.917 217.083 65.292 C 217.083 64.948,217.077 64.666,217.069 64.667 C 217.062 64.667,217.006 64.717,216.944 64.778 M224.750 65.307 L 224.750 65.917 223.250 66.000 L 221.750 66.083 221.746 70.083 L 221.741 74.083 221.790 70.125 L 221.839 66.167 223.220 66.167 C 224.071 66.167,224.677 66.090,224.800 65.967 C 225.020 65.747,225.073 64.899,224.875 64.776 C 224.806 64.733,224.750 64.972,224.750 65.307 M229.833 69.383 L 229.916 74.083 229.961 69.511 C 229.985 66.996,229.948 64.881,229.878 64.811 C 229.807 64.740,229.787 66.798,229.833 69.383 M245.909 64.877 C 245.864 64.993,245.848 67.149,245.872 69.669 L 245.917 74.250 249.083 74.250 L 252.250 74.250 252.250 73.583 L 252.250 72.917 250.041 72.909 L 247.833 72.902 250.000 72.956 L 252.167 73.010 252.167 73.588 L 252.167 74.167 249.083 74.167 L 246.000 74.167 246.000 69.514 C 246.000 65.948,246.049 64.841,246.208 64.777 C 246.372 64.711,246.370 64.690,246.203 64.680 C 246.086 64.673,245.953 64.761,245.909 64.877 M252.212 65.333 C 252.212 65.746,252.245 65.915,252.284 65.708 C 252.324 65.502,252.324 65.165,252.284 64.958 C 252.245 64.752,252.212 64.921,252.212 65.333 M198.413 69.500 L 198.417 74.250 198.809 74.305 C 199.024 74.336,199.380 74.316,199.600 74.261 L 200.000 74.160 200.000 71.237 C 200.000 69.070,200.050 68.344,200.192 68.433 C 200.316 68.509,200.339 68.478,200.257 68.345 C 199.956 67.857,199.839 68.594,199.796 71.254 L 199.750 74.083 199.128 74.135 L 198.505 74.186 198.457 69.468 L 198.409 64.750 198.413 69.500 M228.246 69.500 L 228.250 74.250 229.043 74.265 L 229.835 74.281 229.087 74.215 L 228.338 74.149 228.290 69.449 L 228.242 64.750 228.246 69.500 M171.611 65.944 C 171.550 66.006,171.500 66.748,171.500 67.593 C 171.500 69.370,171.481 69.349,173.055 69.304 L 174.083 69.274 172.917 69.179 L 171.750 69.083 171.750 67.583 L 171.750 66.083 173.083 65.989 L 174.417 65.894 173.069 65.864 C 172.328 65.847,171.672 65.883,171.611 65.944 M183.380 65.956 C 183.818 65.990,184.493 65.990,184.880 65.955 C 185.267 65.920,184.908 65.892,184.083 65.892 C 183.258 65.893,182.942 65.922,183.380 65.956 M188.187 66.337 C 188.439 67.083,188.581 67.228,188.428 66.583 C 188.363 66.308,188.238 66.010,188.150 65.920 C 188.063 65.831,188.079 66.018,188.187 66.337 M247.535 67.375 L 247.583 68.750 249.833 68.760 L 252.083 68.770 249.917 68.677 L 247.750 68.583 247.750 67.291 C 247.750 66.581,247.691 66.000,247.618 66.000 C 247.546 66.000,247.508 66.619,247.535 67.375 M182.572 67.583 L 182.583 69.083 184.083 69.093 L 185.583 69.102 184.131 69.045 L 182.679 68.988 182.620 67.535 L 182.561 66.083 182.572 67.583 M186.750 67.500 C 186.750 67.941,186.805 68.215,186.872 68.109 C 186.940 68.003,186.995 67.729,186.995 67.500 C 186.995 67.271,186.940 66.997,186.872 66.891 C 186.805 66.785,186.750 67.059,186.750 67.500 M177.214 67.583 C 177.216 68.042,177.248 68.209,177.286 67.956 C 177.325 67.703,177.324 67.328,177.284 67.123 C 177.244 66.918,177.213 67.125,177.214 67.583 M188.202 68.442 C 188.100 68.777,188.082 68.983,188.163 68.901 C 188.326 68.734,188.579 67.833,188.463 67.833 C 188.422 67.833,188.305 68.107,188.202 68.442 M205.954 68.302 C 206.099 68.394,206.173 69.273,206.208 71.341 L 206.258 74.250 206.296 71.208 C 206.330 68.408,206.310 68.167,206.042 68.169 C 205.838 68.171,205.812 68.211,205.954 68.302 M247.525 71.458 C 247.551 72.983,247.624 72.813,247.703 71.041 C 247.729 70.468,247.694 70.000,247.625 70.000 C 247.556 70.000,247.511 70.656,247.525 71.458 M188.587 73.792 C 188.681 74.136,188.630 74.169,187.970 74.195 L 187.250 74.223 187.897 74.289 C 188.667 74.369,188.950 74.164,188.676 73.724 C 188.503 73.447,188.494 73.453,188.587 73.792 M237.040 73.833 C 237.359 74.370,238.332 74.499,238.673 74.050 C 238.867 73.794,238.867 73.780,238.667 73.958 C 238.279 74.304,237.410 74.213,237.083 73.792 L 236.792 73.417 237.040 73.833 M192.609 74.208 C 192.652 74.277,192.977 74.333,193.333 74.333 C 193.689 74.333,194.015 74.277,194.058 74.208 C 194.100 74.140,193.774 74.083,193.333 74.083 C 192.893 74.083,192.567 74.140,192.609 74.208 M206.794 74.285 C 207.001 74.324,207.301 74.323,207.460 74.281 C 207.620 74.239,207.450 74.207,207.083 74.209 C 206.717 74.211,206.586 74.245,206.794 74.285 " stroke="none" fill="#848484" fill-rule="evenodd"></path><path id="path3" d="M136.836 59.292 C 136.838 59.508,136.874 59.527,136.975 59.368 C 137.081 59.201,137.863 59.164,140.457 59.201 C 142.297 59.228,143.767 59.194,143.724 59.125 C 143.536 58.822,136.833 58.984,136.836 59.292 M146.070 59.226 C 146.022 59.350,146.010 59.931,146.043 60.518 L 146.102 61.583 146.135 60.379 L 146.167 59.174 149.125 59.125 L 152.083 59.075 149.120 59.038 C 146.754 59.008,146.139 59.046,146.070 59.226 M157.659 59.123 C 160.115 59.160,161.109 59.231,161.213 59.379 C 161.319 59.527,161.340 59.515,161.291 59.333 C 161.233 59.121,160.691 59.083,157.736 59.078 L 154.250 59.073 157.659 59.123 M192.409 64.711 C 192.364 64.826,192.348 67.020,192.373 69.586 L 192.417 74.250 192.500 69.375 C 192.546 66.694,192.562 64.500,192.536 64.500 C 192.511 64.500,192.453 64.595,192.409 64.711 M194.166 69.383 L 194.250 74.250 194.294 69.511 C 194.319 66.905,194.281 64.714,194.211 64.644 C 194.141 64.574,194.121 66.706,194.166 69.383 M211.778 64.611 C 211.565 64.824,211.650 74.083,211.867 74.300 C 212.084 74.518,213.432 74.578,213.558 74.375 C 213.601 74.306,213.249 74.250,212.776 74.250 L 211.917 74.250 211.917 69.375 C 211.917 66.694,211.910 64.500,211.903 64.500 C 211.895 64.500,211.839 64.550,211.778 64.611 M224.811 64.634 C 224.961 64.739,225.017 65.026,224.974 65.476 C 224.938 65.851,224.972 66.095,225.049 66.018 C 225.282 65.785,225.111 64.616,224.833 64.542 C 224.630 64.487,224.625 64.504,224.811 64.634 M228.111 64.611 C 227.898 64.824,227.983 74.083,228.200 74.300 C 228.459 74.559,229.708 74.559,229.967 74.300 C 230.192 74.074,230.265 64.747,230.042 64.609 C 229.973 64.566,229.917 66.718,229.917 69.391 L 229.917 74.250 229.083 74.250 L 228.250 74.250 228.250 69.375 C 228.250 66.694,228.244 64.500,228.236 64.500 C 228.228 64.500,228.172 64.550,228.111 64.611 M242.750 64.901 C 242.750 65.121,242.806 65.267,242.875 65.224 C 242.944 65.182,243.000 65.001,243.000 64.823 C 243.000 64.646,242.944 64.500,242.875 64.500 C 242.806 64.500,242.750 64.680,242.750 64.901 M169.740 69.417 C 169.740 71.983,169.763 73.010,169.791 71.698 C 169.820 70.386,169.819 68.286,169.791 67.032 C 169.763 65.777,169.740 66.850,169.740 69.417 M180.704 69.425 C 180.677 72.882,180.719 74.152,180.867 74.300 C 181.084 74.518,182.432 74.578,182.558 74.375 C 182.601 74.306,182.249 74.250,181.776 74.250 L 180.917 74.250 180.829 69.500 L 180.742 64.750 180.704 69.425 M216.667 65.407 C 216.667 65.722,216.724 66.016,216.795 66.059 C 216.865 66.103,216.895 65.845,216.861 65.486 C 216.784 64.680,216.667 64.632,216.667 65.407 M252.325 65.454 C 252.279 65.841,252.306 66.094,252.383 66.017 C 252.461 65.939,252.498 65.622,252.466 65.313 C 252.410 64.764,252.406 64.767,252.325 65.454 M171.737 66.223 C 171.690 66.346,171.674 67.040,171.701 67.765 L 171.750 69.083 172.917 69.097 L 174.083 69.110 172.958 69.047 L 171.833 68.985 171.833 67.583 L 171.833 66.181 173.042 66.124 L 174.250 66.066 173.036 66.033 C 172.152 66.009,171.800 66.061,171.737 66.223 M182.737 66.223 C 182.690 66.346,182.677 67.040,182.709 67.765 L 182.766 69.083 182.800 67.632 L 182.833 66.180 184.208 66.124 L 185.583 66.068 184.203 66.034 C 183.179 66.009,182.801 66.058,182.737 66.223 M188.417 67.417 C 188.417 68.087,188.472 68.548,188.539 68.442 C 188.606 68.337,188.662 67.875,188.662 67.417 C 188.662 66.958,188.606 66.497,188.539 66.391 C 188.472 66.285,188.417 66.747,188.417 67.417 M219.905 70.083 C 219.905 72.283,219.929 73.160,219.958 72.032 C 219.987 70.904,219.987 69.104,219.958 68.032 C 219.929 66.960,219.905 67.883,219.905 70.083 M221.832 70.167 L 221.750 74.250 220.890 74.250 C 220.418 74.250,220.066 74.306,220.109 74.375 C 220.245 74.594,221.617 74.511,221.816 74.271 C 221.950 74.110,221.992 72.860,221.960 70.063 L 221.913 66.083 221.832 70.167 M247.737 67.333 L 247.750 68.583 249.827 68.630 C 251.221 68.662,251.951 68.744,252.048 68.880 C 252.151 69.026,252.173 69.013,252.124 68.833 C 252.069 68.631,251.654 68.574,249.952 68.537 L 247.848 68.490 247.786 67.287 L 247.725 66.083 247.737 67.333 M206.028 68.417 C 205.888 68.958,206.039 74.096,206.201 74.292 C 206.456 74.598,207.702 74.500,207.791 74.167 C 207.844 73.970,207.826 73.964,207.704 74.137 C 207.608 74.273,207.302 74.336,206.900 74.303 L 206.250 74.250 206.161 71.250 C 206.112 69.600,206.052 68.325,206.028 68.417 M247.739 71.458 L 247.750 72.750 249.917 72.757 L 252.083 72.765 249.965 72.711 L 247.847 72.657 247.787 71.411 L 247.727 70.166 247.739 71.458 M171.747 70.708 C 171.706 70.823,171.652 71.667,171.628 72.583 L 171.583 74.250 170.750 74.349 L 169.917 74.448 170.675 74.474 C 171.753 74.511,171.833 74.366,171.833 72.390 L 171.833 70.679 173.375 70.624 L 174.917 70.569 173.370 70.535 C 172.257 70.510,171.802 70.559,171.747 70.708 M182.729 72.250 C 182.729 73.258,182.757 73.649,182.790 73.119 C 182.823 72.588,182.823 71.763,182.789 71.286 C 182.756 70.808,182.729 71.242,182.729 72.250 M252.326 73.500 L 252.250 74.250 249.057 74.250 C 247.302 74.250,245.900 74.306,245.942 74.375 C 245.985 74.444,247.394 74.500,249.073 74.500 C 252.492 74.500,252.564 74.476,252.461 73.387 L 252.401 72.750 252.326 73.500 M186.908 74.133 C 187.275 74.566,188.850 74.622,188.933 74.204 C 188.956 74.087,188.937 74.069,188.890 74.162 C 188.747 74.452,187.312 74.364,186.930 74.042 L 186.583 73.750 186.908 74.133 M237.145 74.208 C 237.306 74.412,237.581 74.492,238.062 74.472 L 238.750 74.444 238.085 74.376 C 237.720 74.339,237.307 74.220,237.169 74.113 C 236.949 73.942,236.946 73.954,237.145 74.208 M198.442 74.375 C 198.485 74.444,198.811 74.500,199.167 74.500 C 199.523 74.500,199.848 74.444,199.891 74.375 C 199.933 74.306,199.607 74.250,199.167 74.250 C 198.726 74.250,198.400 74.306,198.442 74.375 M192.875 74.453 C 193.127 74.491,193.540 74.491,193.792 74.453 C 194.044 74.415,193.838 74.383,193.333 74.383 C 192.829 74.383,192.623 74.415,192.875 74.453 M148.663 79.958 C 148.763 80.165,148.974 80.327,149.131 80.320 C 149.363 80.310,149.369 80.289,149.167 80.210 C 149.029 80.156,148.819 79.994,148.699 79.848 C 148.515 79.623,148.509 79.640,148.663 79.958 " stroke="none" fill="#4e4e4e" fill-rule="evenodd"></path><path id="path4" d="M143.721 60.417 C 143.722 61.058,143.752 61.300,143.788 60.955 C 143.824 60.609,143.824 60.084,143.787 59.788 C 143.750 59.492,143.721 59.775,143.721 60.417 M171.034 64.623 C 171.649 64.655,172.699 64.656,173.368 64.624 C 174.036 64.592,173.533 64.566,172.250 64.566 C 170.967 64.565,170.420 64.591,171.034 64.623 M182.292 64.624 C 182.956 64.655,184.044 64.655,184.708 64.624 C 185.373 64.592,184.829 64.566,183.500 64.566 C 182.171 64.566,181.627 64.592,182.292 64.624 M192.958 64.618 C 193.165 64.657,193.502 64.657,193.708 64.618 C 193.915 64.578,193.746 64.545,193.333 64.545 C 192.921 64.545,192.752 64.578,192.958 64.618 M198.441 64.628 C 198.397 64.699,198.655 64.728,199.014 64.694 C 199.373 64.660,199.667 64.602,199.667 64.566 C 199.667 64.442,198.520 64.500,198.441 64.628 M206.794 64.618 C 207.001 64.658,207.301 64.656,207.460 64.615 C 207.620 64.573,207.450 64.540,207.083 64.542 C 206.717 64.544,206.586 64.578,206.794 64.618 M211.942 64.625 C 211.900 64.694,212.263 64.750,212.750 64.750 C 213.237 64.750,213.600 64.694,213.558 64.625 C 213.515 64.556,213.152 64.500,212.750 64.500 C 212.348 64.500,211.985 64.556,211.942 64.625 M219.051 64.625 C 220.133 64.654,221.858 64.654,222.884 64.624 C 223.910 64.595,223.025 64.571,220.917 64.571 C 218.808 64.572,217.969 64.595,219.051 64.625 M228.276 64.625 C 228.233 64.694,228.597 64.750,229.083 64.750 C 229.570 64.750,229.933 64.694,229.891 64.625 C 229.848 64.556,229.485 64.500,229.083 64.500 C 228.682 64.500,228.318 64.556,228.276 64.625 M233.544 64.620 C 233.797 64.658,234.172 64.657,234.377 64.617 C 234.582 64.578,234.375 64.546,233.917 64.548 C 233.458 64.549,233.291 64.581,233.544 64.620 M241.625 64.618 C 241.831 64.657,242.169 64.657,242.375 64.618 C 242.581 64.578,242.412 64.545,242.000 64.545 C 241.588 64.545,241.419 64.578,241.625 64.618 M245.942 64.625 C 245.899 64.694,246.814 64.730,247.974 64.707 C 251.866 64.627,252.273 64.566,249.135 64.533 C 247.421 64.515,245.985 64.556,245.942 64.625 M207.740 69.417 C 207.740 71.983,207.763 73.010,207.791 71.698 C 207.820 70.386,207.819 68.286,207.791 67.032 C 207.763 65.777,207.740 66.850,207.740 69.417 M248.875 66.124 C 249.494 66.156,250.506 66.156,251.125 66.124 C 251.744 66.092,251.237 66.065,250.000 66.065 C 248.762 66.065,248.256 66.092,248.875 66.124 M248.792 70.123 C 249.365 70.156,250.302 70.156,250.875 70.123 C 251.448 70.091,250.979 70.064,249.833 70.064 C 248.688 70.064,248.219 70.091,248.792 70.123 M183.208 70.453 C 183.460 70.491,183.873 70.491,184.125 70.453 C 184.377 70.415,184.171 70.383,183.667 70.383 C 183.162 70.383,182.956 70.415,183.208 70.453 " stroke="none" fill="#747474" fill-rule="evenodd"></path></g></svg>