<svg id="svg" version="1.1" xmlns="http://www.w3.org/2000/svg" xmlns:xlink="http://www.w3.org/1999/xlink" width="400" height="400" viewBox="0, 0, 400,400"><g id="svgg"><path id="path0" d="M58.396 58.550 L 56.500 60.500 58.450 58.604 C 60.261 56.843,60.491 56.600,60.346 56.600 C 60.316 56.600,59.439 57.477,58.396 58.550 M341.400 58.500 C 342.441 59.545,343.337 60.400,343.392 60.400 C 343.447 60.400,342.641 59.545,341.600 58.500 C 340.559 57.455,339.663 56.600,339.608 56.600 C 339.553 56.600,340.359 57.455,341.400 58.500 M105.345 89.246 C 105.025 89.484,105.000 91.748,104.951 124.844 L 104.900 160.189 104.445 160.644 L 103.989 161.100 89.011 161.200 C 80.773 161.255,73.958 161.375,73.867 161.467 C 73.458 161.876,73.673 186.012,74.088 186.316 C 74.415 186.555,76.802 186.600,89.216 186.600 C 103.431 186.600,103.972 186.614,104.428 186.982 L 104.900 187.365 104.900 200.366 L 104.900 213.368 104.415 213.884 L 103.930 214.400 88.759 214.400 L 73.588 214.400 73.644 226.769 C 73.690 236.898,73.750 239.199,73.974 239.469 C 74.225 239.771,75.532 239.800,89.102 239.800 C 103.429 239.800,103.972 239.814,104.428 240.182 L 104.900 240.565 104.952 275.790 L 105.003 311.016 153.552 310.940 C 204.050 310.861,202.857 310.881,210.900 309.988 C 254.097 305.194,288.905 280.463,304.016 243.829 C 305.061 241.295,305.404 240.665,305.976 240.229 L 306.668 239.700 319.984 239.600 C 334.079 239.494,334.039 239.497,334.262 238.555 C 334.321 238.305,334.386 233.510,334.405 227.900 C 334.426 221.852,334.526 217.205,334.650 216.483 C 334.766 215.814,334.800 215.027,334.726 214.733 L 334.592 214.200 323.827 214.200 C 310.946 214.200,312.283 214.582,312.474 210.954 C 312.801 204.755,312.849 197.682,312.596 192.639 L 312.333 187.378 312.772 186.939 C 313.210 186.501,313.239 186.500,323.423 186.400 L 333.636 186.300 334.018 185.828 C 334.530 185.196,334.623 162.181,334.116 161.488 C 333.842 161.113,333.407 161.097,320.666 161.000 C 311.217 160.928,307.387 160.835,307.100 160.668 C 306.283 160.195,305.778 159.421,305.023 157.486 C 290.228 119.549,255.449 94.782,209.500 89.463 C 205.541 89.005,105.950 88.797,105.345 89.246 M207.100 112.607 C 226.205 114.222,242.050 120.696,257.300 133.117 C 265.392 139.708,277.531 155.546,277.645 159.662 C 277.655 160.013,277.788 160.392,277.942 160.505 C 278.171 160.673,278.127 160.799,277.695 161.205 L 277.168 161.700 203.905 161.700 C 132.141 161.700,130.633 161.692,130.221 161.319 L 129.800 160.938 129.800 137.160 L 129.800 113.382 130.291 112.891 L 130.782 112.400 167.741 112.402 C 191.002 112.403,205.590 112.479,207.100 112.607 M284.691 186.683 C 286.125 187.282,286.430 189.645,286.434 200.200 C 286.438 209.821,286.063 213.703,285.091 214.076 C 284.060 214.472,130.598 214.198,130.200 213.800 C 129.808 213.408,129.800 213.133,129.800 200.545 C 129.800 186.354,129.741 187.002,131.059 186.621 C 132.227 186.284,283.881 186.345,284.691 186.683 M277.670 240.174 C 278.267 240.671,278.061 241.685,276.919 243.872 C 270.887 255.426,260.568 266.649,249.305 273.904 C 246.470 275.730,242.766 277.800,242.332 277.800 C 242.114 277.800,240.398 278.559,238.518 279.487 C 230.161 283.612,218.658 286.756,208.100 287.800 C 206.890 287.920,205.045 288.157,204.000 288.328 C 200.829 288.846,131.114 288.747,130.400 288.223 L 129.900 287.857 129.849 264.452 C 129.800 241.647,129.808 241.034,130.182 240.573 L 130.565 240.100 201.132 239.991 C 286.190 239.859,277.264 239.837,277.670 240.174 M58.400 341.500 C 59.441 342.545,60.337 343.400,60.392 343.400 C 60.447 343.400,59.641 342.545,58.600 341.500 C 57.559 340.455,56.663 339.600,56.608 339.600 C 56.553 339.600,57.359 340.455,58.400 341.500 M341.396 341.550 L 339.500 343.500 341.450 341.604 C 343.261 339.843,343.491 339.600,343.346 339.600 C 343.316 339.600,342.439 340.478,341.396 341.550 " stroke="none" fill="#fcfcfc" fill-rule="evenodd"></path><path id="path1" d="M130.291 112.891 L 129.800 113.382 129.800 137.160 L 129.800 160.938 130.221 161.319 C 130.633 161.692,132.141 161.700,203.905 161.700 L 277.168 161.700 277.695 161.205 C 278.127 160.799,278.171 160.673,277.942 160.505 C 277.788 160.392,277.655 160.013,277.645 159.662 C 277.560 156.592,269.329 144.936,261.523 136.830 C 250.312 125.189,229.681 115.311,212.000 113.120 C 206.464 112.434,204.645 112.404,167.741 112.402 L 130.782 112.400 130.291 112.891 M131.059 186.621 C 129.741 187.002,129.800 186.354,129.800 200.545 C 129.800 213.133,129.808 213.408,130.200 213.800 C 130.598 214.198,284.060 214.472,285.091 214.076 C 286.063 213.703,286.438 209.821,286.434 200.200 C 286.430 189.645,286.125 187.282,284.691 186.683 C 283.881 186.345,132.227 186.284,131.059 186.621 M201.132 239.991 L 130.565 240.100 130.182 240.573 C 129.808 241.034,129.800 241.647,129.849 264.452 L 129.900 287.857 130.400 288.223 C 131.114 288.747,200.829 288.846,204.000 288.328 C 205.045 288.157,206.890 287.920,208.100 287.800 C 218.658 286.756,230.161 283.612,238.518 279.487 C 240.398 278.559,242.114 277.800,242.332 277.800 C 243.843 277.800,253.815 271.077,258.735 266.741 C 268.434 258.193,279.935 242.057,277.670 240.174 C 277.264 239.837,286.190 239.859,201.132 239.991 " stroke="none" fill="#8cfcfb" fill-rule="evenodd"></path><path id="path2" d="M188.000 0.210 C 80.288 7.627,-1.042 95.132,0.055 202.426 C 1.307 324.861,111.945 417.491,232.900 397.373 C 342.840 379.087,416.794 273.930,396.885 164.200 C 380.691 74.947,307.175 8.478,215.800 0.474 C 211.546 0.101,192.241 -0.082,188.000 0.210 M208.600 89.256 C 235.613 92.206,256.912 100.796,275.365 116.182 C 287.959 126.683,298.815 141.561,304.710 156.400 C 306.737 161.501,304.970 161.000,320.925 161.000 C 331.660 161.000,333.786 161.046,334.112 161.284 C 334.582 161.627,334.847 183.741,334.399 185.266 C 334.005 186.609,334.078 186.600,323.045 186.600 C 314.927 186.600,313.211 186.648,312.888 186.884 C 312.410 187.233,312.404 187.714,312.791 194.966 C 313.031 199.485,313.031 201.003,312.790 205.666 C 312.636 208.655,312.507 211.614,312.505 212.243 C 312.496 214.240,311.612 214.092,323.903 214.155 C 335.827 214.217,335.295 214.148,334.887 215.572 C 334.804 215.863,334.682 221.160,334.618 227.345 L 334.500 238.589 334.045 239.045 L 333.589 239.500 320.213 239.600 L 306.837 239.700 306.068 240.318 C 305.478 240.792,305.146 241.325,304.634 242.618 C 293.874 269.795,271.833 291.205,243.300 302.194 C 232.296 306.432,221.075 309.103,209.300 310.287 C 202.544 310.967,199.867 311.000,152.353 311.000 L 104.800 311.000 104.797 275.850 C 104.795 254.056,104.722 240.586,104.604 240.400 C 104.439 240.139,102.443 240.087,89.291 240.000 C 74.612 239.903,74.159 239.889,73.884 239.512 C 73.646 239.186,73.600 237.122,73.600 226.770 L 73.600 214.417 88.793 214.358 C 103.066 214.304,104.008 214.278,104.343 213.943 C 104.741 213.545,105.008 187.825,104.620 187.221 C 104.280 186.693,102.447 186.624,88.364 186.612 C 75.762 186.601,74.194 186.566,73.913 186.284 C 73.631 186.002,73.602 184.660,73.648 173.740 L 73.700 161.512 74.200 161.259 C 74.589 161.062,77.936 161.005,89.300 161.000 C 97.330 160.997,103.999 160.928,104.120 160.847 C 104.796 160.395,104.800 160.199,104.803 124.963 C 104.806 88.346,104.787 89.367,105.467 89.034 C 106.289 88.631,204.823 88.844,208.600 89.256 " stroke="none" fill="#04ccfc" fill-rule="evenodd"></path><path id="path3" d="M130.150 88.950 C 143.377 88.978,165.022 88.978,178.250 88.950 C 191.477 88.922,180.655 88.898,154.200 88.898 C 127.745 88.898,116.922 88.922,130.150 88.950 M104.898 124.600 C 104.898 143.685,104.921 151.492,104.950 141.950 C 104.979 132.407,104.979 116.792,104.950 107.250 C 104.921 97.707,104.898 105.515,104.898 124.600 M82.250 161.150 C 86.183 161.180,92.618 161.180,96.550 161.150 C 100.483 161.120,97.265 161.095,89.400 161.095 C 81.535 161.095,78.317 161.120,82.250 161.150 M334.493 173.800 C 334.493 179.795,334.519 182.248,334.550 179.250 C 334.581 176.252,334.581 171.347,334.550 168.350 C 334.519 165.352,334.493 167.805,334.493 173.800 M318.150 186.550 C 320.818 186.581,325.183 186.581,327.850 186.550 C 330.518 186.518,328.335 186.493,323.000 186.493 C 317.665 186.493,315.483 186.518,318.150 186.550 M104.894 200.200 C 104.894 207.075,104.919 209.888,104.950 206.450 C 104.981 203.013,104.981 197.388,104.950 193.950 C 104.919 190.513,104.894 193.325,104.894 200.200 M312.650 193.700 C 312.653 194.140,312.694 194.296,312.741 194.048 C 312.789 193.799,312.787 193.439,312.737 193.248 C 312.687 193.056,312.648 193.260,312.650 193.700 M312.873 200.300 C 312.874 201.400,312.907 201.824,312.948 201.243 C 312.988 200.662,312.988 199.762,312.947 199.243 C 312.906 198.724,312.873 199.200,312.873 200.300 M312.646 207.000 C 312.646 207.385,312.688 207.543,312.738 207.350 C 312.788 207.157,312.788 206.843,312.738 206.650 C 312.688 206.457,312.646 206.615,312.646 207.000 M334.446 217.600 C 334.446 217.985,334.488 218.143,334.538 217.950 C 334.588 217.757,334.588 217.443,334.538 217.250 C 334.488 217.058,334.446 217.215,334.446 217.600 M334.491 229.400 C 334.491 233.965,334.518 235.832,334.550 233.550 C 334.582 231.268,334.582 227.532,334.550 225.250 C 334.518 222.968,334.491 224.835,334.491 229.400 M82.265 239.950 C 86.315 239.980,92.885 239.980,96.865 239.950 C 100.844 239.920,97.530 239.895,89.500 239.895 C 81.470 239.895,78.214 239.920,82.265 239.950 M104.898 276.000 C 104.898 295.305,104.921 303.203,104.950 293.550 C 104.979 283.898,104.979 268.103,104.950 258.450 C 104.921 248.798,104.898 256.695,104.898 276.000 M281.491 277.450 L 280.700 278.300 281.550 277.509 C 282.340 276.774,282.492 276.600,282.341 276.600 C 282.308 276.600,281.925 276.983,281.491 277.450 M203.050 310.738 C 203.243 310.788,203.558 310.788,203.750 310.738 C 203.942 310.688,203.785 310.646,203.400 310.646 C 203.015 310.646,202.858 310.688,203.050 310.738 M198.650 310.943 C 198.953 310.989,199.447 310.989,199.750 310.943 C 200.053 310.897,199.805 310.860,199.200 310.860 C 198.595 310.860,198.347 310.897,198.650 310.943 " stroke="none" fill="#2cd4fc" fill-rule="evenodd"></path><path id="path4" d="M312.860 197.400 C 312.860 198.005,312.897 198.253,312.943 197.950 C 312.989 197.648,312.989 197.153,312.943 196.850 C 312.897 196.548,312.860 196.795,312.860 197.400 M312.860 203.200 C 312.860 203.805,312.897 204.053,312.943 203.750 C 312.989 203.447,312.989 202.953,312.943 202.650 C 312.897 202.347,312.860 202.595,312.860 203.200 M284.000 274.900 C 283.514 275.395,283.162 275.800,283.217 275.800 C 283.272 275.800,283.714 275.395,284.200 274.900 C 284.686 274.405,285.038 274.000,284.983 274.000 C 284.928 274.000,284.486 274.405,284.000 274.900 M279.989 278.950 L 279.300 279.700 280.050 279.011 C 280.463 278.632,280.800 278.294,280.800 278.261 C 280.800 278.108,280.631 278.252,279.989 278.950 " stroke="none" fill="#22d4fc" fill-rule="evenodd"></path></g></svg>