<svg id="svg" version="1.1" xmlns="http://www.w3.org/2000/svg" xmlns:xlink="http://www.w3.org/1999/xlink" width="400" height="400" viewBox="0, 0, 400,400"><g id="svgg"><path id="path0" d="M155.337 58.603 C 155.028 58.696,154.667 58.861,154.536 58.970 C 154.405 59.079,152.768 59.681,150.899 60.308 C 107.216 74.958,72.272 110.029,57.520 154.027 C 31.787 230.772,71.262 313.966,146.900 342.400 C 158.048 346.590,159.384 346.545,161.614 341.894 L 162.418 340.218 162.359 332.659 L 162.300 325.100 161.607 323.800 C 161.173 322.986,160.314 321.902,159.307 320.900 L 157.700 319.299 153.500 317.647 C 141.661 312.990,129.880 305.975,119.916 297.650 C 117.788 295.873,111.568 290.145,110.915 289.361 C 110.704 289.108,109.725 288.045,108.739 287.000 C 86.305 263.210,73.731 228.779,75.578 196.200 C 78.374 146.881,108.905 104.072,153.900 86.378 C 162.171 83.126,162.454 82.594,162.359 70.475 C 162.301 63.002,162.294 62.886,161.827 61.855 C 160.689 59.336,157.769 57.873,155.337 58.603 M241.034 59.121 C 239.836 59.717,239.354 60.300,238.320 62.400 L 237.581 63.900 237.640 71.700 L 237.700 79.500 238.479 81.100 C 239.701 83.608,241.727 85.513,244.100 86.385 C 280.880 99.902,309.761 131.668,320.187 170.073 C 336.754 231.097,304.595 295.576,246.100 318.620 C 237.827 321.879,237.546 322.406,237.641 334.525 C 237.699 341.998,237.706 342.114,238.173 343.145 C 239.412 345.887,243.209 347.489,245.268 346.139 C 245.525 345.971,247.123 345.367,248.818 344.797 C 322.781 319.939,365.051 241.718,345.601 165.700 C 333.318 117.690,298.542 78.853,252.300 61.504 C 244.167 58.452,242.909 58.186,241.034 59.121 M190.635 102.414 C 189.217 103.122,188.442 103.971,187.541 105.800 L 186.900 107.100 186.800 117.299 L 186.700 127.498 185.900 127.645 C 181.802 128.398,179.360 128.940,177.407 129.531 C 154.546 136.450,142.755 154.742,146.602 177.322 C 149.929 196.847,164.704 206.790,196.053 210.599 C 197.018 210.716,199.178 211.085,200.853 211.420 C 221.752 215.587,228.209 220.644,228.278 232.900 C 228.374 249.958,211.086 259.490,188.800 254.669 C 178.397 252.418,172.271 246.412,169.495 235.742 C 167.842 229.389,167.341 229.153,155.663 229.240 L 147.500 229.300 146.500 229.831 C 143.042 231.669,142.649 234.780,144.890 242.565 C 150.019 260.373,163.738 271.550,185.185 275.391 C 186.442 275.616,187.499 275.800,187.535 275.800 C 187.571 275.800,187.600 280.554,187.600 286.364 C 187.600 299.471,187.636 299.610,191.555 301.547 L 193.079 302.300 200.790 302.300 C 209.422 302.300,209.184 302.336,210.779 300.768 C 213.166 298.420,213.200 298.214,213.200 286.083 L 213.200 275.828 214.350 275.607 C 242.869 270.121,258.687 248.878,254.193 222.098 C 250.860 202.241,236.735 192.776,204.200 188.599 C 180.261 185.525,172.509 180.214,172.530 166.900 C 172.549 154.175,181.301 147.491,197.900 147.524 C 212.410 147.553,220.625 152.595,224.676 163.955 C 225.612 166.580,226.491 167.671,228.400 168.577 L 229.500 169.100 237.400 169.100 C 246.316 169.100,246.474 169.077,248.116 167.564 C 250.539 165.330,250.427 161.642,247.725 154.732 C 242.226 140.668,229.708 130.760,214.795 128.667 L 212.413 128.332 212.356 117.416 C 212.293 105.172,212.376 105.856,210.768 104.221 C 208.535 101.951,207.809 101.800,199.101 101.800 L 191.864 101.800 190.635 102.414 " stroke="none" fill="#fbfbfb" fill-rule="evenodd"></path><path id="path1" d="M190.100 0.132 C 176.770 0.931,167.777 2.156,155.262 4.877 C 129.644 10.447,102.265 23.016,80.685 39.115 C 77.956 41.150,71.494 46.244,71.200 46.591 C 71.145 46.656,70.564 47.157,69.909 47.704 C 69.254 48.252,68.574 48.835,68.397 49.000 C 68.221 49.165,67.454 49.840,66.693 50.500 C 57.688 58.307,44.080 73.316,38.194 81.931 C 38.032 82.168,37.456 82.978,36.912 83.731 C 33.964 87.818,30.117 93.753,27.340 98.500 C 25.978 100.830,25.671 101.367,24.262 103.900 C 22.930 106.294,19.015 114.169,17.748 117.000 C 16.333 120.164,13.600 126.573,13.600 126.728 C 13.600 126.781,12.938 128.596,12.129 130.762 C -0.567 164.743,-3.428 203.549,4.023 240.700 C 9.632 268.670,22.221 296.789,39.347 319.606 C 41.871 322.968,45.726 327.875,46.420 328.608 C 46.574 328.770,47.148 329.442,47.695 330.101 C 48.242 330.761,48.971 331.615,49.314 332.000 C 49.658 332.385,50.380 333.195,50.919 333.800 C 53.932 337.178,61.231 344.558,64.283 347.311 C 65.373 348.295,66.768 349.561,67.383 350.124 C 68.314 350.978,70.097 352.505,72.102 354.167 C 73.842 355.610,78.668 359.393,80.300 360.594 C 81.400 361.404,82.614 362.299,82.999 362.583 C 85.816 364.667,92.618 369.124,96.897 371.691 C 165.058 412.570,252.194 409.048,316.700 362.806 C 326.893 355.499,338.999 344.865,346.424 336.696 C 351.105 331.545,353.331 328.974,355.769 325.900 C 356.817 324.580,358.139 322.915,358.709 322.200 C 362.059 317.994,371.600 303.990,371.600 303.279 C 371.600 303.233,372.083 302.409,372.673 301.448 C 375.202 297.329,380.649 286.807,382.586 282.300 C 383.058 281.200,383.737 279.625,384.094 278.800 C 406.937 226.027,405.219 163.444,379.497 111.300 C 376.485 105.193,375.422 103.196,372.846 98.800 C 370.129 94.162,364.607 85.622,362.747 83.180 C 362.462 82.806,361.218 81.150,359.981 79.500 C 358.089 76.974,353.778 71.535,353.403 71.200 C 353.341 71.145,352.843 70.560,352.296 69.900 C 351.748 69.240,351.247 68.655,351.182 68.600 C 351.118 68.545,350.488 67.826,349.782 67.002 C 347.016 63.769,339.416 56.042,335.610 52.594 C 334.461 51.552,333.021 50.244,332.410 49.688 C 324.954 42.889,312.393 33.772,302.200 27.759 C 296.556 24.431,287.272 19.560,283.687 18.048 C 283.131 17.813,281.976 17.298,281.123 16.904 C 261.168 7.687,236.074 1.709,211.000 0.200 C 208.080 0.025,192.729 -0.026,190.100 0.132 M158.960 58.779 C 162.235 60.450,162.600 61.668,162.600 70.915 C 162.600 82.405,162.174 83.188,154.182 86.380 C 118.634 100.580,92.577 128.935,81.106 165.900 C 61.885 227.840,94.228 294.690,154.700 318.011 C 158.143 319.339,159.449 320.312,161.065 322.754 C 162.597 325.067,162.600 325.091,162.600 333.059 L 162.600 340.104 161.724 341.907 C 159.342 346.808,157.863 346.808,145.300 341.903 C 46.971 303.514,17.796 178.486,88.974 100.521 C 105.680 82.222,128.252 67.578,151.406 60.016 C 152.778 59.568,154.164 59.052,154.486 58.868 C 155.815 58.112,157.582 58.077,158.960 58.779 M247.254 59.576 C 325.186 86.168,367.677 168.618,343.875 247.058 C 329.962 292.908,293.769 330.109,248.600 344.988 C 247.225 345.441,245.783 345.983,245.396 346.193 C 242.467 347.779,238.654 345.732,237.697 342.058 C 237.340 340.685,237.265 327.966,237.604 326.178 C 238.315 322.432,239.879 320.992,245.818 318.620 C 322.069 288.161,348.689 193.489,299.429 127.952 C 285.286 109.134,264.300 93.480,243.703 86.382 C 241.101 85.485,238.259 82.044,237.606 79.000 C 237.147 76.858,237.408 63.631,237.924 62.900 C 238.157 62.570,238.417 62.076,238.502 61.803 C 239.082 59.940,241.095 58.475,243.154 58.418 C 243.514 58.408,245.359 58.929,247.254 59.576 M207.236 101.978 C 209.532 102.768,211.056 103.964,211.968 105.692 L 212.500 106.700 212.558 117.448 L 212.616 128.196 213.058 128.287 C 213.301 128.337,214.265 128.481,215.200 128.607 C 231.401 130.786,245.205 143.276,249.415 159.564 C 250.444 163.543,250.146 165.680,248.308 167.518 C 246.603 169.223,246.579 169.227,237.173 169.159 L 229.100 169.100 228.100 168.567 C 226.407 167.665,225.269 166.213,224.601 164.100 C 221.091 152.999,212.402 147.706,197.700 147.715 C 180.994 147.725,172.718 154.113,172.715 167.000 C 172.713 173.540,174.189 177.237,178.084 180.451 C 182.948 184.462,190.137 186.594,205.900 188.698 C 241.096 193.397,254.998 205.443,255.000 231.240 C 255.001 253.393,239.550 270.770,215.693 275.444 L 213.400 275.893 213.400 286.015 C 213.400 295.420,213.373 296.215,213.022 297.236 C 212.232 299.532,211.036 301.056,209.308 301.968 L 208.300 302.500 201.304 302.562 C 196.587 302.604,194.016 302.551,193.414 302.399 C 190.967 301.783,188.795 300.164,187.972 298.343 L 187.500 297.300 187.443 286.585 L 187.387 275.870 185.848 275.630 C 164.406 272.297,149.641 260.313,144.682 242.219 C 142.741 235.137,142.864 232.546,145.240 230.512 C 146.849 229.135,147.123 229.100,156.300 229.100 L 164.500 229.100 165.601 229.617 C 167.726 230.613,168.732 232.063,169.475 235.200 C 172.362 247.394,179.754 253.630,193.300 255.298 C 214.409 257.898,228.774 248.311,228.144 232.042 C 227.701 220.608,221.234 215.661,201.563 211.705 C 199.658 211.322,197.380 210.913,196.500 210.797 C 163.346 206.410,149.468 196.875,146.290 176.300 C 142.556 152.135,157.948 132.273,183.800 127.896 C 184.845 127.719,185.899 127.534,186.143 127.485 L 186.586 127.396 186.643 117.348 L 186.700 107.300 187.344 105.937 C 188.365 103.773,189.730 102.430,191.459 101.890 C 192.950 101.424,205.834 101.496,207.236 101.978 " stroke="none" fill="#2474cc" fill-rule="evenodd"></path><path id="path2" d="M242.850 58.538 C 243.043 58.588,243.357 58.588,243.550 58.538 C 243.743 58.488,243.585 58.446,243.200 58.446 C 242.815 58.446,242.657 58.488,242.850 58.538 M304.000 94.063 C 304.000 94.097,304.293 94.390,304.650 94.713 L 305.300 95.300 304.713 94.650 C 304.165 94.044,304.000 93.908,304.000 94.063 M307.200 97.263 C 307.200 97.297,307.493 97.590,307.850 97.913 L 308.500 98.500 307.913 97.850 C 307.365 97.244,307.200 97.108,307.200 97.263 M110.692 115.250 L 109.700 116.300 110.750 115.308 C 111.726 114.385,111.892 114.200,111.742 114.200 C 111.711 114.200,111.238 114.672,110.692 115.250 M75.457 200.900 C 75.459 201.450,75.498 201.651,75.544 201.347 C 75.589 201.043,75.588 200.593,75.541 200.347 C 75.493 200.101,75.456 200.350,75.457 200.900 M324.477 202.400 C 324.477 203.775,324.509 204.338,324.548 203.650 C 324.587 202.963,324.587 201.838,324.548 201.150 C 324.509 200.463,324.477 201.025,324.477 202.400 M75.469 203.500 C 75.469 204.380,75.504 204.715,75.547 204.245 C 75.589 203.774,75.588 203.054,75.545 202.645 C 75.502 202.235,75.468 202.620,75.469 203.500 M228.260 233.200 C 228.260 233.805,228.297 234.053,228.343 233.750 C 228.389 233.447,228.389 232.953,228.343 232.650 C 228.297 232.347,228.260 232.595,228.260 233.200 M242.692 261.450 L 241.700 262.500 242.750 261.508 C 243.328 260.962,243.800 260.489,243.800 260.458 C 243.800 260.308,243.615 260.474,242.692 261.450 M289.189 289.750 L 288.500 290.500 289.250 289.811 C 289.663 289.432,290.000 289.094,290.000 289.061 C 290.000 288.908,289.831 289.052,289.189 289.750 M286.687 292.250 L 286.100 292.900 286.750 292.313 C 287.356 291.765,287.492 291.600,287.337 291.600 C 287.303 291.600,287.010 291.893,286.687 292.250 M93.500 308.200 C 94.485 309.190,95.337 310.000,95.392 310.000 C 95.447 310.000,94.685 309.190,93.700 308.200 C 92.715 307.210,91.863 306.400,91.808 306.400 C 91.753 306.400,92.515 307.210,93.500 308.200 " stroke="none" fill="#74a6dd" fill-rule="evenodd"></path><path id="path3" d="M162.489 70.900 C 162.489 74.420,162.517 75.832,162.550 74.037 C 162.583 72.243,162.583 69.363,162.550 67.637 C 162.516 65.912,162.489 67.380,162.489 70.900 M237.490 71.300 C 237.489 74.930,237.516 76.443,237.550 74.663 C 237.583 72.882,237.583 69.912,237.550 68.063 C 237.517 66.213,237.490 67.670,237.490 71.300 M93.196 96.150 L 91.500 97.900 93.250 96.204 C 94.875 94.630,95.091 94.400,94.946 94.400 C 94.916 94.400,94.128 95.188,93.196 96.150 M306.100 96.200 C 306.642 96.750,307.130 97.200,307.185 97.200 C 307.240 97.200,306.842 96.750,306.300 96.200 C 305.758 95.650,305.270 95.200,305.215 95.200 C 305.160 95.200,305.558 95.650,306.100 96.200 M195.837 101.750 C 197.673 101.783,200.733 101.783,202.637 101.750 C 204.542 101.717,203.040 101.690,199.300 101.690 C 195.560 101.690,194.002 101.717,195.837 101.750 M212.493 118.200 C 212.493 123.865,212.519 126.183,212.550 123.350 C 212.581 120.518,212.581 115.883,212.550 113.050 C 212.519 110.218,212.493 112.535,212.493 118.200 M186.693 117.800 C 186.693 123.135,186.718 125.317,186.750 122.650 C 186.781 119.983,186.781 115.618,186.750 112.950 C 186.718 110.283,186.693 112.465,186.693 117.800 M114.189 111.750 L 113.500 112.500 114.250 111.811 C 114.948 111.169,115.092 111.000,114.939 111.000 C 114.906 111.000,114.568 111.338,114.189 111.750 M288.000 114.700 C 288.709 115.415,289.333 116.000,289.388 116.000 C 289.443 116.000,288.909 115.415,288.200 114.700 C 287.491 113.985,286.867 113.400,286.812 113.400 C 286.757 113.400,287.291 113.985,288.000 114.700 M196.350 147.548 C 197.038 147.587,198.163 147.587,198.850 147.548 C 199.538 147.509,198.975 147.477,197.600 147.477 C 196.225 147.477,195.663 147.509,196.350 147.548 M172.471 166.900 C 172.470 167.890,172.504 168.320,172.546 167.856 C 172.588 167.392,172.589 166.582,172.547 166.056 C 172.506 165.530,172.472 165.910,172.471 166.900 M145.854 166.800 C 145.854 167.295,145.893 167.498,145.941 167.250 C 145.989 167.003,145.989 166.597,145.941 166.350 C 145.893 166.103,145.854 166.305,145.854 166.800 M145.862 170.300 C 145.863 170.960,145.900 171.206,145.945 170.846 C 145.989 170.487,145.989 169.947,145.943 169.646 C 145.897 169.346,145.861 169.640,145.862 170.300 M324.246 194.800 C 324.246 195.185,324.288 195.343,324.338 195.150 C 324.388 194.958,324.388 194.643,324.338 194.450 C 324.288 194.258,324.246 194.415,324.246 194.800 M49.660 197.000 C 49.660 197.605,49.697 197.853,49.743 197.550 C 49.789 197.248,49.789 196.753,49.743 196.450 C 49.697 196.148,49.660 196.395,49.660 197.000 M350.260 198.400 C 350.260 199.005,350.297 199.253,350.343 198.950 C 350.389 198.648,350.389 198.153,350.343 197.850 C 350.297 197.548,350.260 197.795,350.260 198.400 M75.462 198.900 C 75.463 199.560,75.500 199.806,75.545 199.446 C 75.589 199.087,75.589 198.547,75.543 198.246 C 75.497 197.946,75.461 198.240,75.462 198.900 M324.457 199.100 C 324.459 199.650,324.498 199.851,324.544 199.547 C 324.589 199.243,324.588 198.793,324.541 198.547 C 324.493 198.301,324.456 198.550,324.457 199.100 M324.464 206.000 C 324.464 206.715,324.500 207.007,324.545 206.650 C 324.589 206.293,324.589 205.707,324.545 205.350 C 324.500 204.993,324.464 205.285,324.464 206.000 M75.460 206.000 C 75.460 206.605,75.497 206.853,75.543 206.550 C 75.589 206.248,75.589 205.753,75.543 205.450 C 75.497 205.148,75.460 205.395,75.460 206.000 M49.657 206.700 C 49.659 207.250,49.698 207.451,49.744 207.147 C 49.789 206.843,49.788 206.393,49.741 206.147 C 49.693 205.901,49.656 206.150,49.657 206.700 M350.260 207.800 C 350.260 208.405,350.297 208.653,350.343 208.350 C 350.389 208.048,350.389 207.553,350.343 207.250 C 350.297 206.947,350.260 207.195,350.260 207.800 M350.046 212.200 C 350.046 212.585,350.088 212.743,350.138 212.550 C 350.188 212.357,350.188 212.043,350.138 211.850 C 350.088 211.657,350.046 211.815,350.046 212.200 M228.246 231.600 C 228.246 231.985,228.288 232.143,228.338 231.950 C 228.388 231.757,228.388 231.443,228.338 231.250 C 228.288 231.058,228.246 231.215,228.246 231.600 M187.493 286.000 C 187.493 291.665,187.519 293.983,187.550 291.150 C 187.581 288.318,187.581 283.683,187.550 280.850 C 187.519 278.018,187.493 280.335,187.493 286.000 M213.293 285.900 C 213.293 291.510,213.318 293.834,213.350 291.064 C 213.381 288.294,213.381 283.704,213.350 280.864 C 213.319 278.024,213.293 280.290,213.293 285.900 M111.900 290.400 C 112.442 290.950,112.930 291.400,112.985 291.400 C 113.040 291.400,112.642 290.950,112.100 290.400 C 111.558 289.850,111.070 289.400,111.015 289.400 C 110.960 289.400,111.358 289.850,111.900 290.400 M285.487 293.450 L 284.900 294.100 285.550 293.513 C 286.156 292.965,286.292 292.800,286.137 292.800 C 286.103 292.800,285.810 293.093,285.487 293.450 M197.350 302.550 C 199.138 302.583,202.063 302.583,203.850 302.550 C 205.638 302.516,204.175 302.489,200.600 302.489 C 197.025 302.489,195.563 302.516,197.350 302.550 M306.495 309.050 L 304.900 310.700 306.550 309.105 C 308.082 307.623,308.291 307.400,308.145 307.400 C 308.115 307.400,307.373 308.143,306.495 309.050 M159.200 320.700 C 159.573 321.085,159.923 321.400,159.978 321.400 C 160.033 321.400,159.773 321.085,159.400 320.700 C 159.027 320.315,158.677 320.000,158.622 320.000 C 158.567 320.000,158.827 320.315,159.200 320.700 M162.490 332.900 C 162.489 336.530,162.516 338.043,162.550 336.263 C 162.583 334.482,162.583 331.512,162.550 329.663 C 162.517 327.813,162.490 329.270,162.490 332.900 M237.489 334.100 C 237.489 337.620,237.517 339.032,237.550 337.237 C 237.583 335.443,237.583 332.563,237.550 330.837 C 237.516 329.112,237.489 330.580,237.489 334.100 " stroke="none" fill="#97bce4" fill-rule="evenodd"></path><path id="path4" d="M303.200 93.300 C 303.573 93.685,303.923 94.000,303.978 94.000 C 304.033 94.000,303.773 93.685,303.400 93.300 C 303.027 92.915,302.677 92.600,302.622 92.600 C 302.567 92.600,302.827 92.915,303.200 93.300 M308.400 98.463 C 308.400 98.497,308.693 98.790,309.050 99.113 L 309.700 99.700 309.113 99.050 C 308.565 98.444,308.400 98.308,308.400 98.463 M284.800 111.663 C 284.800 111.697,285.093 111.990,285.450 112.313 L 286.100 112.900 285.513 112.250 C 284.965 111.644,284.800 111.508,284.800 111.663 M289.800 116.663 C 289.800 116.697,290.093 116.990,290.450 117.313 L 291.100 117.900 290.513 117.250 C 289.965 116.644,289.800 116.508,289.800 116.663 M157.887 140.250 L 157.300 140.900 157.950 140.313 C 158.308 139.990,158.600 139.697,158.600 139.663 C 158.600 139.508,158.435 139.644,157.887 140.250 M177.287 154.050 L 176.700 154.700 177.350 154.113 C 177.708 153.790,178.000 153.497,178.000 153.463 C 178.000 153.308,177.835 153.444,177.287 154.050 M155.400 195.700 C 155.997 196.305,156.531 196.800,156.586 196.800 C 156.641 196.800,156.197 196.305,155.600 195.700 C 155.003 195.095,154.469 194.600,154.414 194.600 C 154.359 194.600,154.803 195.095,155.400 195.700 M152.450 229.150 C 154.513 229.182,157.888 229.182,159.950 229.150 C 162.013 229.117,160.325 229.091,156.200 229.091 C 152.075 229.091,150.388 229.117,152.450 229.150 M175.800 247.900 C 176.173 248.285,176.523 248.600,176.578 248.600 C 176.633 248.600,176.373 248.285,176.000 247.900 C 175.627 247.515,175.277 247.200,175.222 247.200 C 175.167 247.200,175.427 247.515,175.800 247.900 M222.189 247.950 L 221.500 248.700 222.250 248.011 C 222.948 247.369,223.092 247.200,222.939 247.200 C 222.906 247.200,222.568 247.538,222.189 247.950 M155.500 261.400 C 156.042 261.950,156.530 262.400,156.585 262.400 C 156.640 262.400,156.242 261.950,155.700 261.400 C 155.158 260.850,154.670 260.400,154.615 260.400 C 154.560 260.400,154.958 260.850,155.500 261.400 M109.000 287.263 C 109.000 287.297,109.293 287.590,109.650 287.913 L 110.300 288.500 109.713 287.850 C 109.165 287.244,109.000 287.108,109.000 287.263 M287.887 291.050 L 287.300 291.700 287.950 291.113 C 288.556 290.565,288.692 290.400,288.537 290.400 C 288.503 290.400,288.210 290.693,287.887 291.050 M114.400 292.700 C 114.773 293.085,115.123 293.400,115.178 293.400 C 115.233 293.400,114.973 293.085,114.600 292.700 C 114.227 292.315,113.877 292.000,113.822 292.000 C 113.767 292.000,114.027 292.315,114.400 292.700 M91.000 305.700 C 91.373 306.085,91.723 306.400,91.778 306.400 C 91.833 306.400,91.573 306.085,91.200 305.700 C 90.827 305.315,90.477 305.000,90.422 305.000 C 90.367 305.000,90.627 305.315,91.000 305.700 M95.400 310.063 C 95.400 310.097,95.692 310.390,96.050 310.713 L 96.700 311.300 96.113 310.650 C 95.565 310.044,95.400 309.908,95.400 310.063 M303.487 312.050 L 302.900 312.700 303.550 312.113 C 304.156 311.565,304.292 311.400,304.137 311.400 C 304.103 311.400,303.810 311.693,303.487 312.050 M156.450 345.738 C 156.643 345.788,156.958 345.788,157.150 345.738 C 157.343 345.688,157.185 345.646,156.800 345.646 C 156.415 345.646,156.258 345.688,156.450 345.738 " stroke="none" fill="#5494d4" fill-rule="evenodd"></path></g></svg>