<svg id="svg" version="1.1" xmlns="http://www.w3.org/2000/svg" xmlns:xlink="http://www.w3.org/1999/xlink" width="400" height="400" viewBox="0, 0, 400,400"><g id="svgg"><path id="path0" d="M148.600 68.073 C 147.060 69.700,144.914 72.015,143.832 73.216 C 142.749 74.417,140.769 76.571,139.432 78.003 C 138.094 79.435,136.022 81.685,134.826 83.003 C 128.890 89.549,126.274 92.037,124.480 92.845 C 121.665 94.112,119.720 94.968,116.400 96.400 C 113.532 97.637,112.448 98.112,108.400 99.907 C 106.617 100.697,101.261 103.024,98.228 104.325 C 92.357 106.844,91.819 107.253,91.545 109.400 C 91.310 111.248,91.015 113.349,89.988 120.500 C 89.111 126.603,88.157 133.306,87.666 136.800 C 87.423 138.536,86.798 140.331,85.787 142.200 C 84.954 143.740,83.896 145.759,83.436 146.686 C 82.334 148.908,82.155 148.941,79.162 147.462 C 72.176 144.011,64.594 141.609,56.200 140.186 C 43.599 138.051,27.410 137.827,16.300 139.634 L 13.600 140.073 13.600 142.560 C 13.600 145.836,12.258 144.429,26.421 156.000 C 33.985 162.180,35.795 163.707,36.305 164.340 C 36.888 165.063,37.389 164.567,29.779 170.800 C 26.959 173.110,23.014 176.350,21.011 178.000 C 19.009 179.650,16.613 181.624,15.686 182.386 C 14.759 183.148,14.000 183.875,14.000 184.000 C 14.000 184.216,16.592 186.092,25.800 192.541 C 28.000 194.082,31.102 196.255,32.693 197.371 C 34.285 198.487,35.590 199.534,35.593 199.699 C 35.600 199.976,31.795 202.844,19.633 211.731 C 14.377 215.572,14.393 215.553,15.684 216.359 C 16.170 216.663,19.635 219.363,23.384 222.359 C 27.133 225.355,30.830 228.280,31.600 228.858 C 32.370 229.436,33.390 230.245,33.866 230.655 C 34.343 231.065,35.108 231.713,35.566 232.096 C 36.025 232.479,36.386 232.929,36.369 233.096 C 36.344 233.338,25.962 242.610,15.201 252.000 C 12.273 254.556,12.625 254.681,23.800 255.052 C 34.306 255.401,46.945 254.350,55.800 252.393 C 56.680 252.198,58.390 251.828,59.600 251.570 C 60.810 251.312,62.250 250.964,62.800 250.797 C 63.350 250.630,64.610 250.266,65.600 249.989 C 73.546 247.764,81.124 244.357,87.129 240.310 C 90.824 237.820,90.141 237.382,97.062 246.682 C 114.101 269.580,120.559 278.251,120.927 278.722 C 121.152 279.010,121.542 280.062,121.796 281.060 C 122.322 283.134,121.884 282.847,132.000 287.726 C 152.522 297.622,157.851 300.384,159.600 302.031 C 160.590 302.964,162.481 304.733,163.802 305.963 C 165.124 307.193,168.900 310.720,172.194 313.800 C 175.488 316.880,179.253 320.390,180.561 321.600 C 181.868 322.810,184.032 324.848,185.369 326.128 L 187.800 328.457 190.000 328.230 C 191.210 328.106,193.100 327.831,194.200 327.620 C 196.875 327.106,200.472 326.451,203.400 325.946 C 204.720 325.718,206.610 325.382,207.600 325.200 C 208.590 325.018,210.570 324.659,212.000 324.402 C 213.430 324.146,215.590 323.739,216.800 323.499 C 219.672 322.928,224.163 322.939,228.400 323.528 C 232.655 324.119,236.870 324.683,241.000 325.212 C 248.319 326.151,249.960 326.365,253.200 326.800 C 267.549 328.728,267.292 328.718,268.336 327.391 C 268.809 326.789,270.052 325.358,271.098 324.211 C 272.144 323.064,273.540 321.509,274.200 320.755 C 276.486 318.144,281.401 312.599,281.606 312.400 C 281.719 312.290,283.159 310.671,284.806 308.802 C 290.320 302.544,292.346 300.595,294.480 299.492 C 295.646 298.889,297.770 297.754,299.200 296.970 C 300.630 296.185,304.320 294.179,307.400 292.512 C 310.480 290.845,313.990 288.936,315.200 288.271 C 316.410 287.605,319.200 286.100,321.400 284.926 C 326.637 282.132,326.802 281.916,326.793 277.856 C 326.790 276.065,326.966 272.170,327.186 269.200 C 327.405 266.230,327.782 261.100,328.022 257.800 C 328.747 247.856,329.193 247.303,334.953 249.204 C 339.324 250.648,340.442 250.979,342.800 251.526 C 350.490 253.312,350.647 253.339,361.800 254.881 C 364.071 255.195,370.026 255.372,377.933 255.360 C 392.588 255.338,392.498 255.364,388.908 252.200 C 372.494 237.735,367.993 233.658,368.018 233.278 C 368.027 233.125,370.108 231.380,372.642 229.400 C 375.176 227.420,377.574 225.530,377.971 225.200 C 378.368 224.870,379.288 224.150,380.014 223.600 C 382.711 221.559,389.600 215.970,389.600 215.823 C 389.600 215.700,381.576 209.806,370.525 201.812 C 368.181 200.117,368.130 200.232,372.600 197.154 C 374.360 195.942,377.375 193.837,379.300 192.475 C 381.225 191.114,384.375 188.896,386.300 187.547 C 390.726 184.444,390.665 184.583,388.459 182.699 C 387.436 181.825,386.150 180.726,385.600 180.255 C 385.050 179.785,383.430 178.410,382.000 177.200 C 380.570 175.990,379.310 174.905,379.200 174.790 C 379.090 174.674,377.830 173.594,376.400 172.390 C 374.970 171.185,373.710 170.107,373.600 169.994 C 373.490 169.881,372.187 168.736,370.705 167.450 C 367.529 164.694,367.436 165.049,372.400 160.966 C 374.490 159.247,377.685 156.616,379.500 155.120 C 381.315 153.624,384.375 151.109,386.300 149.532 C 391.231 145.491,391.200 145.535,391.200 142.601 L 391.200 140.091 388.700 139.655 C 376.015 137.443,356.503 138.292,342.400 141.670 C 338.428 142.622,332.542 144.520,330.059 145.650 C 327.780 146.688,327.049 146.512,326.800 144.867 C 326.670 144.004,326.252 143.346,325.600 142.976 C 325.050 142.664,323.011 141.507,321.068 140.404 C 319.126 139.302,317.469 138.400,317.386 138.400 C 317.303 138.400,316.372 137.892,315.318 137.271 C 314.263 136.650,312.050 135.406,310.400 134.506 C 308.750 133.606,304.384 131.189,300.697 129.135 L 293.994 125.400 279.324 112.200 C 271.255 104.940,263.832 98.240,262.827 97.311 C 261.725 96.292,260.603 95.616,260.000 95.605 C 259.081 95.588,257.789 94.565,247.200 85.460 C 246.650 84.987,245.030 83.610,243.600 82.400 C 242.170 81.190,240.910 80.105,240.800 79.990 C 240.690 79.874,239.430 78.794,238.000 77.590 C 236.570 76.385,235.310 75.305,235.200 75.190 C 235.090 75.074,233.830 73.994,232.400 72.790 C 230.970 71.585,229.710 70.509,229.600 70.398 C 229.490 70.286,228.230 69.207,226.800 68.000 C 225.370 66.793,224.085 65.645,223.944 65.449 C 223.678 65.081,221.009 65.288,217.200 65.973 C 215.990 66.190,213.830 66.570,212.400 66.816 C 210.970 67.063,208.900 67.423,207.800 67.616 C 206.700 67.810,204.630 68.170,203.200 68.416 C 201.770 68.663,199.700 69.024,198.600 69.219 C 186.081 71.436,186.681 71.411,179.400 70.018 C 178.300 69.807,176.365 69.447,175.100 69.218 C 173.835 68.988,171.765 68.602,170.500 68.360 C 169.235 68.118,167.390 67.773,166.400 67.594 C 161.115 66.638,159.624 66.361,157.800 65.998 C 156.700 65.780,154.810 65.491,153.600 65.358 L 151.400 65.114 148.600 68.073 M159.400 75.188 C 160.280 75.385,162.170 75.752,163.600 76.004 C 165.030 76.255,167.010 76.613,168.000 76.800 C 168.990 76.987,170.970 77.347,172.400 77.600 C 176.199 78.273,178.718 78.762,181.200 79.308 C 185.106 80.168,188.297 79.982,196.800 78.396 C 197.790 78.212,199.725 77.867,201.100 77.630 C 206.556 76.691,211.669 75.795,215.000 75.195 C 221.205 74.075,219.424 73.207,230.588 82.800 C 234.127 85.841,236.270 87.668,240.857 91.554 C 247.763 97.404,247.730 97.313,243.200 97.986 C 237.819 98.786,235.439 99.163,233.000 99.599 C 228.857 100.341,223.668 100.522,220.465 100.036 C 215.389 99.266,212.038 98.797,202.800 97.566 C 201.150 97.346,198.450 96.986,196.800 96.766 C 191.046 95.999,187.792 95.555,186.695 95.387 C 185.740 95.241,181.858 97.903,180.000 99.977 C 179.890 100.100,178.090 101.730,176.000 103.600 C 173.910 105.470,172.110 107.092,172.000 107.206 C 171.890 107.319,170.274 108.759,168.408 110.406 C 166.542 112.052,164.202 114.142,163.208 115.049 C 159.133 118.766,155.813 121.600,155.533 121.600 C 155.368 121.600,152.841 118.788,149.917 115.351 C 146.993 111.915,142.305 106.420,139.500 103.140 C 136.695 99.861,134.400 96.997,134.400 96.776 C 134.400 96.555,136.513 94.085,139.096 91.287 C 141.679 88.489,144.622 85.300,145.635 84.200 C 146.649 83.100,148.669 80.928,150.124 79.374 C 151.578 77.820,153.158 76.053,153.634 75.447 C 154.559 74.271,155.181 74.243,159.400 75.188 M128.518 104.100 C 130.848 106.820,139.987 117.567,142.360 120.380 C 143.372 121.578,144.802 123.239,145.537 124.069 C 146.272 124.899,146.805 125.784,146.722 126.035 C 146.567 126.498,124.576 135.471,123.073 135.684 C 122.240 135.802,120.232 133.554,114.800 126.420 C 113.590 124.831,110.575 120.932,108.100 117.756 C 105.625 114.580,103.600 111.893,103.600 111.786 C 103.600 111.602,108.615 109.200,108.998 109.200 C 109.096 109.200,110.127 108.770,111.288 108.245 C 113.473 107.256,115.950 106.151,119.400 104.626 C 120.500 104.140,122.030 103.501,122.800 103.207 C 123.570 102.913,124.371 102.521,124.580 102.336 C 125.520 101.505,126.777 102.069,128.518 104.100 M194.200 105.236 C 195.960 105.464,198.660 105.826,200.200 106.039 C 201.740 106.253,204.260 106.595,205.800 106.800 C 207.340 107.005,209.860 107.347,211.400 107.561 C 212.940 107.774,215.800 108.145,217.755 108.385 C 219.711 108.625,221.454 108.910,221.629 109.018 C 222.227 109.387,228.834 109.265,230.718 108.850 C 231.753 108.622,233.950 108.236,235.600 107.992 C 237.250 107.749,239.635 107.381,240.900 107.175 C 242.165 106.969,244.235 106.631,245.500 106.425 C 246.765 106.219,249.150 105.844,250.800 105.591 C 252.450 105.338,254.653 104.950,255.696 104.727 C 257.792 104.279,257.805 104.286,262.001 108.144 C 262.992 109.055,265.512 111.330,267.601 113.200 C 269.690 115.070,271.490 116.690,271.600 116.800 C 271.710 116.910,273.330 118.349,275.200 119.998 C 277.070 121.647,278.870 123.267,279.201 123.598 C 279.531 123.929,281.331 125.547,283.201 127.193 C 285.070 128.839,286.870 130.467,287.200 130.812 C 288.314 131.975,290.544 133.385,295.400 136.001 C 296.500 136.593,298.255 137.555,299.300 138.139 C 302.432 139.888,304.886 141.253,307.000 142.423 C 308.100 143.031,310.086 144.130,311.414 144.865 C 312.742 145.599,314.930 146.817,316.276 147.572 L 318.724 148.943 319.185 152.172 C 320.126 158.773,320.855 164.128,322.772 178.525 L 323.933 187.251 330.167 199.866 C 337.563 214.834,337.137 212.040,333.296 220.400 C 332.639 221.830,329.343 229.030,325.971 236.400 L 319.841 249.800 319.551 254.600 C 319.391 257.240,319.061 262.910,318.818 267.200 C 318.236 277.462,318.409 276.851,315.681 278.287 C 314.426 278.948,312.365 280.053,311.100 280.744 C 305.797 283.640,304.463 284.364,301.800 285.792 C 300.260 286.618,298.010 287.838,296.800 288.502 C 292.433 290.902,290.563 291.920,288.450 293.050 C 287.093 293.777,285.325 295.305,283.650 297.200 C 282.193 298.850,280.910 300.290,280.800 300.400 C 280.320 300.880,274.291 307.663,271.200 311.200 C 264.139 319.281,263.710 319.685,262.459 319.431 C 261.877 319.312,259.960 319.040,258.200 318.825 C 256.440 318.610,252.840 318.151,250.200 317.804 C 247.560 317.457,243.330 316.902,240.800 316.570 C 238.270 316.239,234.850 315.787,233.200 315.567 C 231.550 315.348,228.676 314.989,226.813 314.770 C 224.950 314.551,223.049 314.277,222.589 314.161 C 221.887 313.985,215.871 314.941,206.200 316.765 C 205.100 316.973,203.030 317.348,201.600 317.599 C 200.170 317.850,197.233 318.378,195.073 318.772 L 191.147 319.490 189.209 317.845 C 187.398 316.308,173.418 303.305,167.600 297.746 C 163.379 293.713,162.256 292.980,154.446 289.156 C 150.351 287.151,143.204 283.638,138.564 281.349 L 130.128 277.187 129.648 272.494 C 129.383 269.912,129.002 266.270,128.800 264.400 C 128.598 262.530,128.236 258.840,127.995 256.200 C 127.754 253.560,127.463 250.449,127.348 249.286 C 127.142 247.206,126.050 244.819,120.716 234.800 C 116.146 226.215,111.323 217.081,109.733 214.000 C 109.221 213.010,108.803 212.060,108.802 211.888 C 108.800 211.596,109.966 209.143,117.398 193.800 C 118.997 190.500,121.406 185.519,122.752 182.732 L 125.200 177.663 125.200 161.363 C 125.200 144.109,125.253 143.600,127.067 143.600 C 127.366 143.600,127.923 143.441,128.305 143.247 C 129.011 142.888,130.750 142.145,132.200 141.583 C 134.793 140.578,151.952 133.866,152.700 133.564 C 153.195 133.364,154.005 133.038,154.500 132.841 C 158.049 131.424,158.291 131.269,161.600 128.269 C 162.370 127.571,164.526 125.650,166.390 124.000 C 168.255 122.350,169.978 120.820,170.220 120.600 C 170.461 120.380,172.086 118.917,173.830 117.348 C 175.573 115.780,179.520 112.219,182.600 109.434 C 187.947 104.601,188.263 104.383,189.600 104.596 C 190.370 104.720,192.440 105.007,194.200 105.236 M102.437 125.100 C 104.061 127.245,105.572 129.205,105.795 129.455 C 106.018 129.705,107.190 131.209,108.400 132.797 C 109.610 134.385,111.904 137.331,113.498 139.343 L 116.397 143.000 116.398 159.329 L 116.400 175.658 113.673 181.329 C 112.174 184.448,110.666 187.603,110.322 188.341 C 109.584 189.926,109.443 189.762,108.814 186.600 C 108.101 183.014,107.566 180.803,106.926 178.800 C 106.131 176.307,103.609 170.409,102.822 169.200 C 102.464 168.650,101.942 167.741,101.661 167.180 C 100.590 165.040,96.866 160.465,93.502 157.157 C 89.614 153.335,89.656 153.428,90.860 151.312 C 91.333 150.480,92.436 148.450,93.309 146.800 C 94.183 145.150,95.033 143.620,95.197 143.400 C 95.501 142.993,96.040 140.110,96.785 134.900 C 98.375 123.784,98.829 121.200,99.188 121.200 C 99.351 121.200,100.814 122.955,102.437 125.100 M181.800 129.591 C 172.763 132.153,167.152 134.687,159.825 139.516 C 146.374 148.382,141.117 155.868,146.417 158.609 C 148.521 159.697,149.872 159.155,153.012 155.963 C 161.453 147.382,171.140 141.498,182.600 137.990 C 187.519 136.485,187.842 136.400,188.681 136.400 C 191.111 136.400,192.895 132.126,191.291 130.147 C 189.604 128.064,187.600 127.946,181.800 129.591 M43.932 147.201 C 75.180 150.436,92.021 161.112,98.606 181.859 C 100.068 186.464,99.922 187.869,98.095 186.790 C 95.982 185.541,85.251 181.600,83.965 181.600 C 78.612 181.600,78.361 187.618,83.600 190.322 C 87.909 192.545,88.954 194.177,87.814 196.904 C 87.082 198.657,87.848 198.157,78.410 203.043 C 68.922 207.955,67.545 209.863,71.244 212.976 C 73.394 214.785,73.657 214.725,81.807 210.564 C 103.707 199.384,100.977 200.294,100.610 204.300 C 98.803 223.985,82.279 238.359,55.200 243.801 C 47.026 245.443,35.200 246.890,35.200 246.248 C 35.200 245.912,36.782 244.371,40.392 241.189 C 42.258 239.545,44.598 237.461,45.592 236.557 C 46.586 235.653,48.009 234.382,48.753 233.732 L 50.105 232.550 48.353 231.183 C 38.939 223.840,29.200 215.929,29.200 215.628 C 29.200 215.423,31.225 213.802,33.700 212.027 C 40.316 207.282,45.317 203.642,46.009 203.068 C 46.344 202.791,47.469 201.978,48.509 201.263 C 50.968 199.571,51.004 199.662,46.700 196.695 C 38.724 191.195,36.182 189.414,35.744 189.015 C 35.493 188.787,33.738 187.557,31.844 186.281 C 28.360 183.935,28.179 183.744,28.706 182.968 C 28.972 182.578,36.820 176.061,46.227 168.419 C 48.192 166.823,49.947 165.380,50.126 165.212 C 50.460 164.900,50.157 164.529,48.152 162.800 C 47.007 161.813,43.185 158.653,42.006 157.720 C 40.988 156.913,35.463 152.360,34.400 151.451 C 33.850 150.980,32.547 149.901,31.504 149.053 C 30.461 148.205,29.707 147.351,29.828 147.155 C 30.124 146.676,39.141 146.705,43.932 147.201 M374.735 147.151 C 375.132 147.403,374.774 147.890,373.344 149.045 C 372.285 149.900,370.964 150.984,370.409 151.453 C 369.205 152.471,363.655 157.038,362.794 157.720 C 361.653 158.624,357.800 161.796,357.356 162.198 C 357.111 162.419,356.343 163.100,355.648 163.710 L 354.384 164.821 365.192 174.074 C 371.136 179.163,376.000 183.523,376.000 183.763 C 376.000 184.200,373.280 186.299,368.400 189.627 C 366.970 190.602,365.710 191.504,365.600 191.630 C 365.490 191.757,364.305 192.598,362.966 193.500 C 353.462 199.904,353.404 199.969,355.674 201.589 C 357.308 202.756,362.343 206.415,367.797 210.400 C 369.152 211.390,371.372 213.006,372.730 213.990 C 375.757 216.185,375.761 216.129,372.476 218.670 C 370.172 220.453,365.304 224.285,356.900 230.931 C 354.439 232.877,354.374 233.175,356.100 234.609 C 356.815 235.202,358.214 236.433,359.208 237.344 C 361.302 239.263,366.992 244.316,368.280 245.401 C 369.993 246.846,368.210 247.165,362.677 246.405 C 361.094 246.187,358.360 245.812,356.600 245.570 C 352.601 245.022,348.730 244.249,344.600 243.176 C 334.091 240.446,333.562 240.155,334.745 237.769 C 335.173 236.906,335.970 235.210,336.517 234.000 C 337.065 232.790,338.053 230.630,338.715 229.200 C 339.376 227.770,340.314 225.700,340.800 224.600 C 341.286 223.500,342.183 221.520,342.795 220.200 C 343.406 218.880,344.226 217.080,344.617 216.200 C 345.008 215.320,345.860 214.030,346.509 213.334 C 349.122 210.534,348.450 207.928,344.575 205.833 L 342.200 204.550 338.952 198.175 C 334.800 190.025,334.900 190.430,336.605 188.622 C 339.296 185.768,337.651 181.777,333.677 181.521 C 332.005 181.413,331.789 181.291,331.702 180.400 C 331.648 179.850,331.429 178.230,331.216 176.800 C 331.003 175.370,330.642 172.805,330.414 171.100 C 330.186 169.395,329.814 166.605,329.586 164.900 C 329.359 163.195,328.980 160.574,328.746 159.076 C 328.321 156.365,328.804 154.800,330.066 154.800 C 330.255 154.800,331.262 154.422,332.304 153.960 C 335.252 152.654,335.641 152.504,338.200 151.680 C 348.727 148.291,371.984 145.408,374.735 147.151 M154.544 193.500 C 154.686 195.205,154.977 198.130,155.190 200.000 C 155.834 205.634,156.403 210.797,156.800 214.600 C 157.007 216.580,157.367 219.910,157.600 222.000 C 158.363 228.835,158.848 233.352,159.127 236.200 L 159.400 239.000 167.248 239.108 L 175.097 239.217 175.311 238.108 C 175.428 237.499,176.201 232.103,177.028 226.117 C 177.855 220.131,178.651 215.308,178.797 215.398 C 179.103 215.587,179.866 218.960,180.199 221.600 C 180.464 223.699,180.998 227.204,181.568 230.600 C 181.790 231.920,182.160 234.236,182.391 235.746 C 182.621 237.257,182.908 238.652,183.029 238.846 C 183.293 239.274,198.789 239.327,198.825 238.900 C 198.839 238.735,199.009 237.160,199.202 235.400 C 199.525 232.464,199.812 229.985,200.800 221.600 C 201.374 216.726,202.022 211.210,202.396 208.000 C 202.589 206.350,202.945 203.380,203.188 201.400 C 204.061 194.281,204.319 190.995,204.031 190.689 C 203.869 190.517,201.141 190.427,197.969 190.489 L 192.200 190.600 191.941 192.800 C 191.798 194.010,191.478 196.710,191.229 198.800 C 190.527 204.687,190.020 209.759,189.609 215.000 C 188.965 223.222,188.253 223.909,187.848 216.700 C 187.697 214.005,187.414 209.910,187.219 207.600 C 187.025 205.290,186.660 200.700,186.408 197.400 C 186.156 194.100,185.876 191.175,185.787 190.900 C 185.667 190.528,184.000 190.400,179.265 190.400 L 172.905 190.400 172.631 192.100 C 172.092 195.433,170.998 204.936,169.659 217.908 C 169.363 220.773,168.814 222.841,168.793 221.167 C 168.789 220.855,168.618 218.980,168.413 217.000 C 168.208 215.020,167.666 208.450,167.208 202.400 C 166.750 196.350,166.297 191.175,166.200 190.900 C 166.071 190.531,164.491 190.400,160.155 190.400 L 154.286 190.400 154.544 193.500 M207.297 214.500 L 207.400 238.600 218.000 238.600 L 228.600 238.600 228.600 234.000 L 228.600 229.400 224.200 229.200 L 219.800 229.000 219.800 223.800 L 219.800 218.600 223.600 218.400 L 227.400 218.200 227.400 214.000 L 227.400 209.800 223.600 209.600 L 219.800 209.400 219.800 204.800 L 219.800 200.200 223.900 200.086 L 228.000 199.972 228.000 195.186 L 228.000 190.400 217.597 190.400 L 207.194 190.400 207.297 214.500 M230.173 190.927 C 230.061 191.217,230.022 193.332,230.085 195.627 L 230.200 199.800 233.900 199.915 L 237.600 200.030 237.600 219.615 L 237.600 239.200 244.000 239.200 L 250.400 239.200 250.400 219.600 L 250.400 200.000 254.000 200.000 L 257.600 200.000 257.600 195.200 L 257.600 190.400 243.987 190.400 C 233.094 190.400,230.334 190.505,230.173 190.927 M261.077 190.656 C 260.925 190.809,260.800 201.793,260.800 215.067 L 260.800 239.200 266.800 239.200 L 272.800 239.200 272.800 229.480 C 272.800 219.049,272.848 218.800,274.847 218.800 C 277.297 218.800,277.200 218.369,277.200 229.243 L 277.200 239.200 283.400 239.200 L 289.600 239.200 289.600 214.789 L 289.600 190.379 283.700 190.489 L 277.800 190.600 277.692 199.300 L 277.584 208.000 275.400 208.000 L 273.216 208.000 273.108 199.300 L 273.000 190.600 267.177 190.490 C 263.974 190.429,261.229 190.504,261.077 190.656 M106.348 226.429 C 107.189 228.063,108.691 230.930,109.686 232.800 C 118.784 249.901,118.674 249.657,118.949 253.400 C 119.078 255.160,119.303 257.725,119.448 259.100 C 119.812 262.561,119.651 262.432,113.921 254.675 C 111.127 250.894,106.312 244.397,103.221 240.238 C 96.705 231.471,97.103 232.621,99.500 229.485 C 100.545 228.118,102.011 226.044,102.757 224.876 C 104.314 222.439,104.288 222.428,106.348 226.429 " stroke="none" fill="#070707" fill-rule="evenodd"></path><path id="path1" d="M150.159 65.920 C 149.522 66.536,147.290 68.911,145.200 71.197 C 143.110 73.484,140.210 76.625,138.756 78.178 C 137.302 79.730,135.142 82.080,133.956 83.400 C 132.770 84.720,130.353 87.285,128.585 89.100 C 126.817 90.915,125.498 92.400,125.654 92.400 C 125.949 92.400,131.066 87.160,134.830 83.003 C 136.023 81.685,138.094 79.435,139.432 78.003 C 140.769 76.571,142.749 74.417,143.832 73.216 C 144.914 72.015,147.060 69.700,148.600 68.073 L 151.400 65.114 153.600 65.358 C 154.810 65.491,156.700 65.780,157.800 66.000 C 164.081 67.256,169.918 68.073,165.400 67.064 C 164.080 66.770,161.650 66.299,160.000 66.018 C 158.350 65.737,156.370 65.349,155.600 65.156 C 152.968 64.496,151.407 64.715,150.159 65.920 M218.600 65.252 C 217.720 65.448,215.650 65.874,214.000 66.200 C 211.994 66.595,211.663 66.722,213.000 66.582 C 214.100 66.466,215.990 66.194,217.200 65.977 C 221.039 65.289,223.679 65.082,223.944 65.449 C 224.085 65.645,225.370 66.793,226.800 68.000 C 228.230 69.207,229.490 70.286,229.600 70.398 C 229.710 70.509,230.970 71.585,232.400 72.790 C 233.830 73.994,235.090 75.074,235.200 75.190 C 235.310 75.305,236.570 76.385,238.000 77.590 C 239.430 78.794,240.690 79.874,240.800 79.990 C 240.910 80.105,242.170 81.190,243.600 82.400 C 245.030 83.610,246.650 84.987,247.200 85.460 C 257.789 94.565,259.081 95.588,260.000 95.605 C 260.603 95.616,261.725 96.292,262.827 97.311 C 274.851 108.425,294.447 125.638,296.105 126.541 C 297.596 127.354,297.912 127.443,297.200 126.850 C 296.650 126.392,295.998 126.014,295.750 126.009 C 295.335 126.001,292.844 123.913,288.399 119.847 C 287.408 118.941,284.888 116.670,282.799 114.800 C 280.710 112.930,278.910 111.310,278.800 111.200 C 278.690 111.090,277.700 110.206,276.600 109.235 C 275.500 108.265,273.697 106.645,272.594 105.635 C 271.491 104.626,268.882 102.270,266.795 100.400 C 264.709 98.530,262.554 96.595,262.005 96.100 C 261.457 95.605,260.615 95.200,260.135 95.200 C 259.109 95.200,259.991 95.910,244.000 82.205 C 220.736 62.266,223.558 64.149,218.600 65.252 M205.629 67.519 C 203.555 67.868,202.097 68.232,202.388 68.329 C 202.936 68.512,207.684 67.796,209.800 67.213 C 211.724 66.682,209.751 66.827,205.629 67.519 M168.800 67.951 C 169.350 68.145,171.060 68.518,172.600 68.780 C 177.528 69.620,179.764 70.046,181.246 70.427 C 182.042 70.632,183.212 70.785,183.846 70.767 C 185.052 70.733,182.905 70.246,175.400 68.851 C 169.596 67.772,167.469 67.482,168.800 67.951 M196.429 69.119 C 194.355 69.468,192.897 69.832,193.188 69.929 C 193.736 70.112,198.484 69.396,200.600 68.813 C 202.524 68.282,200.551 68.427,196.429 69.119 M188.000 70.625 L 185.000 71.147 188.000 70.923 C 189.650 70.800,191.360 70.553,191.800 70.375 L 192.600 70.051 191.800 70.077 C 191.360 70.092,189.650 70.338,188.000 70.625 M153.634 75.447 C 153.158 76.053,151.578 77.820,150.124 79.374 C 148.669 80.928,146.649 83.100,145.635 84.200 C 144.622 85.300,141.679 88.489,139.096 91.287 C 136.513 94.085,134.400 96.555,134.400 96.776 C 134.400 96.997,136.695 99.861,139.500 103.140 C 142.305 106.420,146.993 111.915,149.917 115.351 C 152.841 118.788,155.368 121.600,155.533 121.600 C 155.813 121.600,159.133 118.766,163.208 115.049 C 164.202 114.142,166.542 112.052,168.408 110.406 C 170.274 108.759,171.890 107.319,172.000 107.206 C 172.110 107.092,173.910 105.470,176.000 103.600 C 178.090 101.730,179.890 100.100,180.000 99.977 C 181.858 97.903,185.740 95.241,186.695 95.387 C 187.792 95.555,191.046 95.999,196.800 96.766 C 198.450 96.986,201.150 97.346,202.800 97.566 C 212.038 98.797,215.389 99.266,220.465 100.036 C 223.668 100.522,228.857 100.341,233.000 99.599 C 235.439 99.163,237.819 98.786,243.200 97.986 C 247.730 97.313,247.763 97.404,240.857 91.554 C 236.270 87.668,234.127 85.841,230.588 82.800 C 219.424 73.207,221.205 74.075,215.000 75.195 C 211.669 75.795,206.556 76.691,201.100 77.630 C 199.725 77.867,197.790 78.212,196.800 78.396 C 188.297 79.982,185.106 80.168,181.200 79.308 C 178.718 78.762,176.199 78.273,172.400 77.600 C 170.970 77.347,168.990 76.987,168.000 76.800 C 167.010 76.613,165.030 76.255,163.600 76.004 C 162.170 75.752,160.280 75.385,159.400 75.188 C 155.181 74.243,154.559 74.271,153.634 75.447 M122.800 93.200 C 122.030 93.622,121.513 93.974,121.651 93.983 C 122.065 94.011,124.800 92.805,124.800 92.595 C 124.800 92.246,124.225 92.420,122.800 93.200 M119.253 94.653 C 118.513 94.976,117.990 95.324,118.092 95.425 C 118.304 95.637,121.200 94.490,121.200 94.195 C 121.200 93.898,120.729 94.009,119.253 94.653 M114.600 96.785 C 113.280 97.416,112.380 97.938,112.600 97.946 C 112.820 97.954,114.080 97.445,115.400 96.815 C 116.720 96.184,117.620 95.662,117.400 95.654 C 117.180 95.646,115.920 96.155,114.600 96.785 M110.000 98.800 C 109.230 99.222,108.713 99.574,108.851 99.583 C 109.265 99.611,112.000 98.405,112.000 98.195 C 112.000 97.846,111.425 98.020,110.000 98.800 M106.453 100.253 C 105.713 100.576,105.190 100.924,105.292 101.025 C 105.504 101.237,108.400 100.090,108.400 99.795 C 108.400 99.498,107.929 99.609,106.453 100.253 M102.853 101.853 C 102.113 102.176,101.601 102.534,101.716 102.649 C 101.831 102.764,102.616 102.493,103.462 102.047 C 105.235 101.111,104.841 100.986,102.853 101.853 M124.580 102.336 C 124.371 102.521,123.570 102.913,122.800 103.207 C 122.030 103.501,120.500 104.140,119.400 104.626 C 115.950 106.151,113.473 107.256,111.288 108.245 C 110.127 108.770,109.096 109.200,108.998 109.200 C 108.615 109.200,103.600 111.602,103.600 111.786 C 103.600 111.893,105.625 114.580,108.100 117.756 C 110.575 120.932,113.590 124.831,114.800 126.420 C 120.232 133.554,122.240 135.802,123.073 135.684 C 124.576 135.471,146.567 126.498,146.722 126.035 C 146.805 125.784,146.272 124.899,145.537 124.069 C 144.802 123.239,143.372 121.578,142.360 120.380 C 139.987 117.567,130.848 106.820,128.518 104.100 C 126.777 102.069,125.520 101.505,124.580 102.336 M97.253 104.253 C 96.513 104.576,95.990 104.924,96.092 105.025 C 96.304 105.237,99.200 104.090,99.200 103.795 C 99.200 103.498,98.729 103.609,97.253 104.253 M182.600 109.457 C 179.520 112.229,175.573 115.780,173.830 117.348 C 172.086 118.917,170.461 120.380,170.220 120.600 C 169.978 120.820,168.255 122.350,166.390 124.000 C 164.526 125.650,162.370 127.571,161.600 128.269 C 158.317 131.244,157.600 131.715,155.043 132.567 C 154.626 132.705,154.386 132.920,154.510 133.043 C 155.217 133.750,162.018 128.945,165.600 125.207 C 165.710 125.093,168.230 122.839,171.200 120.200 C 174.170 117.561,176.690 115.301,176.800 115.179 C 176.910 115.056,179.545 112.691,182.657 109.922 L 188.313 104.888 190.257 105.029 C 191.847 105.143,191.982 105.107,191.000 104.832 C 188.616 104.162,188.278 104.348,182.600 109.457 M255.600 104.811 C 254.775 105.085,254.898 105.134,256.297 105.093 C 257.602 105.055,258.248 105.279,259.097 106.062 C 267.011 113.364,288.756 132.613,289.897 133.328 C 290.724 133.845,292.840 135.049,294.600 136.002 C 296.360 136.956,298.385 138.065,299.100 138.468 C 299.815 138.871,300.985 139.529,301.700 139.932 C 302.415 140.335,304.440 141.440,306.200 142.388 C 307.960 143.336,309.580 144.242,309.800 144.400 C 310.020 144.558,311.640 145.460,313.400 146.404 C 315.160 147.347,317.095 148.465,317.700 148.887 C 318.305 149.309,318.800 149.504,318.800 149.320 C 318.800 149.008,317.652 148.315,311.414 144.865 C 310.086 144.130,308.100 143.031,307.000 142.423 C 304.886 141.253,302.432 139.888,299.300 138.139 C 298.255 137.555,296.500 136.593,295.400 136.001 C 290.544 133.385,288.314 131.975,287.200 130.812 C 286.870 130.467,285.070 128.839,283.201 127.193 C 281.331 125.547,279.531 123.929,279.201 123.598 C 278.870 123.267,277.070 121.647,275.200 119.998 C 273.330 118.349,271.710 116.910,271.600 116.800 C 271.490 116.690,269.690 115.070,267.601 113.200 C 265.512 111.330,262.992 109.055,262.001 108.144 C 257.747 104.233,257.590 104.151,255.600 104.811 M93.300 106.064 C 92.365 106.518,91.600 107.024,91.600 107.190 C 91.600 107.460,95.037 105.896,95.532 105.401 C 95.965 104.968,94.920 105.279,93.300 106.064 M194.200 105.600 C 194.860 105.768,196.030 105.905,196.800 105.905 L 198.200 105.905 197.000 105.600 C 196.340 105.432,195.170 105.295,194.400 105.295 L 193.000 105.295 194.200 105.600 M250.800 105.600 L 249.800 105.920 250.800 105.913 C 251.350 105.909,252.340 105.768,253.000 105.600 L 254.200 105.295 253.000 105.287 C 252.340 105.283,251.350 105.424,250.800 105.600 M200.200 106.400 C 201.961 106.848,204.199 106.848,202.800 106.400 C 202.250 106.224,201.170 106.083,200.400 106.087 L 199.000 106.095 200.200 106.400 M245.600 106.400 C 244.201 106.848,246.439 106.848,248.200 106.400 L 249.400 106.095 248.000 106.087 C 247.230 106.083,246.150 106.224,245.600 106.400 M206.200 107.223 C 207.080 107.405,208.250 107.546,208.800 107.537 L 209.800 107.520 208.800 107.200 C 208.250 107.024,207.080 106.883,206.200 106.886 L 204.600 106.892 206.200 107.223 M240.800 107.200 L 239.800 107.520 240.800 107.513 C 241.350 107.509,242.340 107.368,243.000 107.200 L 244.200 106.895 243.000 106.887 C 242.340 106.883,241.350 107.024,240.800 107.200 M212.200 108.023 C 213.080 108.205,214.250 108.343,214.800 108.330 C 216.388 108.291,213.765 107.695,212.000 107.693 L 210.600 107.692 212.200 108.023 M235.600 108.000 C 234.628 108.311,234.633 108.320,235.800 108.320 C 236.460 108.320,237.450 108.176,238.000 108.000 C 238.972 107.689,238.967 107.680,237.800 107.680 C 237.140 107.680,236.150 107.824,235.600 108.000 M91.018 110.326 C 90.853 111.495,90.813 112.546,90.929 112.662 C 91.214 112.947,91.731 109.387,91.500 108.725 C 91.400 108.436,91.182 109.157,91.018 110.326 M217.800 108.800 C 218.460 108.968,219.630 109.105,220.400 109.105 L 221.800 109.105 220.600 108.800 C 219.940 108.632,218.770 108.495,218.000 108.495 L 216.600 108.495 217.800 108.800 M230.600 108.800 C 229.536 109.257,231.203 109.257,233.000 108.800 L 234.200 108.495 232.800 108.475 C 232.030 108.465,231.040 108.611,230.600 108.800 M224.059 109.652 C 225.114 109.852,226.584 109.855,227.459 109.659 C 228.748 109.370,228.443 109.312,225.600 109.306 C 222.509 109.300,222.369 109.331,224.059 109.652 M90.218 115.926 C 90.053 117.095,90.013 118.146,90.129 118.262 C 90.414 118.547,90.931 114.987,90.700 114.325 C 90.600 114.036,90.382 114.757,90.218 115.926 M89.418 121.526 C 89.253 122.695,89.213 123.746,89.329 123.862 C 89.614 124.147,90.131 120.587,89.900 119.925 C 89.800 119.636,89.582 120.357,89.418 121.526 M98.454 123.802 C 98.030 126.334,97.636 128.954,96.785 134.900 C 96.040 140.110,95.501 142.993,95.197 143.400 C 95.033 143.620,94.183 145.150,93.309 146.800 C 92.436 148.450,91.333 150.480,90.860 151.312 C 89.656 153.428,89.614 153.335,93.502 157.157 C 96.866 160.465,100.590 165.040,101.661 167.180 C 101.942 167.741,102.464 168.650,102.822 169.200 C 103.609 170.409,106.131 176.307,106.926 178.800 C 107.566 180.803,108.101 183.014,108.814 186.600 C 109.443 189.762,109.584 189.926,110.322 188.341 C 110.666 187.603,112.174 184.448,113.673 181.329 L 116.400 175.658 116.398 159.329 L 116.397 143.000 113.498 139.343 C 111.904 137.331,109.610 134.385,108.400 132.797 C 107.190 131.209,106.018 129.705,105.795 129.455 C 105.572 129.205,104.061 127.245,102.437 125.100 C 98.936 120.474,99.008 120.498,98.454 123.802 M88.618 127.126 C 88.453 128.295,88.413 129.346,88.529 129.462 C 88.814 129.747,89.331 126.187,89.100 125.525 C 89.000 125.236,88.782 125.957,88.618 127.126 M298.620 127.942 C 299.236 128.496,305.438 131.756,305.000 131.296 C 304.780 131.065,303.925 130.498,303.100 130.038 C 302.275 129.577,300.965 128.840,300.188 128.400 C 298.724 127.571,297.959 127.347,298.620 127.942 M187.000 128.240 C 189.480 128.611,190.094 128.860,191.034 129.875 C 191.565 130.448,192.000 130.742,192.000 130.528 C 192.000 129.455,189.965 128.282,187.913 128.172 C 186.751 128.111,186.340 128.141,187.000 128.240 M182.400 128.896 C 174.340 131.284,167.199 134.271,163.328 136.875 C 162.408 137.494,161.541 138.000,161.400 138.000 C 161.145 138.000,157.968 140.117,156.809 141.059 C 156.474 141.331,154.760 142.707,153.000 144.116 C 144.175 151.185,142.042 155.245,145.464 158.460 C 147.688 160.549,149.309 159.949,154.271 155.200 C 163.524 146.343,174.576 140.199,186.381 137.350 C 187.997 136.959,189.092 136.564,188.814 136.471 C 188.309 136.303,187.313 136.548,182.400 138.051 C 171.156 141.492,161.395 147.442,153.012 155.963 C 149.872 159.155,148.521 159.697,146.417 158.609 C 141.117 155.868,146.374 148.382,159.825 139.516 C 167.152 134.687,172.763 132.153,181.800 129.591 C 184.000 128.967,185.350 128.462,184.800 128.469 C 184.250 128.476,183.170 128.668,182.400 128.896 M87.843 132.534 C 87.673 133.817,87.625 134.959,87.737 135.070 C 88.021 135.355,88.512 131.855,88.315 130.947 C 88.226 130.536,88.014 131.250,87.843 132.534 M192.093 132.400 C 192.093 133.170,192.175 133.485,192.276 133.100 C 192.376 132.715,192.376 132.085,192.276 131.700 C 192.175 131.315,192.093 131.630,192.093 132.400 M306.211 132.139 C 306.645 132.435,308.440 133.457,310.200 134.410 C 311.960 135.363,314.263 136.650,315.318 137.271 C 316.372 137.892,317.303 138.400,317.386 138.400 C 317.469 138.400,319.126 139.302,321.068 140.404 C 323.011 141.507,325.050 142.664,325.600 142.976 C 326.252 143.346,326.670 144.004,326.800 144.867 C 327.049 146.512,327.780 146.688,330.059 145.650 C 333.978 143.866,342.270 141.484,348.200 140.439 C 352.061 139.758,352.271 139.695,350.846 139.646 C 350.102 139.621,348.842 139.767,348.046 139.972 C 347.251 140.176,345.520 140.556,344.200 140.815 C 342.880 141.074,341.350 141.425,340.800 141.596 C 340.250 141.767,338.990 142.129,338.000 142.399 C 337.010 142.670,335.840 143.033,335.400 143.205 C 334.960 143.378,333.970 143.736,333.200 144.000 C 331.509 144.581,330.320 145.051,329.038 145.647 C 327.865 146.193,327.202 145.844,327.194 144.676 C 327.186 143.498,326.878 143.146,325.000 142.162 C 324.120 141.700,322.680 140.908,321.800 140.400 C 320.920 139.892,319.300 138.992,318.200 138.399 C 317.100 137.807,315.345 136.845,314.300 136.261 C 313.255 135.678,311.635 134.775,310.700 134.257 C 309.765 133.738,308.320 132.928,307.488 132.457 C 305.808 131.505,304.982 131.300,306.211 132.139 M142.000 137.673 C 137.050 139.653,132.640 141.413,132.200 141.583 C 130.752 142.144,129.012 142.887,128.305 143.247 C 127.923 143.441,127.366 143.600,127.067 143.600 C 125.251 143.600,125.194 144.141,125.293 160.631 L 125.386 176.200 125.593 160.421 L 125.800 144.641 139.000 139.339 C 146.260 136.423,151.930 134.045,151.600 134.055 C 151.270 134.064,146.950 135.692,142.000 137.673 M190.588 135.282 C 189.726 136.195,189.632 136.411,190.238 136.087 C 191.188 135.578,192.197 134.464,191.940 134.207 C 191.845 134.111,191.236 134.595,190.588 135.282 M87.229 137.000 C 87.194 137.660,86.912 138.920,86.603 139.800 C 86.114 141.194,86.116 141.301,86.616 140.631 C 87.297 139.717,87.751 137.578,87.483 136.540 C 87.361 136.064,87.270 136.228,87.229 137.000 M21.400 138.490 C 19.420 138.690,16.810 139.108,15.600 139.420 C 14.390 139.731,13.940 139.902,14.600 139.799 C 20.845 138.828,29.491 138.331,37.600 138.477 C 42.550 138.566,45.790 138.509,44.800 138.349 C 42.307 137.948,25.783 138.047,21.400 138.490 M359.600 138.478 C 354.132 138.990,352.303 139.236,352.500 139.434 C 352.596 139.529,355.897 139.317,359.837 138.962 C 364.724 138.522,369.541 138.372,375.000 138.491 C 379.400 138.586,382.010 138.532,380.800 138.372 C 377.802 137.973,364.268 138.041,359.600 138.478 M48.200 139.077 C 49.080 139.155,51.578 139.492,53.750 139.826 C 55.923 140.160,57.786 140.347,57.891 140.242 C 57.996 140.137,57.388 139.946,56.541 139.816 C 55.693 139.687,54.131 139.406,53.069 139.191 C 52.008 138.976,50.118 138.830,48.869 138.867 C 47.080 138.920,46.938 138.965,48.200 139.077 M385.600 139.200 C 387.030 139.358,388.920 139.600,389.800 139.739 C 391.213 139.962,391.167 139.923,389.400 139.403 C 388.300 139.080,386.410 138.838,385.200 138.865 L 383.000 138.914 385.600 139.200 M59.000 140.659 C 64.396 141.783,70.689 143.703,74.606 145.420 C 76.647 146.314,78.000 146.788,78.000 146.609 C 78.000 146.450,76.217 145.604,74.100 144.759 C 73.605 144.562,72.795 144.229,72.300 144.020 C 69.347 142.774,60.436 140.371,59.049 140.446 C 58.249 140.490,58.246 140.502,59.000 140.659 M84.584 143.660 C 83.995 144.837,83.696 145.620,83.919 145.400 C 84.578 144.750,86.056 141.922,85.846 141.713 C 85.741 141.607,85.172 142.483,84.584 143.660 M13.600 145.497 C 13.600 145.744,14.455 146.633,15.500 147.473 C 16.545 148.313,17.490 149.092,17.600 149.205 C 17.710 149.319,18.790 150.216,20.000 151.200 C 21.210 152.184,22.290 153.090,22.400 153.213 C 22.510 153.337,24.490 154.955,26.800 156.809 C 29.110 158.663,31.360 160.511,31.800 160.917 C 32.240 161.322,33.359 162.226,34.288 162.927 C 36.808 164.828,37.278 164.159,28.149 171.668 C 11.170 185.632,12.567 183.910,16.251 186.331 C 19.399 188.399,19.367 187.963,16.211 185.790 C 13.563 183.966,13.586 184.113,15.686 182.386 C 16.613 181.624,19.009 179.650,21.011 178.000 C 23.014 176.350,26.959 173.110,29.779 170.800 C 37.389 164.567,36.888 165.063,36.305 164.340 C 35.795 163.707,33.985 162.180,26.421 156.000 C 16.054 147.531,14.570 146.288,14.100 145.687 C 13.825 145.335,13.600 145.249,13.600 145.497 M390.800 145.440 C 390.800 145.646,389.050 147.251,386.911 149.007 C 384.772 150.763,381.487 153.467,379.611 155.015 C 377.735 156.563,374.490 159.239,372.400 160.961 C 367.436 165.051,367.529 164.694,370.705 167.450 C 372.187 168.736,373.490 169.881,373.600 169.994 C 373.710 170.107,374.970 171.185,376.400 172.390 C 377.830 173.594,379.090 174.674,379.200 174.790 C 379.310 174.905,380.570 175.990,382.000 177.200 C 383.430 178.410,385.050 179.785,385.600 180.255 C 386.150 180.726,387.436 181.825,388.459 182.699 C 390.859 184.749,391.862 183.682,379.300 192.440 C 377.375 193.782,375.530 195.160,375.200 195.501 C 374.609 196.113,376.938 194.559,385.200 188.830 C 389.901 185.571,390.869 184.787,390.710 184.373 C 390.649 184.216,387.090 181.078,382.800 177.398 C 378.510 173.719,374.010 169.853,372.800 168.808 C 367.651 164.358,367.844 165.129,371.200 162.400 C 372.410 161.416,373.490 160.518,373.600 160.404 C 373.710 160.291,375.690 158.675,378.000 156.813 C 380.310 154.952,382.290 153.330,382.400 153.209 C 382.613 152.975,386.463 149.808,387.760 148.800 C 389.911 147.128,391.365 145.632,391.099 145.365 C 390.934 145.201,390.800 145.235,390.800 145.440 M29.828 147.155 C 29.707 147.351,30.461 148.205,31.504 149.053 C 32.547 149.901,33.850 150.980,34.400 151.451 C 35.463 152.360,40.988 156.913,42.006 157.720 C 44.561 159.743,48.893 163.393,49.884 164.357 C 50.566 165.021,51.131 164.453,44.088 170.188 C 41.167 172.567,38.658 174.713,38.512 174.957 C 38.366 175.201,38.594 175.130,39.019 174.800 C 39.867 174.142,44.412 170.396,46.000 169.046 C 46.550 168.578,47.855 167.500,48.900 166.650 C 51.508 164.528,52.618 165.865,39.236 155.014 C 37.346 153.481,35.440 151.894,35.000 151.487 C 34.560 151.080,33.443 150.174,32.517 149.473 C 29.708 147.349,29.870 147.200,34.998 147.200 C 42.919 147.200,54.615 148.623,61.300 150.401 C 67.899 152.156,69.192 152.624,74.600 155.211 C 81.145 158.343,87.796 163.647,92.143 169.200 C 92.746 169.970,93.095 170.298,92.920 169.929 C 88.801 161.286,73.065 152.253,56.200 148.852 C 48.131 147.225,30.486 146.090,29.828 147.155 M79.911 147.788 C 81.547 148.723,82.800 148.776,82.800 147.908 C 82.800 147.662,82.579 147.685,82.238 147.968 C 81.800 148.332,81.381 148.254,80.338 147.619 C 79.602 147.170,78.820 146.804,78.600 146.806 C 78.380 146.808,78.970 147.250,79.911 147.788 M361.600 147.262 C 352.831 147.982,345.230 149.417,338.200 151.680 C 335.641 152.504,335.252 152.654,332.304 153.960 C 331.262 154.422,330.255 154.800,330.066 154.800 C 328.804 154.800,328.321 156.365,328.746 159.076 C 329.178 161.836,329.619 165.041,330.415 171.200 C 331.012 175.827,331.637 178.730,331.361 175.600 C 331.255 174.390,331.005 172.230,330.807 170.800 C 330.608 169.370,330.246 166.670,330.002 164.800 C 329.758 162.930,329.380 160.258,329.161 158.863 C 328.771 156.372,329.056 155.200,330.053 155.200 C 330.249 155.200,331.262 154.822,332.304 154.360 C 335.252 153.054,335.641 152.904,338.200 152.080 C 347.206 149.180,360.580 147.200,371.156 147.200 C 374.833 147.200,374.957 147.451,372.283 149.473 C 371.357 150.174,370.240 151.080,369.800 151.487 C 369.360 151.894,367.380 153.542,365.400 155.149 C 352.377 165.719,353.329 164.563,355.924 166.658 C 356.956 167.491,357.890 168.274,358.000 168.397 C 358.110 168.520,359.370 169.606,360.800 170.810 C 362.230 172.015,363.490 173.095,363.600 173.210 C 363.710 173.326,364.970 174.406,366.400 175.610 C 367.830 176.815,369.090 177.895,369.200 178.010 C 369.310 178.126,370.566 179.206,371.990 180.410 C 376.235 183.998,376.043 183.684,374.700 184.860 L 373.800 185.647 374.900 184.978 C 376.650 183.912,376.543 183.792,365.192 174.074 L 354.384 164.821 355.648 163.710 C 356.343 163.100,357.111 162.419,357.356 162.198 C 357.800 161.796,361.653 158.624,362.794 157.720 C 363.655 157.038,369.205 152.471,370.409 151.453 C 370.964 150.984,372.285 149.900,373.344 149.045 C 374.774 147.890,375.132 147.403,374.735 147.151 C 374.082 146.737,367.298 146.795,361.600 147.262 M318.886 152.200 C 318.883 153.080,319.024 154.250,319.200 154.800 L 319.520 155.800 319.537 154.800 C 319.546 154.250,319.405 153.080,319.223 152.200 L 318.892 150.600 318.886 152.200 M319.686 158.200 C 319.683 159.080,319.824 160.250,320.000 160.800 L 320.320 161.800 320.337 160.800 C 320.346 160.250,320.205 159.080,320.023 158.200 L 319.692 156.600 319.686 158.200 M320.486 164.200 C 320.483 165.080,320.624 166.250,320.800 166.800 L 321.120 167.800 321.137 166.800 C 321.146 166.250,321.005 165.080,320.823 164.200 L 320.492 162.600 320.486 164.200 M321.290 170.000 C 321.284 170.990,321.424 172.250,321.600 172.800 L 321.920 173.800 321.930 172.800 C 321.936 172.250,321.797 170.990,321.620 170.000 L 321.300 168.200 321.290 170.000 M94.980 174.100 C 95.933 175.915,96.930 178.087,97.196 178.927 C 97.462 179.767,97.784 180.350,97.910 180.223 C 98.358 179.775,94.034 170.800,93.371 170.800 C 93.303 170.800,94.028 172.285,94.980 174.100 M322.090 176.000 C 322.084 176.990,322.224 178.250,322.400 178.800 L 322.720 179.800 322.730 178.800 C 322.736 178.250,322.597 176.990,322.420 176.000 L 322.100 174.200 322.090 176.000 M34.400 178.078 C 27.236 183.963,27.464 183.335,31.486 186.088 C 35.304 188.701,35.600 188.885,35.600 188.653 C 35.600 188.551,34.174 187.468,32.432 186.247 C 30.689 185.026,29.158 183.856,29.029 183.647 C 28.830 183.326,32.802 179.745,36.963 176.494 C 37.600 175.996,38.050 175.521,37.961 175.437 C 37.872 175.354,36.270 176.542,34.400 178.078 M122.276 183.676 C 120.782 186.766,119.626 189.359,119.707 189.440 C 119.787 189.520,121.085 187.068,122.590 183.990 C 124.096 180.913,125.252 178.319,125.160 178.227 C 125.068 178.134,123.770 180.587,122.276 183.676 M331.761 179.697 L 331.800 181.400 333.600 181.444 L 335.400 181.488 333.722 181.322 C 332.096 181.161,332.039 181.107,331.883 179.575 L 331.722 177.994 331.761 179.697 M322.890 182.000 C 322.884 182.990,323.024 184.250,323.200 184.800 L 323.520 185.800 323.530 184.800 C 323.536 184.250,323.397 182.990,323.220 182.000 L 322.900 180.200 322.890 182.000 M98.012 181.200 C 98.012 181.530,98.187 182.070,98.400 182.400 C 98.745 182.933,98.788 182.933,98.788 182.400 C 98.788 182.070,98.613 181.530,98.400 181.200 C 98.055 180.667,98.012 180.667,98.012 181.200 M80.960 182.560 C 80.212 183.308,79.601 184.163,79.601 184.460 C 79.602 184.757,79.933 184.460,80.336 183.800 C 81.192 182.400,82.445 181.683,84.400 181.476 C 85.673 181.341,85.643 181.322,84.060 181.264 C 82.571 181.209,82.124 181.396,80.960 182.560 M86.033 181.760 C 86.378 182.091,91.341 183.992,91.485 183.849 C 91.567 183.766,90.455 183.227,89.013 182.649 C 86.539 181.659,85.652 181.394,86.033 181.760 M336.700 182.947 C 338.494 184.991,338.466 186.648,336.605 188.622 C 334.900 190.430,334.800 190.025,338.952 198.175 L 342.200 204.550 344.575 205.833 C 348.450 207.928,349.122 210.534,346.509 213.334 C 345.860 214.030,345.008 215.320,344.617 216.200 C 344.226 217.080,343.406 218.880,342.795 220.200 C 342.183 221.520,341.286 223.500,340.800 224.600 C 339.746 226.986,337.896 230.996,336.503 233.913 C 335.947 235.076,335.576 236.109,335.677 236.210 C 335.778 236.311,336.284 235.450,336.801 234.297 C 337.318 233.144,338.321 230.940,339.029 229.400 C 339.738 227.860,340.786 225.565,341.359 224.300 C 341.931 223.035,342.830 221.055,343.355 219.900 C 343.881 218.745,344.691 216.954,345.156 215.919 C 345.622 214.885,346.259 213.895,346.573 213.719 C 349.781 211.924,348.740 207.506,344.603 205.358 L 342.374 204.200 338.946 197.294 L 335.519 190.387 336.959 188.792 C 339.029 186.502,338.713 183.237,336.296 181.945 C 335.579 181.561,335.659 181.761,336.700 182.947 M99.054 184.905 C 99.268 186.617,99.220 186.783,98.581 186.537 C 98.093 186.350,97.960 186.411,98.158 186.732 C 99.205 188.426,100.107 185.838,99.180 183.800 C 98.932 183.255,98.892 183.608,99.054 184.905 M370.035 188.000 C 366.869 190.229,364.941 191.803,366.414 190.954 C 369.102 189.405,374.270 185.524,373.524 185.615 C 373.456 185.623,371.886 186.696,370.035 188.000 M323.632 186.797 C 323.599 187.415,327.133 194.800,327.461 194.800 C 327.564 194.800,327.576 194.665,327.490 194.500 C 326.996 193.560,324.064 187.304,323.881 186.800 C 323.689 186.271,323.659 186.271,323.632 186.797 M79.616 186.926 C 79.560 188.061,83.218 191.208,84.578 191.196 C 84.810 191.194,84.060 190.654,82.912 189.995 C 81.764 189.337,80.556 188.303,80.228 187.699 C 79.900 187.094,79.625 186.747,79.616 186.926 M19.330 188.286 C 19.472 188.516,21.240 189.836,23.259 191.218 C 25.277 192.601,26.813 193.544,26.670 193.314 C 26.528 193.084,24.760 191.764,22.741 190.382 C 20.723 188.999,19.187 188.056,19.330 188.286 M36.008 189.074 C 36.013 189.254,37.202 190.179,38.651 191.131 C 40.100 192.083,41.186 192.701,41.064 192.504 C 40.697 191.911,35.999 188.724,36.008 189.074 M154.228 193.400 C 154.324 195.160,154.572 198.130,154.780 200.000 C 154.988 201.870,155.352 205.200,155.589 207.400 C 155.826 209.600,156.200 213.020,156.419 215.000 C 157.385 223.707,158.310 232.300,158.615 235.400 C 159.075 240.090,158.074 239.600,167.194 239.600 C 176.230 239.600,176.030 239.675,175.968 236.326 C 175.932 234.331,175.769 234.616,175.406 237.308 L 175.148 239.217 167.274 239.108 L 159.400 239.000 159.127 236.200 C 158.848 233.352,158.363 228.835,157.600 222.000 C 157.367 219.910,157.007 216.580,156.800 214.600 C 156.284 209.661,154.990 198.082,154.386 193.000 L 154.054 190.200 154.228 193.400 M166.271 191.270 C 166.365 191.781,166.602 194.000,166.798 196.200 L 167.153 200.200 167.001 195.645 C 166.918 193.140,166.681 190.921,166.475 190.715 C 166.241 190.481,166.164 190.690,166.271 191.270 M172.182 192.182 C 172.029 193.202,172.002 194.135,172.122 194.255 C 172.242 194.375,172.465 193.639,172.618 192.618 C 172.771 191.598,172.798 190.665,172.678 190.545 C 172.558 190.425,172.335 191.161,172.182 192.182 M185.917 192.300 C 186.112 195.340,186.303 195.602,186.354 192.900 C 186.379 191.525,186.264 190.400,186.097 190.400 C 185.931 190.400,185.849 191.255,185.917 192.300 M204.133 192.901 C 204.082 194.794,204.143 195.109,204.385 194.200 C 204.809 192.609,204.876 190.400,204.500 190.401 C 204.335 190.402,204.170 191.527,204.133 192.901 M206.700 190.633 C 206.099 191.235,206.342 238.254,206.949 238.758 C 207.337 239.080,210.652 239.182,218.249 239.107 L 229.000 239.000 229.000 234.000 L 229.000 229.000 224.488 228.887 L 219.976 228.774 220.088 223.887 L 220.200 219.000 224.000 218.800 L 227.800 218.600 227.800 214.000 L 227.800 209.400 224.000 209.200 L 220.200 209.000 220.087 204.715 L 219.973 200.429 223.788 200.292 L 227.602 200.154 223.701 200.177 L 219.800 200.200 219.800 204.800 L 219.800 209.400 223.600 209.600 L 227.400 209.800 227.400 214.000 L 227.400 218.200 223.600 218.400 L 219.800 218.600 219.800 223.800 L 219.800 229.000 224.200 229.200 L 228.600 229.400 228.600 234.000 L 228.600 238.600 218.000 238.600 L 207.400 238.600 207.200 214.467 C 207.090 201.193,206.865 190.468,206.700 190.633 M228.154 195.200 C 228.154 197.950,228.218 199.075,228.296 197.700 C 228.374 196.325,228.374 194.075,228.296 192.700 C 228.218 191.325,228.154 192.450,228.154 195.200 M229.600 195.200 C 229.600 197.840,229.735 200.000,229.900 200.000 C 230.065 200.000,230.200 197.840,230.200 195.200 C 230.200 192.560,230.065 190.400,229.900 190.400 C 229.735 190.400,229.600 192.560,229.600 195.200 M257.686 195.100 L 257.600 200.000 254.000 200.000 L 250.400 200.000 250.400 219.600 L 250.400 239.200 244.000 239.200 L 237.600 239.200 237.600 219.600 L 237.600 200.000 234.100 200.081 L 230.600 200.163 233.896 200.298 L 237.192 200.432 237.296 219.916 L 237.400 239.400 244.000 239.400 L 250.600 239.400 250.704 219.900 L 250.808 200.400 254.216 200.400 C 258.288 200.400,258.067 200.738,257.899 194.776 L 257.771 190.200 257.686 195.100 M260.497 214.900 L 260.600 239.400 266.800 239.400 L 273.000 239.400 273.200 229.400 L 273.400 219.400 275.000 219.400 L 276.600 219.400 276.800 229.400 L 277.000 239.400 283.500 239.510 L 290.000 239.620 289.903 214.910 L 289.806 190.200 289.700 214.700 L 289.594 239.200 283.397 239.200 L 277.200 239.200 277.200 229.243 C 277.200 218.369,277.297 218.800,274.847 218.800 C 272.848 218.800,272.800 219.049,272.800 229.480 L 272.800 239.200 266.794 239.200 L 260.788 239.200 260.894 214.800 C 260.952 201.380,260.864 190.400,260.697 190.400 C 260.530 190.400,260.440 201.425,260.497 214.900 M273.115 199.200 C 273.178 204.040,273.358 208.000,273.515 208.000 C 273.672 208.001,273.748 204.041,273.685 199.200 C 273.622 194.360,273.442 190.400,273.285 190.400 C 273.128 190.399,273.052 194.359,273.115 199.200 M277.115 199.200 C 277.052 204.041,277.128 208.001,277.285 208.000 C 277.442 208.000,277.622 204.040,277.685 199.200 C 277.748 194.359,277.672 190.399,277.515 190.400 C 277.358 190.400,277.178 194.360,277.115 199.200 M86.358 192.360 C 87.373 193.309,87.602 193.839,87.612 195.260 C 87.622 196.669,87.704 196.863,88.044 196.279 C 88.759 195.050,86.821 191.200,85.488 191.200 C 85.283 191.200,85.674 191.722,86.358 192.360 M363.429 192.631 C 362.344 193.368,361.174 194.272,360.829 194.640 C 360.358 195.140,364.585 192.551,365.567 191.738 C 366.534 190.937,364.944 191.601,363.429 192.631 M115.826 197.022 C 112.625 203.632,112.400 204.654,115.479 198.600 C 117.918 193.802,118.910 191.600,118.631 191.600 C 118.532 191.600,117.270 194.040,115.826 197.022 M191.418 193.926 C 191.253 195.095,191.213 196.146,191.329 196.262 C 191.614 196.547,192.131 192.987,191.900 192.325 C 191.800 192.036,191.582 192.757,191.418 193.926 M41.732 193.090 C 42.042 193.591,49.200 198.529,49.200 198.242 C 49.200 198.130,47.715 196.986,45.900 195.700 C 41.879 192.849,41.396 192.547,41.732 193.090 M27.330 193.886 C 27.472 194.116,29.240 195.436,31.259 196.818 C 33.277 198.201,34.813 199.144,34.670 198.914 C 34.528 198.684,32.760 197.364,30.741 195.982 C 28.723 194.599,27.187 193.656,27.330 193.886 M171.672 195.844 C 171.632 196.528,171.511 197.968,171.402 199.044 C 171.217 200.860,171.233 200.905,171.622 199.665 C 171.852 198.931,171.974 197.491,171.893 196.465 C 171.799 195.290,171.718 195.060,171.672 195.844 M356.799 197.322 C 353.522 199.642,353.117 200.315,354.491 201.157 L 355.400 201.713 354.629 200.847 C 353.754 199.863,353.637 200.013,357.300 197.449 C 359.620 195.825,360.343 195.200,359.898 195.200 C 359.842 195.200,358.447 196.155,356.799 197.322 M372.200 197.423 C 368.436 200.019,368.263 200.278,369.700 201.160 C 370.582 201.703,370.586 201.698,369.882 200.905 C 369.177 200.112,369.214 200.060,371.782 198.228 C 373.222 197.200,374.400 196.279,374.400 196.180 C 374.400 195.911,374.359 195.934,372.200 197.423 M186.490 198.400 C 186.484 199.390,186.616 201.190,186.783 202.400 L 187.087 204.600 187.114 202.400 C 187.129 201.190,186.997 199.390,186.820 198.400 L 186.500 196.600 186.490 198.400 M203.387 199.387 C 203.231 200.844,203.199 202.132,203.316 202.250 C 203.434 202.367,203.657 201.271,203.813 199.813 C 203.969 198.356,204.001 197.068,203.884 196.950 C 203.766 196.833,203.543 197.929,203.387 199.387 M86.564 198.043 C 86.144 198.509,83.666 199.961,81.058 201.270 C 78.449 202.578,76.391 203.725,76.485 203.818 C 76.578 203.911,78.802 202.887,81.427 201.543 C 86.025 199.189,87.992 197.859,87.542 197.409 C 87.425 197.291,86.985 197.577,86.564 198.043 M190.615 200.324 C 190.450 201.932,190.408 203.341,190.522 203.455 C 190.800 203.733,191.338 198.606,191.102 197.930 C 191.000 197.639,190.781 198.716,190.615 200.324 M49.971 198.900 C 50.407 199.479,50.407 199.721,49.971 200.300 C 49.469 200.967,49.480 200.967,50.208 200.300 C 50.959 199.611,50.959 199.589,50.208 198.900 C 49.480 198.233,49.469 198.233,49.971 198.900 M329.221 198.471 C 329.210 198.619,330.735 201.858,332.610 205.668 C 335.363 211.258,335.976 212.827,335.786 213.797 C 335.609 214.705,335.654 214.853,335.970 214.400 C 336.200 214.070,336.381 213.440,336.373 213.000 C 336.359 212.264,329.269 197.860,329.221 198.471 M35.200 199.530 C 35.200 199.785,34.303 200.580,33.207 201.297 C 32.111 202.014,31.211 202.746,31.207 202.925 C 31.199 203.285,34.583 200.944,35.275 200.110 C 35.516 199.819,35.598 199.465,35.457 199.324 C 35.316 199.182,35.200 199.275,35.200 199.530 M47.705 201.725 C 46.993 202.206,46.408 202.747,46.405 202.927 C 46.399 203.288,48.635 201.790,49.012 201.181 C 49.334 200.660,49.196 200.717,47.705 201.725 M167.484 205.400 C 167.604 208.040,167.770 210.275,167.851 210.367 C 168.140 210.690,167.936 204.177,167.603 202.400 C 167.381 201.220,167.340 202.252,167.484 205.400 M100.331 202.800 C 100.415 203.680,100.555 204.400,100.642 204.400 C 100.729 204.400,100.800 203.680,100.800 202.800 C 100.800 201.920,100.660 201.200,100.489 201.200 C 100.319 201.200,100.248 201.920,100.331 202.800 M170.683 204.353 C 170.512 206.197,170.454 207.787,170.553 207.887 C 170.838 208.171,171.281 203.953,171.130 202.400 C 171.047 201.538,170.875 202.289,170.683 204.353 M355.600 201.724 C 355.600 201.896,360.003 205.258,362.700 207.145 C 365.245 208.926,363.950 207.595,361.100 205.501 C 356.904 202.418,355.600 201.522,355.600 201.724 M370.916 201.865 C 371.060 202.097,375.323 205.296,380.389 208.975 C 385.455 212.653,389.600 215.732,389.600 215.819 C 389.600 215.969,382.753 221.527,380.014 223.600 C 379.288 224.150,378.368 224.870,377.971 225.200 C 377.574 225.530,375.176 227.420,372.642 229.400 C 370.108 231.380,368.027 233.125,368.018 233.278 C 367.996 233.626,369.478 234.995,379.200 243.600 C 383.490 247.397,387.632 251.065,388.405 251.752 C 389.177 252.438,390.167 253.254,390.605 253.565 C 391.803 254.416,388.990 251.738,385.600 248.800 C 383.950 247.371,382.510 246.108,382.400 245.995 C 382.290 245.882,380.674 244.441,378.808 242.794 C 375.437 239.819,373.393 237.986,370.058 234.952 L 368.317 233.366 370.526 231.583 C 371.741 230.602,376.516 226.830,381.138 223.200 C 385.760 219.570,389.640 216.374,389.759 216.097 C 389.963 215.627,388.204 214.236,377.000 206.007 C 371.844 202.219,370.621 201.387,370.916 201.865 M27.000 205.833 C 23.414 208.435,20.937 210.579,23.600 208.777 C 27.655 206.034,31.345 203.141,30.700 203.211 C 30.645 203.217,28.980 204.397,27.000 205.833 M42.200 205.833 C 38.604 208.441,36.152 210.567,38.800 208.780 C 40.951 207.328,46.000 203.522,46.000 203.352 C 46.000 203.086,45.867 203.173,42.200 205.833 M90.329 206.145 C 82.850 210.060,82.831 210.374,90.300 206.643 C 95.689 203.950,97.141 203.099,96.100 203.241 C 95.935 203.264,93.338 204.570,90.329 206.145 M202.611 205.672 C 202.448 206.922,202.400 208.182,202.504 208.472 C 202.608 208.762,202.826 207.978,202.989 206.728 C 203.152 205.478,203.200 204.218,203.096 203.928 C 202.992 203.638,202.774 204.422,202.611 205.672 M73.000 205.323 C 69.573 207.359,68.666 208.944,69.569 211.319 C 70.071 212.639,71.871 214.400,72.718 214.400 C 73.048 214.400,72.707 213.988,71.959 213.485 C 68.828 211.377,68.884 208.111,72.081 206.386 C 73.115 205.828,74.090 205.243,74.248 205.086 C 74.692 204.642,73.889 204.794,73.000 205.323 M189.815 207.923 C 189.648 209.751,189.606 211.339,189.719 211.453 C 189.995 211.728,190.540 205.813,190.302 205.132 C 190.200 204.839,189.981 206.095,189.815 207.923 M99.819 207.127 C 99.655 208.077,99.617 208.950,99.734 209.068 C 100.026 209.359,100.526 206.573,100.300 205.921 C 100.200 205.635,99.984 206.177,99.819 207.127 M187.300 207.800 C 187.297 208.900,187.425 210.970,187.586 212.400 L 187.878 215.000 187.904 212.400 C 187.918 210.970,187.790 208.900,187.618 207.800 L 187.307 205.800 187.300 207.800 M110.032 208.994 C 109.355 210.458,108.800 211.863,108.800 212.117 C 108.800 212.370,109.435 211.252,110.211 209.633 C 110.987 208.014,111.542 206.608,111.443 206.510 C 111.345 206.412,110.710 207.529,110.032 208.994 M364.522 208.274 C 364.669 208.512,366.946 210.265,369.582 212.170 C 372.218 214.076,374.469 215.788,374.585 215.975 C 374.777 216.287,370.184 220.149,365.512 223.604 C 364.474 224.372,363.619 225.150,363.612 225.334 C 363.606 225.518,364.545 224.915,365.700 223.994 C 366.855 223.074,369.455 221.034,371.477 219.460 C 375.870 216.044,375.827 216.233,372.720 213.990 C 371.356 213.006,369.511 211.655,368.620 210.989 C 365.611 208.739,364.254 207.841,364.522 208.274 M170.072 209.800 C 170.029 210.680,169.907 212.390,169.803 213.600 C 169.619 215.728,169.626 215.747,170.022 214.200 C 170.247 213.320,170.368 211.610,170.291 210.400 C 170.181 208.673,170.134 208.544,170.072 209.800 M18.800 211.824 C 13.479 215.740,13.662 215.238,16.700 217.594 C 17.965 218.574,22.849 222.430,27.553 226.162 L 36.106 232.948 34.553 234.337 C 33.699 235.101,32.190 236.463,31.200 237.364 C 30.210 238.264,28.050 240.169,26.400 241.597 C 24.750 243.026,23.130 244.465,22.799 244.797 C 22.469 245.129,20.849 246.568,19.199 247.995 C 15.843 250.898,12.978 253.630,14.195 252.765 C 14.633 252.454,15.395 251.840,15.890 251.400 C 16.384 250.960,21.187 246.730,26.563 242.000 C 37.169 232.668,36.773 233.104,35.566 232.096 C 35.108 231.713,34.343 231.065,33.866 230.655 C 33.390 230.245,32.370 229.436,31.600 228.858 C 30.830 228.280,27.133 225.355,23.384 222.359 C 19.635 219.363,16.170 216.663,15.684 216.359 C 14.414 215.566,14.442 215.526,18.400 212.622 C 21.467 210.370,22.399 209.568,21.900 209.608 C 21.845 209.612,20.450 210.610,18.800 211.824 M33.100 212.452 C 30.955 214.007,29.200 215.442,29.200 215.641 C 29.200 215.839,33.205 219.178,38.100 223.060 C 42.995 226.943,47.315 230.391,47.700 230.722 C 48.085 231.053,48.394 231.161,48.388 230.962 C 48.381 230.763,47.529 229.970,46.495 229.200 C 45.461 228.430,44.252 227.504,43.808 227.143 C 43.363 226.781,40.210 224.283,36.800 221.591 C 33.390 218.900,30.355 216.469,30.055 216.190 C 29.605 215.770,30.177 215.182,33.355 212.792 C 36.684 210.291,37.544 209.560,37.100 209.612 C 37.045 209.618,35.245 210.896,33.100 212.452 M99.029 210.629 C 98.881 211.215,98.851 211.784,98.961 211.894 C 99.071 212.004,99.281 211.615,99.429 211.029 C 99.576 210.442,99.606 209.873,99.496 209.763 C 99.386 209.653,99.176 210.042,99.029 210.629 M201.811 212.472 C 201.648 213.722,201.600 214.982,201.704 215.272 C 201.808 215.562,202.026 214.778,202.189 213.528 C 202.352 212.278,202.400 211.018,202.296 210.728 C 202.192 210.438,201.974 211.222,201.811 212.472 M168.097 212.400 C 168.095 213.390,168.225 215.370,168.386 216.800 L 168.678 219.400 168.709 216.800 C 168.727 215.370,168.597 213.390,168.420 212.400 L 168.100 210.600 168.097 212.400 M77.479 212.690 C 75.982 213.461,74.839 214.172,74.938 214.271 C 75.141 214.474,80.800 211.698,80.800 211.395 C 80.800 211.049,80.251 211.263,77.479 212.690 M97.150 215.795 C 96.355 217.668,95.783 219.200,95.878 219.200 C 96.184 219.200,98.854 213.162,98.723 212.768 C 98.653 212.560,97.946 213.922,97.150 215.795 M109.200 212.975 C 109.200 213.286,111.694 217.786,112.096 218.200 C 112.309 218.420,111.832 217.295,111.037 215.700 C 109.782 213.185,109.200 212.322,109.200 212.975 M189.267 214.800 C 189.145 216.997,188.753 218.168,188.351 217.534 C 188.143 217.207,188.010 217.890,188.006 219.300 C 188.003 220.565,188.167 221.600,188.372 221.600 C 188.934 221.600,189.666 217.509,189.495 215.326 C 189.378 213.832,189.327 213.714,189.267 214.800 M178.539 216.000 C 179.914 221.755,179.933 221.814,179.966 220.446 C 180.004 218.921,179.263 216.006,178.682 215.400 C 178.437 215.143,178.385 215.357,178.539 216.000 M334.368 217.100 C 333.900 218.145,333.015 220.080,332.401 221.400 C 331.787 222.720,330.837 224.790,330.289 226.000 C 329.741 227.210,328.724 229.437,328.028 230.949 C 327.333 232.461,326.833 233.766,326.916 233.849 C 326.999 233.933,328.117 231.706,329.399 228.900 C 330.681 226.095,332.440 222.270,333.307 220.400 C 335.164 216.395,335.645 215.200,335.400 215.200 C 335.301 215.200,334.837 216.055,334.368 217.100 M169.270 217.200 C 169.226 217.970,169.099 219.320,168.985 220.200 C 168.806 221.592,168.835 221.672,169.208 220.816 C 169.443 220.276,169.571 218.926,169.492 217.816 C 169.390 216.382,169.325 216.204,169.270 217.200 M201.011 219.272 C 200.848 220.522,200.800 221.782,200.904 222.072 C 201.008 222.362,201.226 221.578,201.389 220.328 C 201.552 219.078,201.600 217.818,201.496 217.528 C 201.392 217.238,201.174 218.022,201.011 219.272 M177.862 219.942 C 177.691 221.340,177.638 222.572,177.745 222.679 C 178.032 222.965,178.497 219.485,178.322 218.363 C 178.240 217.833,178.033 218.544,177.862 219.942 M112.400 218.966 C 112.400 219.294,115.698 225.409,116.086 225.800 C 116.304 226.020,115.652 224.535,114.637 222.500 C 113.045 219.307,112.400 218.288,112.400 218.966 M93.838 221.822 C 92.491 223.851,87.779 228.876,85.755 230.443 C 79.435 235.335,70.903 239.339,61.200 241.967 C 60.210 242.235,58.847 242.622,58.172 242.827 C 57.496 243.032,56.506 243.203,55.972 243.206 C 55.437 243.209,54.730 243.396,54.400 243.621 C 53.969 243.914,54.252 243.956,55.400 243.767 C 56.818 243.535,58.195 243.198,62.600 242.006 C 76.892 238.138,90.630 229.062,95.153 220.500 C 96.004 218.889,95.347 219.549,93.838 221.822 M180.269 224.600 C 180.396 225.920,180.568 227.075,180.650 227.167 C 180.941 227.490,180.716 224.186,180.379 223.200 C 180.158 222.552,180.120 223.045,180.269 224.600 M102.757 224.876 C 102.011 226.044,100.545 228.118,99.500 229.485 C 97.103 232.621,96.705 231.471,103.221 240.238 C 106.312 244.397,111.127 250.894,113.921 254.675 C 119.651 262.432,119.812 262.561,119.448 259.100 C 119.303 257.725,119.078 255.160,118.949 253.400 C 118.674 249.657,118.784 249.901,109.686 232.800 C 108.691 230.930,107.189 228.063,106.348 226.429 C 104.288 222.428,104.314 222.439,102.757 224.876 M177.070 225.757 C 176.911 227.053,176.861 228.194,176.960 228.293 C 177.226 228.559,177.703 225.018,177.519 224.147 C 177.432 223.736,177.230 224.460,177.070 225.757 M200.211 226.072 C 200.048 227.322,200.000 228.582,200.104 228.872 C 200.208 229.162,200.426 228.378,200.589 227.128 C 200.752 225.878,200.800 224.618,200.696 224.328 C 200.592 224.038,200.374 224.822,200.211 226.072 M358.497 229.210 C 354.215 232.648,353.550 233.363,354.352 233.667 C 354.546 233.740,356.121 235.077,357.852 236.637 C 359.583 238.197,362.763 241.032,364.919 242.937 L 368.838 246.400 367.196 246.400 C 366.293 246.400,364.349 246.230,362.877 246.023 C 361.405 245.816,358.670 245.444,356.800 245.196 C 354.930 244.949,352.500 244.559,351.400 244.330 C 348.138 243.651,342.675 242.361,341.600 242.015 C 341.050 241.838,339.790 241.461,338.800 241.177 C 337.810 240.893,336.829 240.512,336.620 240.330 C 336.411 240.149,335.916 240.000,335.520 240.000 C 334.713 240.000,334.613 239.344,335.190 237.826 C 335.736 236.391,335.386 236.545,334.621 238.078 C 333.735 239.854,334.689 240.528,340.200 242.020 C 347.517 244.001,351.592 244.883,356.600 245.570 C 358.360 245.812,361.094 246.187,362.677 246.405 C 368.210 247.165,369.993 246.846,368.280 245.401 C 366.992 244.316,361.302 239.263,359.208 237.344 C 358.214 236.433,356.815 235.202,356.100 234.609 C 354.300 233.113,354.394 232.877,357.876 230.181 C 361.272 227.551,363.510 225.630,363.197 225.612 C 363.085 225.605,360.970 227.225,358.497 229.210 M116.400 226.506 C 116.400 226.652,116.825 227.543,117.344 228.486 C 117.863 229.429,119.323 232.180,120.588 234.600 C 121.853 237.020,123.074 239.180,123.300 239.400 C 123.764 239.850,117.281 227.212,116.744 226.620 C 116.555 226.411,116.400 226.360,116.400 226.506 M180.863 228.200 C 180.854 228.640,180.995 229.720,181.177 230.600 L 181.508 232.200 181.514 230.800 C 181.517 230.030,181.376 228.950,181.200 228.400 C 180.941 227.591,180.877 227.553,180.863 228.200 M176.262 231.542 C 176.091 232.940,176.038 234.172,176.145 234.279 C 176.432 234.565,176.897 231.085,176.722 229.963 C 176.640 229.433,176.433 230.144,176.262 231.542 M199.411 232.872 C 199.248 234.122,199.200 235.382,199.304 235.672 C 199.408 235.962,199.626 235.178,199.789 233.928 C 199.952 232.678,200.000 231.418,199.896 231.128 C 199.792 230.838,199.574 231.622,199.411 232.872 M49.317 231.850 C 50.017 232.681,50.004 232.726,48.717 233.794 C 47.993 234.396,46.586 235.633,45.592 236.544 C 44.598 237.455,42.258 239.545,40.392 241.189 C 36.443 244.670,35.090 246.023,35.324 246.258 C 35.714 246.648,47.208 245.368,52.000 244.401 L 53.800 244.037 52.000 244.202 C 51.010 244.292,48.940 244.561,47.400 244.799 C 43.944 245.335,36.698 245.949,36.326 245.739 C 36.175 245.654,36.985 244.733,38.126 243.692 C 39.266 242.651,40.290 241.710,40.400 241.599 C 40.510 241.489,42.717 239.534,45.303 237.256 C 50.869 232.353,50.607 232.698,49.491 231.753 L 48.600 231.000 49.317 231.850 M181.663 233.000 C 181.654 233.440,181.795 234.520,181.977 235.400 L 182.308 237.000 182.314 235.600 C 182.317 234.830,182.176 233.750,182.000 233.200 C 181.741 232.391,181.677 232.353,181.663 233.000 M325.583 236.261 C 325.103 237.327,324.273 239.167,323.738 240.349 C 323.203 241.532,322.833 242.566,322.914 242.648 C 322.996 242.729,323.905 240.968,324.933 238.733 C 325.962 236.499,326.725 234.592,326.630 234.496 C 326.534 234.400,326.063 235.195,325.583 236.261 M182.440 238.092 C 182.386 239.579,182.833 239.648,191.600 239.514 C 198.971 239.400,199.000 239.396,199.053 238.494 C 199.098 237.724,199.079 237.710,198.924 238.402 C 198.748 239.192,198.507 239.213,190.889 239.108 L 183.035 239.000 182.758 238.000 L 182.480 237.000 182.440 238.092 M87.000 240.359 C 81.305 244.276,73.570 247.757,65.600 249.989 C 64.610 250.266,63.350 250.630,62.800 250.797 C 62.250 250.964,60.810 251.312,59.600 251.570 C 58.390 251.828,56.680 252.196,55.800 252.388 C 52.444 253.119,49.664 253.562,45.800 253.981 C 43.600 254.220,41.260 254.475,40.600 254.548 C 39.940 254.621,40.375 254.707,41.567 254.740 C 43.604 254.796,45.274 254.602,51.600 253.571 C 60.253 252.161,67.056 250.267,76.061 246.762 C 78.184 245.936,83.481 243.091,86.843 240.971 C 88.737 239.777,90.385 238.800,90.505 238.800 C 90.625 238.800,93.543 242.580,96.991 247.200 C 100.438 251.820,103.344 255.600,103.448 255.600 C 104.073 255.600,91.099 238.614,90.400 238.516 C 90.070 238.470,88.540 239.299,87.000 240.359 M123.606 240.066 C 123.603 240.212,124.322 241.696,125.205 243.362 C 126.088 245.029,126.970 247.069,127.165 247.896 C 127.473 249.203,127.525 249.255,127.560 248.291 C 127.582 247.681,126.888 245.791,126.017 244.091 C 124.366 240.866,123.617 239.615,123.606 240.066 M321.412 245.412 C 320.855 246.628,320.407 247.753,320.416 247.912 C 320.436 248.277,321.529 246.268,322.256 244.528 C 323.175 242.327,322.498 243.036,321.412 245.412 M329.664 249.019 C 329.003 250.470,329.119 250.808,329.829 249.500 C 330.567 248.139,330.512 248.138,334.953 249.604 C 339.353 251.057,340.407 251.368,343.000 251.979 C 344.100 252.238,345.630 252.608,346.400 252.801 C 348.698 253.377,355.227 254.439,361.000 255.177 C 369.762 256.296,390.764 256.033,391.098 254.800 C 391.236 254.290,391.201 254.286,390.863 254.770 C 390.328 255.538,367.192 255.627,361.800 254.881 C 350.809 253.362,349.657 253.160,343.000 251.582 C 340.396 250.965,339.337 250.652,334.953 249.204 C 330.524 247.742,330.250 247.732,329.664 249.019 M319.867 248.667 C 319.720 248.813,319.611 249.308,319.625 249.767 C 319.649 250.533,319.682 250.523,320.034 249.642 C 320.426 248.663,320.344 248.189,319.867 248.667 M127.630 251.833 C 127.646 253.135,127.810 255.010,127.995 256.000 C 128.225 257.230,128.262 256.534,128.113 253.800 C 127.870 249.344,127.584 248.180,127.630 251.833 M328.559 251.362 C 328.441 251.671,328.407 252.526,328.483 253.262 C 328.606 254.435,328.647 254.366,328.815 252.700 C 329.011 250.752,328.939 250.374,328.559 251.362 M319.003 256.474 C 318.851 258.743,318.791 261.230,318.871 262.000 C 318.950 262.770,319.164 261.002,319.345 258.071 C 319.527 255.140,319.587 252.653,319.478 252.545 C 319.369 252.436,319.156 254.204,319.003 256.474 M14.600 254.848 C 16.152 255.374,33.870 255.752,36.990 255.326 C 38.596 255.107,35.844 255.000,28.590 255.000 C 22.655 255.000,16.810 254.874,15.600 254.721 C 13.849 254.499,13.645 254.525,14.600 254.848 M327.898 258.160 C 327.734 259.899,327.626 262.689,327.657 264.360 C 327.707 266.989,327.762 266.724,328.064 262.400 C 328.465 256.638,328.341 253.456,327.898 258.160 M104.340 257.116 C 104.833 257.809,105.444 258.504,105.697 258.660 C 105.950 258.817,105.754 258.377,105.260 257.684 C 104.767 256.991,104.156 256.296,103.903 256.140 C 103.650 255.983,103.846 256.423,104.340 257.116 M128.423 260.233 C 128.436 261.535,128.604 263.320,128.796 264.200 C 129.039 265.312,129.078 264.641,128.922 262.000 C 128.668 257.684,128.389 256.694,128.423 260.233 M106.740 260.316 C 107.233 261.009,107.844 261.704,108.097 261.860 C 108.350 262.017,108.154 261.577,107.660 260.884 C 107.167 260.191,106.556 259.496,106.303 259.340 C 106.050 259.183,106.246 259.623,106.740 260.316 M109.268 263.752 C 109.781 264.543,110.347 265.192,110.527 265.195 C 110.899 265.201,109.382 262.959,108.749 262.569 C 108.522 262.428,108.755 262.960,109.268 263.752 M318.203 269.274 C 318.051 271.543,317.993 274.030,318.074 274.800 C 318.155 275.570,318.372 273.806,318.557 270.879 C 318.741 267.953,318.799 265.466,318.686 265.353 C 318.573 265.240,318.356 267.004,318.203 269.274 M111.668 266.952 C 112.181 267.743,112.747 268.392,112.927 268.395 C 113.299 268.401,111.782 266.159,111.149 265.769 C 110.922 265.628,111.155 266.160,111.668 266.952 M129.230 268.233 C 129.246 269.535,129.410 271.410,129.595 272.400 C 129.825 273.630,129.862 272.934,129.713 270.200 C 129.470 265.744,129.184 264.580,129.230 268.233 M327.098 270.960 C 326.934 272.699,326.826 275.579,326.858 277.360 C 326.910 280.243,326.954 280.026,327.261 275.400 C 327.658 269.423,327.541 266.252,327.098 270.960 M114.068 270.152 C 114.581 270.943,115.147 271.592,115.327 271.595 C 115.699 271.601,114.182 269.359,113.549 268.969 C 113.322 268.828,113.555 269.360,114.068 270.152 M115.877 272.500 C 119.863 277.812,120.957 279.519,121.272 280.922 C 121.667 282.682,122.234 283.600,122.925 283.600 C 123.161 283.600,123.069 283.375,122.721 283.100 C 122.373 282.825,121.973 281.935,121.831 281.122 C 121.602 279.815,116.367 272.000,115.720 272.000 C 115.600 272.000,115.671 272.225,115.877 272.500 M130.064 275.556 C 130.003 276.847,130.788 277.955,131.789 277.987 C 132.003 277.994,131.789 277.728,131.314 277.395 C 130.822 277.050,130.381 276.232,130.289 275.495 L 130.128 274.200 130.064 275.556 M315.862 277.647 C 315.016 278.093,314.410 278.544,314.515 278.649 C 314.675 278.809,317.439 277.454,317.967 276.957 C 318.413 276.537,317.234 276.923,315.862 277.647 M132.400 278.192 C 132.400 278.345,134.792 279.600,135.085 279.600 C 135.174 279.600,135.147 279.438,135.024 279.239 C 134.798 278.874,132.400 277.916,132.400 278.192 M311.900 279.877 C 310.856 280.458,310.069 281.003,310.153 281.087 C 310.321 281.254,313.173 279.741,313.780 279.162 C 314.399 278.572,313.913 278.757,311.900 279.877 M135.600 279.769 C 135.600 279.980,151.158 287.608,151.529 287.579 C 151.852 287.553,136.334 279.652,135.900 279.621 C 135.735 279.610,135.600 279.676,135.600 279.769 M307.461 282.246 C 306.394 282.801,305.608 283.342,305.714 283.447 C 305.911 283.644,308.700 282.211,309.380 281.562 C 309.960 281.009,309.575 281.146,307.461 282.246 M325.450 282.500 C 324.156 283.737,324.494 283.972,325.953 282.850 C 326.477 282.447,326.837 281.956,326.753 281.758 C 326.669 281.561,326.082 281.895,325.450 282.500 M124.400 284.356 C 124.950 284.811,125.670 285.185,126.000 285.189 C 126.526 285.194,126.206 284.981,123.901 283.790 C 123.626 283.647,123.850 283.902,124.400 284.356 M303.061 284.646 C 301.994 285.201,301.208 285.742,301.314 285.847 C 301.511 286.044,304.300 284.611,304.980 283.962 C 305.560 283.409,305.175 283.546,303.061 284.646 M323.200 283.951 C 322.870 284.130,321.012 285.131,319.070 286.175 C 317.129 287.220,315.640 288.173,315.761 288.294 C 315.882 288.415,316.210 288.334,316.490 288.113 C 316.771 287.892,318.440 286.943,320.200 286.004 C 323.075 284.469,324.483 283.578,323.980 283.612 C 323.881 283.619,323.530 283.771,323.200 283.951 M298.661 287.046 C 297.594 287.601,296.802 288.135,296.900 288.233 C 297.087 288.421,300.800 286.452,300.800 286.166 C 300.800 285.932,300.810 285.928,298.661 287.046 M133.269 288.602 C 133.686 289.020,148.914 296.420,149.058 296.275 C 149.208 296.126,133.751 288.400,133.302 288.400 C 133.172 288.400,133.158 288.491,133.269 288.602 M294.261 289.446 C 293.194 290.001,292.402 290.535,292.500 290.633 C 292.687 290.821,296.400 288.852,296.400 288.566 C 296.400 288.332,296.410 288.328,294.261 289.446 M155.200 289.373 C 155.200 289.469,156.705 290.279,158.545 291.173 C 162.238 292.969,163.745 294.063,167.600 297.746 C 173.400 303.287,187.396 316.305,189.199 317.836 C 190.859 319.246,191.311 319.440,192.463 319.238 L 193.800 319.005 192.205 318.872 C 190.927 318.767,190.170 318.328,188.399 316.670 C 187.182 315.532,183.581 312.170,180.396 309.200 C 177.210 306.230,173.433 302.708,172.002 301.373 C 170.571 300.038,168.050 297.653,166.400 296.072 C 163.366 293.166,155.200 288.282,155.200 289.373 M311.461 290.246 C 310.394 290.801,309.602 291.335,309.700 291.433 C 309.887 291.621,313.600 289.652,313.600 289.366 C 313.600 289.132,313.610 289.128,311.461 290.246 M289.861 291.846 C 288.794 292.401,288.002 292.935,288.100 293.033 C 288.287 293.221,292.000 291.252,292.000 290.966 C 292.000 290.732,292.010 290.728,289.861 291.846 M307.061 292.646 C 305.994 293.201,305.202 293.735,305.300 293.833 C 305.487 294.021,309.200 292.052,309.200 291.766 C 309.200 291.532,309.210 291.528,307.061 292.646 M284.960 295.300 C 283.853 296.455,280.800 299.830,278.174 302.800 C 275.549 305.770,273.309 308.290,273.195 308.400 C 273.082 308.510,271.641 310.128,269.994 311.996 C 263.613 319.232,263.949 318.959,261.549 318.849 C 258.993 318.733,259.069 318.992,261.691 319.335 C 263.905 319.624,263.643 319.849,271.200 311.200 C 273.030 309.106,277.218 304.373,278.626 302.808 C 279.520 301.813,280.958 300.190,281.820 299.200 C 282.682 298.210,284.331 296.455,285.485 295.300 C 286.639 294.145,287.446 293.200,287.278 293.200 C 287.110 293.200,286.067 294.145,284.960 295.300 M302.661 295.046 C 301.594 295.601,300.802 296.135,300.900 296.233 C 301.087 296.421,304.800 294.452,304.800 294.166 C 304.800 293.932,304.810 293.928,302.661 295.046 M298.076 297.483 C 297.128 298.035,296.426 298.559,296.516 298.649 C 296.692 298.826,300.400 296.838,300.400 296.566 C 300.400 296.246,299.785 296.489,298.076 297.483 M152.800 298.188 C 152.800 298.292,153.835 298.846,155.100 299.419 C 156.365 299.992,158.165 301.205,159.100 302.114 C 160.035 303.023,160.800 303.621,160.800 303.444 C 160.800 302.800,157.747 300.341,155.511 299.184 C 153.208 297.992,152.800 297.842,152.800 298.188 M293.785 299.823 C 292.120 300.796,289.975 302.940,284.806 308.804 C 283.159 310.672,281.719 312.290,281.606 312.400 C 281.401 312.599,276.486 318.144,274.200 320.755 C 273.540 321.509,272.144 323.064,271.098 324.211 C 270.052 325.358,268.818 326.815,268.355 327.448 C 267.121 329.139,270.670 325.330,276.794 318.392 C 278.441 316.526,279.881 314.910,279.994 314.800 C 280.108 314.690,281.548 313.070,283.194 311.200 C 284.841 309.330,286.282 307.710,286.395 307.600 C 286.508 307.490,287.760 306.077,289.177 304.460 C 290.688 302.736,292.631 301.025,293.876 300.322 C 295.854 299.206,296.423 298.744,295.700 298.840 C 295.535 298.862,294.673 299.304,293.785 299.823 M161.200 303.733 C 161.200 304.032,163.189 305.929,177.358 319.141 C 188.737 329.751,187.905 329.240,192.376 328.364 C 193.599 328.125,196.850 327.497,199.600 326.970 C 202.350 326.442,203.790 326.085,202.800 326.177 C 201.131 326.332,199.332 326.633,194.200 327.620 C 193.100 327.831,191.210 328.106,190.000 328.230 L 187.800 328.457 185.369 326.128 C 184.032 324.848,181.868 322.810,180.561 321.600 C 177.441 318.713,166.882 308.839,163.702 305.837 C 162.326 304.537,161.200 303.590,161.200 303.733 M217.400 314.400 L 216.600 314.744 217.400 314.725 C 217.840 314.714,218.740 314.568,219.400 314.400 L 220.600 314.095 219.400 314.075 C 218.740 314.065,217.840 314.211,217.400 314.400 M224.200 314.423 C 225.080 314.605,226.340 314.743,227.000 314.730 L 228.200 314.705 227.000 314.400 C 226.340 314.232,225.080 314.094,224.200 314.093 L 222.600 314.092 224.200 314.423 M212.800 315.200 L 211.800 315.520 212.800 315.513 C 213.350 315.509,214.340 315.368,215.000 315.200 L 216.200 314.895 215.000 314.887 C 214.340 314.883,213.350 315.024,212.800 315.200 M230.600 315.223 C 231.480 315.405,232.650 315.546,233.200 315.537 L 234.200 315.520 233.200 315.200 C 232.650 315.024,231.480 314.883,230.600 314.886 L 229.000 314.892 230.600 315.223 M208.400 316.000 L 207.400 316.320 208.400 316.313 C 208.950 316.309,209.940 316.168,210.600 316.000 L 211.800 315.695 210.600 315.687 C 209.940 315.683,208.950 315.824,208.400 316.000 M236.600 316.023 C 237.480 316.205,238.740 316.343,239.400 316.330 L 240.600 316.305 239.400 316.000 C 238.740 315.832,237.480 315.694,236.600 315.693 L 235.000 315.692 236.600 316.023 M203.800 316.800 C 202.706 317.270,204.533 317.270,206.000 316.800 C 206.975 316.488,206.970 316.479,205.800 316.468 C 205.140 316.462,204.240 316.611,203.800 316.800 M242.800 316.820 C 245.243 317.255,247.130 317.240,245.400 316.800 C 244.740 316.632,243.480 316.496,242.600 316.497 L 241.000 316.500 242.800 316.820 M199.400 317.600 C 198.306 318.070,200.133 318.070,201.600 317.600 C 202.575 317.288,202.570 317.279,201.400 317.268 C 200.740 317.262,199.840 317.411,199.400 317.600 M248.800 317.620 C 249.790 317.797,251.050 317.936,251.600 317.930 L 252.600 317.920 251.600 317.600 C 251.050 317.424,249.790 317.284,248.800 317.290 L 247.000 317.300 248.800 317.620 M195.000 318.400 L 194.200 318.744 195.000 318.725 C 195.440 318.714,196.340 318.568,197.000 318.400 L 198.200 318.095 197.000 318.075 C 196.340 318.065,195.440 318.211,195.000 318.400 M255.000 318.423 C 255.880 318.605,257.140 318.743,257.800 318.730 L 259.000 318.705 257.800 318.400 C 257.140 318.232,255.880 318.094,255.000 318.093 L 253.400 318.092 255.000 318.423 M218.715 323.128 C 218.338 323.278,219.958 323.409,222.315 323.419 C 224.672 323.430,226.150 323.313,225.600 323.159 C 224.306 322.798,219.601 322.776,218.715 323.128 M214.200 324.020 C 213.661 324.265,214.054 324.305,215.400 324.141 C 216.500 324.007,217.475 323.831,217.567 323.749 C 217.917 323.436,214.961 323.674,214.200 324.020 M227.233 323.751 C 227.325 323.834,228.660 324.002,230.200 324.125 C 231.966 324.265,232.557 324.227,231.800 324.021 C 230.584 323.690,226.927 323.474,227.233 323.751 M209.800 324.820 C 209.261 325.065,209.654 325.105,211.000 324.941 C 212.100 324.807,213.075 324.631,213.167 324.549 C 213.517 324.236,210.561 324.474,209.800 324.820 M233.233 324.551 C 233.325 324.634,234.660 324.802,236.200 324.925 C 237.966 325.065,238.557 325.027,237.800 324.821 C 236.584 324.490,232.927 324.274,233.233 324.551 M205.400 325.620 C 204.861 325.865,205.254 325.905,206.600 325.741 C 207.700 325.607,208.675 325.431,208.767 325.349 C 209.117 325.036,206.161 325.274,205.400 325.620 M239.233 325.351 C 239.325 325.434,240.660 325.605,242.200 325.732 C 243.968 325.878,244.631 325.837,244.000 325.621 C 243.021 325.287,238.904 325.053,239.233 325.351 M245.233 326.148 C 245.325 326.229,246.750 326.396,248.400 326.518 C 250.231 326.653,250.932 326.614,250.200 326.417 C 248.992 326.093,244.923 325.872,245.233 326.148 M251.633 326.951 C 251.725 327.034,253.060 327.202,254.600 327.325 C 256.366 327.465,256.957 327.427,256.200 327.221 C 254.984 326.890,251.327 326.674,251.633 326.951 M257.633 327.751 C 257.725 327.834,259.060 328.005,260.600 328.132 C 262.368 328.278,263.031 328.237,262.400 328.021 C 261.421 327.687,257.304 327.453,257.633 327.751 M264.505 328.687 C 265.114 328.779,266.014 328.777,266.505 328.682 C 266.997 328.587,266.500 328.511,265.400 328.514 C 264.300 328.517,263.897 328.595,264.505 328.687 " stroke="none" fill="#d93b7a" fill-rule="evenodd"></path></g></svg>