<svg width="550" height="550" viewBox="0 0 550 550" fill="none" xmlns="http://www.w3.org/2000/svg">
<g clip-path="url(#clip0)">
<path d="M301.726 543.931C450.71 529.227 559.519 397.003 544.758 248.599C529.997 100.195 397.255 -8.19005 248.272 6.51353C99.2886 21.2171 -9.52016 153.442 5.24086 301.845C20.0019 450.249 152.743 558.634 301.726 543.931Z" fill="black"/>
<path d="M275 497.79C398.402 497.79 498.438 398.144 498.438 275.222C498.438 152.301 398.402 52.6543 275 52.6543C151.599 52.6543 51.5625 152.301 51.5625 275.222C51.5625 398.144 151.599 497.79 275 497.79Z" fill="white"/>
<path d="M216.632 242.22L187.516 324H173.016L154.108 269.828L134.968 324H120.468L91.4676 242.22H109.796L128.472 298.712L148.308 242.22H160.952L180.092 299.292L199.464 242.22H216.632ZM230.347 242.22H286.723V256.256H247.979V275.396H284.403V289.432H247.979V309.964H286.723V324H230.347V242.22ZM322.516 256.952H296.88V242.22H366.248V256.952H340.612V324H322.516V256.952ZM452.444 242.22V324H434.696V289.664H396.996V324H379.248V242.22H396.996V275.28H434.696V242.22H452.444Z" fill="black"/>
<circle cx="274.5" cy="275.5" r="222.5" stroke="#ED1E79" stroke-width="36"/>
</g>
<defs>
<clipPath id="clip0">
<rect width="550" height="550" fill="white"/>
</clipPath>
</defs>
</svg>
