<?xml version="1.0" standalone="no"?>
<!DOCTYPE svg PUBLIC "-//W3C//DTD SVG 20010904//EN"
 "http://www.w3.org/TR/2001/REC-SVG-20010904/DTD/svg10.dtd">
<svg version="1.0" xmlns="http://www.w3.org/2000/svg"
 width="696.000000pt" height="564.000000pt" viewBox="0 0 696.000000 564.000000"
 preserveAspectRatio="xMidYMid meet">

<g transform="translate(0.000000,564.000000) scale(0.100000,-0.100000)"
fill="#000000" stroke="none">
<path d="M3231 3828 l-354 -701 -61 6 c-93 9 -211 35 -318 72 l-98 33 0 -33
c0 -30 4 -34 63 -58 132 -55 365 -101 497 -98 252 6 469 54 697 155 119 53
197 78 328 106 55 12 114 25 131 29 18 5 94 5 170 0 193 -13 351 -43 459 -89
22 -9 53 -20 68 -24 28 -7 28 -6 25 31 l-3 37 -95 32 c-159 54 -341 84 -507
84 l-82 0 -282 558 c-155 306 -282 558 -283 559 -1 1 -161 -314 -355 -699z
m605 48 c130 -258 232 -472 227 -476 -4 -4 -38 -12 -75 -19 -106 -18 -234 -58
-355 -111 -200 -87 -378 -133 -571 -146 -89 -6 -103 -5 -100 8 1 8 142 290
312 627 219 436 311 609 318 600 5 -8 115 -225 244 -483z"/>
<path d="M4070 2190 c-149 -21 -417 -98 -519 -149 -51 -26 -211 -76 -306 -96
-100 -21 -311 -27 -430 -14 -108 13 -262 51 -320 79 -23 11 -54 20 -69 20 -25
0 -27 -3 -24 -32 3 -31 7 -33 95 -65 119 -42 266 -71 401 -79 l107 -7 290
-572 290 -573 158 312 c87 171 249 491 359 711 110 220 202 402 203 403 2 2
51 -1 110 -7 117 -13 270 -49 364 -86 l61 -24 0 34 c0 31 -4 36 -47 55 -131
59 -295 90 -498 95 -88 2 -189 0 -225 -5z m-152 -677 c-171 -340 -317 -626
-324 -637 -11 -16 -42 40 -259 474 -189 378 -244 495 -233 501 7 5 28 9 47 9
60 0 255 49 362 91 315 123 508 175 671 178 l46 1 -310 -617z"/>
</g>
</svg>
