<svg id="svg" version="1.1" xmlns="http://www.w3.org/2000/svg" xmlns:xlink="http://www.w3.org/1999/xlink" width="400" height="400" viewBox="0, 0, 400,400"><g id="svgg"><path id="path0" d="M84.000 115.750 C 84.000 116.052,85.186 118.347,86.636 120.850 C 88.086 123.352,89.822 126.390,90.493 127.600 C 91.164 128.810,92.048 130.278,92.457 130.862 C 92.865 131.446,93.200 132.028,93.200 132.155 C 93.200 132.282,93.920 133.562,94.800 135.000 C 95.680 136.438,96.400 137.710,96.400 137.826 C 96.400 137.943,97.030 139.023,97.800 140.227 C 98.570 141.431,99.200 142.499,99.200 142.601 C 99.200 142.703,99.920 143.962,100.800 145.400 C 101.680 146.838,102.400 148.089,102.400 148.180 C 102.400 148.271,103.750 150.626,105.400 153.413 C 107.050 156.200,108.400 158.561,108.400 158.660 C 108.400 158.758,109.030 159.823,109.800 161.027 C 110.570 162.231,111.200 163.279,111.200 163.357 C 111.200 163.523,116.201 172.312,116.800 173.200 C 117.023 173.530,117.328 174.070,117.478 174.400 C 117.628 174.730,118.347 175.936,119.076 177.081 C 119.804 178.225,120.400 179.242,120.400 179.340 C 120.400 179.439,121.750 181.800,123.400 184.587 C 125.050 187.374,126.400 189.718,126.400 189.795 C 126.400 189.872,127.499 191.794,128.842 194.067 C 130.185 196.340,131.835 199.190,132.508 200.400 C 134.548 204.064,139.662 212.903,140.662 214.492 C 141.178 215.313,141.600 216.059,141.600 216.152 C 141.600 216.244,142.950 218.600,144.600 221.387 C 146.250 224.174,147.600 226.541,147.600 226.647 C 147.600 226.752,148.230 227.823,149.000 229.027 C 149.770 230.231,150.400 231.299,150.400 231.401 C 150.400 231.503,151.120 232.762,152.000 234.200 C 152.880 235.638,153.600 236.910,153.600 237.026 C 153.600 237.143,154.230 238.223,155.000 239.427 C 155.770 240.631,156.400 241.679,156.400 241.757 C 156.400 241.923,161.401 250.712,162.000 251.600 C 162.223 251.930,162.528 252.470,162.678 252.800 C 162.828 253.130,163.547 254.336,164.276 255.481 C 165.004 256.625,165.600 257.634,165.600 257.723 C 165.600 257.934,169.157 264.114,170.533 266.293 C 171.120 267.223,171.600 268.075,171.600 268.185 C 171.600 268.296,172.320 269.562,173.200 271.000 C 174.080 272.438,174.800 273.697,174.800 273.799 C 174.800 273.901,175.430 274.969,176.200 276.173 C 176.970 277.377,177.600 278.464,177.600 278.589 C 177.600 278.714,178.022 279.487,178.537 280.308 C 179.052 281.129,180.072 282.880,180.802 284.200 C 183.053 288.267,183.427 288.913,185.140 291.707 C 186.053 293.196,186.800 294.483,186.800 294.567 C 186.800 294.650,188.150 297.000,189.800 299.787 C 191.450 302.574,192.800 304.920,192.800 305.000 C 192.800 305.080,194.150 307.426,195.800 310.213 C 197.450 313.000,198.800 315.421,198.800 315.592 C 198.800 317.591,200.414 316.760,201.843 314.025 C 202.253 313.241,203.176 311.664,203.894 310.519 C 204.612 309.375,205.200 308.363,205.200 308.270 C 205.200 308.177,206.750 305.424,208.644 302.151 C 210.538 298.878,212.646 295.210,213.328 294.000 C 214.009 292.790,214.710 291.740,214.884 291.667 C 215.058 291.593,215.200 291.360,215.200 291.148 C 215.200 290.830,217.312 287.014,219.484 283.404 C 219.751 282.962,220.098 282.330,220.255 282.000 C 220.413 281.670,220.980 280.697,221.515 279.837 C 222.051 278.978,222.892 277.538,223.384 276.637 C 224.169 275.199,225.818 272.309,228.352 267.924 C 228.773 267.196,230.774 263.720,232.799 260.200 C 234.823 256.680,236.618 253.620,236.787 253.400 C 236.956 253.180,237.687 251.920,238.413 250.600 C 241.077 245.751,241.761 244.563,243.067 242.522 C 243.800 241.376,244.400 240.343,244.400 240.226 C 244.400 240.110,245.120 238.838,246.000 237.400 C 246.880 235.962,247.600 234.703,247.600 234.601 C 247.600 234.499,248.230 233.431,249.000 232.227 C 249.770 231.023,250.400 229.961,250.400 229.867 C 250.400 229.773,251.686 227.470,253.258 224.748 C 254.830 222.027,257.350 217.663,258.858 215.052 C 260.366 212.440,261.600 210.250,261.600 210.183 C 261.600 210.117,262.500 208.612,263.600 206.839 C 264.700 205.065,265.600 203.512,265.600 203.388 C 265.600 203.263,266.230 202.177,267.000 200.973 C 267.770 199.769,268.400 198.721,268.400 198.642 C 268.400 198.462,275.408 186.304,276.662 184.308 C 277.178 183.487,277.600 182.714,277.600 182.589 C 277.600 182.464,278.230 181.377,279.000 180.173 C 279.770 178.969,280.400 177.886,280.400 177.766 C 280.400 177.645,281.570 175.564,283.000 173.140 C 284.430 170.716,285.600 168.675,285.600 168.605 C 285.600 168.534,287.184 165.803,289.120 162.535 C 291.056 159.267,292.762 156.325,292.912 155.997 C 293.061 155.669,293.636 154.680,294.189 153.800 C 294.742 152.920,295.319 151.930,295.472 151.600 C 295.722 151.060,301.990 140.159,305.437 134.271 C 306.187 132.991,306.800 131.880,306.800 131.803 C 306.800 131.726,307.700 130.212,308.800 128.439 C 309.900 126.665,310.800 125.136,310.800 125.040 C 310.800 124.945,311.970 122.884,313.400 120.460 C 314.830 118.036,316.000 115.860,316.000 115.624 C 316.000 115.322,306.481 115.225,283.700 115.298 L 251.400 115.400 251.400 126.800 L 251.400 138.200 263.386 138.306 C 269.978 138.364,275.524 138.564,275.710 138.750 C 275.896 138.936,274.675 141.470,272.997 144.380 C 271.318 147.290,269.525 150.420,269.014 151.336 C 267.959 153.221,263.390 161.086,262.818 162.000 C 262.612 162.330,261.963 163.500,261.377 164.600 C 260.790 165.700,260.061 166.884,259.755 167.231 C 259.450 167.579,259.200 167.961,259.200 168.081 C 259.200 168.200,257.652 170.976,255.761 174.249 C 253.869 177.522,251.771 181.190,251.098 182.400 C 250.425 183.610,249.452 185.271,248.937 186.092 C 248.422 186.913,248.000 187.680,248.000 187.796 C 248.000 187.913,247.100 189.445,246.000 191.200 C 244.900 192.955,244.000 194.457,244.000 194.538 C 244.000 194.619,243.075 196.286,241.945 198.243 C 240.815 200.199,239.534 202.430,239.098 203.200 C 238.663 203.970,237.089 206.670,235.600 209.200 C 234.111 211.730,232.490 214.520,231.997 215.400 C 228.916 220.905,222.150 232.665,218.041 239.661 C 217.608 240.398,216.771 241.900,216.180 243.000 C 215.590 244.100,214.933 245.217,214.720 245.482 C 214.507 245.747,214.017 246.557,213.632 247.282 C 213.247 248.007,212.185 249.894,211.272 251.476 C 210.360 253.058,209.271 254.948,208.852 255.676 C 208.434 256.404,206.901 259.048,205.446 261.550 C 203.991 264.053,202.800 266.166,202.800 266.244 C 202.800 266.782,200.239 270.400,199.858 270.400 C 199.598 270.400,198.803 269.365,198.092 268.100 C 195.110 262.795,194.186 261.186,191.756 257.067 C 190.350 254.683,189.200 252.655,189.200 252.559 C 189.200 252.463,188.778 251.713,188.262 250.892 C 187.162 249.144,181.920 240.064,180.010 236.600 C 179.282 235.280,178.352 233.722,177.943 233.138 C 177.535 232.554,177.200 231.972,177.200 231.845 C 177.200 231.718,176.480 230.438,175.600 229.000 C 174.720 227.562,174.000 226.290,174.000 226.174 C 174.000 226.057,173.370 224.977,172.600 223.773 C 171.830 222.569,171.200 221.494,171.200 221.384 C 171.200 221.274,170.779 220.513,170.264 219.692 C 169.749 218.871,168.868 217.390,168.307 216.400 C 167.262 214.554,160.438 202.711,155.546 194.252 C 154.036 191.640,152.800 189.439,152.800 189.360 C 152.800 189.280,152.170 188.231,151.400 187.027 C 150.630 185.823,150.000 184.758,150.000 184.660 C 150.000 184.561,148.650 182.200,147.000 179.413 C 145.350 176.626,144.000 174.282,144.000 174.206 C 144.000 174.129,143.166 172.656,142.147 170.933 C 139.151 165.867,134.800 158.314,134.800 158.179 C 134.800 158.111,133.450 155.774,131.800 152.987 C 130.150 150.200,128.800 147.844,128.800 147.752 C 128.800 147.659,128.317 146.823,127.727 145.892 C 125.733 142.749,124.000 139.526,124.000 138.962 C 124.000 138.492,125.993 138.400,136.200 138.400 L 148.400 138.400 148.400 126.800 L 148.400 115.200 116.200 115.200 C 89.160 115.200,84.000 115.288,84.000 115.750 M172.800 126.800 L 172.800 138.406 199.900 138.303 L 227.000 138.200 227.000 126.800 L 227.000 115.400 199.900 115.297 L 172.800 115.194 172.800 126.800 " stroke="none" fill="#fafafa" fill-rule="evenodd"></path><path id="path1" d="M0.000 200.000 L 0.000 400.000 200.000 400.000 L 400.000 400.000 400.000 200.000 L 400.000 0.000 200.000 0.000 L 0.000 0.000 0.000 200.000 M149.106 126.552 C 149.182 134.741,149.080 138.263,148.757 138.652 C 148.390 139.094,145.990 139.200,136.367 139.200 L 124.432 139.200 127.416 144.241 C 129.057 147.013,130.400 149.356,130.400 149.448 C 130.400 149.541,130.860 150.344,131.421 151.234 C 132.533 152.995,133.486 154.655,135.250 157.902 C 135.878 159.057,136.844 160.719,137.396 161.594 C 137.948 162.468,138.400 163.286,138.400 163.411 C 138.400 163.536,138.994 164.575,139.720 165.719 C 140.446 166.864,141.749 169.060,142.615 170.600 C 143.481 172.140,144.410 173.760,144.679 174.200 C 144.948 174.640,145.300 175.270,145.460 175.600 C 145.620 175.930,146.347 177.136,147.076 178.281 C 147.804 179.425,148.400 180.434,148.400 180.523 C 148.400 180.612,149.330 182.286,150.466 184.243 C 151.603 186.199,152.933 188.520,153.421 189.400 C 153.910 190.280,155.200 192.530,156.287 194.400 C 157.374 196.270,158.723 198.610,159.285 199.600 C 159.847 200.590,161.498 203.448,162.954 205.950 C 164.409 208.453,165.600 210.570,165.600 210.655 C 165.600 210.740,166.500 212.245,167.600 214.000 C 168.700 215.755,169.600 217.280,169.600 217.389 C 169.600 217.497,170.320 218.762,171.200 220.200 C 172.080 221.638,172.800 222.897,172.800 222.999 C 172.800 223.101,173.430 224.169,174.200 225.373 C 174.970 226.577,175.600 227.646,175.600 227.748 C 175.600 227.851,176.699 229.794,178.041 232.067 C 180.516 236.256,181.221 237.493,183.587 241.800 C 184.313 243.120,185.043 244.380,185.210 244.600 C 185.378 244.820,186.552 246.800,187.820 249.000 C 189.088 251.200,190.648 253.900,191.285 255.000 C 191.922 256.100,192.545 257.315,192.669 257.700 C 192.792 258.085,193.052 258.400,193.247 258.400 C 193.441 258.400,193.600 258.557,193.600 258.750 C 193.600 258.942,194.770 261.124,196.200 263.600 C 197.630 266.076,198.800 268.181,198.800 268.279 C 198.800 268.575,200.028 269.706,200.176 269.548 C 200.252 269.466,200.666 268.770,201.096 268.000 C 201.525 267.230,202.481 265.520,203.218 264.200 C 203.956 262.880,204.658 261.710,204.780 261.600 C 204.901 261.490,205.338 260.770,205.751 260.000 C 207.082 257.520,208.499 255.011,208.800 254.600 C 208.961 254.380,209.537 253.390,210.081 252.400 C 212.757 247.523,213.828 245.659,215.059 243.734 C 215.797 242.582,216.400 241.531,216.400 241.400 C 216.400 241.269,217.044 240.154,217.832 238.923 C 218.619 237.693,219.426 236.306,219.625 235.843 C 219.824 235.379,220.438 234.280,220.990 233.400 C 221.543 232.520,222.114 231.552,222.260 231.249 C 222.565 230.615,225.464 225.589,228.461 220.500 C 229.595 218.575,230.802 216.415,231.144 215.700 C 231.487 214.985,231.909 214.400,232.083 214.400 C 232.258 214.400,232.400 214.212,232.400 213.981 C 232.400 213.636,234.444 209.926,236.684 206.204 C 236.951 205.762,237.296 205.130,237.452 204.800 C 237.608 204.470,238.293 203.300,238.974 202.200 C 239.655 201.100,240.565 199.525,240.997 198.700 C 241.429 197.875,241.921 197.200,242.091 197.200 C 242.261 197.200,242.400 196.959,242.400 196.664 C 242.400 196.369,243.300 194.630,244.400 192.800 C 245.500 190.970,246.400 189.434,246.400 189.387 C 246.400 189.340,247.595 187.253,249.055 184.750 C 250.516 182.248,251.984 179.660,252.319 179.000 C 252.653 178.340,253.232 177.350,253.606 176.800 C 253.980 176.250,254.732 174.990,255.277 174.000 C 255.822 173.010,256.864 171.120,257.591 169.800 C 258.318 168.480,259.222 166.950,259.600 166.400 C 260.195 165.534,261.449 163.344,263.495 159.600 C 263.796 159.050,264.485 157.880,265.028 157.000 C 265.570 156.120,266.198 155.040,266.424 154.600 C 266.650 154.160,267.054 153.440,267.322 153.000 C 267.591 152.560,268.514 150.940,269.374 149.400 C 270.234 147.860,271.242 146.150,271.615 145.600 C 271.988 145.050,272.955 143.388,273.765 141.906 L 275.237 139.212 263.119 139.106 L 251.000 139.000 251.000 127.000 L 251.000 115.000 283.900 114.898 C 310.809 114.814,316.800 114.891,316.800 115.319 C 316.800 115.608,316.260 116.695,315.600 117.736 C 314.940 118.776,314.400 119.689,314.400 119.763 C 314.400 119.838,313.209 121.947,311.754 124.450 C 310.298 126.952,308.647 129.810,308.085 130.800 C 307.523 131.790,306.170 134.130,305.078 136.000 C 303.986 137.870,302.819 139.940,302.483 140.600 C 302.148 141.260,301.568 142.250,301.194 142.800 C 300.820 143.350,300.068 144.610,299.523 145.600 C 298.978 146.590,297.936 148.480,297.209 149.800 C 296.482 151.120,295.581 152.650,295.208 153.200 C 294.835 153.750,294.409 154.470,294.260 154.800 C 294.111 155.130,293.447 156.300,292.783 157.400 C 292.120 158.500,291.401 159.760,291.184 160.200 C 290.968 160.640,290.340 161.720,289.789 162.600 C 289.237 163.480,288.602 164.560,288.376 165.000 C 288.150 165.440,287.746 166.160,287.478 166.600 C 287.209 167.040,286.286 168.660,285.426 170.200 C 284.566 171.740,283.559 173.450,283.188 174.000 C 282.818 174.550,282.066 175.810,281.519 176.800 C 278.882 181.569,277.822 183.417,277.620 183.600 C 277.499 183.710,277.040 184.520,276.600 185.400 C 276.160 186.280,274.945 188.392,273.900 190.093 C 272.855 191.794,272.000 193.288,272.000 193.412 C 272.000 193.537,271.370 194.623,270.600 195.827 C 269.830 197.031,269.200 198.099,269.200 198.201 C 269.200 198.303,268.480 199.562,267.600 201.000 C 266.720 202.438,266.000 203.710,266.000 203.826 C 266.000 203.943,265.370 205.023,264.600 206.227 C 263.830 207.431,263.200 208.505,263.200 208.615 C 263.200 208.725,262.480 210.000,261.600 211.448 C 260.720 212.897,260.000 214.157,260.000 214.249 C 260.000 214.341,259.530 215.161,258.955 216.071 C 258.381 216.981,257.457 218.552,256.902 219.563 C 254.424 224.077,254.030 224.769,253.045 226.329 C 252.470 227.239,252.000 228.059,252.000 228.152 C 252.000 228.244,250.685 230.542,249.079 233.259 C 247.472 235.977,246.030 238.470,245.876 238.800 C 245.721 239.130,245.143 240.120,244.590 241.000 C 244.038 241.880,243.410 242.960,243.194 243.400 C 242.978 243.840,242.620 244.470,242.399 244.800 C 241.385 246.308,236.800 254.539,236.800 254.850 C 236.800 255.043,236.665 255.201,236.500 255.203 C 236.335 255.205,236.009 255.610,235.777 256.103 C 235.085 257.569,232.700 261.784,232.440 262.000 C 232.308 262.110,231.843 262.920,231.406 263.800 C 230.969 264.680,230.052 266.300,229.367 267.400 C 228.681 268.500,227.673 270.210,227.126 271.200 C 226.579 272.190,225.536 274.080,224.809 275.400 C 224.082 276.720,223.181 278.250,222.808 278.800 C 222.435 279.350,222.004 280.070,221.849 280.400 C 221.695 280.730,221.348 281.360,221.079 281.800 C 220.810 282.240,219.881 283.860,219.015 285.400 C 218.149 286.940,216.846 289.136,216.120 290.281 C 215.394 291.425,214.800 292.434,214.800 292.523 C 214.800 292.612,213.873 294.286,212.739 296.243 C 211.606 298.199,209.496 301.870,208.052 304.400 C 206.607 306.930,205.284 309.060,205.112 309.133 C 204.941 309.207,204.800 309.449,204.800 309.673 C 204.800 309.896,203.900 311.608,202.800 313.477 C 201.700 315.346,200.800 317.038,200.800 317.238 C 200.800 317.879,199.407 317.623,198.960 316.900 C 198.722 316.515,197.933 315.120,197.207 313.800 C 196.481 312.480,195.552 310.922,195.143 310.338 C 194.735 309.754,194.400 309.172,194.400 309.045 C 194.400 308.918,193.680 307.638,192.800 306.200 C 191.920 304.762,191.200 303.490,191.200 303.374 C 191.200 303.257,190.604 302.225,189.876 301.081 C 189.147 299.936,188.426 298.730,188.272 298.400 C 188.119 298.070,187.664 297.260,187.262 296.600 C 186.860 295.940,185.937 294.320,185.209 293.000 C 184.482 291.680,183.581 290.150,183.208 289.600 C 182.834 289.050,181.915 287.430,181.164 286.000 C 180.414 284.570,179.697 283.310,179.571 283.200 C 179.445 283.090,179.226 282.730,179.084 282.400 C 178.942 282.070,178.282 280.900,177.618 279.800 C 176.954 278.700,176.284 277.530,176.130 277.200 C 175.975 276.870,175.253 275.664,174.524 274.519 C 173.796 273.375,173.200 272.343,173.200 272.226 C 173.200 272.110,172.480 270.838,171.600 269.400 C 170.720 267.962,170.000 266.703,170.000 266.601 C 170.000 266.499,169.370 265.431,168.600 264.227 C 167.830 263.023,167.200 261.936,167.200 261.811 C 167.200 261.686,166.779 260.913,166.264 260.092 C 165.339 258.619,164.016 256.311,162.551 253.618 C 162.138 252.858,161.575 251.990,161.300 251.690 C 161.025 251.389,160.800 250.998,160.800 250.820 C 160.800 250.510,158.360 246.225,157.713 245.400 C 157.541 245.180,156.985 244.190,156.477 243.200 C 155.969 242.210,155.032 240.550,154.395 239.511 C 153.758 238.472,152.659 236.582,151.953 235.311 C 151.247 234.040,149.619 231.228,148.335 229.063 C 147.051 226.897,146.000 225.048,146.000 224.953 C 146.000 224.858,145.280 223.640,144.400 222.247 C 143.520 220.854,142.800 219.601,142.800 219.465 C 142.800 219.328,142.170 218.231,141.400 217.027 C 140.630 215.823,140.000 214.731,140.000 214.600 C 140.000 214.469,139.403 213.425,138.674 212.281 C 137.945 211.136,137.072 209.660,136.735 209.000 C 135.599 206.781,134.602 205.002,134.380 204.800 C 134.258 204.690,133.556 203.520,132.818 202.200 C 131.293 199.470,131.070 199.081,127.446 192.850 C 125.991 190.347,124.800 188.235,124.800 188.157 C 124.800 188.079,124.170 187.031,123.400 185.827 C 122.630 184.623,122.000 183.536,122.000 183.411 C 122.000 183.286,121.579 182.513,121.064 181.692 C 120.098 180.154,118.666 177.649,117.351 175.200 C 116.938 174.430,116.510 173.710,116.400 173.600 C 116.290 173.490,115.913 172.860,115.562 172.200 C 115.210 171.540,114.026 169.470,112.930 167.600 C 108.567 160.155,106.800 157.078,106.800 156.923 C 106.800 156.834,106.170 155.777,105.400 154.573 C 104.630 153.369,104.000 152.301,104.000 152.199 C 104.000 152.097,103.280 150.838,102.400 149.400 C 101.520 147.962,100.800 146.702,100.800 146.600 C 100.800 146.498,100.080 145.238,99.200 143.800 C 98.320 142.362,97.600 141.103,97.600 141.001 C 97.600 140.899,96.970 139.831,96.200 138.627 C 95.430 137.423,94.800 136.336,94.800 136.211 C 94.800 136.086,94.379 135.313,93.864 134.492 C 92.898 132.954,91.466 130.449,90.151 128.000 C 89.738 127.230,89.301 126.510,89.180 126.400 C 89.058 126.290,88.356 125.120,87.618 123.800 C 86.311 121.460,85.999 120.912,83.872 117.223 C 83.309 116.245,82.939 115.299,83.049 115.120 C 83.160 114.942,98.044 114.841,116.125 114.898 L 149.000 115.000 149.106 126.552 M227.757 115.433 C 228.187 116.553,228.030 137.596,227.586 138.426 C 227.172 139.199,174.587 139.707,172.633 138.957 C 172.075 138.743,172.000 137.292,172.000 126.757 L 172.000 114.800 199.757 114.800 C 224.699 114.800,227.539 114.864,227.757 115.433 " stroke="none" fill="#040404" fill-rule="evenodd"></path><path id="path2" d="M148.494 126.700 L 148.400 138.400 136.200 138.400 C 124.390 138.400,124.000 138.425,124.000 139.176 C 124.000 139.603,124.163 140.054,124.363 140.177 C 124.562 140.300,124.631 140.041,124.516 139.601 C 124.310 138.813,124.501 138.800,136.366 138.800 C 145.710 138.800,148.469 138.686,148.619 138.295 C 148.726 138.017,148.762 132.662,148.700 126.395 L 148.587 115.000 148.494 126.700 M172.591 126.900 L 172.600 138.600 199.900 138.703 C 214.915 138.759,227.200 138.669,227.200 138.503 C 227.200 138.336,214.963 138.247,200.006 138.305 L 172.812 138.411 172.697 126.805 L 172.582 115.200 172.591 126.900 M307.414 130.635 C 307.041 131.204,306.805 131.738,306.889 131.822 C 306.973 131.907,307.358 131.441,307.744 130.788 C 308.606 129.328,308.348 129.209,307.414 130.635 M251.200 138.500 C 251.200 138.665,256.709 138.800,263.443 138.800 C 274.937 138.800,275.669 138.843,275.419 139.500 C 275.205 140.061,275.252 140.101,275.656 139.700 C 275.982 139.377,276.023 139.063,275.772 138.812 C 275.314 138.354,251.199 138.048,251.200 138.500 M297.246 148.404 C 296.752 149.282,296.433 150.000,296.535 150.000 C 296.806 150.000,298.459 147.126,298.287 146.954 C 298.208 146.874,297.739 147.527,297.246 148.404 M268.046 152.404 C 267.552 153.282,267.233 154.000,267.335 154.000 C 267.606 154.000,269.259 151.126,269.087 150.954 C 269.008 150.874,268.539 151.527,268.046 152.404 M260.039 166.224 C 259.577 167.007,259.380 167.536,259.602 167.399 C 260.036 167.131,261.334 164.800,261.050 164.800 C 260.956 164.800,260.501 165.441,260.039 166.224 M286.423 167.050 C 285.953 167.848,285.633 168.566,285.713 168.646 C 285.792 168.726,286.261 168.073,286.754 167.196 C 287.875 165.202,287.588 165.077,286.423 167.050 M246.846 189.204 C 246.352 190.082,246.033 190.800,246.135 190.800 C 246.406 190.800,248.059 187.926,247.887 187.754 C 247.808 187.674,247.339 188.327,246.846 189.204 M128.815 194.600 C 128.817 194.820,129.186 195.450,129.636 196.000 C 130.179 196.664,130.315 196.731,130.040 196.200 C 129.366 194.895,128.812 194.172,128.815 194.600 M262.214 209.035 C 261.841 209.604,261.605 210.138,261.689 210.222 C 261.773 210.307,262.158 209.841,262.544 209.188 C 263.406 207.728,263.148 207.609,262.214 209.035 M225.853 225.700 L 225.133 227.000 225.958 226.000 C 226.689 225.113,227.014 224.400,226.686 224.400 C 226.624 224.400,226.249 224.985,225.853 225.700 M155.160 240.200 C 155.834 241.505,156.388 242.228,156.385 241.800 C 156.383 241.580,156.014 240.950,155.564 240.400 C 155.021 239.736,154.885 239.669,155.160 240.200 M235.200 256.000 C 234.751 256.880,234.474 257.600,234.584 257.600 C 234.694 257.600,235.151 256.880,235.600 256.000 C 236.049 255.120,236.326 254.400,236.216 254.400 C 236.106 254.400,235.649 255.120,235.200 256.000 M201.646 267.604 C 201.152 268.482,200.833 269.200,200.935 269.200 C 201.206 269.200,202.859 266.326,202.687 266.154 C 202.608 266.074,202.139 266.727,201.646 267.604 M189.800 300.400 C 190.141 301.060,190.511 301.600,190.621 301.600 C 190.731 301.600,190.541 301.060,190.200 300.400 C 189.859 299.740,189.489 299.200,189.379 299.200 C 189.269 299.200,189.459 299.740,189.800 300.400 M200.459 316.281 C 200.135 316.860,199.980 316.881,199.430 316.425 C 198.873 315.962,198.817 315.979,199.034 316.543 C 199.378 317.442,200.282 317.369,200.800 316.400 C 201.319 315.430,200.998 315.318,200.459 316.281 " stroke="none" fill="#848484" fill-rule="evenodd"></path><path id="path3" d="M99.700 115.100 C 108.665 115.160,123.335 115.160,132.300 115.100 C 141.265 115.040,133.930 114.991,116.000 114.991 C 98.070 114.991,90.735 115.040,99.700 115.100 M186.300 115.100 C 193.835 115.161,206.165 115.161,213.700 115.100 C 221.235 115.039,215.070 114.989,200.000 114.989 C 184.930 114.989,178.765 115.039,186.300 115.100 M267.300 115.100 C 276.265 115.160,290.935 115.160,299.900 115.100 C 308.865 115.040,301.530 114.991,283.600 114.991 C 265.670 114.991,258.335 115.040,267.300 115.100 M172.176 126.800 C 172.176 133.070,172.232 135.635,172.299 132.500 C 172.367 129.365,172.367 124.235,172.299 121.100 C 172.232 117.965,172.176 120.530,172.176 126.800 M227.377 127.000 C 227.377 133.380,227.432 135.934,227.499 132.676 C 227.567 129.417,227.566 124.197,227.499 121.076 C 227.431 117.954,227.376 120.620,227.377 127.000 " stroke="none" fill="#747474" fill-rule="evenodd"></path><path id="path4" d="M148.800 126.720 L 148.999 138.600 149.106 127.026 C 149.165 120.661,149.075 115.314,148.906 115.146 C 148.738 114.977,148.690 120.185,148.800 126.720 M227.504 123.537 C 227.673 137.612,227.834 138.975,227.913 127.000 C 227.954 120.840,227.856 115.591,227.694 115.337 C 227.532 115.082,227.447 118.772,227.504 123.537 M250.991 127.000 L 251.000 139.000 263.111 139.106 L 275.222 139.212 274.789 140.106 C 274.373 140.966,274.380 140.970,274.978 140.224 C 275.320 139.796,275.600 139.301,275.600 139.124 C 275.600 138.946,270.113 138.800,263.406 138.800 L 251.212 138.800 251.097 126.900 L 250.982 115.000 250.991 127.000 M200.000 138.800 L 172.600 139.008 199.876 139.104 C 217.733 139.167,227.238 139.062,227.400 138.800 C 227.536 138.580,227.592 138.443,227.524 138.496 C 227.456 138.549,215.070 138.685,200.000 138.800 M130.300 139.099 C 133.655 139.166,139.145 139.166,142.500 139.099 C 145.855 139.032,143.110 138.978,136.400 138.978 C 129.690 138.978,126.945 139.032,130.300 139.099 M296.046 151.204 C 295.552 152.082,295.233 152.800,295.335 152.800 C 295.606 152.800,297.259 149.926,297.087 149.754 C 297.008 149.674,296.539 150.327,296.046 151.204 M258.423 168.250 C 257.953 169.048,257.633 169.766,257.713 169.846 C 257.792 169.926,258.261 169.273,258.754 168.396 C 259.875 166.402,259.588 166.277,258.423 168.250 M275.053 187.700 L 274.333 189.000 275.158 188.000 C 275.889 187.113,276.214 186.400,275.886 186.400 C 275.824 186.400,275.449 186.985,275.053 187.700 M253.853 224.500 L 253.133 225.800 253.958 224.800 C 254.689 223.913,255.014 223.200,254.686 223.200 C 254.624 223.200,254.249 223.785,253.853 224.500 M229.853 266.100 L 229.133 267.400 229.958 266.400 C 230.689 265.513,231.014 264.800,230.686 264.800 C 230.624 264.800,230.249 265.385,229.853 266.100 M182.000 287.600 C 182.449 288.480,182.906 289.200,183.016 289.200 C 183.126 289.200,182.849 288.480,182.400 287.600 C 181.951 286.720,181.494 286.000,181.384 286.000 C 181.274 286.000,181.551 286.720,182.000 287.600 " stroke="none" fill="#494949" fill-rule="evenodd"></path></g></svg>